<svg width="120" height="120" viewBox="0 0 120 120" fill="none" xmlns="http://www.w3.org/2000/svg">
<path d="M116 76V92C116 94.1217 115.157 96.1566 113.657 97.6569C112.157 99.1571 110.122 100 108 100H12C9.87827 100 7.84344 99.1571 6.34315 97.6569C4.84285 96.1566 4 94.1217 4 92V76H116ZM120 72H0V92C0 95.1826 1.26428 98.2348 3.51472 100.485C5.76515 102.736 8.8174 104 12 104H108C111.183 104 114.235 102.736 116.485 100.485C118.736 98.2348 120 95.1826 120 92V72Z" fill="#393E46"/>
<path d="M108 4C110.122 4 112.157 4.84285 113.657 6.34315C115.157 7.84344 116 9.87827 116 12V72H4V12C4 9.87827 4.84285 7.84344 6.34315 6.34315C7.84344 4.84285 9.87827 4 12 4H108ZM108 0H12C8.8174 0 5.76515 1.26428 3.51472 3.51472C1.26428 5.76515 0 8.8174 0 12L0 76H120V12C120 8.8174 118.736 5.76515 116.485 3.51472C114.235 1.26428 111.183 0 108 0V0Z" fill="#393E46"/>
<path d="M20 84C20.7911 84 21.5645 84.2346 22.2223 84.6741C22.8801 85.1136 23.3928 85.7384 23.6955 86.4693C23.9983 87.2002 24.0775 88.0044 23.9231 88.7804C23.7688 89.5563 23.3878 90.269 22.8284 90.8284C22.269 91.3878 21.5563 91.7688 20.7804 91.9231C20.0044 92.0775 19.2002 91.9983 18.4693 91.6955C17.7384 91.3928 17.1136 90.8801 16.6741 90.2223C16.2346 89.5645 16 88.7911 16 88C16 86.9391 16.4214 85.9217 17.1716 85.1716C17.9217 84.4214 18.9391 84 20 84ZM20 80C17.8783 80 15.8434 80.8429 14.3431 82.3431C12.8429 83.8434 12 85.8783 12 88C12 90.1217 12.8429 92.1566 14.3431 93.6569C15.8434 95.1571 17.8783 96 20 96C22.1217 96 24.1566 95.1571 25.6569 93.6569C27.1571 92.1566 28 90.1217 28 88C28 85.8783 27.1571 83.8434 25.6569 82.3431C24.1566 80.8429 22.1217 80 20 80Z" fill="#FFF4E0"/>
<path d="M100 84C100.791 84 101.564 84.2346 102.222 84.6741C102.88 85.1136 103.393 85.7384 103.696 86.4693C103.998 87.2002 104.077 88.0044 103.923 88.7804C103.769 89.5563 103.388 90.269 102.828 90.8284C102.269 91.3878 101.556 91.7688 100.78 91.9231C100.004 92.0775 99.2002 91.9983 98.4693 91.6955C97.7384 91.3928 97.1136 90.8801 96.6741 90.2223C96.2346 89.5645 96 88.7911 96 88C96 86.9391 96.4214 85.9217 97.1716 85.1716C97.9217 84.4214 98.9391 84 100 84ZM100 80C97.8783 80 95.8434 80.8429 94.3431 82.3431C92.8429 83.8434 92 85.8783 92 88C92 90.1217 92.8429 92.1566 94.3431 93.6569C95.8434 95.1571 97.8783 96 100 96C102.122 96 104.157 95.1571 105.657 93.6569C107.157 92.1566 108 90.1217 108 88C108 85.8783 107.157 83.8434 105.657 82.3431C104.157 80.8429 102.122 80 100 80Z" fill="#FFF4E0"/>
<path d="M88 102H114V114C114 115.591 113.368 117.117 112.243 118.243C111.117 119.368 109.591 120 108 120H94C92.4087 120 90.8826 119.368 89.7574 118.243C88.6321 117.117 88 115.591 88 114V102Z" fill="#393E46"/>
<path d="M6 102H32V114C32 115.591 31.3679 117.117 30.2426 118.243C29.1174 119.368 27.5913 120 26 120H12C10.4087 120 8.88258 119.368 7.75736 118.243C6.63214 117.117 6 115.591 6 114V102Z" fill="#393E46"/>
<path d="M86 90H34C33.4696 90 32.9609 90.2107 32.5858 90.5858C32.2107 90.9609 32 91.4696 32 92C32 92.5304 32.2107 93.0391 32.5858 93.4142C32.9609 93.7893 33.4696 94 34 94H86C86.5304 94 87.0391 93.7893 87.4142 93.4142C87.7893 93.0391 88 92.5304 88 92C88 91.4696 87.7893 90.9609 87.4142 90.5858C87.0391 90.2107 86.5304 90 86 90Z" fill="#393E46"/>
<path d="M86 82H34C33.4696 82 32.9609 82.2107 32.5858 82.5858C32.2107 82.9609 32 83.4696 32 84C32 84.5304 32.2107 85.0391 32.5858 85.4142C32.9609 85.7893 33.4696 86 34 86H86C86.5304 86 87.0391 85.7893 87.4142 85.4142C87.7893 85.0391 88 84.5304 88 84C88 83.4696 87.7893 82.9609 87.4142 82.5858C87.0391 82.2107 86.5304 82 86 82Z" fill="#393E46"/>
<path d="M98.4575 54.4627C99.4113 54.0525 99.8538 52.9508 99.4458 52.0021C99.0378 51.0533 97.9338 50.6167 96.98 51.0269L81.5833 57.6482C80.6295 58.0584 80.187 59.16 80.595 60.1088C81.003 61.0575 82.107 61.4941 83.0609 61.0839L98.4575 54.4627Z" fill="#393E46"/>
<path d="M107.153 50.7078C108.107 50.2976 108.549 49.1959 108.141 48.2472C107.733 47.2984 106.629 46.8618 105.675 47.272L102.24 48.7496C101.286 49.1598 100.843 50.2614 101.251 51.2102C101.659 52.1589 102.763 52.5955 103.717 52.1853L107.153 50.7078Z" fill="#393E46"/>
<path d="M86.0508 66.0315C85.097 66.4417 84.6545 67.5433 85.0625 68.4921C85.4705 69.4408 86.5745 69.8774 87.5283 69.4672L102.925 62.846C103.879 62.4358 104.321 61.3341 103.913 60.3854C103.505 59.4366 102.401 59 101.447 59.4102L86.0508 66.0315Z" fill="#393E46"/>
<path d="M77.3355 69.7903C76.3816 70.2005 75.9392 71.3021 76.3472 72.2509C76.7552 73.1996 77.8592 73.6362 78.813 73.226L82.2488 71.7485C83.2026 71.3383 83.6451 70.2366 83.2371 69.2879C82.8291 68.3391 81.7251 67.9025 80.7712 68.3127L77.3355 69.7903Z" fill="#393E46"/>
<path d="M120 16H0V20H120V16Z" fill="#393E46"/>
<path d="M86 8H34C33.4696 8 32.9609 8.21071 32.5858 8.58579C32.2107 8.96086 32 9.46957 32 10C32 10.5304 32.2107 11.0391 32.5858 11.4142C32.9609 11.7893 33.4696 12 34 12H86C86.5304 12 87.0391 11.7893 87.4142 11.4142C87.7893 11.0391 88 10.5304 88 10C88 9.46957 87.7893 8.96086 87.4142 8.58579C87.0391 8.21071 86.5304 8 86 8Z" fill="#FFF4E0"/>
<path d="M102 8H98C97.4696 8 96.9609 8.21071 96.5858 8.58579C96.2107 8.96086 96 9.46957 96 10C96 10.5304 96.2107 11.0391 96.5858 11.4142C96.9609 11.7893 97.4696 12 98 12H102C102.53 12 103.039 11.7893 103.414 11.4142C103.789 11.0391 104 10.5304 104 10C104 9.46957 103.789 8.96086 103.414 8.58579C103.039 8.21071 102.53 8 102 8Z" fill="#FFF4E0"/>
<path d="M22 8H18C17.4696 8 16.9609 8.21071 16.5858 8.58579C16.2107 8.96086 16 9.46957 16 10C16 10.5304 16.2107 11.0391 16.5858 11.4142C16.9609 11.7893 17.4696 12 18 12H22C22.5304 12 23.0391 11.7893 23.4142 11.4142C23.7893 11.0391 24 10.5304 24 10C24 9.46957 23.7893 8.96086 23.4142 8.58579C23.0391 8.21071 22.5304 8 22 8Z" fill="#FFF4E0"/>
</svg>
