<svg width="120" height="120" viewBox="0 0 120 120" fill="none"
  xmlns="http://www.w3.org/2000/svg">
  <path d="M34 92V100H10V92H34ZM38 88H6V104H38V88Z" fill="#00ADB5"/>
  <path d="M102 71V77H62V71H102ZM106 67H58V81H106V67Z" fill="#00ADB5"/>
  <path d="M116 5C115.2 2.2 112.4 0 109.4 0C106.4 0 103.8 2 102.8 4.8H101.6C98.6 4.8 96.2 7.4 96.2 10.4C96 13.4 98.4 16 101.4 16H114.4C117.6 16 120 13.4 120 10.4C120 7.8 118.4 5.6 116 5Z" fill="#00ADB5"/>
  <path d="M30 19C29.2 16.2 26.4 14 23.4 14C20.4 14 17.8 16 16.8 18.8H15.4C12.4 18.8 10 21.4 10 24.4C10 27.4 12.4 30 15.4 30H28.4C31.4 30 33.8 27.4 33.8 24.4C34 21.8 32.4 19.6 30 19Z" fill="#00ADB5"/>
  <path d="M120 116H0V120H120V116Z" fill="#393E46"/>
  <path d="M10 116L10 76H6L6 116H10Z" fill="#393E46"/>
  <path d="M74 92V116H62V92H74ZM78 88H58V120H78V88Z" fill="#393E46"/>
  <path d="M100 92V100H88V92H100ZM104 88H84V104H104V88Z" fill="#393E46"/>
  <path d="M102 44V57.2L96 53.8V44H102ZM106 40H92V56L106 64V40Z" fill="#393E46"/>
  <path d="M84 58H58V62H84V58Z" fill="#393E46"/>
  <path d="M52 116L52 30H48L48 116H52Z" fill="#393E46"/>
  <path d="M114 116L114 66H110L110 116H114Z" fill="#393E46"/>
  <path d="M118.608 66.8904L46.384 25.1904L44.384 28.6544L116.608 70.3544L118.608 66.8904Z" fill="#393E46"/>
  <path d="M2.89214 82.1724L51.5526 48.1006L49.2582 44.8238L0.597736 78.8956L2.89214 82.1724Z" fill="#393E46"/>
</svg>
