<svg width="50" height="50" viewBox="0 0 50 50" fill="none" xmlns="http://www.w3.org/2000/svg">
<g clip-path="url(#clip0_26_4941)">
<path d="M14.1667 38.3327V41.666H4.16667V38.3327H14.1667ZM15.8333 36.666H2.5V43.3327H15.8333V36.666Z" fill="#00ADB5"/>
<path d="M42.5003 29.5837V32.0837H25.8337V29.5837H42.5003ZM44.167 27.917H24.167V33.7503H44.167V27.917Z" fill="#00ADB5"/>
<path d="M48.3335 2.08333C48.0001 0.916667 46.8335 0 45.5835 0C44.3335 0 43.2501 0.833333 42.8335 2H42.3335C41.0835 2 40.0835 3.08333 40.0835 4.33333C40.0001 5.58333 41.0001 6.66667 42.2501 6.66667H47.6668C49.0001 6.66667 50.0001 5.58333 50.0001 4.33333C50.0001 3.25 49.3335 2.33333 48.3335 2.08333Z" fill="#00ADB5"/>
<path d="M12.4998 7.91683C12.1665 6.75016 10.9998 5.8335 9.74984 5.8335C8.49984 5.8335 7.4165 6.66683 6.99984 7.8335H6.4165C5.1665 7.8335 4.1665 8.91683 4.1665 10.1668C4.1665 11.4168 5.1665 12.5002 6.4165 12.5002H11.8332C13.0832 12.5002 14.0832 11.4168 14.0832 10.1668C14.1665 9.0835 13.4998 8.16683 12.4998 7.91683Z" fill="#00ADB5"/>
<path d="M50 48.3335H0V50.0002H50V48.3335Z" fill="white"/>
<path d="M4.16667 48.3327V31.666H2.5V48.3327H4.16667Z" fill="white"/>
<path d="M30.8337 38.3327V48.3327H25.8337V38.3327H30.8337ZM32.5003 36.666H24.167V49.9993H32.5003V36.666Z" fill="white"/>
<path d="M41.6667 38.3327V41.666H36.6667V38.3327H41.6667ZM43.3333 36.666H35V43.3327H43.3333V36.666Z" fill="white"/>
<path d="M42.4997 18.3327V23.8327L39.9997 22.416V18.3327H42.4997ZM44.1663 16.666H38.333V23.3327L44.1663 26.666V16.666Z" fill="white"/>
<path d="M34.9998 24.1665H24.1665V25.8332H34.9998V24.1665Z" fill="white"/>
<path d="M21.6667 48.3338V12.5005H20V48.3338H21.6667Z" fill="white"/>
<path d="M47.4997 48.3338V27.5005H45.833V48.3338H47.4997Z" fill="white"/>
<path d="M49.4203 27.8701L19.327 10.4951L18.4937 11.9385L48.587 29.3135L49.4203 27.8701Z" fill="white"/>
<path d="M1.20503 34.2387L21.4802 20.0421L20.5242 18.6768L0.249023 32.8733L1.20503 34.2387Z" fill="white"/>
</g>
<defs>
<clipPath id="clip0_26_4941">
<rect width="50" height="50" fill="white"/>
</clipPath>
</defs>
</svg>
