<svg width="50" height="50" viewBox="0 0 50 50" fill="none" xmlns="http://www.w3.org/2000/svg">
<g clip-path="url(#clip0_23_1249)">
<path d="M14.1667 38.3332V41.6665H4.16667V38.3332H14.1667ZM15.8333 36.6665H2.5V43.3332H15.8333V36.6665Z" fill="white"/>
<path d="M42.5 29.5832V32.0832H25.8333V29.5832H42.5ZM44.1666 27.9165H24.1666V33.7498H44.1666V27.9165Z" fill="white"/>
<path d="M48.3333 2.08333C48 0.916667 46.8333 0 45.5833 0C44.3333 0 43.25 0.833333 42.8334 2H42.3333C41.0833 2 40.0833 3.08333 40.0833 4.33333C40 5.58333 41 6.66667 42.25 6.66667H47.6667C49 6.66667 50 5.58333 50 4.33333C50 3.25 49.3333 2.33333 48.3333 2.08333Z" fill="white"/>
<path d="M12.5001 7.91683C12.1667 6.75016 11.0001 5.8335 9.75008 5.8335C8.50008 5.8335 7.41675 6.66683 7.00008 7.8335H6.41675C5.16675 7.8335 4.16675 8.91683 4.16675 10.1668C4.16675 11.4168 5.16675 12.5002 6.41675 12.5002H11.8334C13.0834 12.5002 14.0834 11.4168 14.0834 10.1668C14.1667 9.0835 13.5001 8.16683 12.5001 7.91683Z" fill="white"/>
<path d="M50 48.3335H0V50.0002H50V48.3335Z" fill="white"/>
<path d="M4.16667 48.3332V31.6665H2.5V48.3332H4.16667Z" fill="white"/>
<path d="M30.8333 38.3332V48.3332H25.8333V38.3332H30.8333ZM32.5 36.6665H24.1666V49.9998H32.5V36.6665Z" fill="white"/>
<path d="M41.6667 38.3332V41.6665H36.6667V38.3332H41.6667ZM43.3333 36.6665H35V43.3332H43.3333V36.6665Z" fill="white"/>
<path d="M42.5 18.3332V23.8332L40 22.4165V18.3332H42.5ZM44.1667 16.6665H38.3334V23.3332L44.1667 26.6665V16.6665Z" fill="white"/>
<path d="M35 24.1665H24.1666V25.8332H35V24.1665Z" fill="white"/>
<path d="M21.6667 48.3333V12.5H20V48.3333H21.6667Z" fill="white"/>
<path d="M47.5 48.3333V27.5H45.8334V48.3333H47.5Z" fill="white"/>
<path d="M49.4201 27.8706L19.3267 10.4956L18.4934 11.9389L48.5867 29.3139L49.4201 27.8706Z" fill="white"/>
<path d="M1.20503 34.2387L21.4802 20.0421L20.5242 18.6768L0.249023 32.8733L1.20503 34.2387Z" fill="white"/>
</g>
<defs>
<clipPath id="clip0_23_1249">
<rect width="50" height="50" fill="white"/>
</clipPath>
</defs>
</svg>
