<svg width="50" height="50" viewBox="0 0 50 50" fill="none" xmlns="http://www.w3.org/2000/svg">
<path d="M2.91667 19.9998H5L5.83333 14.1665H2.91667C2.14379 14.1687 1.40321 14.4767 0.856701 15.0232C0.310196 15.5697 0.0021988 16.3103 0 17.0832H0C0.00437517 17.8554 0.313071 18.5947 0.859106 19.1407C1.40514 19.6868 2.14447 19.9955 2.91667 19.9998Z" fill="white"/>
<path d="M47.0832 19.9998H44.9998L44.1665 14.1665H47.0832C47.8567 14.1665 48.5986 14.4738 49.1456 15.0208C49.6925 15.5678 49.9998 16.3096 49.9998 17.0832C49.9976 17.856 49.6896 18.5966 49.1431 19.1431C48.5966 19.6896 47.856 19.9976 47.0832 19.9998Z" fill="white"/>
<path d="M36.85 1.66668C37.5712 1.66668 38.273 1.9006 38.85 2.33334C39.427 2.76608 39.8481 3.37429 40.05 4.06668L44.6917 21.875H5.30833L9.94167 4.08334C10.141 3.38648 10.562 2.77358 11.141 2.3375C11.7199 1.90141 12.4252 1.66591 13.15 1.66668H36.85ZM36.85 8.92291e-06H13.15C12.0621 -0.00204572 11.0032 0.350787 10.1339 1.00498C9.26467 1.65918 8.63251 2.57903 8.33333 3.62501L3.125 23.5417H46.875L41.6667 3.62501C41.3675 2.57903 40.7353 1.65918 39.8661 1.00498C38.9968 0.350787 37.9379 -0.00204572 36.85 8.92291e-06Z" fill="white"/>
<path d="M45 23.5417C45.8841 23.5417 46.7319 23.8929 47.357 24.518C47.9821 25.1431 48.3333 25.9909 48.3333 26.875V36.6667C48.3333 37.5507 47.9821 38.3986 47.357 39.0237C46.7319 39.6488 45.8841 40 45 40H5C4.11594 40 3.2681 39.6488 2.64298 39.0237C2.01786 38.3986 1.66667 37.5507 1.66667 36.6667V26.875C1.66667 25.9909 2.01786 25.1431 2.64298 24.518C3.2681 23.8929 4.11594 23.5417 5 23.5417H45ZM45 21.875H5C3.67392 21.875 2.40215 22.4018 1.46447 23.3395C0.526784 24.2771 0 25.5489 0 26.875L0 36.6667C0 37.9928 0.526784 39.2645 1.46447 40.2022C2.40215 41.1399 3.67392 41.6667 5 41.6667H45C46.3261 41.6667 47.5979 41.1399 48.5355 40.2022C49.4732 39.2645 50 37.9928 50 36.6667V26.875C50 25.5489 49.4732 24.2771 48.5355 23.3395C47.5979 22.4018 46.3261 21.875 45 21.875Z" fill="white"/>
<path d="M9.16667 29.1667C9.66112 29.1667 10.1445 29.3133 10.5556 29.588C10.9667 29.8627 11.2871 30.2531 11.4764 30.71C11.6656 31.1668 11.7151 31.6694 11.6186 32.1544C11.5222 32.6393 11.2841 33.0848 10.9344 33.4344C10.5848 33.7841 10.1393 34.0222 9.65439 34.1186C9.16944 34.2151 8.66677 34.1656 8.20996 33.9764C7.75314 33.7871 7.3627 33.4667 7.08799 33.0556C6.81329 32.6445 6.66667 32.1611 6.66667 31.6667C6.66667 31.0036 6.93006 30.3677 7.3989 29.8989C7.86774 29.4301 8.50363 29.1667 9.16667 29.1667ZM9.16667 27.5C8.0616 27.5 7.00179 27.939 6.22039 28.7204C5.43899 29.5018 5 30.5616 5 31.6667C5 32.7717 5.43899 33.8315 6.22039 34.6129C7.00179 35.3943 8.0616 35.8333 9.16667 35.8333C10.2717 35.8333 11.3315 35.3943 12.1129 34.6129C12.8943 33.8315 13.3333 32.7717 13.3333 31.6667C13.3333 30.5616 12.8943 29.5018 12.1129 28.7204C11.3315 27.939 10.2717 27.5 9.16667 27.5Z" fill="white"/>
<path d="M40.8332 29.1667C41.3276 29.1667 41.811 29.3133 42.2221 29.588C42.6332 29.8627 42.9536 30.2531 43.1429 30.71C43.3321 31.1668 43.3816 31.6694 43.2851 32.1544C43.1887 32.6393 42.9506 33.0848 42.6009 33.4344C42.2513 33.7841 41.8058 34.0222 41.3209 34.1186C40.8359 34.2151 40.3333 34.1656 39.8765 33.9764C39.4196 33.7871 39.0292 33.4667 38.7545 33.0556C38.4798 32.6445 38.3332 32.1611 38.3332 31.6667C38.3332 31.0036 38.5966 30.3677 39.0654 29.8989C39.5342 29.4301 40.1701 29.1667 40.8332 29.1667ZM40.8332 27.5C39.7281 27.5 38.6683 27.939 37.8869 28.7204C37.1055 29.5018 36.6665 30.5616 36.6665 31.6667C36.6665 32.7717 37.1055 33.8315 37.8869 34.6129C38.6683 35.3943 39.7281 35.8333 40.8332 35.8333C41.9382 35.8333 42.998 35.3943 43.7794 34.6129C44.5608 33.8315 44.9998 32.7717 44.9998 31.6667C44.9998 30.5616 44.5608 29.5018 43.7794 28.7204C42.998 27.939 41.9382 27.5 40.8332 27.5Z" fill="white"/>
<path d="M33.5917 29.6333H16.4083C16.2006 29.6333 16.0013 29.7158 15.8544 29.8627C15.7075 30.0096 15.625 30.2089 15.625 30.4166V30.525C15.6272 30.7313 15.7107 30.9284 15.8574 31.0735C16.004 31.2186 16.202 31.3 16.4083 31.3H33.5917C33.798 31.3 33.996 31.2186 34.1426 31.0735C34.2893 30.9284 34.3728 30.7313 34.375 30.525V30.4166C34.375 30.2089 34.2925 30.0096 34.1456 29.8627C33.9987 29.7158 33.7994 29.6333 33.5917 29.6333Z" fill="white"/>
<path d="M33.5917 32.9668H16.4083C16.2006 32.9668 16.0013 33.0493 15.8544 33.1962C15.7075 33.3431 15.625 33.5424 15.625 33.7501V33.8585C15.6272 34.0648 15.7107 34.2619 15.8574 34.407C16.004 34.5521 16.202 34.6335 16.4083 34.6335H33.5917C33.798 34.6335 33.996 34.5521 34.1426 34.407C34.2893 34.2619 34.3728 34.0648 34.375 33.8585V33.7501C34.375 33.5424 34.2925 33.3431 34.1456 33.1962C33.9987 33.0493 33.7994 32.9668 33.5917 32.9668Z" fill="white"/>
<path d="M35.9419 40.625H46.8752V46.6667C46.8752 47.5507 46.524 48.3986 45.8989 49.0237C45.2738 49.6488 44.426 50 43.5419 50H39.2752C38.3912 50 37.5433 49.6488 36.9182 49.0237C36.2931 48.3986 35.9419 47.5507 35.9419 46.6667V40.625Z" fill="white"/>
<path d="M3.125 40.625H14.0667V46.6667C14.0667 47.5507 13.7155 48.3986 13.0904 49.0237C12.4652 49.6488 11.6174 50 10.7333 50H6.45833C5.57428 50 4.72643 49.6488 4.10131 49.0237C3.47619 48.3986 3.125 47.5507 3.125 46.6667V40.625Z" fill="white"/>
<path d="M37.1617 13.3197C37.5591 13.1487 37.7435 12.6897 37.5734 12.2944C37.4034 11.8991 36.9434 11.7172 36.546 11.8881L30.1307 14.6469C29.7333 14.8179 29.549 15.2769 29.719 15.6722C29.889 16.0675 30.349 16.2494 30.7464 16.0785L37.1617 13.3197Z" fill="white"/>
<path d="M40.7886 11.7625C41.186 11.5916 41.3704 11.1326 41.2004 10.7373C41.0304 10.3419 40.5704 10.16 40.173 10.331L38.7414 10.9466C38.344 11.1175 38.1596 11.5765 38.3296 11.9718C38.4996 12.3672 38.9596 12.5491 39.357 12.3782L40.7886 11.7625Z" fill="white"/>
<path d="M32.0083 18.1447C31.6108 18.3156 31.4265 18.7746 31.5965 19.17C31.7665 19.5653 32.2265 19.7472 32.6239 19.5763L39.0392 16.8174C39.4366 16.6465 39.621 16.1875 39.451 15.7922C39.281 15.3968 38.821 15.2149 38.4235 15.3858L32.0083 18.1447Z" fill="white"/>
<path d="M28.3702 19.6873C27.9728 19.8583 27.7892 20.319 27.9601 20.7164C28.131 21.1139 28.5917 21.2975 28.9891 21.1266L30.4207 20.5109C30.8181 20.34 31.0018 19.8793 30.8309 19.4818C30.6599 19.0844 30.1992 18.9008 29.8018 19.0717L28.3702 19.6873Z" fill="white"/>
</svg>
