<svg width="50" height="50" viewBox="0 0 50 50" fill="none" xmlns="http://www.w3.org/2000/svg">
<path d="M0.000976562 49.2409V49.2215C0.000976562 48.803 0.342606 48.4722 0.752562 48.4722H10.1327C10.5427 48.4722 10.8843 48.803 10.8843 49.2215V49.2409C10.8843 49.6594 10.5524 50 10.1327 50H0.752562C0.332845 49.9903 0.000976562 49.6497 0.000976562 49.2409Z" fill="#00ADB5"/>
<path d="M23.3486 49.2409V49.2215C23.3486 48.803 23.6903 48.4722 24.1002 48.4722H31.9187C32.3286 48.4722 32.6702 48.803 32.6702 49.2215C32.6702 49.2312 32.6702 49.2312 32.6702 49.2409C32.6702 49.6594 32.3384 50 31.9187 50H24.1002C23.6805 49.9903 23.3486 49.6497 23.3486 49.2409Z" fill="#00ADB5"/>
<path d="M17.1211 49.241V49.2313C17.1211 48.8128 17.4627 48.4819 17.8727 48.4819H21.0352C21.4549 48.4819 21.7868 48.8225 21.7868 49.2313V49.241C21.7868 49.6594 21.4451 49.9903 21.0352 49.9903H17.8727C17.453 49.9903 17.1211 49.6497 17.1211 49.241Z" fill="#00ADB5"/>
<path d="M42.0215 49.241V49.2313C42.0215 48.8128 42.3631 48.4819 42.7731 48.4819H45.9356C46.3553 48.4819 46.6872 48.8225 46.6872 49.2313V49.241C46.6872 49.6594 46.3455 49.9903 45.9356 49.9903H42.7731C42.3631 49.9903 42.0215 49.6497 42.0215 49.241Z" fill="#00ADB5"/>
<path d="M12.4458 49.2414V49.2316C12.4458 48.813 12.7876 48.4819 13.1978 48.4819H13.2466C13.6665 48.4819 13.9985 48.8227 13.9985 49.2316V49.2414C13.9985 49.66 13.6567 49.991 13.2466 49.991H13.1978C12.7876 49.991 12.4458 49.6503 12.4458 49.2414Z" fill="#00ADB5"/>
<path d="M34.2417 49.2414V49.2316C34.2417 48.813 34.5835 48.4819 34.9937 48.4819H35.0425C35.4624 48.4819 35.7944 48.8227 35.7944 49.2316V49.2414C35.7944 49.66 35.4526 49.991 35.0425 49.991H34.9937C34.5737 49.991 34.2417 49.6503 34.2417 49.2414Z" fill="#00ADB5"/>
<path d="M48.2485 49.2412V49.1926C48.2485 48.7739 48.5903 48.4429 49.0005 48.4429H49.0493C49.4692 48.4429 49.8013 48.7836 49.8013 49.1926V49.2412C49.8013 49.6599 49.4595 49.9909 49.0493 49.9909H49.0005C48.5806 49.9909 48.2485 49.6502 48.2485 49.2412Z" fill="#00ADB5"/>
<path d="M12.4459 8.85552C12.485 10.977 10.689 12.7384 8.58064 12.7578C6.41373 12.7676 4.64702 10.9575 4.65678 8.85552C4.66654 6.78273 6.41373 4.98242 8.55136 4.98242C10.6792 4.98242 12.4752 6.75354 12.4459 8.85552ZM8.5904 6.54918C8.56112 6.54918 8.53183 6.54918 8.50255 6.54918C7.22388 6.6173 6.22827 7.58071 6.23804 8.86526C6.23804 10.179 7.23364 11.1521 8.54159 11.1911C9.80074 11.2203 10.894 10.1595 10.8842 8.89445C10.8744 7.62937 9.94716 6.60757 8.5904 6.54918Z" fill="white"/>
<path d="M44.7449 6.60785H44.6571C44.2569 6.60785 43.9153 6.38403 43.7396 6.0337C43.4077 5.36223 42.9587 5.06055 42.3438 5.07029C41.6995 5.08002 41.231 5.42062 40.9284 6.11155C40.8015 6.40349 40.5087 6.59812 40.1964 6.59812C39.6302 6.59812 39.2496 6.0337 39.4448 5.5082C39.6986 4.83673 40.2257 4.23338 40.8991 3.87332C41.9436 3.32836 43.3686 3.31863 44.6083 4.44748C44.6473 4.4864 44.7156 4.4864 44.7547 4.44748C45.9357 3.42568 47.2437 3.1532 48.659 3.98037C49.313 4.35989 49.7327 4.89512 49.9572 5.55686C50.1329 6.06289 49.7425 6.58839 49.2056 6.58839C48.8738 6.58839 48.5809 6.38403 48.4638 6.08235C48.3076 5.6931 48.0441 5.36223 47.5365 5.17733C47.3023 5.08975 47.0582 5.06055 46.8142 5.08975C46.2871 5.15787 45.9065 5.45954 45.6429 6.01423C45.4672 6.37429 45.1256 6.60785 44.7449 6.60785Z" fill="#00ADB5"/>
<path d="M3.75041 3.56232L3.73087 3.5818C3.44767 3.84467 3.00822 3.8252 2.74455 3.54285L2.67619 3.46496C2.43205 3.19235 2.44181 2.77369 2.69572 2.51082L2.71525 2.49134C2.98869 2.21873 3.43791 2.21873 3.71134 2.50108L3.78947 2.57897C4.04337 2.86132 4.03361 3.29945 3.75041 3.56232Z" fill="white"/>
<path d="M14.809 3.52329L14.7504 3.58171C14.477 3.86406 14.018 3.85432 13.7445 3.56224L13.6664 3.47461C13.4125 3.202 13.4223 2.78334 13.6859 2.52046L13.7445 2.46205C14.018 2.18943 14.4672 2.18943 14.7406 2.47178L14.8188 2.55941C15.0824 2.83202 15.0727 3.26041 14.809 3.52329Z" fill="white"/>
<path d="M9.49951 0.691269V0.798367C9.49951 1.17808 9.18701 1.48964 8.80615 1.48964H8.68896C8.30811 1.48964 7.99561 1.17808 7.99561 0.798367V0.691269C7.99561 0.311558 8.30811 0 8.68896 0H8.80615C9.19678 0 9.49951 0.311558 9.49951 0.691269Z" fill="white"/>
<path d="M33.5193 12.7287H33.4315C33.0313 12.7287 32.6897 12.5049 32.514 12.1545C32.1821 11.4831 31.7331 11.1814 31.1182 11.1911C30.474 11.2009 30.0054 11.5415 29.7028 12.2324C29.576 12.5243 29.2831 12.719 28.9708 12.719C28.4047 12.719 28.024 12.1545 28.2192 11.629C28.473 10.9576 29.0001 10.3542 29.6736 9.99417C30.718 9.44921 32.1431 9.43948 33.3827 10.5683C33.4217 10.6073 33.4901 10.6073 33.5291 10.5683C34.7102 9.54653 36.0181 9.27405 37.4334 10.1012C38.0874 10.4807 38.5071 11.016 38.7316 11.6777C38.9073 12.1837 38.5169 12.7092 37.98 12.7092C37.6482 12.7092 37.3553 12.5049 37.2382 12.2032C37.082 11.8139 36.8185 11.4831 36.3109 11.2982C36.0767 11.2106 35.8327 11.1814 35.5886 11.2106C35.0616 11.2787 34.6809 11.5804 34.4173 12.1351C34.2514 12.4951 33.9098 12.7287 33.5193 12.7287Z" fill="#00ADB5"/>
<path d="M3.56409 14.8799L3.55432 14.8896C3.27112 15.1622 2.8219 15.1428 2.55823 14.8604L2.48987 14.7825C2.23596 14.5099 2.25549 14.0815 2.52893 13.8186L2.5387 13.8089C2.81213 13.546 3.25159 13.5558 3.52502 13.8284L3.59338 13.9063C3.84729 14.1886 3.83752 14.617 3.56409 14.8799Z" fill="white"/>
<path d="M13.5589 14.8896L13.51 14.8409C13.2268 14.5781 13.2268 14.1302 13.5003 13.8576C13.5198 13.8381 13.5393 13.8186 13.5686 13.7894C13.8518 13.5071 14.3108 13.5168 14.5745 13.8186L14.6233 13.877C14.8772 14.1594 14.8577 14.5975 14.5745 14.8507L14.5061 14.9091C14.2229 15.1427 13.8128 15.1427 13.5589 14.8896Z" fill="white"/>
<path d="M0.723633 8.11572H0.831055C1.21191 8.11572 1.52441 8.42728 1.52441 8.80699V8.95303C1.52441 9.33275 1.22168 9.6443 0.84082 9.6443C0.821289 9.6443 0.801758 9.6443 0.782227 9.6443C0.772461 9.6443 0.75293 9.6443 0.743164 9.6443C0.352539 9.65404 0.0302734 9.34248 0.0302734 8.95303V8.80699C0.0302734 8.42728 0.342773 8.11572 0.723633 8.11572Z" fill="white"/>
<path d="M16.2822 8.11572H16.3896C16.7705 8.11572 17.083 8.42728 17.083 8.80699V8.92383C17.083 9.30354 16.7705 9.61509 16.3896 9.61509H16.2822C15.9014 9.61509 15.5889 9.30354 15.5889 8.92383V8.80699C15.5889 8.42728 15.9014 8.11572 16.2822 8.11572Z" fill="white"/>
<path d="M8.55176 15.8721H8.58105C8.98145 15.8721 9.31348 16.2031 9.31348 16.6023V16.6607C9.31348 17.0599 8.99121 17.3812 8.59082 17.3909C8.58105 17.3909 8.58105 17.3909 8.57129 17.3909C8.57129 17.3909 8.57129 17.3909 8.56152 17.3909C8.15137 17.4104 7.80957 17.0794 7.80957 16.6704V16.6023C7.81934 16.2031 8.1416 15.8721 8.55176 15.8721Z" fill="white"/>
<path d="M1.53402 46.0981V46.1273C1.53402 46.5265 1.20199 46.8576 0.801601 46.8576H0.733242C0.332851 46.8576 0.0105854 46.5363 0.00081976 46.1371C0.00081976 46.1273 0.00081976 46.1176 0.00081976 46.1176C0.00081976 46.1176 0.00081976 46.1176 0.00081976 46.1079C-0.0187115 45.699 0.31332 45.3679 0.723476 45.3679H0.791835C1.20199 45.3679 1.53402 45.699 1.53402 46.0981Z" fill="white"/>
<path d="M49.537 38.3126C49.6151 38.1569 49.7127 38.0109 49.8103 37.8649V34.4687H44.803C43.4951 32.3861 42.1969 30.3231 40.8987 28.2503H37.1212C36.5258 26.6933 35.9402 25.1654 35.3447 23.6084H33.9587C33.1778 22.0514 32.397 20.5041 31.6063 18.9373H29.3223C28.9612 18.0323 28.6 17.1565 28.2389 16.2709C28.0729 15.8719 27.6142 15.6773 27.2237 15.8427L27.214 15.8525C26.8235 16.0179 26.6381 16.4656 26.7942 16.8548C27.0676 17.5555 27.3409 18.2367 27.6239 18.9471C26.6869 18.9665 25.7986 18.9373 24.8909 18.9568V23.5792H15.2276C14.4468 22.2947 13.6757 21.0101 12.9046 19.7353H7.96558C8.77573 21.0782 9.5566 22.392 10.357 23.7349C8.00462 24.455 6.64787 26.0218 6.22815 28.3476C6.15006 28.3963 6.11102 28.4255 6.07198 28.4449C5.12517 28.912 4.64689 29.6614 4.66641 30.7318C4.67618 31.8509 4.66641 32.9603 4.66641 34.0794C4.66641 34.2059 4.64689 34.3227 4.62737 34.4979C4.11005 34.4979 3.61224 34.4979 3.13396 34.4979C3.1242 34.5757 3.11444 34.6146 3.11444 34.6438C3.11444 36.8918 3.11444 39.1397 3.13396 41.3877C3.13396 41.5726 3.20229 41.7672 3.29014 41.9327C3.77818 42.935 4.27598 43.9276 4.76402 44.9299C4.82259 45.0467 4.87139 45.183 4.93972 45.3581H3.7977C3.73913 45.3581 3.68057 45.3679 3.622 45.3873C3.26085 45.436 2.97779 45.7474 2.98755 46.1269C2.98755 46.1269 2.98755 46.1269 2.98755 46.1366C2.98755 46.1464 2.98755 46.1561 2.98755 46.1561C2.99731 46.5064 3.25109 46.7984 3.59272 46.8665C3.66105 46.886 3.72937 46.9054 3.7977 46.9054C18.8684 46.9054 33.9489 46.9054 49.0197 46.9054C49.4492 46.9054 49.8006 46.5551 49.8006 46.1269C49.8006 45.6987 49.4492 45.3484 49.0197 45.3484H46.6966C46.6966 44.6964 46.6088 44.0833 46.9309 43.4605C47.8386 41.7575 48.6781 40.0253 49.537 38.3126ZM26.4721 20.5333C27.8582 20.5333 29.2247 20.5333 30.6498 20.5333C31.1476 21.5259 31.6551 22.538 32.1822 23.5889C30.2593 23.5889 28.395 23.5889 26.4721 23.5889C26.4721 22.5574 26.4721 21.5551 26.4721 20.5333ZM12.0066 21.3021C12.4458 22.0417 12.8948 22.7812 13.3731 23.5792C12.9241 23.5792 12.5337 23.5792 12.1042 23.5792C11.6747 22.8688 11.2257 22.1195 10.7377 21.3021C11.2062 21.3021 11.5869 21.3021 12.0066 21.3021ZM8.22912 27.2674C8.94166 25.9537 10.0739 25.2822 11.5576 25.1752C11.704 25.1654 11.8504 25.1654 11.9968 25.1654C19.2394 25.1654 26.4819 25.1654 33.7244 25.1654C33.8904 25.1654 34.0466 25.1654 34.2613 25.1654C34.6615 26.2067 35.0422 27.209 35.4326 28.2503C26.2379 28.2503 17.092 28.2503 7.90702 28.2503C7.92654 27.8805 8.06319 27.5691 8.22912 27.2674ZM6.23791 30.4983C6.28672 30.1187 6.56978 29.8754 6.96021 29.8268C7.0871 29.8073 7.22376 29.8171 7.35065 29.8171C18.0778 29.8171 28.8147 29.8171 39.5419 29.8171C39.6883 29.8171 39.8347 29.8171 40.0202 29.8171C40.3423 30.3328 40.6449 30.8291 40.9865 31.3643H33.4219C33.0217 31.3643 32.6898 31.6855 32.6898 32.0845C32.6898 32.1039 32.6898 32.1234 32.6898 32.1331C32.6703 32.5516 33.0021 32.8922 33.4219 32.8922H41.9528C42.2749 33.4079 42.5873 33.914 42.9289 34.4589H31.1378C31.1378 34.6633 31.1281 34.8579 31.1281 35.0428C31.1183 35.5878 30.6791 36.016 30.1325 36.016C28.5122 36.016 26.9016 36.016 25.2813 36.016C22.4409 36.016 19.6103 36.016 16.7699 36.016C16.643 36.016 16.5063 36.0257 16.3794 36.016C15.8719 35.977 15.579 35.6851 15.5595 35.1791C15.5498 34.9552 15.5595 34.7314 15.5595 34.4784H6.25743V32.9214H11.6357C12.0651 32.9214 12.4165 32.571 12.4165 32.1429C12.4165 31.7049 12.0554 31.3449 11.6064 31.3643C11.4795 31.3643 11.3624 31.3741 11.2355 31.3643C10.8157 31.3546 10.396 31.3643 9.96655 31.3643C9.5566 31.3643 9.1564 31.3643 8.74645 31.3643C8.32673 31.3643 7.90701 31.3643 7.47754 31.3643C7.07734 31.3643 6.66739 31.3643 6.21839 31.3643C6.23791 31.0627 6.20863 30.7805 6.23791 30.4983ZM45.3301 43.1783C45.1934 43.441 45.1154 43.7038 45.1251 44.0055C45.1446 44.4239 45.1349 44.8424 45.1349 45.2608C44.7737 45.3581 7.54586 45.397 6.69667 45.2997C6.20863 44.3071 5.71083 43.2951 5.18374 42.2246H11.6454C12.0749 42.2246 12.4263 41.8743 12.4263 41.4461C12.4263 41.0179 12.0749 40.6676 11.6454 40.6676C11.4795 40.6676 11.3135 40.6676 11.1476 40.6676C10.7279 40.6676 10.3082 40.6676 9.87871 40.6676C9.43947 40.6676 9.00023 40.6676 8.56099 40.6676C8.14127 40.6676 7.72156 40.6676 7.29208 40.6676C6.85284 40.6676 6.41361 40.6676 5.97437 40.6676C5.55465 40.6676 5.1447 40.6676 4.6957 40.6676V39.1495C5.1935 39.0716 5.6913 39.1203 6.18911 39.1106C6.70643 39.1008 7.22376 39.1106 7.74108 39.1106C7.99486 39.1106 8.24864 39.1106 8.51219 39.1106C8.9319 39.1106 9.28329 38.77 9.28329 38.3418C9.28329 37.9233 8.94166 37.5827 8.52195 37.5827H4.75426C4.62737 37.3005 4.68594 37.0475 4.67618 36.7945C4.66641 36.5512 4.67618 36.3176 4.67618 36.0452H14.1247C14.193 36.1717 14.2516 36.2982 14.3296 36.4149C14.9251 37.3297 15.7743 37.4757 17.0627 37.4757C21.2501 37.4757 25.252 37.4951 29.742 37.4951C30.9719 37.4951 31.8211 37.2908 32.3872 36.3663C32.4555 36.2592 32.5141 36.1425 32.5824 36.016H48.2583C48.2583 36.4539 48.2779 36.8529 48.2486 37.2519C48.2388 37.4076 48.151 37.5535 48.0729 37.6995C47.1554 39.5485 46.2476 41.3585 45.3301 43.1783Z" fill="white"/>
<path d="M45.1054 38.3417V38.3709C45.1054 38.7699 44.7736 39.1007 44.3734 39.1007H42.7921C42.3919 39.1007 42.0601 38.7699 42.0601 38.3709V38.3417C42.0601 37.9427 42.3919 37.6118 42.7921 37.6118H44.3734C44.7833 37.6118 45.1054 37.933 45.1054 38.3417Z" fill="#00ADB5"/>
<path d="M11.6555 37.5825H11.7238C12.1242 37.5825 12.4465 37.9038 12.4465 38.303C12.4465 38.3127 12.4465 38.3225 12.4465 38.3419C12.4465 38.3419 12.4465 38.3419 12.4465 38.3517C12.466 38.7606 12.134 39.1014 11.7238 39.1014H11.6555C11.2551 39.1014 10.9328 38.7801 10.9328 38.3809V38.3127C10.9231 37.9135 11.2453 37.5825 11.6555 37.5825Z" fill="#00ADB5"/>
<path d="M14.7598 31.3838H14.7988C15.1992 31.3838 15.5312 31.7148 15.5312 32.114V32.1627C15.5312 32.5619 15.1992 32.8929 14.7988 32.8929H14.7598C14.3594 32.8929 14.0273 32.5619 14.0273 32.1627V32.114C14.0273 31.7148 14.3594 31.3838 14.7598 31.3838Z" fill="#00ADB5"/>
<path d="M18.6543 32.1238V32.1627C18.6543 32.5619 18.3223 32.8929 17.9219 32.8929H17.873C17.4727 32.8929 17.1406 32.5619 17.1406 32.1627V32.1238C17.1406 31.7246 17.4727 31.3936 17.873 31.3936H17.9219C18.332 31.3936 18.6543 31.7246 18.6543 32.1238Z" fill="#00ADB5"/>
<path d="M20.2544 32.153V32.1238C20.2544 31.7246 20.5864 31.3936 20.9868 31.3936H21.0552C21.4556 31.3936 21.7778 31.7148 21.7876 32.114C21.7876 32.1238 21.7876 32.1335 21.7876 32.1335C21.7876 32.1335 21.7876 32.1335 21.7876 32.1432C21.8071 32.5522 21.4751 32.8832 21.0649 32.8832H20.9966C20.5864 32.8832 20.2544 32.5619 20.2544 32.153Z" fill="#00ADB5"/>
<path d="M24.8721 32.1335V32.192C24.8721 32.5911 24.5498 32.9124 24.1494 32.9222C24.1396 32.9222 24.1299 32.9222 24.1299 32.9222C24.1299 32.9222 24.1299 32.9222 24.1201 32.9222C23.71 32.9416 23.3779 32.6106 23.3779 32.2017V32.1335C23.3779 31.7344 23.71 31.4033 24.1104 31.4033H24.1396C24.5498 31.4033 24.8721 31.7246 24.8721 32.1335Z" fill="#00ADB5"/>
<path d="M27.2241 31.3936H27.2534C27.6538 31.3936 27.9858 31.7246 27.9858 32.1238V32.153C27.9858 32.5522 27.6538 32.8832 27.2534 32.8832H27.2241C26.8237 32.8832 26.4917 32.5522 26.4917 32.153V32.1238C26.4917 31.7246 26.814 31.3936 27.2241 31.3936Z" fill="#00ADB5"/>
<path d="M30.2988 31.3838H30.3574C30.7578 31.3838 31.0898 31.7148 31.0898 32.114V32.1627C31.0898 32.5619 30.7578 32.8929 30.3574 32.8929H30.2988C29.8984 32.8929 29.5664 32.5619 29.5664 32.1627C29.5664 32.1432 29.5664 32.1335 29.5664 32.114C29.5664 31.7051 29.8984 31.3838 30.2988 31.3838Z" fill="#00ADB5"/>
</svg>
