<svg width="50" height="50" viewBox="0 0 50 50" fill="none" xmlns="http://www.w3.org/2000/svg">
<g clip-path="url(#clip0_26_4517)">
<mask id="mask0_26_4517" style="mask-type:luminance" maskUnits="userSpaceOnUse" x="0" y="0" width="50" height="50">
<path d="M50 0H0V50H50V0Z" fill="white"/>
</mask>
<g mask="url(#mask0_26_4517)">
<mask id="mask1_26_4517" style="mask-type:luminance" maskUnits="userSpaceOnUse" x="0" y="0" width="50" height="50">
<path d="M50 0H0V50H50V0Z" fill="white"/>
</mask>
<g mask="url(#mask1_26_4517)">
<path d="M21.6918 15.1917C21.9751 16.3751 21.9834 17.5917 21.7251 18.7751C21.4584 19.9584 20.9334 21.0584 20.1834 22.0084C18.8584 23.6167 16.9501 24.6584 14.7834 24.9001V46.0917C14.7834 47.1251 14.4584 48.1251 13.7334 48.8584C13.0001 49.5917 12.0084 50.0001 10.8834 50.0001C9.93342 50.0001 8.94175 49.5917 8.20839 48.8584C7.47505 48.1251 6.97505 47.1334 6.97505 46.0917V24.9001C5.94172 24.7834 4.85839 24.4334 3.89172 23.8667C2.92505 23.2917 2.08339 22.5167 1.44172 21.6001C0.791721 20.6834 0.350054 19.6251 0.141721 18.5251C-0.0666124 17.4251 -0.0332791 16.2751 0.233387 15.1917L3.18339 0.625059C3.22505 0.425059 3.35005 0.258393 3.51672 0.141726C3.68339 0.0250597 3.89172 -0.016607 4.09172 0.0167263C4.19172 0.033393 4.29172 0.0750597 4.37505 0.133393C4.45839 0.191726 4.53339 0.266726 4.59172 0.350059C4.65005 0.433393 4.69172 0.533393 4.70839 0.633393C4.72505 0.733393 4.72505 0.841725 4.62505 0.941725L1.75839 15.5084C1.51672 16.4667 1.50005 17.4584 1.70839 18.4167C1.91672 19.3751 2.34172 20.2751 2.95839 21.0334C3.55005 21.7667 4.29172 22.3584 5.14172 22.7751C5.98339 23.1917 6.90839 23.4167 7.85839 23.3501H14.0084C15.0334 23.4167 15.9501 23.1917 16.8001 22.7751C17.6418 22.2751 18.3834 21.7667 18.8918 21.0501C19.5834 20.2917 20.0168 19.3917 20.2168 18.4334C20.4334 17.4001 20.4084 16.4917 20.1668 15.5417L17.1251 0.950058C17.1918 0.850058 17.1918 0.741726 17.1251 0.641726C17.2334 0.541726 17.2751 0.441726 17.3334 0.350059C17.3918 0.266726 17.4584 0.191726 17.5501 0.133393C17.6418 0.0750597 17.7334 0.033393 17.8418 0.0167263C18.0501 -0.016607 18.2501 0.0250597 18.4168 0.141726C18.5834 0.258393 18.7001 0.433393 18.7501 0.625059L21.7001 15.1917H21.6918ZM8.06672 16.9584C7.91672 16.8084 7.75005 16.6084 7.75005 16.4001V0.783393C7.75005 0.575059 7.91672 0.375059 8.06672 0.233393C8.21672 0.0833927 8.40842 0.00839301 8.53342 0.00839301C8.82509 0.00839301 9.02509 0.091726 9.17509 0.233393C9.32509 0.383393 9.31675 0.575059 9.31675 0.783393V16.4084C9.31675 16.6167 9.31675 16.8167 9.17509 16.9667C9.02509 17.1167 8.83342 17.1917 8.53342 17.1917C8.41675 17.1917 8.21672 17.1167 8.06672 16.9667V16.9584ZM13.2168 24.9917H8.53342V46.0834C8.53342 46.7084 8.86675 47.3001 9.30842 47.6584C9.75009 48.1834 10.3418 48.4334 10.8751 48.4334C11.5918 48.4334 12.1834 48.1917 12.5334 47.6584C13.0584 47.3084 13.2168 46.7084 13.2168 46.0834V25.0001V24.9917ZM12.7501 16.9584C12.6001 16.8084 12.4418 16.6084 12.4418 16.4001V0.783393C12.4418 0.575059 12.6084 0.375059 12.7501 0.233393C12.9001 0.0833927 13.1001 0.00839301 13.2168 0.00839301C13.5084 0.00839301 13.7168 0.091726 13.8584 0.233393C14.0084 0.383393 13.9918 0.575059 13.9918 0.783393V16.4084C13.9918 16.6167 14.0001 16.8167 13.8584 16.9667C13.7084 17.1167 13.5084 17.1917 13.2168 17.1917C13.1001 17.1917 12.8918 17.1167 12.7501 16.9667V16.9584Z" fill="white"/>
<path d="M50.0004 46.0914C50.0004 47.1247 49.592 48.1247 48.8587 48.8581C48.1254 49.5914 47.1337 49.9997 46.092 49.9997C45.0504 49.9997 44.0587 49.5914 43.3254 48.8581C42.592 48.1247 42.1837 47.1331 42.1837 46.0914V34.3747H40.542C39.7254 34.3747 38.9004 34.2081 38.142 33.8997C37.392 33.5747 36.7004 33.1164 36.1087 32.5331C35.5337 31.9497 35.0754 31.2497 34.6754 30.4914C34.4504 29.7331 34.292 28.9081 34.292 28.0914V16.9747C34.2837 13.3747 35.4587 9.84972 37.467 6.86639C39.492 3.88305 42.3587 1.56639 45.7087 0.233057C46.0837 0.0830565 46.467 0.00805664 46.867 0.00805664C47.7004 0.00805664 48.492 0.34139 49.0754 0.924722C49.6587 1.50805 49.992 2.30805 49.992 3.13305V46.0914H50.0004ZM48.4337 3.12472C48.4337 2.70805 48.267 2.31639 47.9754 2.01639C47.6837 1.72472 47.2837 1.55805 46.8754 1.55805C46.592 1.55805 46.4754 1.59139 46.292 1.65805C43.2337 2.87472 40.6004 4.98306 38.7504 7.71639C36.9087 10.4414 35.9254 13.6747 35.8504 16.9664V28.0914C35.8587 28.7081 35.9754 29.3247 36.2087 29.8914C36.442 30.4664 36.7837 30.9831 37.2254 31.4247C37.6587 31.8664 38.1754 32.2164 38.7504 32.4497C39.317 32.6831 39.9337 32.8081 40.5504 32.8081H48.442V3.12472H48.4337ZM48.4337 34.3747H43.7504V46.0914C43.7504 46.7164 43.992 47.3081 44.4337 47.6664C44.8754 48.1914 45.467 48.4414 46.092 48.4414C46.717 48.4414 47.317 48.1997 47.667 47.6664C48.192 47.3164 48.442 46.7164 48.442 46.0914V34.3747H48.4337Z" fill="#00ADB5"/>
</g>
</g>
</g>
<defs>
<clipPath id="clip0_26_4517">
<rect width="50" height="50" fill="white"/>
</clipPath>
</defs>
</svg>
