<svg width="50" height="50" viewBox="0 0 50 50" fill="none" xmlns="http://www.w3.org/2000/svg">
<g clip-path="url(#clip0_26_4568)">
<path d="M40.2081 42.1833H30.0998C29.9899 42.1855 29.8852 42.2301 29.8075 42.3077C29.7298 42.3854 29.6852 42.4902 29.6831 42.6V43.3333C29.6831 43.4439 29.727 43.5498 29.8051 43.628C29.8833 43.7061 29.9893 43.75 30.0998 43.75H40.2081C40.3186 43.75 40.4246 43.7061 40.5027 43.628C40.5809 43.5498 40.6248 43.4439 40.6248 43.3333V42.6C40.6248 42.4895 40.5809 42.3835 40.5027 42.3054C40.4246 42.2272 40.3186 42.1833 40.2081 42.1833Z" fill="white"/>
<path d="M43.3331 42.1917H42.5998C42.4893 42.1917 42.3833 42.2355 42.3051 42.3137C42.227 42.3918 42.1831 42.4978 42.1831 42.6083V43.3333C42.1831 43.4438 42.227 43.5498 42.3051 43.6279C42.3833 43.7061 42.4893 43.75 42.5998 43.75H43.3331C43.4436 43.75 43.5496 43.7061 43.6277 43.6279C43.7059 43.5498 43.7498 43.4438 43.7498 43.3333V42.6083C43.7498 42.4978 43.7059 42.3918 43.6277 42.3137C43.5496 42.2355 43.4436 42.1917 43.3331 42.1917Z" fill="white"/>
<path d="M27.7081 4.68335H17.5998C17.4899 4.68548 17.3852 4.73007 17.3075 4.80775C17.2298 4.88543 17.1852 4.99018 17.1831 5.10002V5.83335C17.1831 5.94386 17.227 6.04984 17.3051 6.12798C17.3833 6.20612 17.4893 6.25002 17.5998 6.25002H27.7081C27.8186 6.25002 27.9246 6.20612 28.0027 6.12798C28.0809 6.04984 28.1248 5.94386 28.1248 5.83335V5.10002C28.1248 4.98951 28.0809 4.88353 28.0027 4.80539C27.9246 4.72725 27.8186 4.68335 27.7081 4.68335Z" fill="white"/>
<path d="M15.2081 4.69165H14.4748C14.3643 4.69165 14.2583 4.73555 14.1801 4.81369C14.102 4.89183 14.0581 4.99781 14.0581 5.10832V5.83332C14.0581 5.94382 14.102 6.0498 14.1801 6.12794C14.2583 6.20608 14.3643 6.24998 14.4748 6.24998H15.2081C15.3186 6.24998 15.4246 6.20608 15.5027 6.12794C15.5809 6.0498 15.6248 5.94382 15.6248 5.83332V5.10832C15.6248 4.99781 15.5809 4.89183 15.5027 4.81369C15.4246 4.73555 15.3186 4.69165 15.2081 4.69165Z" fill="white"/>
<path d="M21.4581 9.375H11.3498C11.2393 9.375 11.1333 9.4189 11.0551 9.49704C10.977 9.57518 10.9331 9.68116 10.9331 9.79167V10.5167C10.9331 10.6272 10.977 10.7332 11.0551 10.8113C11.1333 10.8894 11.2393 10.9333 11.3498 10.9333H21.4581C21.5686 10.9333 21.6746 10.8894 21.7527 10.8113C21.8309 10.7332 21.8748 10.6272 21.8748 10.5167V9.79167C21.8748 9.68116 21.8309 9.57518 21.7527 9.49704C21.6746 9.4189 21.5686 9.375 21.4581 9.375Z" fill="white"/>
<path d="M8.95811 9.375H8.22477C8.11427 9.375 8.00828 9.4189 7.93014 9.49704C7.852 9.57518 7.80811 9.68116 7.80811 9.79167V10.525C7.81024 10.6348 7.85482 10.7396 7.93251 10.8173C8.01019 10.8949 8.11493 10.9395 8.22477 10.9417H8.95811C9.06861 10.9417 9.17459 10.8978 9.25273 10.8196C9.33087 10.7415 9.37477 10.6355 9.37477 10.525V9.79167C9.37477 9.68116 9.33087 9.57518 9.25273 9.49704C9.17459 9.4189 9.06861 9.375 8.95811 9.375Z" fill="white"/>
<path d="M46.8831 3.91656C46.5557 2.79842 45.8791 1.81438 44.9522 1.10839C44.0254 0.402405 42.897 0.0115096 41.732 -0.00711471C40.5671 -0.025739 39.4267 0.328886 38.4778 1.00489C37.5289 1.68089 36.8211 2.64279 36.4581 3.7499H35.5331C34.9645 3.75534 34.4024 3.87288 33.8792 4.0958C33.356 4.31872 32.8819 4.64264 32.4841 5.04901C32.0862 5.45538 31.7724 5.93623 31.5606 6.46403C31.3488 6.99184 31.2432 7.55622 31.2498 8.1249C31.2432 8.69357 31.3488 9.25796 31.5606 9.78576C31.7724 10.3136 32.0862 10.7944 32.4841 11.2008C32.8819 11.6072 33.356 11.9311 33.8792 12.154C34.4024 12.3769 34.9645 12.4945 35.5331 12.4999H45.7165C46.7619 12.4796 47.7657 12.0863 48.5466 11.3909C49.3274 10.6955 49.834 9.74386 49.9749 8.70775C50.1157 7.67164 49.8815 6.61932 49.3145 5.74072C48.7476 4.86213 47.8852 4.21515 46.8831 3.91656Z" fill="#00ADB5"/>
<path d="M15.6332 41.4166C15.3058 40.2984 14.6292 39.3144 13.7023 38.6084C12.7755 37.9024 11.647 37.5115 10.4821 37.4929C9.31715 37.4743 8.17681 37.8289 7.22787 38.5049C6.27894 39.1809 5.57121 40.1428 5.2082 41.2499H4.2832C3.12288 41.2499 2.01008 41.7108 1.18961 42.5313C0.369139 43.3518 -0.0917969 44.4646 -0.0917969 45.6249C-0.0917969 46.7852 0.369139 47.898 1.18961 48.7185C2.01008 49.539 3.12288 49.9999 4.2832 49.9999H14.4665C15.512 49.9796 16.5157 49.5863 17.2966 48.8909C18.0775 48.1955 18.5841 47.2439 18.7249 46.2078C18.8658 45.1716 18.6316 44.1193 18.0646 43.2407C17.4977 42.3621 16.6353 41.7151 15.6332 41.4166Z" fill="#00ADB5"/>
<path d="M37.625 25.9582C37.9877 25.9581 38.348 26.0172 38.6916 26.1332L42.55 27.4165L38.6916 28.6999C38.348 28.8158 37.9877 28.8749 37.625 28.8749H33.4583L30.0333 30.5415H37.6416C38.1852 30.5392 38.725 30.452 39.2416 30.2832L43.4083 28.8832C43.7142 28.7786 43.9798 28.581 44.1678 28.318C44.3558 28.055 44.4569 27.7398 44.4569 27.4165C44.4569 27.0932 44.3558 26.778 44.1678 26.515C43.9798 26.252 43.7142 26.0544 43.4083 25.9499L39.2416 24.5499C38.7259 24.3773 38.1855 24.29 37.6416 24.2915H10.4416C9.99961 24.2915 9.57569 24.4671 9.26313 24.7797C8.95056 25.0922 8.77497 25.5162 8.77497 25.9582V26.2582C8.77194 26.5958 8.87151 26.9263 9.0605 27.2061C9.24948 27.4859 9.51898 27.7016 9.8333 27.8249L15.1666 29.9999C16.0923 30.3672 17.079 30.5567 18.075 30.5582H24.7416L24.525 28.8915H18.075C17.3056 28.8811 16.545 28.7256 15.8333 28.4332L10.4666 26.2749V25.9582H37.625Z" fill="white"/>
<path d="M9.33327 21.2665C9.59071 21.2682 9.84013 21.3563 10.0416 21.5165L13.4749 24.2832H11.3583L9.09994 21.2665H9.33327ZM9.33327 19.5999H5.7666L10.5249 25.9499H18.2083L11.0833 20.2165C10.5883 19.8157 9.97019 19.5979 9.33327 19.5999Z" fill="white"/>
<path d="M20.6499 18.1415L28.0082 24.2832H25.1749L19.0332 18.1415H20.6499ZM20.9665 16.4749H16.9165C16.7666 16.4903 16.6237 16.546 16.503 16.6362C16.3823 16.7264 16.2883 16.8476 16.231 16.987C16.1737 17.1264 16.1553 17.2787 16.1777 17.4277C16.2001 17.5767 16.2625 17.7168 16.3582 17.8332L24.4832 25.9499H32.6082L21.4749 16.6665C21.3305 16.5506 21.1516 16.4861 20.9665 16.4832V16.4749Z" fill="white"/>
<path d="M20.5663 38.3332H18.583C18.2696 38.3158 17.9676 38.2103 17.7115 38.0288C17.4555 37.8473 17.2559 37.5971 17.1358 37.3072C17.0156 37.0173 16.9798 36.6993 17.0324 36.3899C17.0849 36.0805 17.2238 35.7922 17.433 35.5582L26.1997 27.2249L27.3497 28.4332L18.6913 36.6666H20.5663L33.9997 27.1499L34.9997 28.5082L21.533 38.0332C21.2523 38.2363 20.9127 38.3417 20.5663 38.3332Z" fill="white"/>
</g>
<defs>
<clipPath id="clip0_26_4568">
<rect width="50" height="50" fill="white"/>
</clipPath>
</defs>
</svg>
