<svg width="50" height="50" viewBox="0 0 50 50" fill="none" xmlns="http://www.w3.org/2000/svg">
<path d="M50 48.3335H0V50.0002H50V48.3335Z" fill="white"/>
<path d="M37.5 0L12.5 5V6.66667L37.5 1.66667V0Z" fill="white"/>
<path d="M14.1667 50L14.1667 5H12.5L12.5 50H14.1667Z" fill="white"/>
<path d="M37.5 50V0L35.8333 0.833333V50H37.5Z" fill="white"/>
<path d="M20 26.6665H16.6667V29.9998H20V26.6665Z" fill="white"/>
<path d="M26.6666 26.6665H23.3333V29.9998H26.6666V26.6665Z" fill="white"/>
<path d="M26.6666 33.3335H23.3333V36.6668H26.6666V33.3335Z" fill="white"/>
<path d="M33.3333 26.6665H30V29.9998H33.3333V26.6665Z" fill="white"/>
<path d="M20 20H16.6667V23.3333H20V20Z" fill="white"/>
<path d="M26.6666 20H23.3333V23.3333H26.6666V20Z" fill="white"/>
<path d="M33.3333 20H30V23.3333H33.3333V20Z" fill="white"/>
<path d="M20 13.3335H16.6667V16.6668H20V13.3335Z" fill="white"/>
<path d="M26.6666 13.3335H23.3333V16.6668H26.6666V13.3335Z" fill="white"/>
<path d="M33.3333 13.3335H30V16.6668H33.3333V13.3335Z" fill="white"/>
<path d="M26.6666 6.6665H23.3333V9.99984H26.6666V6.6665Z" fill="white"/>
<path d="M33.3333 6.6665H30V9.99984H33.3333V6.6665Z" fill="white"/>
<path d="M20 33.3335H16.6667V36.6668H20V33.3335Z" fill="white"/>
<path d="M26.6666 43.3335H23.3333V48.3335H26.6666V43.3335Z" fill="white"/>
<path d="M33.3333 33.3335H30V36.6668H33.3333V33.3335Z" fill="white"/>
<path d="M25 40.0002C25.8841 40.0002 26.7319 40.3514 27.357 40.9765C27.9821 41.6016 28.3333 42.4494 28.3333 43.3335H30C30 42.0074 29.4732 40.7356 28.5355 39.798C27.5979 38.8603 26.3261 38.3335 25 38.3335C23.6739 38.3335 22.4021 38.8603 21.4645 39.798C20.5268 40.7356 20 42.0074 20 43.3335H21.6667C21.6667 42.4494 22.0179 41.6016 22.643 40.9765C23.2681 40.3514 24.1159 40.0002 25 40.0002Z" fill="white"/>
<path d="M44.1667 43.3335H42.5V48.3335H44.1667V43.3335Z" fill="white"/>
<path d="M39.1667 42.6915C39.1634 42.3701 39.2531 42.0547 39.425 41.7832C39.5908 41.5157 39.8354 41.3061 40.125 41.1832C39.9839 40.9296 39.9256 40.6382 39.9583 40.3498C39.9867 40.0682 40.1034 39.8028 40.2917 39.5915C40.465 39.3808 40.7018 39.2318 40.9667 39.1665C41.245 39.0885 41.5426 39.1183 41.8 39.2498C41.8315 38.8412 42.0125 38.4585 42.3083 38.1748C42.5877 37.898 42.9651 37.7427 43.3583 37.7427C43.7516 37.7427 44.129 37.898 44.4083 38.1748C44.6767 38.4424 44.8495 38.7909 44.9 39.1665C45.1567 39.0325 45.4552 39.0027 45.7333 39.0832C45.9982 39.1484 46.235 39.2975 46.4083 39.5082C46.5967 39.7195 46.7133 39.9849 46.7417 40.2665C46.7762 40.553 46.724 40.8433 46.5917 41.0998C46.8813 41.2228 47.1258 41.4324 47.2917 41.6998C47.459 41.996 47.5317 42.3362 47.5 42.6748C47.5092 43.1143 47.3445 43.5396 47.0417 43.8582C46.9028 44.0118 46.733 44.1343 46.5434 44.2176C46.3538 44.3009 46.1488 44.3432 45.9417 44.3415H40.7333C40.5249 44.3443 40.3182 44.3027 40.127 44.2194C39.9359 44.136 39.7648 44.0129 39.625 43.8582C39.3262 43.5437 39.1618 43.1252 39.1667 42.6915Z" fill="white"/>
<path d="M6.66667 43.3335H5V48.3335H6.66667V43.3335Z" fill="white"/>
<path d="M1.66667 42.6915C1.66341 42.3701 1.75312 42.0547 1.925 41.7832C2.09084 41.5157 2.33535 41.3061 2.625 41.1832C2.48392 40.9296 2.42564 40.6382 2.45834 40.3498C2.48668 40.0682 2.60335 39.8028 2.79167 39.5915C2.96503 39.3808 3.20177 39.2318 3.46667 39.1665C3.74505 39.0885 4.04257 39.1183 4.3 39.2498C4.3315 38.8412 4.51248 38.4585 4.80834 38.1748C5.08768 37.898 5.46505 37.7427 5.85834 37.7427C6.25162 37.7427 6.62899 37.898 6.90834 38.1748C7.17671 38.4424 7.34949 38.7909 7.4 39.1665C7.6567 39.0325 7.95519 39.0027 8.23334 39.0832C8.49823 39.1484 8.73498 39.2975 8.90834 39.5082C9.09665 39.7195 9.21333 39.9849 9.24167 40.2665C9.27621 40.553 9.22395 40.8433 9.09167 41.0998C9.38132 41.2228 9.62583 41.4324 9.79167 41.6998C9.95897 41.996 10.0317 42.3362 10 42.6748C10.0092 43.1143 9.84451 43.5396 9.54167 43.8582C9.40283 44.0118 9.23303 44.1343 9.04343 44.2176C8.85384 44.3009 8.64875 44.3432 8.44167 44.3415H3.23334C3.02485 44.3443 2.81816 44.3027 2.62704 44.2194C2.43593 44.136 2.26477 44.0129 2.125 43.8582C1.82624 43.5437 1.66182 43.1252 1.66667 42.6915Z" fill="white"/>
</svg>
