<svg width="50" height="50" viewBox="0 0 50 50" fill="none" xmlns="http://www.w3.org/2000/svg">
<path d="M50 48.3335H0V50.0002H50V48.3335Z" fill="white"/>
<path d="M37.5 0L12.5 5V6.66667L37.5 1.66667V0Z" fill="white"/>
<path d="M14.167 50L14.167 5H12.5003L12.5003 50H14.167Z" fill="white"/>
<path d="M37.4997 50V0L35.833 0.833333V50H37.4997Z" fill="white"/>
<path d="M20.0003 26.667H16.667V30.0003H20.0003V26.667Z" fill="#00ADB5"/>
<path d="M26.6668 26.667H23.3335V30.0003H26.6668V26.667Z" fill="#00ADB5"/>
<path d="M26.6668 33.3335H23.3335V36.6668H26.6668V33.3335Z" fill="#00ADB5"/>
<path d="M33.3333 26.667H30V30.0003H33.3333V26.667Z" fill="#00ADB5"/>
<path d="M20.0003 20H16.667V23.3333H20.0003V20Z" fill="#00ADB5"/>
<path d="M26.6668 20H23.3335V23.3333H26.6668V20Z" fill="#00ADB5"/>
<path d="M33.3333 20H30V23.3333H33.3333V20Z" fill="#00ADB5"/>
<path d="M20.0003 13.333H16.667V16.6663H20.0003V13.333Z" fill="#00ADB5"/>
<path d="M26.6668 13.333H23.3335V16.6663H26.6668V13.333Z" fill="#00ADB5"/>
<path d="M33.3333 13.333H30V16.6663H33.3333V13.333Z" fill="#00ADB5"/>
<path d="M26.6668 6.66699H23.3335V10.0003H26.6668V6.66699Z" fill="#00ADB5"/>
<path d="M33.3333 6.66699H30V10.0003H33.3333V6.66699Z" fill="#00ADB5"/>
<path d="M20.0003 33.3335H16.667V36.6668H20.0003V33.3335Z" fill="#00ADB5"/>
<path d="M26.6668 43.3335H23.3335V48.3335H26.6668V43.3335Z" fill="white"/>
<path d="M33.3333 33.3335H30V36.6668H33.3333V33.3335Z" fill="#00ADB5"/>
<path d="M25 40.0002C25.8841 40.0002 26.7319 40.3514 27.357 40.9765C27.9821 41.6016 28.3333 42.4494 28.3333 43.3335H30C30 42.0074 29.4732 40.7356 28.5355 39.798C27.5979 38.8603 26.3261 38.3335 25 38.3335C23.6739 38.3335 22.4021 38.8603 21.4645 39.798C20.5268 40.7356 20 42.0074 20 43.3335H21.6667C21.6667 42.4494 22.0179 41.6016 22.643 40.9765C23.2681 40.3514 24.1159 40.0002 25 40.0002Z" fill="#00ADB5"/>
<path d="M44.1667 43.3335H42.5V48.3335H44.1667V43.3335Z" fill="white"/>
<path d="M39.1666 42.6915C39.1633 42.3701 39.2531 42.0547 39.4249 41.7832C39.5908 41.5157 39.8353 41.3061 40.1249 41.1832C39.9839 40.9296 39.9256 40.6382 39.9583 40.3498C39.9866 40.0682 40.1033 39.8028 40.2916 39.5915C40.465 39.3808 40.7017 39.2318 40.9666 39.1665C41.245 39.0885 41.5425 39.1183 41.7999 39.2498C41.8314 38.8412 42.0124 38.4585 42.3083 38.1748C42.5876 37.898 42.965 37.7427 43.3583 37.7427C43.7516 37.7427 44.1289 37.898 44.4083 38.1748C44.6766 38.4424 44.8494 38.7909 44.8999 39.1665C45.1566 39.0325 45.4551 39.0027 45.7333 39.0832C45.9982 39.1484 46.2349 39.2975 46.4083 39.5082C46.5966 39.7195 46.7133 39.9849 46.7416 40.2665C46.7761 40.553 46.7239 40.8433 46.5916 41.0998C46.8813 41.2228 47.1258 41.4324 47.2916 41.6998C47.4589 41.996 47.5316 42.3362 47.4999 42.6748C47.5092 43.1143 47.3444 43.5396 47.0416 43.8582C46.9028 44.0118 46.733 44.1343 46.5434 44.2176C46.3538 44.3009 46.1487 44.3432 45.9416 44.3415H40.7333C40.5248 44.3443 40.3181 44.3027 40.127 44.2194C39.9359 44.136 39.7647 44.0129 39.6249 43.8582C39.3262 43.5437 39.1618 43.1252 39.1666 42.6915Z" fill="#00ADB5"/>
<path d="M6.66667 43.3335H5V48.3335H6.66667V43.3335Z" fill="white"/>
<path d="M1.66661 42.6915C1.66335 42.3701 1.75306 42.0547 1.92494 41.7832C2.09078 41.5157 2.33529 41.3061 2.62494 41.1832C2.48386 40.9296 2.42558 40.6382 2.45827 40.3498C2.48662 40.0682 2.60329 39.8028 2.79161 39.5915C2.96497 39.3808 3.20171 39.2318 3.46661 39.1665C3.74499 39.0885 4.04251 39.1183 4.29994 39.2498C4.33144 38.8412 4.51241 38.4585 4.80827 38.1748C5.08762 37.898 5.46499 37.7427 5.85827 37.7427C6.25156 37.7427 6.62893 37.898 6.90827 38.1748C7.17664 38.4424 7.34943 38.7909 7.39994 39.1665C7.65664 39.0325 7.95512 39.0027 8.23327 39.0832C8.49817 39.1484 8.73491 39.2975 8.90827 39.5082C9.09659 39.7195 9.21326 39.9849 9.24161 40.2665C9.27615 40.553 9.22389 40.8433 9.09161 41.0998C9.38126 41.2228 9.62577 41.4324 9.79161 41.6998C9.95891 41.996 10.0316 42.3362 9.99994 42.6748C10.0092 43.1143 9.84445 43.5396 9.54161 43.8582C9.40277 44.0118 9.23297 44.1343 9.04337 44.2176C8.85378 44.3009 8.64869 44.3432 8.44161 44.3415H3.23327C3.02479 44.3443 2.8181 44.3027 2.62698 44.2194C2.43586 44.136 2.26471 44.0129 2.12494 43.8582C1.82618 43.5437 1.66176 43.1252 1.66661 42.6915Z" fill="#00ADB5"/>
</svg>
