<svg width="50" height="50" viewBox="0 0 50 50" fill="none" xmlns="http://www.w3.org/2000/svg">
<g clip-path="url(#clip0_26_4494)">
<path d="M7.5 39.9998L7.5 11.6665H5.83333L5.83333 39.9998H7.5Z" fill="#00ADB5"/>
<path d="M49.1667 48.3335H0.833333L0 50.0002H50L49.1667 48.3335Z" fill="white"/>
<path d="M47.4998 45H2.49984L1.6665 46.6667H48.3332L47.4998 45Z" fill="white"/>
<path d="M45.8335 41.6665H4.16683L3.3335 43.3332H46.6668L45.8335 41.6665Z" fill="white"/>
<path d="M50 10L25 1.66667L0 10V8.33333L25 0L50 8.33333V10Z" fill="white"/>
<path d="M50 8.3335H0V10.0002H50V8.3335Z" fill="white"/>
<path d="M10.8335 39.9998L10.8335 11.6665H9.16683L9.16683 39.9998H10.8335Z" fill="#00ADB5"/>
<path d="M16.6665 39.9998V11.6665H14.9998L14.9998 39.9998H16.6665Z" fill="#00ADB5"/>
<path d="M20 39.9998V11.6665H18.3333V39.9998H20Z" fill="#00ADB5"/>
<path d="M31.6665 39.9998V11.6665H29.9998V39.9998H31.6665Z" fill="#00ADB5"/>
<path d="M35 39.9998V11.6665H33.3333V39.9998H35Z" fill="#00ADB5"/>
<path d="M40.8335 39.9998V11.6665H39.1668V39.9998H40.8335Z" fill="#00ADB5"/>
<path d="M44.1665 39.9998V11.6665H42.4998V39.9998H44.1665Z" fill="#00ADB5"/>
<path d="M25.0002 6.66683C25.9206 6.66683 26.6668 5.92064 26.6668 5.00016C26.6668 4.07969 25.9206 3.3335 25.0002 3.3335C24.0797 3.3335 23.3335 4.07969 23.3335 5.00016C23.3335 5.92064 24.0797 6.66683 25.0002 6.66683Z" fill="#00ADB5"/>
</g>
<defs>
<clipPath id="clip0_26_4494">
<rect width="50" height="50" fill="white"/>
</clipPath>
</defs>
</svg>
