<svg width="50" height="50" viewBox="0 0 50 50" fill="none" xmlns="http://www.w3.org/2000/svg">
<g clip-path="url(#clip0_26_4512)">
<path d="M37.2998 17.9914L40.4915 21.1748L41.6665 22.3581L42.8415 21.1748L46.0331 17.9914L44.8581 16.8081L41.6665 19.9998L38.4748 16.8081L37.2998 17.9914Z" fill="#00ADB5"/>
<path d="M42.5 20.8333H40.8333C40.8333 14.725 40.8333 11.9417 38.5417 10.6167C36.025 9.16667 30.6667 9.16667 20 9.16667V7.5C41.6667 7.5 42.5 7.5 42.5 20.8333Z" fill="#00ADB5"/>
<path d="M12.4833 32.2832L9.3 29.0915L8.11667 27.9165L6.94167 29.0915L3.75 32.2832L4.925 33.4665L8.11667 30.2748L11.3083 33.4665L12.4833 32.2832Z" fill="#00ADB5"/>
<path d="M29.7832 42.7752C7.91654 42.7752 7.2832 42.4002 7.2832 29.4419H8.94987C8.94987 41.1086 8.94987 41.1086 29.7832 41.1086V42.7752Z" fill="#00ADB5"/>
<path d="M41.6668 26.6667C43.4349 26.6667 45.1306 27.369 46.3809 28.6193C47.6311 29.8695 48.3335 31.5652 48.3335 33.3333C48.3335 36.875 45.2335 43.3333 41.6668 47.5C38.1002 43.3333 35.0002 36.8333 35.0002 33.3333C35.0002 31.5652 35.7025 29.8695 36.9528 28.6193C38.203 27.369 39.8987 26.6667 41.6668 26.6667ZM41.6668 25C39.4567 25 37.3371 25.878 35.7743 27.4408C34.2115 29.0036 33.3335 31.1232 33.3335 33.3333C33.3335 37.9333 37.5002 45.8333 41.6668 50C45.8335 45.8333 50.0002 37.9333 50.0002 33.3333C50.0002 31.1232 49.1222 29.0036 47.5594 27.4408C45.9966 25.878 43.877 25 41.6668 25Z" fill="white"/>
<path d="M41.6668 36.6667C43.5078 36.6667 45.0002 35.1743 45.0002 33.3333C45.0002 31.4924 43.5078 30 41.6668 30C39.8259 30 38.3335 31.4924 38.3335 33.3333C38.3335 35.1743 39.8259 36.6667 41.6668 36.6667Z" fill="white"/>
<path d="M8.33333 1.66667C10.1014 1.66667 11.7971 2.36905 13.0474 3.61929C14.2976 4.86953 15 6.56522 15 8.33333C15 11.875 11.9 18.3333 8.33333 22.5417C4.76667 18.375 1.66667 11.875 1.66667 8.375C1.66667 6.60689 2.36905 4.9112 3.61929 3.66095C4.86953 2.41071 6.56522 1.70833 8.33333 1.70833V1.66667ZM8.33333 0.0416667C6.1304 0.0416391 4.01707 0.913891 2.45546 2.46769C0.893849 4.0215 0.0110147 6.13042 0 8.33333C0 12.9333 4.16667 20.8333 8.33333 25C12.5 20.8333 16.6667 12.9333 16.6667 8.33333C16.6667 6.1232 15.7887 4.00358 14.2259 2.44078C12.6631 0.877974 10.5435 0 8.33333 0V0.0416667Z" fill="white"/>
<path d="M8.33333 11.6667C10.1743 11.6667 11.6667 10.1743 11.6667 8.33333C11.6667 6.49238 10.1743 5 8.33333 5C6.49238 5 5 6.49238 5 8.33333C5 10.1743 6.49238 11.6667 8.33333 11.6667Z" fill="white"/>
</g>
<defs>
<clipPath id="clip0_26_4512">
<rect width="50" height="50" fill="white"/>
</clipPath>
</defs>
</svg>
