<svg width="50" height="50" viewBox="0 0 50 50" fill="none" xmlns="http://www.w3.org/2000/svg">
<g clip-path="url(#clip0_26_4529)">
<path d="M20.875 0L14.3333 3C14.4583 3.20833 14.5833 3.41667 14.6667 3.625C15.6667 5.79167 14.7083 8.41667 12.5417 9.375C11.9583 9.66667 11.3333 9.79167 10.7083 9.79167C9.04167 9.79167 7.45833 8.83333 6.75 7.25C6.66667 7.04167 6.58333 6.79167 6.5 6.58333L0 9.58333L12.4583 36.75L13.375 34.75L2.20833 10.4167L5.70833 8.79167C6.83333 10.4583 8.70833 11.4583 10.7083 11.4583C11.5833 11.4583 12.4167 11.2917 13.2083 10.9167C15.9167 9.66667 17.2917 6.625 16.5 3.83333L20 2.20833L24.1667 11.2083L25.0833 9.20833L20.875 0ZM31.7083 23.5833L30.7917 25.5833L31.7083 27.5833L32.625 25.5833L31.7083 23.5833ZM25.0833 41.7083C24.75 41.25 24.3333 40.875 23.8333 40.5833C23.4583 41.0833 23.125 41.625 22.9167 42.2083C22.4583 43.4167 22.4167 44.7083 22.75 45.9167L19.25 47.5417L17.2083 43.0833L14.875 42L18.4167 49.7083L24.9583 46.7083C24.8333 46.5 24.7083 46.2917 24.5833 46.0833C23.9167 44.6667 24.1667 42.9583 25.0833 41.7083ZM37.7083 36.75L36.8333 38.75L37.125 39.4167L36.375 39.75L35.2917 42.0833L39.3333 40.25L37.7083 36.75ZM29.9167 19.75L29.5833 20.5417L30.5 20.9583L29.9167 19.75ZM29.0417 21.8333L29.7917 23.5L30.2917 22.4167L29.0417 21.8333Z" fill="white"/>
<path d="M35.9998 30.4166L35.4165 31.6666L35.3748 31.7916L34.0415 31.1666L34.5832 29.9166L34.6248 29.8333L35.9998 30.4166Z" fill="white"/>
<path d="M15.8333 33.3748L15.625 33.7914L15.5 33.4998L15.8333 33.3748Z" fill="white"/>
<path d="M22.8748 14L21.9582 16L20.4582 12.7083L9.99984 17.5L14.9165 28.2083L13.3748 28.9167L7.7915 16.6667L21.2915 10.5L22.8748 14Z" fill="#00ADB5"/>
<path d="M27.9167 27.6251L27.625 28.3334L27.125 27.2917L27.9167 27.6251Z" fill="white"/>
<path d="M28.5415 26.3334L28.4998 26.3751L27.1665 25.7501L27.7082 24.5417L28.5415 26.3334Z" fill="white"/>
<path d="M30.4167 30.4167L29.2083 33.0001L28.5 32.6667L29.4167 32.2501L28.5833 30.4167L29.5 28.4167L30.4167 30.4167Z" fill="white"/>
<path d="M18.5 23.5834L17.5833 25.5834L14.375 18.6251L15.9167 17.9167L18.5 23.5834Z" fill="white"/>
<path d="M25.4165 30.9584L25.0832 31.1251L24.7915 30.9584L25.0832 30.2917L25.4165 30.9584Z" fill="white"/>
<path d="M20.2498 19.7497L19.7082 20.958L19.2915 21.1663L18.6665 19.7913L19.9998 19.208L20.2498 19.7497Z" fill="white"/>
<path d="M17.4765 17.2075L18.0845 18.533L19.41 17.925L18.802 16.5995L17.4765 17.2075Z" fill="white"/>
<path d="M15.5835 29.9166L14.7918 31.6666L14.2085 30.4166L15.5418 29.8333L15.5835 29.9166Z" fill="white"/>
<path d="M15.5 33.4998L15.625 33.7914L15.8333 33.3748L15.5 33.4998ZM15.5 33.4998L15.625 33.7914L15.8333 33.3748L15.5 33.4998ZM15.5 33.4998L15.625 33.7914L15.8333 33.3748L15.5 33.4998ZM15.5 33.4998L15.625 33.7914L15.8333 33.3748L15.5 33.4998ZM15.5 33.4998L15.625 33.7914L15.8333 33.3748L15.5 33.4998ZM15.5 33.4998L15.625 33.7914L15.8333 33.3748L15.5 33.4998ZM15.5 33.4998L15.625 33.7914L15.8333 33.3748L15.5 33.4998ZM15.5 33.4998L15.625 33.7914L15.8333 33.3748L15.5 33.4998ZM15.5 33.4998L15.625 33.7914L15.8333 33.3748L15.5 33.4998ZM15.5 33.4998L15.625 33.7914L15.8333 33.3748L15.5 33.4998ZM15.5 33.4998L15.625 33.7914L15.8333 33.3748L15.5 33.4998ZM15.5 33.4998L15.625 33.7914L15.8333 33.3748L15.5 33.4998ZM15.5 33.4998L15.625 33.7914L15.8333 33.3748L15.5 33.4998ZM15.5 33.4998L15.625 33.7914L15.8333 33.3748L15.5 33.4998ZM15.5 33.4998L15.625 33.7914L15.8333 33.3748L15.5 33.4998ZM15.5 33.4998L15.625 33.7914L15.8333 33.3748L15.5 33.4998ZM15.5 33.4998L15.625 33.7914L15.8333 33.3748L15.5 33.4998ZM15.5 33.4998L15.625 33.7914L15.8333 33.3748L15.5 33.4998ZM15.5 33.4998L15.625 33.7914L15.8333 33.3748L15.5 33.4998ZM15.5 33.4998L15.625 33.7914L15.8333 33.3748L15.5 33.4998ZM15.5 33.4998L15.625 33.7914L15.8333 33.3748L15.5 33.4998ZM15.5 33.4998L15.625 33.7914L15.8333 33.3748L15.5 33.4998Z" fill="white"/>
<path d="M43.6668 6.58333C43.6252 6.79167 43.5418 7.04167 43.4168 7.25C42.6668 8.83333 41.1252 9.79167 39.4585 9.79167C38.8335 9.79167 38.2502 9.66667 37.6668 9.375C35.5002 8.375 34.5418 5.79167 35.5002 3.625C35.5835 3.41667 35.7085 3.20833 35.8335 3L29.3335 0L25.0835 9.20833L24.1668 11.2083L22.8752 14.0417L21.9585 16.0417L20.2502 19.7917L19.7085 21L18.5002 23.625L17.5835 25.625L15.5835 29.9583L14.7502 31.7083L13.3335 34.75L12.4168 36.75L10.8335 40.2083L14.8752 42.0417L17.2085 43.125L17.3752 43.2083C17.4585 42.9583 17.5002 42.75 17.6252 42.5C18.3752 40.9167 19.9168 39.9583 21.5835 39.9583C22.2085 39.9583 22.7918 40.0833 23.4168 40.3333C23.5835 40.4167 23.7085 40.4583 23.8335 40.5833C24.3335 40.875 24.7502 41.25 25.0835 41.7083C26.0002 42.9583 26.2502 44.625 25.5418 46.125C25.4585 46.3333 25.3335 46.5833 25.1668 46.75L31.7085 49.75L35.2502 42.0417L36.3335 39.7083L36.7918 38.7083L37.7085 36.7083L50.2085 9.58333L43.6668 6.58333ZM36.8335 34.75L35.9168 36.75L34.0418 40.8333L32.9585 43.1667L30.9168 47.625L27.4168 46C27.7502 44.7917 27.7085 43.5 27.2502 42.2917C27.0418 41.7083 26.7085 41.125 26.3335 40.6667C26.0002 40.2083 25.5835 39.8333 25.0835 39.5C24.7918 39.2917 24.4585 39.0833 24.1252 38.9167C23.3335 38.5 22.5002 38.3333 21.6252 38.3333C19.5835 38.3333 17.7085 39.375 16.6252 41.0417L16.2085 40.8333L13.8752 39.75L13.1252 39.4167L13.4168 38.75L14.3335 36.75L15.6668 33.7917L15.5418 33.5L15.8752 33.3333L18.5418 27.5417L19.4585 25.5417L20.4168 23.4583L21.2085 21.7917L22.9585 17.9583L23.8752 15.9583L25.1668 13.1667L26.0835 11.1667L30.2085 2.16667L33.7085 3.79167C32.9168 6.58333 34.2918 9.625 37.0002 10.875C37.7918 11.25 38.6252 11.4167 39.5002 11.4167C41.5418 11.4167 43.4168 10.375 44.5002 8.75L48.0418 10.375L36.8335 34.75Z" fill="white"/>
<path d="M42.4165 16.6667L36.7915 28.9167L35.2915 28.2083L40.2082 17.5L29.7498 12.7083L28.2082 16L27.2915 18L25.9998 20.8333L25.0832 22.8333L23.0415 27.25L22.5832 28.3333L21.6248 30.4167L20.7498 32.25L21.6665 32.6667L25.0832 34.25L27.0832 35.1667L31.2082 37.0417L33.1665 32.8333L34.3332 33.375L34.5415 33.7917L32.0415 39.25L25.0832 36.0833L23.0832 35.1667L18.5415 33.0833L19.7915 30.375L20.7082 28.4167L21.6665 26.3333L22.4582 24.5417L24.1665 20.8333L25.0832 18.8333L26.3748 16L27.2915 14L28.9165 10.5L42.4165 16.6667Z" fill="#00ADB5"/>
<path d="M34.6668 33.4998L34.5418 33.7914L34.3335 33.3748L34.6668 33.4998Z" fill="#00ADB5"/>
<path d="M35.7918 18.6251L32.6252 25.5834L31.7085 27.5834L30.4168 30.4167L29.2085 33.0001L28.5002 32.6667L27.7085 32.2917L28.5835 30.4167L29.5002 28.4167L30.7918 25.5834L31.7085 23.5834L34.2918 17.9167L35.7918 18.6251Z" fill="white"/>
<path d="M26.7498 30.25L26.1248 31.5833L25.0832 31.125L24.7915 30.9583L25.0832 30.2917L25.4165 29.625L26.7498 30.25Z" fill="white"/>
<path d="M27.9167 27.625L27.625 28.3333L27.3333 28.9583L26 28.375L26.5833 27L27.125 27.25V27.2917L27.9167 27.625Z" fill="white"/>
<path d="M29.1248 25.0415L28.5415 26.3332L28.4998 26.3748L27.1665 25.7498L27.7082 24.5415L27.7915 24.4165L29.1248 25.0415Z" fill="white"/>
<path d="M30.3333 22.4165L29.8333 23.4998L29.7083 23.7498L28.375 23.1248L29 21.7915L29.0417 21.8332L30.3333 22.4165Z" fill="white"/>
<path d="M31.5413 19.7916L30.9163 21.1666L30.4997 20.9583L29.583 20.5416L29.9163 19.7499L30.1663 19.2083L31.5413 19.7916Z" fill="white"/>
<path d="M32.7083 17.2083L32.125 18.5416L30.75 17.9166L31.375 16.5833L32.7083 17.2083Z" fill="white"/>
</g>
<defs>
<clipPath id="clip0_26_4529">
<rect width="50" height="50" fill="white"/>
</clipPath>
</defs>
</svg>
