<svg width="54" height="41" viewBox="0 0 54 41" fill="none" xmlns="http://www.w3.org/2000/svg">
<path d="M41.0536 31.3208C41.3377 32.3942 41.6713 33.3854 41.8516 34.4025C42.059 35.5717 42.1747 36.7636 42.2528 37.951C42.3249 39.0684 41.5571 39.9137 40.5502 39.9502C39.4713 39.9882 38.6628 39.2493 38.6358 38.0984C38.6042 36.8229 38.484 35.5656 38.1534 34.3356C37.2878 31.1126 35.6003 28.452 32.8188 26.5911C28.8095 23.9077 23.6973 24.2589 20.0623 27.4501C17.428 29.7625 15.9719 32.7165 15.5226 36.1935C15.4504 36.756 15.452 37.3261 15.3979 37.8917C15.3678 38.2094 15.3392 38.5393 15.2295 38.8343C14.9425 39.6066 14.1912 40.0292 13.3391 39.9471C12.5983 39.8757 11.8995 39.2873 11.8304 38.4937C11.7598 37.6895 11.8049 36.867 11.8845 36.0612C12.0363 34.5318 12.3954 33.0449 12.9469 31.6082C12.974 31.5382 12.9785 31.4607 13.0025 31.3467C11.7643 30.6458 10.4599 30.4223 9.06693 30.7705C5.85263 31.5763 3.60758 34.477 3.60908 37.8217C3.60908 38.068 3.62862 38.3189 3.59406 38.5606C3.46783 39.4485 2.62931 40.1037 1.69914 40.0627C0.821553 40.0232 0.0732029 39.2752 0.0191053 38.3827C-0.306983 32.9141 3.57753 27.9807 8.8866 27.0822C10.744 26.7675 12.4946 27.0639 14.1882 27.8469C14.3414 27.9184 14.4917 27.9929 14.645 28.0643C14.66 28.0719 14.6781 28.0719 14.7096 28.0795C17.6745 23.7314 21.7228 21.194 26.9943 21.1849C32.2703 21.1757 36.3186 23.7055 39.2865 28.0445C40.0378 27.7709 40.7726 27.441 41.5375 27.2342C43.8367 26.6154 46.0441 26.997 48.1164 28.0917C51.3878 29.8188 53.3428 32.5447 53.8958 36.2512C54.001 36.9582 54.01 37.6864 53.9935 38.4025C53.9709 39.339 53.143 40.0703 52.1932 40.0642C51.2495 40.0596 50.4696 39.3086 50.4095 38.3721C50.3614 37.6378 50.3674 36.8867 50.2082 36.1752C49.547 33.2258 47.2133 31.0578 44.2755 30.6413C43.1304 30.4786 42.0514 30.7629 41.0551 31.3208H41.0536Z" fill="#43E4EE"/>
<path d="M26.7674 17.9922C21.9692 18.053 17.8939 13.9983 17.8743 9.05573C17.8548 4.06755 21.864 0.0615005 26.6637 0.000687656C31.528 -0.0601252 35.6424 3.92008 35.6679 8.9493C35.6935 14.0393 31.5715 18.0439 26.7689 17.9922H26.7674ZM26.6892 14.3495C29.6421 14.3738 32.0569 11.9778 32.0644 9.01468C32.0719 6.10782 29.6901 3.66922 26.826 3.64946C23.9408 3.62818 21.5199 6.0166 21.4944 8.90825C21.4673 11.8896 23.795 14.3267 26.6907 14.3495H26.6892Z" fill="#43E4EE"/>
<path d="M50.405 16.3715C50.4561 19.7801 47.7813 23.2844 43.5496 23.292C39.7298 23.2996 36.7183 20.2134 36.7228 16.3928C36.7288 12.0568 40.2782 9.39628 43.6143 9.44341C47.3725 9.49814 50.4035 12.5449 50.405 16.3715ZM43.5677 19.6174C45.3694 19.6189 46.8225 18.1488 46.8075 16.3396C46.791 14.5699 45.3168 13.0907 43.5722 13.0937C41.7794 13.0967 40.3474 14.5669 40.3549 16.3943C40.3624 18.202 41.7719 19.6159 43.5692 19.6174H43.5677Z" fill="#43E4EE"/>
<path d="M16.8104 16.3609C16.8269 20.1814 13.7479 23.3346 9.95203 23.2996C5.9458 23.2631 3.13873 19.9732 3.13122 16.4354C3.1222 12.5981 6.13664 9.50878 9.87839 9.44493C13.4984 9.38411 16.8149 12.3579 16.8104 16.3609ZM9.98058 19.6174C11.7974 19.6113 13.1964 18.1761 13.1874 16.3274C13.1783 14.5426 11.7237 13.0831 9.96255 13.0937C8.16831 13.1043 6.74674 14.5699 6.75275 16.4034C6.75877 18.1959 8.19235 19.6235 9.98058 19.6189V19.6174Z" fill="#43E4EE"/>
</svg>
