<svg width="54" height="54" viewBox="0 0 54 54" fill="none" xmlns="http://www.w3.org/2000/svg">
<path d="M49.0462 53.9986H4.96227C4.64808 53.9042 4.33388 53.814 4.02251 53.714C1.64424 52.9462 -0.00702219 50.661 2.24536e-05 48.1223C0.0211564 40.7399 0.00706709 33.3589 0.00706709 25.9766C0.00706709 20.4398 0.00284031 14.9044 0.0141117 9.36764C0.0141117 8.84636 0.0591974 8.30959 0.184592 7.80522C0.842561 5.1749 3.12221 3.40398 5.83439 3.38566C7.0827 3.37721 8.32961 3.38425 9.57792 3.38425C9.7498 3.38425 9.92028 3.38425 10.1232 3.38425C10.133 3.19969 10.1457 3.06304 10.1471 2.92779C10.1499 2.50654 10.1387 2.08388 10.1513 1.66264C10.1781 0.715892 10.8389 0.0227378 11.7124 0.00724042C12.6085 -0.00825693 13.2749 0.627134 13.344 1.58515C13.3693 1.93455 13.3524 2.28817 13.3538 2.63897C13.3538 2.87707 13.3538 3.11375 13.3538 3.34199H20.3492C20.3492 2.68546 20.3182 2.07121 20.3562 1.45976C20.4267 0.305917 21.6707 -0.359061 22.6824 0.203071C23.2375 0.511609 23.5023 1.00471 23.5136 1.63164C23.5235 2.20505 23.515 2.77704 23.515 3.35044H30.492C30.492 2.73759 30.4765 2.15855 30.4949 1.58093C30.5371 0.341138 31.8193 -0.388646 32.8774 0.219977C33.3902 0.515835 33.6523 0.973711 33.6607 1.56261C33.6706 2.15433 33.6621 2.74745 33.6621 3.35185H40.6518C40.6518 2.95315 40.6448 2.58544 40.6532 2.21913C40.6603 1.90355 40.656 1.58374 40.7096 1.27521C40.8336 0.569371 41.4366 0.0495059 42.1312 0.00864927C42.8723 -0.0350251 43.5429 0.400309 43.7515 1.09346C43.8261 1.34142 43.8444 1.61051 43.8515 1.87115C43.867 2.35861 43.8557 2.84607 43.8557 3.38425C44.0797 3.38425 44.2516 3.38425 44.4235 3.38425C45.6887 3.38425 46.9554 3.37439 48.2206 3.38707C50.9877 3.41243 53.335 5.35383 53.8915 8.05741C53.9112 8.15321 53.9634 8.24338 54 8.33636V49.0437C53.9648 49.1197 53.9155 49.1916 53.8986 49.2705C53.3533 51.6965 51.8598 53.2082 49.4773 53.8676C49.3322 53.9084 49.1885 53.9563 49.0434 54L49.0462 53.9986ZM50.8412 16.7852H3.16729C3.16729 17.0163 3.16729 17.2065 3.16729 17.3981C3.16729 27.5207 3.16729 37.6418 3.16729 47.7644C3.16729 47.9222 3.16307 48.0814 3.17152 48.2392C3.22647 49.3677 3.9098 50.3328 4.96368 50.6638C5.37367 50.792 5.82594 50.8301 6.25848 50.8301C20.0899 50.8385 33.92 50.8371 47.7514 50.8371C47.9092 50.8371 48.0684 50.8428 48.2262 50.8329C49.0575 50.7836 49.7535 50.4596 50.272 49.796C50.7144 49.2296 50.8454 48.5745 50.8454 47.8687C50.8412 37.694 50.8426 27.5193 50.8426 17.3445V16.7866L50.8412 16.7852ZM43.8938 6.58093C43.8811 6.70914 43.8614 6.80917 43.8614 6.9106C43.8571 7.40229 43.8797 7.89539 43.8515 8.38567C43.7994 9.27888 43.1456 9.9185 42.2989 9.93963C41.4422 9.96076 40.7716 9.36482 40.6758 8.4702C40.6405 8.13912 40.6575 7.80382 40.6546 7.46992C40.6518 7.17829 40.6546 6.88806 40.6546 6.61052C39.7938 6.49781 34.0707 6.53303 33.6607 6.6556C33.6607 7.25577 33.6833 7.87003 33.6551 8.48147C33.6213 9.22394 33.0619 9.81706 32.3504 9.91991C31.5586 10.034 30.8499 9.62828 30.6033 8.88863C30.5273 8.66181 30.5061 8.40821 30.4991 8.1673C30.4836 7.64602 30.4949 7.12475 30.4949 6.58939H23.5164C23.5164 7.21773 23.5362 7.81368 23.5122 8.40821C23.4756 9.30001 22.7697 9.95654 21.8962 9.94245C21.0424 9.92977 20.3858 9.28311 20.3506 8.39976C20.3323 7.92639 20.3478 7.4516 20.3407 6.97682C20.3393 6.84439 20.3111 6.71196 20.2956 6.58657H13.3581C13.3581 6.98246 13.3651 7.34735 13.3567 7.71224C13.3496 8.02782 13.3553 8.34763 13.3017 8.65617C13.1763 9.39018 12.5747 9.90441 11.8407 9.93822C11.0981 9.97344 10.4486 9.53106 10.25 8.81819C10.1767 8.55191 10.1654 8.26592 10.157 7.98697C10.1429 7.52205 10.1528 7.05572 10.1528 6.55417C8.75369 6.55417 7.43775 6.55417 6.12322 6.55417C5.96542 6.55417 5.80621 6.55135 5.64982 6.56825C4.18031 6.72886 3.18984 7.80804 3.17434 9.28874C3.16025 10.6243 3.17152 11.9599 3.17434 13.2955C3.17434 13.3617 3.19829 13.4279 3.21238 13.5012H50.844C50.844 13.3462 50.844 13.2265 50.844 13.1067C50.844 11.8585 50.851 10.6117 50.8426 9.36341C50.8313 7.68829 49.7056 6.56825 48.0191 6.55557C46.7891 6.54571 45.5591 6.55276 44.3291 6.55557C44.1925 6.55557 44.0572 6.57107 43.898 6.58093H43.8938Z" fill="#43E4EE"/>
<path d="M12.6085 45.5469C11.5546 45.5469 10.5008 45.5497 9.44688 45.5469C8.27043 45.5427 7.61387 44.8932 7.61246 43.7267C7.60964 41.619 7.60964 39.5114 7.61246 37.4038C7.61387 36.226 8.26198 35.5694 9.43139 35.5666C11.5391 35.561 13.6469 35.5624 15.7547 35.5666C16.9325 35.5694 17.5905 36.2175 17.5933 37.3883C17.5989 39.4959 17.5989 41.6035 17.5933 43.7112C17.5905 44.8876 16.9367 45.5427 15.7702 45.5483C14.7163 45.5525 13.6624 45.5483 12.6085 45.5483V45.5469ZM10.7995 38.7985C10.8051 39.9876 10.7825 41.1499 10.8135 42.3178H14.3542V38.7985H10.7995Z" fill="#43E4EE"/>
<path d="M46.396 40.5708C46.396 41.6247 46.3988 42.6785 46.396 43.7323C46.3918 44.8749 45.7381 45.5413 44.6067 45.5455C42.4806 45.5511 40.3559 45.5497 38.2299 45.5455C37.0886 45.5427 36.4194 44.8876 36.4152 43.7548C36.4081 41.6289 36.4095 39.5043 36.4152 37.3784C36.418 36.2344 37.076 35.568 38.2073 35.5652C40.3334 35.5582 42.4581 35.5596 44.5841 35.5652C45.7479 35.568 46.3932 36.2288 46.396 37.4094C46.3988 38.4632 46.396 39.517 46.396 40.5708ZM43.1865 38.8027H39.6515V42.339C40.8406 42.3601 42.0044 42.3798 43.1865 42.3277V38.8027Z" fill="#43E4EE"/>
<path d="M31.9714 40.5568C31.9714 41.6275 31.9418 42.6996 31.9799 43.7689C32.0221 44.9284 31.1289 45.561 30.2159 45.5525C28.0743 45.5328 25.9313 45.5328 23.7898 45.5525C22.7796 45.561 22.0117 44.8213 22.0258 43.8211C22.0568 41.6444 22.0582 39.4663 22.0258 37.2896C22.0117 36.3429 22.719 35.5596 23.739 35.5624C25.9158 35.568 28.094 35.5666 30.2708 35.5624C31.2979 35.561 32.0109 36.3373 31.9799 37.291C31.9446 38.3787 31.9714 39.4677 31.9714 40.5568ZM25.2311 42.3136H28.7731V38.7999H25.2311V42.3136Z" fill="#43E4EE"/>
<path d="M41.3943 22.0332C42.4834 22.0332 43.5725 22.06 44.6602 22.0262C45.7479 21.9923 46.4115 22.8503 46.4031 23.7759C46.3819 25.9357 46.3862 28.0955 46.4002 30.2552C46.4059 31.1907 45.7169 31.9895 44.6856 31.9783C42.4905 31.9529 40.2954 31.9529 38.1017 31.9783C37.3014 31.9881 36.418 31.4091 36.4152 30.2792C36.4109 28.1025 36.4166 25.9244 36.4124 23.7478C36.4109 22.6644 37.2366 21.9952 38.1284 22.0247C39.2161 22.0614 40.3052 22.0332 41.3943 22.0332ZM43.178 25.2397H39.6628V28.7731H43.178V25.2397Z" fill="#43E4EE"/>
<path d="M12.6621 22.0332C13.7328 22.0332 14.805 22.06 15.8744 22.0247C16.7381 21.9952 17.5933 22.6179 17.5947 23.7435C17.5947 25.9202 17.5975 28.0983 17.5947 30.275C17.5933 31.3556 16.7663 31.9924 15.8589 31.9783C13.6821 31.9473 11.5039 31.9487 9.32712 31.9755C8.25775 31.9881 7.60119 31.1442 7.60823 30.2567C7.62514 28.08 7.62091 25.9019 7.61105 23.7252C7.60682 22.7475 8.3606 22.0022 9.29331 22.0262C10.4162 22.0543 11.5406 22.0332 12.6649 22.0332H12.6621ZM14.357 25.2383H10.8361V28.7717H14.357V25.2383Z" fill="#43E4EE"/>
<path d="M25.8327 27.16C26.4724 26.5091 27.0838 25.8808 27.701 25.2581C28.2941 24.6593 28.8774 24.0479 29.4931 23.473C30.3821 22.6432 31.7178 22.9729 32.094 24.1056C32.3067 24.7481 32.1377 25.313 31.66 25.7892C30.8513 26.5951 30.0454 27.4037 29.2381 28.211C28.5181 28.9309 27.801 29.6551 27.0754 30.3708C26.2371 31.1992 25.3776 31.2034 24.545 30.382C23.794 29.6424 23.0416 28.9042 22.3118 28.1448C21.4383 27.2361 21.7863 25.8385 22.9641 25.4835C23.5728 25.3003 24.1096 25.468 24.5605 25.9005C24.9761 26.2992 25.379 26.7092 25.8313 27.1572L25.8327 27.16Z" fill="#43E4EE"/>
</svg>
