<svg width="54" height="54" viewBox="0 0 54 54" fill="none" xmlns="http://www.w3.org/2000/svg">
<path d="M25.2087 53.9986C24.7621 53.9324 24.3155 53.8577 23.8675 53.8027C17.36 52.9883 11.857 50.169 7.35859 45.4264C3.67867 41.546 1.35829 36.95 0.412955 31.6733C0.000161398 29.3767 -0.101276 27.0702 0.10019 24.7468C0.610194 18.8502 2.84463 13.6863 6.74151 9.25086C10.3608 5.13101 14.8368 2.35391 20.1312 0.91112C22.446 0.278489 24.8058 -0.0385308 27.2079 0.00373859C28.2716 0.0220553 28.9704 0.867442 28.7914 1.90586C28.7041 2.41168 28.3688 2.72729 27.9771 3.02036C27.105 3.6699 26.1977 4.28562 25.3975 5.01547C22.1698 7.96728 20.0988 11.5982 19.4 15.9238C18.3462 22.4586 20.2524 28.0748 24.9481 32.7146C27.7348 35.4691 31.1132 37.143 34.9833 37.7784C40.3496 38.6605 45.2229 37.46 49.5973 34.2306C49.7382 34.1264 49.8791 34.0193 50.0144 33.908C50.6413 33.3852 51.4711 33.4472 51.9741 33.7995C52.5813 34.2264 52.794 34.9393 52.532 35.7213C52.0854 37.0542 51.5303 38.342 50.8653 39.5805C47.8476 45.1953 43.4294 49.3039 37.5883 51.8598C35.2947 52.863 32.8954 53.5054 30.406 53.7957C29.903 53.8549 29.4029 53.931 28.9013 54H25.2101L25.2087 53.9986ZM22.1135 3.72203C11.5062 5.90031 2.80941 15.5927 3.19262 27.7606C3.56737 39.6341 12.6897 49.4631 24.7382 50.7129C27.7193 51.0214 30.6568 50.7424 33.5449 49.9196C36.4485 49.0925 39.0915 47.754 41.4824 45.9167C43.814 44.1245 46.9487 40.5386 47.2713 39.3128C36.3344 44.0949 25.2482 39.441 19.8607 31.6832C14.3859 23.7986 14.2253 12.1252 22.1135 3.72203Z" fill="#43E4EE"/>
<path d="M53.9986 17.9288C53.931 18.0471 53.8619 18.1641 53.7943 18.2824C53.4379 18.9024 52.7179 19.2208 52.0516 19.0545C51.3218 18.8728 50.8287 18.2331 50.8371 17.4807C50.8456 16.7579 51.3429 16.1337 52.0516 15.959C52.7194 15.7942 53.4393 16.1126 53.7957 16.7311C53.8633 16.8495 53.931 16.9678 54 17.0862V17.9302L53.9986 17.9288Z" fill="#43E4EE"/>
<path d="M44.5058 10.9811C44.5015 11.9603 43.8535 12.6085 42.9307 12.6535C41.1006 12.7423 39.7298 13.5905 38.8084 15.1629C38.3744 15.9055 38.2096 16.7255 38.173 17.5793C38.1363 18.4487 37.4488 19.0869 36.5908 19.0855C35.7582 19.0827 35.0876 18.4529 35.0157 17.6216C34.9791 17.2031 34.9537 16.7776 34.8537 16.3732C34.3155 14.2091 32.5333 12.7409 30.3045 12.6662C29.3127 12.6324 28.6463 11.811 28.6858 11.0205C28.7252 10.216 29.3395 9.56365 30.1482 9.4932C30.5666 9.45657 30.9921 9.43544 31.3978 9.3354C33.5097 8.8169 34.9143 7.04158 35.0101 4.77595C35.0397 4.09541 35.3299 3.59381 35.9385 3.30497C36.936 2.83297 38.0744 3.52618 38.18 4.628C38.2336 5.18314 38.2899 5.75237 38.4632 6.27651C39.0958 8.19272 40.7822 9.39176 42.8954 9.49039C43.6802 9.52702 44.2155 9.9159 44.4339 10.6176C44.4804 10.7655 44.4931 10.9247 44.5029 10.9811H44.5058ZM37.9898 11.1459C37.5334 10.6641 37.0445 10.147 36.6261 9.70596C36.1654 10.1723 35.6652 10.6796 35.1961 11.1544C35.6342 11.57 36.1597 12.0688 36.5979 12.4859C37.0459 12.0547 37.5503 11.5686 37.9884 11.1473L37.9898 11.1459Z" fill="#43E4EE"/>
<path d="M50.8329 4.76467C50.8244 5.65515 50.1073 6.34414 49.2071 6.32441C48.3421 6.3061 47.6672 5.60161 47.6743 4.72522C47.6813 3.83475 48.3984 3.14717 49.2987 3.16548C50.1637 3.1838 50.8399 3.88829 50.8329 4.76467Z" fill="#43E4EE"/>
</svg>
