<svg width="54" height="54" viewBox="0 0 54 54" fill="none" xmlns="http://www.w3.org/2000/svg">
<path d="M53.7908 3.70108C53.588 3.15592 53.3979 2.60124 53.0789 2.13531C51.8494 0.340276 50.041 -0.190099 47.9559 0.057128C45.5634 0.340277 43.5638 1.39258 41.8737 3.10731C39.1611 5.85956 36.4074 8.57272 33.6895 11.3207C33.3853 11.6282 33.1191 11.6704 32.7262 11.5775C25.5518 9.88069 18.3901 8.12581 11.1925 6.53362C6.83843 5.57007 3.24913 7.05555 0.51121 10.5579C-0.357066 11.6694 -0.102498 12.6414 1.1471 13.3144C7.6465 16.8157 14.1448 20.3192 20.6442 23.8215C20.7361 23.8712 20.8259 23.924 20.9643 24.0022C20.8312 24.1459 20.7224 24.2737 20.6041 24.3921C17.562 27.437 14.5156 30.4766 11.4819 33.5299C11.2231 33.7898 10.9664 33.886 10.6062 33.8828C8.74399 33.867 6.88174 33.8585 5.02054 33.8807C2.29635 33.9124 0.0812973 36.055 0.0210884 38.6541C0.00313132 39.4254 0.312626 39.9504 0.963306 40.3382C3.46567 41.8279 5.96276 43.326 8.45034 44.8411C8.75033 45.0239 9.00173 45.2753 9.18447 45.5743C10.6231 47.9367 12.0206 50.3245 13.4741 52.6773C13.6378 52.9415 13.8522 53.175 14.0783 53.4011C14.4638 53.7867 14.9878 54.0012 15.5328 54.0012C15.7356 54.0012 15.9395 53.9821 16.1296 53.9124C16.1444 53.9071 16.1603 53.9019 16.175 53.8987C18.5485 53.3503 20.1171 51.4201 20.1404 48.9795C20.1583 47.0999 20.1351 45.2193 20.1562 43.3398C20.1583 43.1063 20.2513 42.8105 20.4108 42.6499C23.5163 39.5194 26.6377 36.4058 29.7569 33.2891C29.8298 33.2162 29.9122 33.1538 30.0242 33.0577C30.846 34.5791 31.653 36.0719 32.4568 37.5659C35.1673 42.5992 37.883 47.6303 40.5797 52.671C40.8808 53.2341 41.166 53.7476 41.7955 53.8955C42.1198 53.9716 42.6554 54.0772 42.9279 53.886C45.3996 52.1596 47.0675 49.8395 47.6358 46.6932C47.9559 44.9235 47.6157 43.2077 47.207 41.4909C45.5972 34.7249 44.0127 27.9526 42.4071 21.1845C42.3226 20.8295 42.4156 20.6118 42.6649 20.3646C45.4313 17.6145 48.1766 14.8453 50.9452 12.0973C52.5687 10.4861 53.6081 8.59068 53.9113 6.30964V6.30753C53.9609 5.95782 54 5.38307 54 5.03019V4.85375C54 4.45967 53.9292 4.06981 53.7919 3.70108H53.7908ZM4.10156 11.2943C5.28251 10.2536 6.58703 9.69475 8.06374 9.48978C9.53305 9.28481 10.9179 9.70214 12.3143 10.0307C18.2655 11.4296 24.2156 12.8337 30.1668 14.2367C30.2977 14.2674 30.4256 14.316 30.5259 14.3466C28.108 16.765 25.7028 19.1718 23.2639 21.6123C16.9314 18.2019 10.5471 14.764 4.10262 11.2933L4.10156 11.2943ZM44.3486 43.2943C44.8905 45.6071 44.4426 47.7117 42.9944 49.5986C42.9237 49.6905 42.8381 49.7719 42.7113 49.9092C39.2477 43.4761 35.8095 37.0894 32.4019 30.7597C34.8462 28.3171 37.2524 25.9113 39.684 23.4813C39.9185 24.4618 40.1625 25.4613 40.3981 26.4629C41.7163 32.073 43.0346 37.6831 44.3486 43.2943ZM50.8036 5.61233C50.5977 7.30594 49.8551 8.6921 48.6541 9.89232C38.3615 20.1691 28.0848 30.4629 17.7891 40.7365C17.1965 41.3282 16.925 41.9536 16.9398 42.7872C16.9757 44.7893 16.9546 46.7925 16.9493 48.7957C16.9472 49.7244 16.7148 50.1501 15.9437 50.6361C15.1589 49.3303 14.391 48.055 13.6241 46.7788C12.965 45.681 12.3375 44.5622 11.633 43.494C11.3446 43.0577 10.9464 42.6414 10.5048 42.3678C8.29823 41.0006 6.061 39.6842 3.83538 38.3488C3.6875 38.26 3.54807 38.1586 3.39807 38.0582C3.79735 37.306 4.43113 37.0651 5.20434 37.0661C6.97786 37.0693 8.75667 36.989 10.5249 37.0925C11.8907 37.1728 12.8445 36.6974 13.8015 35.7339C23.8797 25.5912 34.0053 15.494 44.1057 5.3725C45.3035 4.17124 46.6841 3.41688 48.3773 3.20768C50.0494 3.00166 51.0065 3.94937 50.8036 5.61128V5.61233Z" fill="#43E4EE"/>
</svg>
