<svg width="50" height="50" viewBox="0 0 50 50" fill="none" xmlns="http://www.w3.org/2000/svg">
<g clip-path="url(#clip0_26_4573)">
<path d="M48.3333 31.6667V38.3333C48.3333 39.2174 47.9821 40.0652 47.357 40.6904C46.7319 41.3155 45.8841 41.6667 45 41.6667H5C4.11594 41.6667 3.2681 41.3155 2.64298 40.6904C2.01786 40.0652 1.66667 39.2174 1.66667 38.3333V31.6667H48.3333ZM50 30H0V38.3333C0 39.6594 0.526784 40.9312 1.46447 41.8689C2.40215 42.8065 3.67392 43.3333 5 43.3333H45C46.3261 43.3333 47.5979 42.8065 48.5355 41.8689C49.4732 40.9312 50 39.6594 50 38.3333V30Z" fill="white"/>
<path d="M45 1.66667C45.8841 1.66667 46.7319 2.01786 47.357 2.64298C47.9821 3.2681 48.3333 4.11594 48.3333 5V30H1.66667V5C1.66667 4.11594 2.01786 3.2681 2.64298 2.64298C3.2681 2.01786 4.11594 1.66667 5 1.66667H45ZM45 0H5C3.67392 0 2.40215 0.526784 1.46447 1.46447C0.526784 2.40215 0 3.67392 0 5L0 31.6667H50V5C50 3.67392 49.4732 2.40215 48.5355 1.46447C47.5979 0.526784 46.3261 0 45 0V0Z" fill="white"/>
<path d="M8.33333 34.9999C8.66297 34.9999 8.9852 35.0977 9.25928 35.2808C9.53337 35.4639 9.74699 35.7242 9.87313 36.0288C9.99928 36.3333 10.0323 36.6684 9.96798 36.9917C9.90367 37.315 9.74493 37.612 9.51184 37.8451C9.27876 38.0782 8.98179 38.2369 8.65848 38.3012C8.33518 38.3655 8.00007 38.3325 7.69553 38.2064C7.39098 38.0802 7.13069 37.8666 6.94755 37.5925C6.76442 37.3185 6.66667 36.9962 6.66667 36.6666C6.66667 36.2246 6.84226 35.8006 7.15482 35.4881C7.46738 35.1755 7.89131 34.9999 8.33333 34.9999ZM8.33333 33.3333C7.44928 33.3333 6.60143 33.6844 5.97631 34.3096C5.35119 34.9347 5 35.7825 5 36.6666C5 37.5506 5.35119 38.3985 5.97631 39.0236C6.60143 39.6487 7.44928 39.9999 8.33333 39.9999C9.21739 39.9999 10.0652 39.6487 10.6904 39.0236C11.3155 38.3985 11.6667 37.5506 11.6667 36.6666C11.6667 35.7825 11.3155 34.9347 10.6904 34.3096C10.0652 33.6844 9.21739 33.3333 8.33333 33.3333Z" fill="#00ADB5"/>
<path d="M41.6668 34.9999C41.9965 34.9999 42.3187 35.0977 42.5928 35.2808C42.8669 35.4639 43.0805 35.7242 43.2066 36.0288C43.3328 36.3333 43.3658 36.6684 43.3015 36.9917C43.2372 37.315 43.0784 37.612 42.8453 37.8451C42.6123 38.0782 42.3153 38.2369 41.992 38.3012C41.6687 38.3655 41.3336 38.3325 41.029 38.2064C40.7245 38.0802 40.4642 37.8666 40.281 37.5925C40.0979 37.3185 40.0002 36.9962 40.0002 36.6666C40.0002 36.2246 40.1758 35.8006 40.4883 35.4881C40.8009 35.1755 41.2248 34.9999 41.6668 34.9999ZM41.6668 33.3333C40.7828 33.3333 39.9349 33.6844 39.3098 34.3096C38.6847 34.9347 38.3335 35.7825 38.3335 36.6666C38.3335 37.5506 38.6847 38.3985 39.3098 39.0236C39.9349 39.6487 40.7828 39.9999 41.6668 39.9999C42.5509 39.9999 43.3987 39.6487 44.0239 39.0236C44.649 38.3985 45.0002 37.5506 45.0002 36.6666C45.0002 35.7825 44.649 34.9347 44.0239 34.3096C43.3987 33.6844 42.5509 33.3333 41.6668 33.3333Z" fill="#00ADB5"/>
<path d="M36.6665 42.5H47.4998V47.5C47.4998 48.163 47.2364 48.7989 46.7676 49.2678C46.2988 49.7366 45.6629 50 44.9998 50H39.1665C38.5035 50 37.8676 49.7366 37.3987 49.2678C36.9299 48.7989 36.6665 48.163 36.6665 47.5V42.5Z" fill="white"/>
<path d="M2.5 42.5H13.3333V47.5C13.3333 48.163 13.0699 48.7989 12.6011 49.2678C12.1323 49.7366 11.4964 50 10.8333 50H5C4.33696 50 3.70107 49.7366 3.23223 49.2678C2.76339 48.7989 2.5 48.163 2.5 47.5V42.5Z" fill="white"/>
<path d="M35.8335 37.5H14.1668C13.9458 37.5 13.7339 37.5878 13.5776 37.7441C13.4213 37.9004 13.3335 38.1123 13.3335 38.3333C13.3335 38.5543 13.4213 38.7663 13.5776 38.9226C13.7339 39.0789 13.9458 39.1667 14.1668 39.1667H35.8335C36.0545 39.1667 36.2665 39.0789 36.4228 38.9226C36.579 38.7663 36.6668 38.5543 36.6668 38.3333C36.6668 38.1123 36.579 37.9004 36.4228 37.7441C36.2665 37.5878 36.0545 37.5 35.8335 37.5Z" fill="white"/>
<path d="M35.8335 34.1667H14.1668C13.9458 34.1667 13.7339 34.2545 13.5776 34.4108C13.4213 34.5671 13.3335 34.7791 13.3335 35.0001C13.3335 35.2211 13.4213 35.4331 13.5776 35.5893C13.7339 35.7456 13.9458 35.8334 14.1668 35.8334H35.8335C36.0545 35.8334 36.2665 35.7456 36.4228 35.5893C36.579 35.4331 36.6668 35.2211 36.6668 35.0001C36.6668 34.7791 36.579 34.5671 36.4228 34.4108C36.2665 34.2545 36.0545 34.1667 35.8335 34.1667Z" fill="white"/>
<path d="M41.024 22.6927C41.4214 22.5218 41.6058 22.0628 41.4358 21.6674C41.2657 21.2721 40.8057 21.0902 40.4083 21.2611L33.9931 24.02C33.5956 24.1909 33.4113 24.6499 33.5813 25.0452C33.7513 25.4406 34.2113 25.6225 34.6087 25.4516L41.024 22.6927Z" fill="white"/>
<path d="M44.647 21.128C45.0444 20.9571 45.2288 20.4981 45.0588 20.1027C44.8888 19.7074 44.4288 19.5255 44.0314 19.6964L42.5998 20.3121C42.2024 20.483 42.018 20.942 42.188 21.3373C42.358 21.7326 42.818 21.9146 43.2154 21.7436L44.647 21.128Z" fill="white"/>
<path d="M35.8549 27.5131C35.4575 27.684 35.2732 28.1431 35.4432 28.5384C35.6132 28.9337 36.0732 29.1156 36.4706 28.9447L42.8859 26.1858C43.2833 26.0149 43.4676 25.5559 43.2976 25.1606C43.1276 24.7653 42.6676 24.5833 42.2702 24.7542L35.8549 27.5131Z" fill="white"/>
<path d="M32.2231 29.0795C31.8257 29.2504 31.6413 29.7095 31.8113 30.1048C31.9813 30.5001 32.4413 30.682 32.8388 30.5111L34.2703 29.8954C34.6678 29.7245 34.8521 29.2655 34.6821 28.8702C34.5121 28.4749 34.0521 28.293 33.6547 28.4639L32.2231 29.0795Z" fill="white"/>
<path d="M50 6.66675H0V8.33341H50V6.66675Z" fill="white"/>
<path d="M35.8335 3.33325H14.1668C13.9458 3.33325 13.7339 3.42105 13.5776 3.57733C13.4213 3.73361 13.3335 3.94557 13.3335 4.16659C13.3335 4.3876 13.4213 4.59956 13.5776 4.75584C13.7339 4.91212 13.9458 4.99992 14.1668 4.99992H35.8335C36.0545 4.99992 36.2665 4.91212 36.4228 4.75584C36.579 4.59956 36.6668 4.3876 36.6668 4.16659C36.6668 3.94557 36.579 3.73361 36.4228 3.57733C36.2665 3.42105 36.0545 3.33325 35.8335 3.33325Z" fill="#00ADB5"/>
<path d="M42.5 3.33325H40.8333C40.6123 3.33325 40.4004 3.42105 40.2441 3.57733C40.0878 3.73361 40 3.94557 40 4.16659C40 4.3876 40.0878 4.59956 40.2441 4.75584C40.4004 4.91212 40.6123 4.99992 40.8333 4.99992H42.5C42.721 4.99992 42.933 4.91212 43.0893 4.75584C43.2455 4.59956 43.3333 4.3876 43.3333 4.16659C43.3333 3.94557 43.2455 3.73361 43.0893 3.57733C42.933 3.42105 42.721 3.33325 42.5 3.33325Z" fill="#00ADB5"/>
<path d="M9.1665 3.33325H7.49984C7.27882 3.33325 7.06686 3.42105 6.91058 3.57733C6.7543 3.73361 6.6665 3.94557 6.6665 4.16659C6.6665 4.3876 6.7543 4.59956 6.91058 4.75584C7.06686 4.91212 7.27882 4.99992 7.49984 4.99992H9.1665C9.38752 4.99992 9.59948 4.91212 9.75576 4.75584C9.91204 4.59956 9.99984 4.3876 9.99984 4.16659C9.99984 3.94557 9.91204 3.73361 9.75576 3.57733C9.59948 3.42105 9.38752 3.33325 9.1665 3.33325Z" fill="#00ADB5"/>
</g>
<defs>
<clipPath id="clip0_26_4573">
<rect width="50" height="50" fill="white"/>
</clipPath>
</defs>
</svg>
