<svg width="16" height="16" viewBox="0 0 16 16" fill="none" xmlns="http://www.w3.org/2000/svg">
<path d="M13 7C12.2044 7 11.4413 7.31607 10.8787 7.87868C10.3161 8.44129 10 9.20435 10 10C10 11.66 11.5 14.5 13 16C14.5 14.5 16 11.66 16 10C16 9.20435 15.6839 8.44129 15.1213 7.87868C14.5587 7.31607 13.7956 7 13 7ZM13 12C12.6044 12 12.2178 11.8827 11.8889 11.6629C11.56 11.4432 11.3036 11.1308 11.1522 10.7654C11.0009 10.3999 10.9613 9.99778 11.0384 9.60982C11.1156 9.22186 11.3061 8.86549 11.5858 8.58579C11.8655 8.30608 12.2219 8.1156 12.6098 8.03843C12.9978 7.96126 13.3999 8.00087 13.7654 8.15224C14.1308 8.30362 14.4432 8.55996 14.6629 8.88886C14.8827 9.21776 15 9.60444 15 10C15 10.5304 14.7893 11.0391 14.4142 11.4142C14.0391 11.7893 13.5304 12 13 12Z" fill="white"/>
<path d="M3 0C2.20435 0 1.44129 0.31607 0.87868 0.87868C0.31607 1.44129 0 2.20435 0 3C0 4.66 1.5 7.5 3 9C4.5 7.5 6 4.66 6 3C6 2.20435 5.68393 1.44129 5.12132 0.87868C4.55871 0.31607 3.79565 0 3 0V0ZM3 5C2.60444 5 2.21776 4.8827 1.88886 4.66294C1.55996 4.44318 1.30362 4.13082 1.15224 3.76537C1.00087 3.39991 0.961259 2.99778 1.03843 2.60982C1.1156 2.22186 1.30608 1.86549 1.58579 1.58579C1.86549 1.30608 2.22186 1.1156 2.60982 1.03843C2.99778 0.961259 3.39991 1.00087 3.76537 1.15224C4.13082 1.30362 4.44318 1.55996 4.66294 1.88886C4.8827 2.21776 5 2.60444 5 3C5 3.53043 4.78929 4.03914 4.41421 4.41421C4.03914 4.78929 3.53043 5 3 5Z" fill="white"/>
<path d="M5.11988 11.7098L3.70988 10.2898L2.99988 9.58984L2.28988 10.2898L0.879883 11.7098L1.58988 12.4098L2.99988 10.9998L4.40988 12.4098L5.11988 11.7098Z" fill="white"/>
<path d="M9.5 14H2.5V15H9.5V14Z" fill="white"/>
<path d="M3.5 15L3.5 11H2.5V15H3.5Z" fill="white"/>
<path d="M10.8799 4.28984L12.2899 5.70984L12.9999 6.40984L13.7099 5.70984L15.1199 4.28984L14.4099 3.58984L12.9999 4.99984L11.5899 3.58984L10.8799 4.28984Z" fill="white"/>
<path d="M13.5 1H7V2H13.5V1Z" fill="white"/>
<path d="M13.5 5V2H12.5V5H13.5Z" fill="white"/>
</svg>
