<svg width="60" height="60" viewBox="0 0 60 60" fill="none" xmlns="http://www.w3.org/2000/svg">
<g clip-path="url(#clip0)">
<path d="M48.2501 50.6201H36.1201C35.9883 50.6227 35.8626 50.6762 35.7694 50.7694C35.6762 50.8626 35.6227 50.9883 35.6201 51.1201V52.0001C35.6201 52.1327 35.6728 52.2599 35.7666 52.3537C35.8603 52.4474 35.9875 52.5001 36.1201 52.5001H48.2501C48.3827 52.5001 48.5099 52.4474 48.6037 52.3537C48.6974 52.2599 48.7501 52.1327 48.7501 52.0001V51.1201C48.7501 50.9875 48.6974 50.8603 48.6037 50.7666C48.5099 50.6728 48.3827 50.6201 48.2501 50.6201Z" fill="white"/>
<path d="M52.0001 50.6309H51.1201C50.9875 50.6309 50.8603 50.6835 50.7666 50.7773C50.6728 50.8711 50.6201 50.9983 50.6201 51.1309V52.0009C50.6201 52.1335 50.6728 52.2606 50.7666 52.3544C50.8603 52.4482 50.9875 52.5009 51.1201 52.5009H52.0001C52.1327 52.5009 52.2599 52.4482 52.3537 52.3544C52.4474 52.2606 52.5001 52.1335 52.5001 52.0009V51.1309C52.5001 50.9983 52.4474 50.8711 52.3537 50.7773C52.2599 50.6835 52.1327 50.6309 52.0001 50.6309Z" fill="white"/>
<path d="M33.2501 5.62012H21.1201C20.9883 5.62268 20.8626 5.67618 20.7694 5.7694C20.6762 5.86262 20.6227 5.98831 20.6201 6.12012V7.00012C20.6201 7.13273 20.6728 7.2599 20.7666 7.35367C20.8603 7.44744 20.9875 7.50012 21.1201 7.50012H33.2501C33.3827 7.50012 33.5099 7.44744 33.6037 7.35367C33.6974 7.2599 33.7501 7.13273 33.7501 7.00012V6.12012C33.7501 5.98751 33.6974 5.86033 33.6037 5.76656C33.5099 5.6728 33.3827 5.62012 33.2501 5.62012Z" fill="white"/>
<path d="M18.2501 5.63086H17.3701C17.2375 5.63086 17.1103 5.68354 17.0166 5.77731C16.9228 5.87107 16.8701 5.99825 16.8701 6.13086V7.00086C16.8701 7.13347 16.9228 7.26064 17.0166 7.35441C17.1103 7.44818 17.2375 7.50086 17.3701 7.50086H18.2501C18.3827 7.50086 18.5099 7.44818 18.6037 7.35441C18.6974 7.26064 18.7501 7.13347 18.7501 7.00086V6.13086C18.7501 5.99825 18.6974 5.87107 18.6037 5.77731C18.5099 5.68354 18.3827 5.63086 18.2501 5.63086Z" fill="white"/>
<path d="M25.7501 11.25H13.6201C13.4875 11.25 13.3603 11.3027 13.2666 11.3964C13.1728 11.4902 13.1201 11.6174 13.1201 11.75V12.62C13.1201 12.7526 13.1728 12.8798 13.2666 12.9736C13.3603 13.0673 13.4875 13.12 13.6201 13.12H25.7501C25.8827 13.12 26.0099 13.0673 26.1037 12.9736C26.1974 12.8798 26.2501 12.7526 26.2501 12.62V11.75C26.2501 11.6174 26.1974 11.4902 26.1037 11.3964C26.0099 11.3027 25.8827 11.25 25.7501 11.25Z" fill="white"/>
<path d="M10.7501 11.25H9.87012C9.73751 11.25 9.61033 11.3027 9.51656 11.3964C9.4228 11.4902 9.37012 11.6174 9.37012 11.75V12.63C9.37268 12.7618 9.42618 12.8875 9.5194 12.9807C9.61262 13.0739 9.73831 13.1274 9.87012 13.13H10.7501C10.8827 13.13 11.0099 13.0773 11.1037 12.9836C11.1974 12.8898 11.2501 12.7626 11.2501 12.63V11.75C11.2501 11.6174 11.1974 11.4902 11.1037 11.3964C11.0099 11.3027 10.8827 11.25 10.7501 11.25Z" fill="white"/>
<path d="M56.2603 4.70046C55.8674 3.35869 55.0555 2.17785 53.9433 1.33066C52.8311 0.483472 51.477 0.0143974 50.079 -0.00795171C48.6811 -0.0303009 47.3127 0.395249 46.174 1.20645C45.0352 2.01765 44.186 3.17194 43.7503 4.50046H42.6403C41.9579 4.50699 41.2835 4.64804 40.6557 4.91555C40.0278 5.18305 39.4589 5.57175 38.9815 6.0594C38.504 6.54704 38.1275 7.12406 37.8733 7.75743C37.6192 8.39079 37.4924 9.06806 37.5003 9.75046C37.4924 10.4329 37.6192 11.1101 37.8733 11.7435C38.1275 12.3769 38.504 12.9539 38.9815 13.4415C39.4589 13.9292 40.0278 14.3179 40.6557 14.5854C41.2835 14.8529 41.9579 14.9939 42.6403 15.0005H54.8603C56.1149 14.9761 57.3194 14.5041 58.2565 13.6697C59.1935 12.8352 59.8014 11.6932 59.9704 10.4499C60.1394 9.20655 59.8584 7.94376 59.178 6.88945C58.4977 5.83514 57.4629 5.05876 56.2603 4.70046Z" fill="#00ADB5"/>
<path d="M18.7601 49.7005C18.3672 48.3587 17.5553 47.1778 16.4431 46.3307C15.3309 45.4835 13.9768 45.0144 12.5788 44.992C11.1809 44.9697 9.81246 45.3952 8.67374 46.2064C7.53502 47.0177 6.68574 48.1719 6.25014 49.5005H5.14014C3.74775 49.5005 2.41239 50.0536 1.42783 51.0381C0.44326 52.0227 -0.109863 53.3581 -0.109863 54.7505C-0.109863 56.1428 0.44326 57.4782 1.42783 58.4628C2.41239 59.4473 3.74775 60.0005 5.14014 60.0005H17.3601C18.6147 59.9761 19.8192 59.5041 20.7562 58.6697C21.6933 57.8352 22.3012 56.6932 22.4702 55.4499C22.6392 54.2066 22.3582 52.9438 21.6778 51.8894C20.9975 50.8351 19.9627 50.0588 18.7601 49.7005Z" fill="#00ADB5"/>
<path d="M45.1504 31.1504C45.5856 31.1503 46.018 31.2212 46.4304 31.3604L51.0604 32.9004L46.4304 34.4404C46.018 34.5796 45.5856 34.6505 45.1504 34.6504H40.1504L36.0404 36.6504H45.1704C45.8226 36.6476 46.4704 36.543 47.0904 36.3404L52.0904 34.6604C52.4575 34.5349 52.7761 34.2978 53.0018 33.9822C53.2274 33.6666 53.3487 33.2884 53.3487 32.9004C53.3487 32.5125 53.2274 32.1342 53.0018 31.8186C52.7761 31.503 52.4575 31.2659 52.0904 31.1404L47.0904 29.4604C46.4715 29.2534 45.823 29.1486 45.1704 29.1504H12.5304C11.9999 29.1504 11.4912 29.3611 11.1161 29.7362C10.7411 30.1113 10.5304 30.62 10.5304 31.1504V31.5104C10.5267 31.9155 10.6462 32.3122 10.873 32.6479C11.0998 32.9836 11.4232 33.2426 11.8004 33.3904L18.2004 36.0004C19.3112 36.4413 20.4952 36.6686 21.6904 36.6704H29.6904L29.4304 34.6704H21.6904C20.7671 34.6579 19.8544 34.4713 19.0004 34.1204L12.5604 31.5304V31.1504H45.1504Z" fill="white"/>
<path d="M11.1999 25.5205C11.5088 25.5226 11.8082 25.6282 12.0499 25.8205L16.1699 29.1405H13.6299L10.9199 25.5205H11.1999ZM11.1999 23.5205H6.91992L12.6299 31.1405H21.8499L13.2999 24.2605C12.706 23.7795 11.9642 23.5181 11.1999 23.5205Z" fill="white"/>
<path d="M24.78 21.7705L33.61 29.1405H30.21L22.84 21.7705H24.78ZM25.16 19.7705H20.3C20.1202 19.789 19.9487 19.8559 19.8038 19.9641C19.659 20.0724 19.5462 20.2178 19.4774 20.3851C19.4087 20.5523 19.3866 20.7351 19.4134 20.9139C19.4403 21.0927 19.5152 21.2609 19.63 21.4005L29.38 31.1405H39.13L25.77 20.0005C25.5968 19.8615 25.3822 19.784 25.16 19.7805V19.7705Z" fill="white"/>
<path d="M24.6802 46.0001H22.3002C21.9242 45.9792 21.5617 45.8525 21.2544 45.6347C20.9472 45.4169 20.7077 45.1168 20.5635 44.7688C20.4193 44.4209 20.3763 44.0393 20.4394 43.6681C20.5025 43.2968 20.6692 42.9508 20.9202 42.6701L31.4402 32.6701L32.8202 34.1201L22.4302 44.0001H24.6802L40.8002 32.5801L42.0002 34.2101L25.8402 45.6401C25.5033 45.8838 25.0958 46.0102 24.6802 46.0001Z" fill="white"/>
</g>
<defs>
<clipPath id="clip0">
<rect width="60" height="60" fill="white"/>
</clipPath>
</defs>
</svg>
