<svg width="60" height="60" viewBox="0 0 60 60" fill="none" xmlns="http://www.w3.org/2000/svg">
<g clip-path="url(#clip0_1431_9368)">
<path d="M18.6001 40.1998L18.7501 40.5498L19.0001 40.0498L18.6001 40.1998ZM18.6001 40.1998L18.7501 40.5498L19.0001 40.0498L18.6001 40.1998ZM18.6001 40.1998L18.7501 40.5498L19.0001 40.0498L18.6001 40.1998ZM18.6001 40.1998L18.7501 40.5498L19.0001 40.0498L18.6001 40.1998ZM18.6001 40.1998L18.7501 40.5498L19.0001 40.0498L18.6001 40.1998ZM18.6001 40.1998L18.7501 40.5498L19.0001 40.0498L18.6001 40.1998ZM18.6001 40.1998L18.7501 40.5498L19.0001 40.0498L18.6001 40.1998ZM18.6001 40.1998L18.7501 40.5498L19.0001 40.0498L18.6001 40.1998ZM18.6001 40.1998L18.7501 40.5498L19.0001 40.0498L18.6001 40.1998ZM18.6001 40.1998L18.7501 40.5498L19.0001 40.0498L18.6001 40.1998ZM18.6001 40.1998L18.7501 40.5498L19.0001 40.0498L18.6001 40.1998ZM18.6001 40.1998L18.7501 40.5498L19.0001 40.0498L18.6001 40.1998ZM18.6001 40.1998L18.7501 40.5498L19.0001 40.0498L18.6001 40.1998ZM18.6001 40.1998L18.7501 40.5498L19.0001 40.0498L18.6001 40.1998ZM18.6001 40.1998L18.7501 40.5498L19.0001 40.0498L18.6001 40.1998ZM18.6001 40.1998L18.7501 40.5498L19.0001 40.0498L18.6001 40.1998ZM18.6001 40.1998L18.7501 40.5498L19.0001 40.0498L18.6001 40.1998ZM18.6001 40.1998L18.7501 40.5498L19.0001 40.0498L18.6001 40.1998ZM18.6001 40.1998L18.7501 40.5498L19.0001 40.0498L18.6001 40.1998ZM18.6001 40.1998L18.7501 40.5498L19.0001 40.0498L18.6001 40.1998ZM18.6001 40.1998L18.7501 40.5498L19.0001 40.0498L18.6001 40.1998ZM18.6001 40.1998L18.7501 40.5498L19.0001 40.0498L18.6001 40.1998Z" fill="#393E46"/>
<path d="M52.4 7.9C52.35 8.15 52.25 8.45 52.1 8.7C51.2 10.6 49.35 11.75 47.35 11.75C46.6 11.75 45.9 11.6 45.2 11.25C42.6 10.05 41.45 6.95 42.6 4.35C42.7 4.1 42.85 3.85 43 3.6L35.2 0L30.1 11.05L29 13.45L27.45 16.85L26.35 19.25L24.3 23.75L23.65 25.2L22.2 28.35L21.1 30.75L18.7 35.95L17.7 38.05L16 41.7L14.9 44.1L13 48.25L17.85 50.45L20.65 51.75L20.85 51.85C20.95 51.55 21 51.3 21.15 51C22.05 49.1 23.9 47.95 25.9 47.95C26.65 47.95 27.35 48.1 28.1 48.4C28.3 48.5 28.45 48.55 28.6 48.7C29.2 49.05 29.7 49.5 30.1 50.05C31.2 51.55 31.5 53.55 30.65 55.35C30.55 55.6 30.4 55.9 30.2 56.1L38.05 59.7L42.3 50.45L43.6 47.65L44.15 46.45L45.25 44.05L60.25 11.5L52.4 7.9ZM44.2 41.7L43.1 44.1L40.85 49L39.55 51.8L37.1 57.15L32.9 55.2C33.3 53.75 33.25 52.2 32.7 50.75C32.45 50.05 32.05 49.35 31.6 48.8C31.2 48.25 30.7 47.8 30.1 47.4C29.75 47.15 29.35 46.9 28.95 46.7C28 46.2 27 46 25.95 46C23.5 46 21.25 47.25 19.95 49.25L19.45 49L16.65 47.7L15.75 47.3L16.1 46.5L17.2 44.1L18.8 40.55L18.65 40.2L19.05 40L22.25 33.05L23.35 30.65L24.5 28.15L25.45 26.15L27.55 21.55L28.65 19.15L30.2 15.8L31.3 13.4L36.25 2.6L40.45 4.55C39.5 7.9 41.15 11.55 44.4 13.05C45.35 13.5 46.35 13.7 47.4 13.7C49.85 13.7 52.1 12.45 53.4 10.5L57.65 12.45L44.2 41.7Z" fill="#393E46"/>
<path d="M50.9 19.9996L44.15 34.6996L42.35 33.8496L48.25 20.9996L35.7 15.2496L33.85 19.1996L32.75 21.5996L31.2 24.9996L30.1 27.3996L27.65 32.6996L27.1 33.9996L25.95 36.4996L24.9 38.6996L26 39.1996L30.1 41.0996L32.5 42.1996L37.45 44.4496L39.8 39.3996L41.2 40.0496L41.45 40.5496L38.45 47.0996L30.1 43.2996L27.7 42.1996L22.25 39.6996L23.75 36.4496L24.85 34.0996L26 31.5996L26.95 29.4496L29 24.9996L30.1 22.5996L31.65 19.1996L32.75 16.7996L34.7 12.5996L50.9 19.9996Z" fill="#00ADB5"/>
<path d="M41.5999 40.1998L41.45 40.5498L41.2 40.0498L41.5999 40.1998Z" fill="#00ADB5"/>
<path d="M42.95 22.35L39.15 30.7L38.05 33.1L36.5 36.5L35.05 39.6L34.2 39.2L33.25 38.75L34.3 36.5L35.4 34.1L36.95 30.7L38.05 28.3L41.15 21.5L42.95 22.35Z" fill="#393E46"/>
<path d="M32.1 36.3008L31.35 37.9008L30.1 37.3508L29.75 37.1508L30.1 36.3508L30.5 35.5508L32.1 36.3008Z" fill="#393E46"/>
<path d="M33.5 33.1504L33.15 34.0004L32.7999 34.7504L31.2 34.0504L31.9 32.4004L32.5499 32.7004V32.7504L33.5 33.1504Z" fill="#393E46"/>
<path d="M34.9501 30.0508L34.2501 31.6008L34.2001 31.6508L32.6001 30.9008L33.2501 29.4508L33.3501 29.3008L34.9501 30.0508Z" fill="#393E46"/>
<path d="M36.4001 26.9004L35.8 28.2004L35.6501 28.5004L34.05 27.7504L34.8 26.1504L34.85 26.2004L36.4001 26.9004Z" fill="#393E46"/>
<path d="M37.85 23.7508L37.1 25.4008L36.6 25.1508L35.5 24.6508L35.9 23.7008L36.2 23.0508L37.85 23.7508Z" fill="#393E46"/>
<path d="M39.2499 20.6504L38.5499 22.2504L36.8999 21.5004L37.6499 19.9004L39.2499 20.6504Z" fill="#393E46"/>
<path d="M25.05 0L17.2 3.6C17.35 3.85 17.5 4.1 17.6 4.35C18.8 6.95 17.65 10.1 15.05 11.25C14.35 11.6 13.6 11.75 12.85 11.75C10.85 11.75 8.95 10.6 8.1 8.7C8 8.45 7.9 8.15 7.8 7.9L0 11.5L14.95 44.1L16.05 41.7L2.65 12.5L6.85 10.55C8.2 12.55 10.45 13.75 12.85 13.75C13.9 13.75 14.9 13.55 15.85 13.1C19.1 11.6 20.75 7.95 19.8 4.6L24 2.65L29 13.45L30.1 11.05L25.05 0ZM38.05 28.3L36.95 30.7L38.05 33.1L39.15 30.7L38.05 28.3ZM30.1 50.05C29.7 49.5 29.2 49.05 28.6 48.7C28.15 49.3 27.75 49.95 27.5 50.65C26.95 52.1 26.9 53.65 27.3 55.1L23.1 57.05L20.65 51.7L17.85 50.4L22.1 59.65L29.95 56.05C29.8 55.8 29.65 55.55 29.5 55.3C28.7 53.6 29 51.55 30.1 50.05ZM45.25 44.1L44.2 46.5L44.55 47.3L43.65 47.7L42.35 50.5L47.2 48.3L45.25 44.1ZM35.9 23.7L35.5 24.65L36.6 25.15L35.9 23.7ZM34.85 26.2L35.75 28.2L36.35 26.9L34.85 26.2Z" fill="#393E46"/>
<path d="M43.2001 36.4998L42.5001 37.9998L42.4501 38.1498L40.8501 37.3998L41.5001 35.8998L41.5501 35.7998L43.2001 36.4998Z" fill="#393E46"/>
<path d="M19.0001 40.0498L18.7501 40.5498L18.6001 40.1998L19.0001 40.0498Z" fill="#393E46"/>
<path d="M27.4501 16.7996L26.3501 19.1996L24.5501 15.2496L12.0001 20.9996L17.9001 33.8496L16.0501 34.6996L9.3501 19.9996L25.5501 12.5996L27.4501 16.7996Z" fill="#00ADB5"/>
<path d="M33.5 33.15L33.1501 34L32.55 32.75L33.5 33.15Z" fill="#393E46"/>
<path d="M34.2501 31.6002L34.2001 31.6502L32.6001 30.9002L33.2501 29.4502L34.2501 31.6002Z" fill="#393E46"/>
<path d="M36.5 36.4996L35.0499 39.5996L34.2 39.1996L35.2999 38.6996L34.2999 36.4996L35.4 34.0996L36.5 36.4996Z" fill="#393E46"/>
<path d="M22.2 28.3L21.1 30.7L17.25 22.35L19.1 21.5L22.2 28.3Z" fill="#393E46"/>
<path d="M30.5 37.1506L30.1 37.3506L29.75 37.1506L30.1 36.3506L30.5 37.1506Z" fill="#393E46"/>
<path d="M24.3001 23.6998L23.6501 25.1498L23.1501 25.3998L22.4001 23.7498L24.0001 23.0498L24.3001 23.6998Z" fill="#393E46"/>
<path d="M20.9718 20.6497L21.7014 22.2402L23.292 21.5107L22.5624 19.9201L20.9718 20.6497Z" fill="#393E46"/>
<path d="M18.7001 35.8998L17.75 37.9998L17.05 36.4998L18.65 35.7998L18.7001 35.8998Z" fill="#393E46"/>
</g>
<defs>
<clipPath id="clip0_1431_9368">
<rect width="60" height="60" fill="white"/>
</clipPath>
</defs>
</svg>
