<svg width="32" height="32" viewBox="0 0 32 32" fill="none" xmlns="http://www.w3.org/2000/svg">
<path d="M32 30H0V32H32V30Z" fill="#393E46"/>
<path d="M32 0H0V2H32V0Z" fill="#393E46"/>
<path d="M4 32L4 0L2 0L2 32H4Z" fill="#393E46"/>
<path d="M30 32L30 0L28 0L28 32H30Z" fill="#393E46"/>
<path d="M10 4H6V8H10V4Z" fill="#00ADB5"/>
<path d="M18 4H14V8H18V4Z" fill="#00ADB5"/>
<path d="M18 12H14V16H18V12Z" fill="#00ADB5"/>
<path d="M26 4H22V8H26V4Z" fill="#00ADB5"/>
<path d="M10 12H6V16H10V12Z" fill="#00ADB5"/>
<path d="M18 24H14V30H18V24Z" fill="#393E46"/>
<path d="M26 12H22V16H26V12Z" fill="#00ADB5"/>
<path d="M16 20C17.0609 20 18.0783 20.4214 18.8284 21.1716C19.5786 21.9217 20 22.9391 20 24H22C22 22.4087 21.3679 20.8826 20.2426 19.7574C19.1174 18.6321 17.5913 18 16 18C14.4087 18 12.8826 18.6321 11.7574 19.7574C10.6321 20.8826 10 22.4087 10 24H12C12 22.9391 12.4214 21.9217 13.1716 21.1716C13.9217 20.4214 14.9391 20 16 20Z" fill="#00ADB5"/>
</svg>
