<svg width="60" height="60" viewBox="0 0 60 60" fill="none" xmlns="http://www.w3.org/2000/svg">
<path d="M60 58H0V60H60V58Z" fill="#393E46"/>
<path d="M45 0L15 6V8L45 2V0Z" fill="#393E46"/>
<path d="M17 60L17 6H15L15 60H17Z" fill="#393E46"/>
<path d="M45 60V0L43 1V60H45Z" fill="#393E46"/>
<path d="M24 32H20V36H24V32Z" fill="#00ADB5"/>
<path d="M32 32H28V36H32V32Z" fill="#00ADB5"/>
<path d="M32 40H28V44H32V40Z" fill="#00ADB5"/>
<path d="M40 32H36V36H40V32Z" fill="#00ADB5"/>
<path d="M24 24H20V28H24V24Z" fill="#00ADB5"/>
<path d="M32 24H28V28H32V24Z" fill="#00ADB5"/>
<path d="M40 24H36V28H40V24Z" fill="#00ADB5"/>
<path d="M24 16H20V20H24V16Z" fill="#00ADB5"/>
<path d="M32 16H28V20H32V16Z" fill="#00ADB5"/>
<path d="M40 16H36V20H40V16Z" fill="#00ADB5"/>
<path d="M32 8H28V12H32V8Z" fill="#00ADB5"/>
<path d="M40 8H36V12H40V8Z" fill="#00ADB5"/>
<path d="M24 40H20V44H24V40Z" fill="#00ADB5"/>
<path d="M32 52H28V58H32V52Z" fill="#393E46"/>
<path d="M40 40H36V44H40V40Z" fill="#00ADB5"/>
<path d="M30 48C31.0609 48 32.0783 48.4214 32.8284 49.1716C33.5786 49.9217 34 50.9391 34 52H36C36 50.4087 35.3679 48.8826 34.2426 47.7574C33.1174 46.6321 31.5913 46 30 46C28.4087 46 26.8826 46.6321 25.7574 47.7574C24.6321 48.8826 24 50.4087 24 52H26C26 50.9391 26.4214 49.9217 27.1716 49.1716C27.9217 48.4214 28.9391 48 30 48Z" fill="#00ADB5"/>
<path d="M53 52H51V58H53V52Z" fill="#393E46"/>
<path d="M47.0001 51.2296C46.9962 50.844 47.1039 50.4654 47.3101 50.1396C47.5091 49.8187 47.8025 49.5672 48.1501 49.4196C47.9808 49.1153 47.9109 48.7656 47.9501 48.4196C47.9841 48.0817 48.1241 47.7631 48.3501 47.5096C48.5582 47.2568 48.8422 47.0779 49.1601 46.9996C49.4942 46.9061 49.8512 46.9418 50.1601 47.0996C50.1979 46.6092 50.4151 46.15 50.7701 45.8096C51.1053 45.4774 51.5582 45.291 52.0301 45.291C52.5021 45.291 52.9549 45.4774 53.2901 45.8096C53.6122 46.1307 53.8195 46.5489 53.8801 46.9996C54.1882 46.8388 54.5463 46.803 54.8801 46.8996C55.198 46.9779 55.4821 47.1568 55.6901 47.4096C55.9161 47.6631 56.0561 47.9817 56.0901 48.3196C56.1316 48.6634 56.0689 49.0118 55.9101 49.3196C56.2577 49.4672 56.5511 49.7187 56.7501 50.0396C56.9509 50.395 57.0381 50.8032 57.0001 51.2096C57.0112 51.7369 56.8135 52.2473 56.4501 52.6296C56.2835 52.814 56.0798 52.961 55.8522 53.061C55.6247 53.1609 55.3786 53.2116 55.1301 53.2096H48.8801C48.6299 53.213 48.3819 53.163 48.1526 53.063C47.9232 52.963 47.7178 52.8153 47.5501 52.6296C47.1916 52.2523 46.9943 51.7501 47.0001 51.2296Z" fill="#00ADB5"/>
<path d="M8 52H6V58H8V52Z" fill="#393E46"/>
<path d="M2.00013 51.2296C1.99621 50.844 2.10387 50.4654 2.31013 50.1396C2.50913 49.8187 2.80255 49.5672 3.15013 49.4196C2.98082 49.1153 2.91089 48.7656 2.95013 48.4196C2.98414 48.0817 3.12414 47.7631 3.35013 47.5096C3.55816 47.2568 3.84225 47.0779 4.16013 46.9996C4.49418 46.9061 4.85121 46.9418 5.16013 47.0996C5.19793 46.6092 5.41509 46.15 5.77013 45.8096C6.10534 45.4774 6.55818 45.291 7.03013 45.291C7.50207 45.291 7.95491 45.4774 8.29013 45.8096C8.61217 46.1307 8.81952 46.5489 8.88013 46.9996C9.18817 46.8388 9.54634 46.803 9.88013 46.8996C10.198 46.9779 10.4821 47.1568 10.6901 47.4096C10.9161 47.6631 11.0561 47.9817 11.0901 48.3196C11.1316 48.6634 11.0689 49.0118 10.9101 49.3196C11.2577 49.4672 11.5511 49.7187 11.7501 50.0396C11.9509 50.395 12.0381 50.8032 12.0001 51.2096C12.0112 51.7369 11.8135 52.2473 11.4501 52.6296C11.2835 52.814 11.0798 52.961 10.8522 53.061C10.6247 53.1609 10.3786 53.2116 10.1301 53.2096H3.88013C3.62995 53.213 3.38192 53.163 3.15257 53.063C2.92323 52.963 2.71785 52.8153 2.55013 52.6296C2.19161 52.2523 1.9943 51.7501 2.00013 51.2296Z" fill="#00ADB5"/>
</svg>
