<svg width="60" height="60" viewBox="0 0 60 60" fill="none" xmlns="http://www.w3.org/2000/svg">
<path d="M17 46V50H5V46H17ZM19 44H3V52H19V44Z" fill="#00ADB5"/>
<path d="M51 35.5V38.5H31V35.5H51ZM53 33.5H29V40.5H53V33.5Z" fill="#00ADB5"/>
<path d="M58 2.5C57.6 1.1 56.2 0 54.7 0C53.2 0 51.9 1 51.4 2.4H50.8C49.3 2.4 48.1 3.7 48.1 5.2C48 6.7 49.2 8 50.7 8H57.2C58.8 8 60 6.7 60 5.2C60 3.9 59.2 2.8 58 2.5Z" fill="#00ADB5"/>
<path d="M15 9.5C14.6 8.1 13.2 7 11.7 7C10.2 7 8.9 8 8.4 9.4H7.7C6.2 9.4 5 10.7 5 12.2C5 13.7 6.2 15 7.7 15H14.2C15.7 15 16.9 13.7 16.9 12.2C17 10.9 16.2 9.8 15 9.5Z" fill="#00ADB5"/>
<path d="M60 58H0V60H60V58Z" fill="white"/>
<path d="M5 58L5 38H3L3 58H5Z" fill="white"/>
<path d="M37 46V58H31V46H37ZM39 44H29V60H39V44Z" fill="white"/>
<path d="M50 46V50H44V46H50ZM52 44H42V52H52V44Z" fill="white"/>
<path d="M51 22V28.6L48 26.9V22H51ZM53 20H46V28L53 32V20Z" fill="white"/>
<path d="M42 29H29V31H42V29Z" fill="white"/>
<path d="M26 58L26 15H24L24 58H26Z" fill="white"/>
<path d="M57 58L57 33H55L55 58H57Z" fill="white"/>
<path d="M59.3042 33.4457L23.192 12.5957L22.192 14.3277L58.3042 35.1777L59.3042 33.4457Z" fill="white"/>
<path d="M1.44607 41.0867L25.7763 24.0508L24.6291 22.4124L0.298868 39.4483L1.44607 41.0867Z" fill="white"/>
</svg>
