<svg width="33" height="23" viewBox="0 0 33 23" fill="none" xmlns="http://www.w3.org/2000/svg">
<path d="M14.85 4.21211L14.575 5.86211V5.99961C14.575 5.99961 14.575 5.99961 14.7125 6.13711H14.85H14.9875L16.5 5.44961L18.0125 6.27461H18.15H18.2875C18.2875 6.27461 18.2875 6.27461 18.425 6.13711V5.99961L18.2875 4.62461L18.15 4.21211L19.3875 3.11211C19.6625 2.83711 19.525 2.56211 19.25 2.56211L17.6 2.28711L16.9125 0.774609C16.775 0.499609 16.3625 0.499609 16.225 0.774609L15.5375 2.28711L13.8875 2.56211C13.6125 2.56211 13.475 2.97461 13.75 3.11211L14.85 4.21211Z" fill="#FFC100"/>
<path d="M21.5874 4.89961L21.3124 6.54961V6.68711C21.3124 6.68711 21.3124 6.68711 21.4499 6.82461H21.5874H21.7249L23.3749 6.13711L24.7499 6.96211H24.8874H25.0249C25.0249 6.96211 25.0249 6.96211 25.1624 6.82461V6.68711L24.8874 5.03711L26.1249 3.93711C26.3999 3.66211 26.2624 3.24961 25.9874 3.24961L24.3374 2.97461L23.6499 1.46211C23.5124 1.18711 23.0999 1.18711 22.9624 1.46211L22.2749 2.97461L20.6249 3.24961C20.3499 3.24961 20.2124 3.66211 20.4874 3.79961L21.5874 4.89961Z" fill="#FFC100"/>
<path d="M27.0874 4.89922C27.0874 4.89922 27.0874 5.03672 27.2249 5.03672L28.4624 6.13672L28.1874 7.78672V7.92422C28.1874 7.92422 28.1874 7.92422 28.3249 8.06172H28.4624H28.5999L30.1124 7.23672L31.6249 8.06172H31.7624C31.8999 8.06172 31.8999 8.06172 32.0374 7.92422C32.0374 7.92422 32.1749 7.78672 32.1749 7.64922L31.8999 5.99922L33.1374 4.89922C33.4124 4.62422 33.2749 4.34922 32.9999 4.34922L31.3499 4.07422L30.6624 2.56172C30.5249 2.28672 30.1124 2.28672 29.9749 2.56172L29.2874 4.07422L27.6374 4.34922C27.4999 4.34922 27.3624 4.48672 27.3624 4.62422C27.0874 4.76172 27.0874 4.89922 27.0874 4.89922Z" fill="#FFC100"/>
<path d="M1.23745 6.27441L0.962447 7.78691C0.962447 7.92441 0.962447 7.92441 1.09995 8.06191C1.09995 8.06191 1.23745 8.19941 1.37495 8.19941H1.51245L3.02495 7.37441L4.53745 8.19941H4.67495H4.81245C4.81245 8.19941 4.81245 8.19941 4.94995 8.06191V7.92441L4.67495 6.27441L5.91245 5.17441L6.04995 5.03691V4.89941C6.04995 4.76191 5.91245 4.62441 5.77495 4.62441L3.98745 4.21191L3.29995 2.69941C3.16245 2.42441 2.74995 2.42441 2.61245 2.69941L1.92495 4.21191L0.274947 4.48691C-5.28097e-05 4.48691 -0.137553 4.89941 0.137447 5.03691L1.23745 6.27441Z" fill="#FFC100"/>
<path d="M7.42497 4.62461L7.69997 4.89961L7.56247 6.54961V6.68711C7.56247 6.68711 7.56247 6.68711 7.69997 6.82461H7.83747H7.97497L9.48747 5.99961L11 6.82461H11.1375H11.275C11.275 6.82461 11.275 6.82461 11.4125 6.68711V6.54961L11.1375 4.89961L11.4125 4.62461L12.375 3.79961C12.5125 3.52461 12.375 3.24961 12.1 3.24961L10.5875 2.97461L9.76247 1.46211C9.62497 1.18711 9.34997 1.18711 9.21247 1.46211L8.38747 2.97461L6.73747 3.24961C6.46247 3.24961 6.32497 3.52461 6.59997 3.79961L7.42497 4.62461Z" fill="#FFC100"/>
<path d="M16.225 12.3252H14.4375V15.0752H16.225C17.325 15.0752 17.875 14.6627 17.875 13.7002C17.875 12.7377 17.325 12.3252 16.225 12.3252Z" fill="#FFC100"/>
<path d="M9.76245 13.425C9.76245 12.6 9.21245 12.1875 8.24995 12.1875H6.32495V14.525H8.24995C9.21245 14.6625 9.76245 14.25 9.76245 13.425Z" fill="#FFC100"/>
<path d="M8.38745 15.7627H6.32495V18.2377H8.38745C9.34995 18.2377 9.89995 17.8252 9.89995 17.0002C10.0375 16.1752 9.48745 15.7627 8.38745 15.7627Z" fill="#FFC100"/>
<path d="M32.5875 8.8875C32.3125 9.1625 32.0375 9.3 31.7625 9.3C31.4875 9.3 31.35 9.3 31.075 9.1625L30.1125 8.6125L29.15 9.1625C29.0125 9.3 28.7375 9.3 28.4625 9.3C28.05 9.3 27.6375 9.1625 27.3625 8.75C27.0875 8.475 26.95 8.0625 27.0875 7.65L27.225 6.55L26.4 5.725C26.2625 5.5875 26.2625 5.45 26.125 5.45L26.2625 6.4125C26.4 6.825 26.2625 7.2375 25.9875 7.5125C25.7125 7.7875 25.3 8.0625 24.8875 8.0625C24.6125 8.0625 24.475 8.0625 24.2 7.925L23.375 7.375L22.4125 7.925C22.275 8.0625 22 8.0625 21.725 8.0625C21.3125 8.0625 20.9 7.925 20.625 7.5125C20.35 7.2375 20.2125 6.825 20.35 6.4125L20.4875 5.3125L19.8 4.625H19.25L19.3875 5.5875C19.525 6 19.3875 6.4125 19.1125 6.6875C18.8375 6.9625 18.425 7.2375 18.0125 7.2375C17.7375 7.2375 17.6 7.2375 17.325 7.1L16.5 6.55L15.5375 7.1C15.4 7.2375 15.125 7.2375 14.85 7.2375C14.4375 7.2375 14.025 7.1 13.75 6.6875C13.6125 6.4125 13.475 6 13.475 5.5875L13.75 4.625H12.925L12.2375 5.3125L12.375 6.4125C12.5125 6.825 12.375 7.2375 12.1 7.5125C11.825 7.7875 11.55 8.0625 11.1375 8.0625C10.8625 8.0625 10.725 8.0625 10.45 7.925L9.4875 7.375L8.525 7.7875C8.25 7.925 8.1125 8.0625 7.8375 8.0625C7.425 8.0625 7.0125 7.925 6.7375 7.5125C6.4625 7.2375 6.4625 6.825 6.4625 6.4125L6.6 5.8625L5.775 6.55L5.9125 7.65C6.05 8.0625 5.9125 8.475 5.6375 8.75C5.3625 9.1625 4.95 9.3 4.5375 9.3C4.2625 9.3 4.125 9.3 3.85 9.1625L3.025 8.6125L2.0625 9.1625C1.7875 9.3 1.65 9.3 1.375 9.3C1.1 9.3 0.6875 9.1625 0.55 8.8875C0.1375 9.7125 0 10.5375 0 11.3625V15.7625C0 19.475 3.025 22.5 6.7375 22.5H26.2625C29.975 22.5 33 19.475 33 15.7625V11.3625C33 10.5375 32.8625 9.7125 32.5875 8.8875ZM10.725 18.7875C10.175 19.2 9.4875 19.3375 8.6625 19.3375H5.775C5.225 19.3375 4.95 19.0625 4.95 18.5125V11.9125C4.95 11.3625 5.225 11.0875 5.775 11.0875H8.525C9.35 11.0875 10.0375 11.225 10.5875 11.6375C11 12.05 11.275 12.6 11.275 13.2875C11.275 13.7 11.1375 14.1125 11 14.3875C10.8625 14.6625 10.45 14.9375 10.0375 15.075C10.45 15.2125 10.8625 15.4875 11.1375 15.7625C11.4125 16.0375 11.55 16.45 11.55 17C11.4125 17.825 11.1375 18.375 10.725 18.7875ZM18.5625 15.625C18.0125 16.0375 17.325 16.3125 16.5 16.3125H14.4375V18.65C14.4375 19.2 14.1625 19.475 13.75 19.475C13.2 19.475 13.0625 19.2 13.0625 18.65V11.9125C13.0625 11.3625 13.3375 11.225 13.75 11.225H16.5C17.4625 11.225 18.15 11.5 18.5625 11.9125C19.1125 12.325 19.25 12.875 19.25 13.7C19.25 14.525 19.1125 15.075 18.5625 15.625ZM27.6375 17.4125C27.3625 18.1 26.8125 18.5125 26.2625 18.925C25.7125 19.3375 25.025 19.475 24.2 19.475C23.375 19.475 22.6875 19.3375 22.1375 18.925C21.5875 18.5125 21.0375 18.1 20.7625 17.4125C20.4875 16.725 20.2125 16.0375 20.2125 15.2125C20.2125 14.3875 20.35 13.5625 20.7625 13.0125C21.175 12.4625 21.5875 11.9125 22.1375 11.5C22.6875 11.0875 23.375 10.95 24.2 10.95C25.025 10.95 25.7125 11.0875 26.2625 11.5C26.8125 11.9125 27.3625 12.325 27.6375 13.0125C27.9125 13.7 28.1875 14.3875 28.1875 15.2125C28.05 16.0375 27.9125 16.8625 27.6375 17.4125Z" fill="#FFC100"/>
<path d="M24.0624 12.3252C23.3749 12.3252 22.6874 12.6002 22.2749 13.1502C21.8624 13.7002 21.5874 14.3877 21.5874 15.3502C21.5874 16.3127 21.8624 17.0002 22.2749 17.5502C22.6874 18.1002 23.2374 18.3752 24.0624 18.3752C24.8874 18.3752 25.4374 18.1002 25.8499 17.5502C26.2624 17.0002 26.5374 16.3127 26.5374 15.3502C26.5374 14.3877 26.2624 13.7002 25.8499 13.1502C25.4374 12.6002 24.8874 12.3252 24.0624 12.3252Z" fill="#FFC100"/>
</svg>
