<svg width="90" height="90" viewBox="0 0 90 90" fill="none" xmlns="http://www.w3.org/2000/svg">
<path fill-rule="evenodd" clip-rule="evenodd" d="M85.6874 0H48.3126C45.935 0 44 1.96062 44 4.36965V10.1958H46.8751V4.36965C46.8751 3.56552 47.519 2.9131 48.3126 2.9131H85.6874C86.481 2.9131 87.1249 3.56552 87.1249 4.36965V62.6304C87.1249 63.4345 86.481 64.0869 85.6874 64.0869H54.0624V67H85.6874C88.065 67 90 65.0394 90 62.6304V4.36965C90 1.96062 88.065 0 85.6874 0Z" fill="#393E46"/>
<path fill-rule="evenodd" clip-rule="evenodd" d="M84 6H58V26H84V6ZM60.8892 13.1445H62.3336C63.9268 13.1445 65.2226 14.4258 65.2226 16.0017C65.2226 17.5776 63.9271 18.8589 62.3336 18.8589H60.8892V13.1445ZM81.1116 23.1414H60.8892V21.7128H62.3336C65.5202 21.7128 68.1116 19.1499 68.1116 15.9984C68.1116 12.8469 65.5202 10.2841 62.3336 10.2841H60.8892V8.85547H81.1116V23.1414Z" fill="#393E46"/>
<path fill-rule="evenodd" clip-rule="evenodd" d="M74 22C77.309 22 80 19.309 80 16C80 12.691 77.309 10 74 10C70.691 10 68 12.691 68 16C68 19.309 70.691 22 74 22ZM74 13C75.6543 13 77 14.3453 77 16C77 17.6547 75.6547 19 74 19C72.3453 19 71 17.6547 71 16C71 14.3453 72.3457 13 74 13Z" fill="#393E46"/>
<rect x="77" y="29" width="3" height="32" fill="#393E46"/>
<rect x="69" y="29" width="3" height="32" fill="#393E46"/>
<rect x="62" y="58" width="3" height="3" fill="#393E46"/>
<rect x="62" y="29" width="3" height="26" fill="#393E46"/>
<path fill-rule="evenodd" clip-rule="evenodd" d="M47.763 90H0V9H47.763C51.7536 9 55 12.2443 55 16.2323V82.768C54.9997 86.7557 51.7532 90 47.763 90Z" fill="#FFF4E0"/>
<path fill-rule="evenodd" clip-rule="evenodd" d="M27.5 16C16.1957 16 7 25.1957 7 36.5C7 47.8043 16.1957 57 27.5 57C38.8043 57 48 47.8043 48 36.5C48 25.1957 38.8043 16 27.5 16ZM39.1469 35.0372C38.9901 32.1 38.4074 29.5241 37.5464 27.3279C39.1571 26.6059 40.2435 25.8122 40.9273 25.1914C43.2117 27.8989 44.6877 31.3032 44.998 35.0372H39.1469ZM28.9643 20.2844C30.3013 21.3957 32.0202 23.1352 33.4639 25.6142C32.209 25.9116 30.7214 26.1327 28.9643 26.2133V20.2844ZM32.6147 19.6914C34.9385 20.4002 37.0529 21.5804 38.86 23.1163C38.3665 23.5437 37.5421 24.1326 36.2903 24.6846C35.1608 22.6259 33.8564 20.97 32.6147 19.6914ZM26.0357 20.2844V26.2133C24.2786 26.1327 22.791 25.9116 21.5361 25.6146C22.9798 23.1355 24.699 21.396 26.0357 20.2844ZM18.7102 24.6847C17.4596 24.1327 16.6339 23.5454 16.1404 23.1164C17.9473 21.5805 20.0631 20.4003 22.3857 19.6915C21.1437 20.9713 19.839 22.6272 18.7102 24.6847ZM26.0357 29.1376V35.0357H18.7803C18.9356 32.4601 19.4684 30.2169 20.2298 28.2999C21.8288 28.7304 23.747 29.0422 26.0357 29.1376ZM26.0357 37.9643V43.8624C23.747 43.959 21.8288 44.2696 20.2314 44.7001C19.4684 42.7847 18.9356 40.5399 18.7818 37.9643H26.0357ZM26.0358 46.7852V52.714C24.6988 51.6027 22.9798 49.8617 21.5361 47.3842C22.791 47.0868 24.2787 46.8657 26.0358 46.7852ZM22.3854 53.3057C20.0617 52.5969 17.9473 51.4167 16.1401 49.8807C16.6337 49.4533 17.4581 48.8645 18.7099 48.3125C19.839 50.3712 21.1438 52.0274 22.3854 53.3057ZM28.9644 52.7179V46.7891C30.7229 46.8696 32.2091 47.0907 33.4655 47.3881C32.0203 49.8656 30.3014 51.6063 28.9644 52.7179ZM36.2915 48.3125C37.5464 48.866 38.3723 49.4545 38.8628 49.8792C37.0559 51.4167 34.9385 52.5969 32.6147 53.3057C33.8564 52.0274 35.1608 50.3697 36.2915 48.3125ZM28.9643 43.8621V37.9643H36.2197C36.0644 40.5399 35.5316 42.7831 34.7702 44.7001C33.1712 44.2693 31.253 43.9575 28.9643 43.8621ZM28.9643 35.0357V29.1376C31.253 29.041 33.1712 28.7304 34.7686 28.2999C35.5316 30.2153 36.0644 32.4601 36.2182 35.0357H28.9643ZM14.0729 25.1914C14.7567 25.8122 15.8431 26.6059 17.4538 27.3279C16.5928 29.5244 16.0086 32.1 15.8533 35.0372H10.0034C10.314 31.3032 11.7884 27.8986 14.0729 25.1914ZM10.0033 37.9643H15.8547C16.0115 40.9015 16.5943 43.4774 17.4553 45.6736C15.8446 46.3956 14.7582 47.1893 14.0743 47.8101C11.7884 45.1026 10.3139 41.698 10.0033 37.9643ZM40.9275 47.8101C40.2437 47.1893 39.1573 46.3956 37.5466 45.6736C38.4076 43.4771 38.9918 40.9015 39.1471 37.9643H44.9985C44.6864 41.698 43.2116 45.1026 40.9275 47.8101Z" fill="#393E46"/>
<rect x="7" y="64" width="41" height="3" fill="#393E46"/>
<rect x="45" y="71" width="3" height="3" fill="#393E46"/>
<rect x="7" y="71" width="35" height="3" fill="#393E46"/>
</svg>
