<?xml version="1.0" encoding="utf-8"?>
<!-- Generator: Adobe Illustrator 20.1.0, SVG Export Plug-In . SVG Version: 6.00 Build 0)  -->
<svg version="1.1" id="d11c4685-0de7-43a5-9036-eaab5538fd4b"
	 xmlns="http://www.w3.org/2000/svg" xmlns:xlink="http://www.w3.org/1999/xlink" x="0px" y="0px" viewBox="0 0 2373 856.9"
	 enable-background="new 0 0 2373 856.9" xml:space="preserve">
<g>
	<g>
		<path d="M997.7,795.8v-49.1c0-18.5-11.8-30.9-30.8-31.1c-10-0.2-20.3,2.9-27.5,13.9c-5.4-8.7-13.9-13.9-25.9-13.9
			c-8.4,0-16.5,2.5-22.9,11.6v-9.7h-17v78.3h17.2v-43.4c0-13.6,7.5-20.8,19.2-20.8c11.3,0,17,7.4,17,20.6v43.6h17.2v-43.4
			c0-13.6,7.9-20.8,19.2-20.8c11.6,0,17.2,7.4,17.2,20.6v43.6H997.7z M1093.6,756.6v-39.1h-17v9.5c-5.4-7-13.6-11.5-24.7-11.5
			c-21.9,0-39.1,17.2-39.1,41.1c0,23.9,17.2,41.1,39.1,41.1c11.1,0,19.3-4.4,24.7-11.5v9.5h17V756.6z M1030.3,756.6
			c0-13.8,9-25.1,23.7-25.1c14.1,0,23.6,10.8,23.6,25.1c0,14.2-9.5,25.1-23.6,25.1C1039.3,781.7,1030.3,770.4,1030.3,756.6z
			 M1458,715.4c6,0,11.6,1.1,16.8,3.1c5.1,2.1,9.6,5,13.4,8.7c3.8,3.7,6.7,8,8.8,13c2.1,5,3.2,10.5,3.2,16.3
			c0,5.9-1.1,11.3-3.2,16.3c-2.1,5-5.1,9.4-8.8,13c-3.8,3.7-8.2,6.6-13.4,8.7c-5.1,2.1-10.7,3.1-16.8,3.1s-11.6-1.1-16.8-3.1
			c-5.1-2.1-9.6-5-13.3-8.7c-3.7-3.7-6.7-8-8.8-13c-2.1-5-3.2-10.5-3.2-16.3c0-5.9,1.1-11.3,3.2-16.3c2.1-5,5.1-9.4,8.8-13
			c3.7-3.7,8.2-6.6,13.3-8.7C1446.4,716.5,1452,715.4,1458,715.4z M1458,731.5c-3.5,0-6.7,0.6-9.7,1.8c-3,1.2-5.6,2.9-7.8,5.1
			c-2.2,2.2-3.9,4.9-5.1,7.9c-1.3,3.1-1.9,6.5-1.9,10.2s0.6,7.1,1.9,10.2c1.3,3.1,3,5.7,5.1,7.9c2.2,2.2,4.8,3.9,7.8,5.1
			c3,1.2,6.2,1.8,9.7,1.8s6.7-0.6,9.7-1.8c3-1.2,5.6-2.9,7.8-5.1c2.2-2.2,3.9-4.9,5.2-7.9c1.3-3.1,1.9-6.5,1.9-10.2
			s-0.6-7.1-1.9-10.2c-1.3-3.1-3-5.7-5.2-7.9c-2.2-2.2-4.8-3.9-7.8-5.1C1464.8,732.1,1461.5,731.5,1458,731.5z M1186.3,756.6
			c-0.2-24.4-15.2-41.1-37.2-41.1c-22.9,0-39,16.7-39,41.1c0,24.9,16.7,41.1,40.1,41.1c11.8,0,22.6-2.9,32.1-11l-8.4-12.6
			c-6.6,5.2-14.9,8.2-22.8,8.2c-11,0-21-5.1-23.4-19.2h58.1C1186.1,761,1186.3,758.9,1186.3,756.6z M1128,749.7
			c1.8-11.3,8.7-19,20.8-19c11,0,18,6.9,19.8,19H1128z M1258,737.5c-4.7-2.9-14.4-6.7-24.4-6.7c-9.3,0-14.9,3.4-14.9,9.2
			c0,5.2,5.9,6.7,13.3,7.7l8,1.1c17,2.5,27.3,9.7,27.3,23.4c0,14.9-13.1,25.5-35.7,25.5c-12.8,0-24.6-3.3-33.9-10.2l8-13.3
			c5.7,4.4,14.2,8.2,26,8.2c11.6,0,17.8-3.4,17.8-9.5c0-4.4-4.4-6.9-13.8-8.2l-8-1.1c-17.5-2.5-27-10.3-27-23.1
			c0-15.6,12.8-25.1,32.6-25.1c12.4,0,23.7,2.8,31.9,8.2L1258,737.5z M1339.8,733H1312v35.4c0,7.9,2.8,13.1,11.3,13.1
			c4.4,0,10-1.5,15.1-4.4l4.9,14.6c-5.4,3.8-13.9,6.1-21.3,6.1c-20.1,0-27.2-10.8-27.2-29V733h-15.9v-15.6h15.9l0-23.7h17.2l0,23.7
			h27.8V733z M1398.8,715.5c3.4,0,8.4,0.7,12.1,2.1l-5.2,16c-3.6-1.5-7.2-2-10.6-2c-11.1,0-16.7,7.2-16.7,20.1v43.9h-17v-78.3h16.9
			v9.5C1382.6,720.1,1389,715.5,1398.8,715.5L1398.8,715.5z M1516.7,784.4c1.1,0,2.1,0.2,3.1,0.6c1,0.4,1.8,1,2.5,1.7
			c0.7,0.7,1.3,1.5,1.7,2.5c0.4,0.9,0.6,2,0.6,3c0,1.1-0.2,2.1-0.6,3c-0.4,0.9-1,1.8-1.7,2.5c-0.7,0.7-1.6,1.3-2.5,1.7
			c-1,0.4-2,0.6-3.1,0.6c-1.1,0-2.2-0.2-3.1-0.6c-1-0.4-1.8-1-2.5-1.7c-0.7-0.7-1.3-1.5-1.7-2.5c-0.4-0.9-0.6-1.9-0.6-3
			c0-1.1,0.2-2.1,0.6-3c0.4-0.9,1-1.8,1.7-2.5c0.7-0.7,1.6-1.3,2.5-1.7C1514.5,784.6,1515.6,784.4,1516.7,784.4z M1516.7,798.2
			c0.8,0,1.6-0.2,2.3-0.5s1.4-0.8,1.9-1.3c0.5-0.5,1-1.2,1.3-1.9c0.3-0.7,0.5-1.5,0.5-2.4c0-0.8-0.2-1.6-0.5-2.4
			c-0.3-0.7-0.7-1.4-1.3-1.9c-0.5-0.5-1.2-1-1.9-1.3c-0.7-0.3-1.5-0.5-2.3-0.5c-0.9,0-1.7,0.2-2.4,0.5c-0.7,0.3-1.4,0.7-1.9,1.3
			c-0.5,0.5-1,1.2-1.3,1.9c-0.3,0.7-0.5,1.5-0.5,2.4c0,0.8,0.2,1.6,0.5,2.4c0.3,0.7,0.7,1.4,1.3,1.9c0.5,0.5,1.2,1,1.9,1.3
			C1515,798.1,1515.8,798.2,1516.7,798.2z M1517.1,788.5c0.9,0,1.6,0.2,2.1,0.6c0.5,0.4,0.8,1,0.8,1.7c0,0.6-0.2,1.1-0.6,1.5
			c-0.4,0.4-1,0.6-1.7,0.7l2.4,2.7h-1.9l-2.2-2.7h-0.7v2.7h-1.5v-7.2H1517.1z M1515.3,789.9v1.9h1.8c0.4,0,0.7-0.1,1-0.2
			c0.2-0.2,0.4-0.4,0.4-0.7c0-0.3-0.1-0.6-0.4-0.7c-0.2-0.2-0.6-0.2-1-0.2H1515.3z"/>
		<g id="XMLID_12_">
			<rect x="1057.4" y="120.1" fill="#7673C0" width="258.3" height="464.2"/>
			<path id="XMLID_16_" fill="#EB001B" d="M1073.8,352.1c0-94.2,44.1-178,112.7-232.1C1136.3,80.5,1072.9,57,1004.1,57
				C841.1,57,709,189.1,709,352.1c0,163,132.1,295.2,295.1,295.2c68.9,0,132.2-23.6,182.4-63.1
				C1117.9,530.2,1073.8,446.3,1073.8,352.1z"/>
			<path fill="#00A1DF" d="M1635.9,535.1v-9.5h3.8v-1.9h-9.8v1.9h3.8v9.5H1635.9z M1654.8,535.1v-11.5h-3l-3.4,7.9l-3.4-7.9h-3v11.5
				h2.1v-8.6l3.2,7.5h2.2l3.2-7.5v8.7H1654.8z"/>
			<path fill="#00A1DF" d="M1664.1,352.1c0,163-132.1,295.2-295.1,295.2c-68.9,0-132.2-23.6-182.4-63.1
				c68.7-54.1,112.7-137.9,112.7-232.1s-44.1-178-112.7-232.1c50.2-39.5,113.6-63.1,182.4-63.1C1531.9,57,1664.1,189.1,1664.1,352.1
				z"/>
		</g>
	</g>
</g>
<path display="none" fill="#FFFFFF" d="M1635.9,535.1v-9.5h3.8v-1.9h-9.8v1.9h3.8v9.5H1635.9z M1654.8,535.1v-11.5h-3l-3.4,7.9
	l-3.4-7.9h-3v11.5h2.1v-8.6l3.2,7.5h2.2l3.2-7.5v8.7H1654.8z M997.7,795.8v-49.1c0-18.5-11.8-30.9-30.8-31.1
	c-10-0.2-20.3,2.9-27.5,13.9c-5.4-8.7-13.9-13.9-25.9-13.9c-8.4,0-16.5,2.5-22.9,11.6v-9.7h-17v78.3h17.2v-43.4
	c0-13.6,7.5-20.8,19.2-20.8c11.3,0,17,7.4,17,20.6v43.6h17.2v-43.4c0-13.6,7.9-20.8,19.2-20.8c11.6,0,17.2,7.4,17.2,20.6v43.6H997.7
	z M1093.6,756.6v-39.1h-17v9.5c-5.4-7-13.6-11.5-24.7-11.5c-21.9,0-39.1,17.2-39.1,41.1c0,23.9,17.2,41.1,39.1,41.1
	c11.1,0,19.3-4.4,24.7-11.5v9.5h17V756.6z M1030.3,756.6c0-13.8,9-25.1,23.7-25.1c14.1,0,23.6,10.8,23.6,25.1
	c0,14.2-9.5,25.1-23.6,25.1C1039.3,781.7,1030.3,770.4,1030.3,756.6z M1458,715.4c6,0,11.6,1.1,16.8,3.1c5.1,2.1,9.6,5,13.4,8.7
	c3.8,3.7,6.7,8,8.8,13c2.1,5,3.2,10.5,3.2,16.3c0,5.9-1.1,11.3-3.2,16.3c-2.1,5-5.1,9.4-8.8,13c-3.8,3.7-8.2,6.6-13.4,8.7
	c-5.1,2.1-10.7,3.1-16.8,3.1c-6,0-11.6-1.1-16.8-3.1c-5.1-2.1-9.6-5-13.3-8.7c-3.7-3.7-6.7-8-8.8-13c-2.1-5-3.2-10.5-3.2-16.3
	c0-5.9,1.1-11.3,3.2-16.3c2.1-5,5.1-9.4,8.8-13c3.7-3.7,8.2-6.6,13.3-8.7C1446.4,716.5,1452,715.4,1458,715.4z M1458,731.5
	c-3.5,0-6.7,0.6-9.7,1.8c-3,1.2-5.6,2.9-7.8,5.1c-2.2,2.2-3.9,4.9-5.1,7.9c-1.3,3.1-1.9,6.5-1.9,10.2s0.6,7.1,1.9,10.2
	c1.3,3.1,3,5.7,5.1,7.9c2.2,2.2,4.8,3.9,7.8,5.1c3,1.2,6.2,1.8,9.7,1.8c3.5,0,6.7-0.6,9.7-1.8c3-1.2,5.6-2.9,7.8-5.1
	c2.2-2.2,3.9-4.9,5.2-7.9c1.3-3.1,1.9-6.5,1.9-10.2s-0.6-7.1-1.9-10.2c-1.3-3.1-3-5.7-5.2-7.9c-2.2-2.2-4.8-3.9-7.8-5.1
	C1464.7,732.1,1461.5,731.5,1458,731.5z M1186.3,756.6c-0.2-24.4-15.2-41.1-37.2-41.1c-22.9,0-39,16.7-39,41.1
	c0,24.9,16.7,41.1,40.1,41.1c11.8,0,22.6-2.9,32.1-11l-8.3-12.6c-6.5,5.2-14.9,8.2-22.8,8.2c-11,0-21-5.1-23.4-19.2h58.1
	C1186.1,761,1186.3,758.9,1186.3,756.6z M1128,749.7c1.8-11.3,8.7-19,20.8-19c11,0,18,6.9,19.8,19H1128z M1258,737.5
	c-4.7-2.9-14.4-6.7-24.4-6.7c-9.3,0-14.9,3.4-14.9,9.2c0,5.2,5.9,6.7,13.3,7.7l8,1.1c17,2.5,27.3,9.7,27.3,23.4
	c0,14.9-13.1,25.5-35.7,25.5c-12.8,0-24.6-3.3-33.9-10.2l8-13.3c5.7,4.4,14.2,8.2,26,8.2c11.6,0,17.8-3.4,17.8-9.5
	c0-4.4-4.4-6.9-13.8-8.2l-8-1.1c-17.5-2.5-27-10.3-27-23.1c0-15.6,12.8-25.1,32.6-25.1c12.4,0,23.7,2.8,31.9,8.2L1258,737.5z
	 M1339.8,733H1312v35.4c0,7.9,2.8,13.1,11.3,13.1c4.4,0,10-1.5,15.1-4.4l4.9,14.6c-5.4,3.8-13.9,6.1-21.3,6.1
	c-20.1,0-27.2-10.8-27.2-29V733h-15.9v-15.6h15.9l0-23.7h17.2l0,23.7h27.8V733z M1398.8,715.5c3.4,0,8.4,0.7,12.1,2.1l-5.2,16
	c-3.6-1.5-7.2-2-10.6-2c-11.1,0-16.7,7.2-16.7,20.1v43.9h-17v-78.3h16.9v9.5C1382.6,720.1,1388.9,715.5,1398.8,715.5L1398.8,715.5z
	 M1516.7,784.4c1.1,0,2.1,0.2,3.1,0.6c1,0.4,1.8,1,2.5,1.7c0.7,0.7,1.3,1.5,1.7,2.5c0.4,0.9,0.6,2,0.6,3c0,1.1-0.2,2.1-0.6,3
	c-0.4,0.9-1,1.8-1.7,2.5c-0.7,0.7-1.6,1.3-2.5,1.7c-1,0.4-2,0.6-3.1,0.6c-1.1,0-2.2-0.2-3.1-0.6c-1-0.4-1.8-1-2.5-1.7
	c-0.7-0.7-1.3-1.5-1.7-2.5c-0.4-0.9-0.6-1.9-0.6-3c0-1.1,0.2-2.1,0.6-3c0.4-0.9,1-1.8,1.7-2.5c0.7-0.7,1.6-1.3,2.5-1.7
	C1514.5,784.6,1515.5,784.4,1516.7,784.4z M1516.7,798.2c0.8,0,1.6-0.2,2.3-0.5s1.4-0.8,1.9-1.3c0.5-0.5,1-1.2,1.3-1.9
	c0.3-0.7,0.5-1.5,0.5-2.4c0-0.8-0.2-1.6-0.5-2.4c-0.3-0.7-0.7-1.4-1.3-1.9c-0.5-0.5-1.2-1-1.9-1.3c-0.7-0.3-1.5-0.5-2.3-0.5
	c-0.9,0-1.7,0.2-2.4,0.5c-0.7,0.3-1.4,0.7-1.9,1.3c-0.5,0.5-1,1.2-1.3,1.9c-0.3,0.7-0.5,1.5-0.5,2.4c0,0.8,0.2,1.6,0.5,2.4
	c0.3,0.7,0.7,1.4,1.3,1.9c0.5,0.5,1.2,1,1.9,1.3C1515,798.1,1515.8,798.2,1516.7,798.2z M1517.1,788.5c0.9,0,1.6,0.2,2.1,0.6
	c0.5,0.4,0.8,1,0.8,1.7c0,0.6-0.2,1.1-0.6,1.5c-0.4,0.4-1,0.6-1.7,0.7l2.4,2.7h-1.9l-2.2-2.7h-0.7v2.7h-1.5v-7.2H1517.1z
	 M1515.3,789.9v1.9h1.8c0.4,0,0.7-0.1,1-0.2c0.2-0.2,0.4-0.4,0.4-0.7c0-0.3-0.1-0.6-0.4-0.7c-0.2-0.2-0.6-0.2-1-0.2H1515.3z
	 M1160.3,592.1c2.3,2,4.7,3.9,7.1,5.9c-46.8,31.2-103,49.3-163.4,49.3c-163,0-295.1-132.2-295.1-295.2S841.1,57,1004.1,57
	c60.4,0,116.6,18.2,163.4,49.3c-2.4,2-4.8,3.9-7.1,5.9c-69.5,60.5-109.4,148-109.4,240C1050.9,444.1,1090.8,531.6,1160.3,592.1z
	 M1368.9,57c-60.4,0-116.6,18.2-163.4,49.3c2.4,2,4.8,3.9,7.1,5.9c69.5,60.5,109.4,148,109.4,239.9c0,92-39.9,179.4-109.4,239.9
	c-2.3,2-4.7,3.9-7.1,5.9c46.8,31.2,103,49.3,163.4,49.3c163,0,295.1-132.2,295.1-295.2C1664.1,189.1,1531.9,57,1368.9,57z
	 M1186.5,120.2c-3.8,3-7.5,6.1-11.2,9.2c-62.2,54.1-101.6,133.8-101.6,222.7c0,88.9,39.4,168.6,101.6,222.7
	c3.6,3.2,7.4,6.3,11.2,9.2c3.8-3,7.5-6.1,11.2-9.2c62.2-54.1,101.6-133.8,101.6-222.7c0-88.9-39.4-168.6-101.6-222.7
	C1194,126.2,1190.3,123.2,1186.5,120.2"/>
</svg>
