<?xml version="1.0" encoding="utf-8"?>
<!-- Generator: Adobe Illustrator 20.1.0, SVG Export Plug-In . SVG Version: 6.00 Build 0)  -->
<svg version="1.1" id="d11c4685-0de7-43a5-9036-eaab5538fd4b"
	 xmlns="http://www.w3.org/2000/svg" xmlns:xlink="http://www.w3.org/1999/xlink" x="0px" y="0px" viewBox="0 0 2373 856.9"
	 style="enable-background:new 0 0 2373 856.9;" xml:space="preserve">
<style type="text/css">
	.st0{fill:#FF5F00;}
	.st1{fill:#EB001B;}
	.st2{fill:#F79E1B;}
</style>
<g>
	<g>
		<g>
			<path id="XMLID_1775_" d="M882.679,798.026V748.68c0-18.587-11.804-31.088-30.823-31.251c-10.001-0.165-20.33,2.96-27.544,13.981
				c-5.411-8.716-13.937-13.981-25.905-13.981c-8.362,0-16.559,2.467-22.954,11.678v-9.704H758.4v78.624h17.215v-43.589
				c0-13.652,7.543-20.889,19.183-20.889c11.313,0,17.052,7.402,17.052,20.725v43.754h17.215v-43.589
				c0-13.652,7.87-20.889,19.183-20.889c11.64,0,17.215,7.402,17.215,20.725v43.754H882.679z M1137.469,719.402h-27.872v-23.85
				h-17.215v23.85h-15.904v15.626h15.904v35.858c0,18.257,7.05,29.114,27.216,29.114c7.378,0,15.904-2.304,21.314-6.087
				l-4.918-14.64c-5.083,2.961-10.659,4.442-15.084,4.442c-8.526,0-11.313-5.265-11.313-13.158v-35.529h27.872V719.402z
				 M1282.899,717.428c-9.837,0-16.232,4.606-20.658,11.514v-9.54h-16.888v78.624h17.051v-44.083
				c0-12.994,5.575-20.231,16.725-20.231c3.442,0,7.05,0.494,10.656,1.974l5.246-16.12
				C1291.26,718.086,1286.341,717.428,1282.899,717.428L1282.899,717.428z M1063.033,725.652
				c-8.199-5.428-19.512-8.224-31.972-8.224c-19.839,0-32.627,9.54-32.627,25.165c0,12.831,9.509,20.726,27.052,23.193l8.034,1.151
				c9.345,1.314,13.773,3.783,13.773,8.224c0,6.086-6.231,9.541-17.871,9.541c-11.804,0-20.33-3.784-26.069-8.225l-8.033,13.323
				c9.345,6.908,21.151,10.199,33.939,10.199c22.626,0,35.742-10.693,35.742-25.661c0-13.817-10.328-21.054-27.38-23.522
				l-8.033-1.152c-7.379-0.986-13.281-2.465-13.281-7.729c0-5.758,5.573-9.212,14.92-9.212c10.001,0,19.674,3.784,24.43,6.744
				L1063.033,725.652z M1519.816,717.428c-9.838,0-16.232,4.606-20.658,11.514v-9.54h-16.887v78.624h17.051v-44.083
				c0-12.994,5.575-20.231,16.724-20.231c3.444,0,7.052,0.494,10.659,1.974l5.246-16.12
				C1528.178,718.086,1523.258,717.428,1519.816,717.428L1519.816,717.428z M1300.113,758.712c0,23.853,16.561,41.288,41.811,41.288
				c11.805,0,19.673-2.632,28.199-9.377l-8.197-13.817c-6.394,4.606-13.117,7.073-20.495,7.073
				c-13.609-0.164-23.609-10.034-23.609-25.167c0-15.131,10-25,23.609-25.165c7.378,0,14.1,2.467,20.495,7.074l8.197-13.818
				c-8.526-6.743-16.395-9.375-28.199-9.375C1316.674,717.428,1300.113,734.863,1300.113,758.712L1300.113,758.712z
				 M1459.807,758.712v-39.31h-17.052v9.54c-5.411-7.073-13.608-11.514-24.758-11.514c-21.97,0-39.185,17.272-39.185,41.284
				c0,24.016,17.215,41.288,39.185,41.288c11.15,0,19.347-4.443,24.758-11.516v9.541h17.052V758.712z M1396.356,758.712
				c0-13.816,9.018-25.165,23.775-25.165c14.099,0,23.609,10.855,23.609,25.165c0,14.311-9.51,25.167-23.609,25.167
				C1405.374,783.879,1396.356,772.529,1396.356,758.712L1396.356,758.712z M1190.591,717.428
				c-22.955,0-39.022,16.777-39.022,41.284c0,25.003,16.723,41.288,40.17,41.288c11.805,0,22.626-2.962,32.135-11.022l-8.362-12.665
				c-6.557,5.263-14.92,8.224-22.79,8.224c-10.986,0-20.987-5.099-23.446-19.246h58.205c0.164-2.137,0.327-4.276,0.327-6.579
				C1227.646,734.205,1212.561,717.428,1190.591,717.428L1190.591,717.428z M1190.262,732.725c10.986,0,18.036,6.908,19.839,19.08
				h-40.661C1171.244,740.455,1178.13,732.725,1190.262,732.725L1190.262,732.725z M1618.026,758.712v-70.89h-17.052v41.12
				c-5.411-7.073-13.608-11.514-24.757-11.514c-21.971,0-39.186,17.272-39.186,41.284c0,24.016,17.215,41.288,39.186,41.288
				c11.149,0,19.346-4.443,24.757-11.516v9.541h17.052V758.712z M1554.575,758.712c0-13.816,9.017-25.165,23.773-25.165
				c14.1,0,23.609,10.855,23.609,25.165c0,14.311-9.509,25.167-23.609,25.167C1563.592,783.879,1554.575,772.529,1554.575,758.712
				L1554.575,758.712z M978.759,758.712v-39.31h-17.052v9.54c-5.41-7.073-13.608-11.514-24.758-11.514
				c-21.97,0-39.185,17.272-39.185,41.284c0,24.016,17.215,41.288,39.185,41.288c11.15,0,19.347-4.443,24.758-11.516v9.541h17.052
				V758.712z M915.308,758.712c0-13.816,9.017-25.165,23.773-25.165c14.1,0,23.609,10.855,23.609,25.165
				c0,14.311-9.509,25.167-23.609,25.167C924.325,783.879,915.308,772.529,915.308,758.712z"/>
		</g>
		<g id="XMLID_328_">
			<rect x="1057.366" y="120.209" class="st0" width="258.267" height="465.608"/>
			<path id="XMLID_330_" class="st1" d="M1073.765,353.013c0-94.458,44.085-178.584,112.735-232.804
				c-50.206-39.65-113.555-63.309-182.409-63.309c-163.002,0-295.141,132.575-295.141,296.113
				c0,163.537,132.139,296.113,295.141,296.113c68.854,0,132.203-23.657,182.409-63.309
				C1117.85,531.596,1073.765,447.471,1073.765,353.013z"/>
			<path class="st2" d="M1664.05,353.013c0,163.537-132.139,296.113-295.141,296.113c-68.854,0-132.203-23.657-182.409-63.309
				c68.651-54.221,112.734-138.346,112.734-232.804s-44.083-178.584-112.734-232.804c50.206-39.65,113.555-63.309,182.409-63.309
				C1531.911,56.9,1664.05,189.475,1664.05,353.013z"/>
		</g>
	</g>
</g>
</svg>
