<?xml version="1.0" encoding="utf-8"?>
<svg version="1.1" id="Layer_1"
  xmlns="http://www.w3.org/2000/svg"
  xmlns:xlink="http://www.w3.org/1999/xlink" x="0px" y="0px" viewBox="0 0 826 334" style="enable-background:new 0 0 826 334;" xml:space="preserve">
  <style type="text/css">
	.st0{filter:url(#Adobe_OpacityMaskFilter);}
	.st1{fill-rule:evenodd;clip-rule:evenodd;fill:#FFFFFF;}
	.st2{mask:url(#mask-2_2_);fill-rule:evenodd;clip-rule:evenodd;fill:#0F6D73;}
	.st3{filter:url(#Adobe_OpacityMaskFilter_1_);}
	.st4{mask:url(#mask-4_2_);fill-rule:evenodd;clip-rule:evenodd;fill:#2FB456;}
	.st5{fill-rule:evenodd;clip-rule:evenodd;fill:#0F6D73;}
	.st6{fill:#0F6D73;}
  </style>
  <g id="Group-3_1_">
    <g id="Clip-2_1_">
    </g>
    <defs>
      <filter id="Adobe_OpacityMaskFilter" filterUnits="userSpaceOnUse" x="7" y="2.4" width="413" height="280.8">
        <feColorMatrix type="matrix" values="1 0 0 0 0  0 1 0 0 0  0 0 1 0 0  0 0 0 1 0"/>
      </filter>
    </defs>
    <mask maskUnits="userSpaceOnUse" x="7" y="2.4" width="413" height="280.8" id="mask-2_2_">
      <g class="st0">
        <polygon id="path-1_2_" class="st1" points="7,2.4 420,2.4 420,283.2 7,283.2 			"/>
      </g>
    </mask>
    <path id="Fill-1_1_" class="st2" d="M368,54.3c0.2-17.8-12.1-25.5-26.1-25.4c-15.8,0.1-26.5,7.1-27,25c-0.4,17.1,11.9,24.9,27,25.1
		C355.5,79.2,368.4,71,368,54.3 M319.7,145.3c0,17.5,0.1,35-0.1,52.5c0,3.1,0.9,4.3,4.2,4.2c10.8-0.2,21.7-0.1,32.5-0.2
		c6.7-0.1,7.2-0.7,7.1-7.3c0-0.8,0-1.5,0-2.3c0-32.9,0-65.9,0-98.8c0-5,0-5-5.1-5c-11.2,0-22.4,0-33.6,0c-5,0-5,0-5,5.2
		C319.7,110.9,319.7,128.1,319.7,145.3 M71.9,141.4c0,15.8,0,31.7,0,47.5c0,1,0,2,0,3.1c0,0.9-0.1,1.9-1.3,2
		c-1.1,0.1-1.4-0.8-1.8-1.7c-1.3-3.4-2.6-6.9-3.9-10.3C48.3,136.7,31.7,91.4,15,46.1c-2.5-6.7-4.9-13.3-7.4-20
		c-1.3-3.6-0.9-4.1,2.8-4.3c15.3-1.2,30.8-1.2,46.1-2.5c23.6-1.9,47.3-2,70.8-4.1c12-1.1,24.2-0.7,36.2-1.9
		c22.5-2.2,45.3-1.3,67.7-4.3c2-0.3,4.1-0.3,6.1-0.2c15.7,0.2,31.2-1.9,46.8-2.6c14.5-0.6,29-1.6,43.5-1.8
		c7.3-0.1,14.4-2.5,21.8-1.8c1.9,0.2,3,0.4,3.9,2.4c9.4,21.2,18.9,42.4,28.5,63.6c10,22.2,19.9,44.4,29.9,66.6
		c2.5,5.7,5,11.4,7.7,17c1,2.1,0.7,3.6-0.8,5.1c-11.2,11.5-21.5,23.8-32,35.9c-1.3,1.5-3.1,2.2-4.9,2.8
		c-16.8,5.4-33.6,10.7-50.3,16.1c-2.1,0.7-4.1,0.3-5.8-0.9c-6.8-4.9-13.6-9.8-20.5-14.7c-1.7-1.2-2.2-3-2.1-5
		c0.1-5.7,0.1-11.5,0.1-17.2c0-5.3,0-5.3-4.9-3.7c-8.8,3-17.8,5.4-27.2,5c-11.1-0.5-21.4-3.1-28.6-12.6c-13.6-17.8-3.3-43.4,18.7-47
		c12.3-2,23.7,0.7,34.7,5.8c4.2,1.9,4.2,1.9,4.2-2.5c0-8.2-0.1-16.3,0-24.5c0-2.1-0.7-3.3-2.8-3.8c-25.1-6.5-49.9-6.5-73.8,4.5
		c-16.7,7.7-27.9,20.3-31.8,38.9c-5.5,26.7,7.6,51.7,33,62.1c7.3,3,14.9,5,22.7,6c2.1,0.3,3.6,1.1,4.8,2.7
		c5.7,7.8,11.4,15.6,17.1,23.4c1.6,2.1,0.5,2.7-1.4,3.3c-9.8,3-19.6,6.1-29.4,9.2c-37.3,11.7-74.5,23.5-111.8,35.2
		c-6.8,2.1-13.6,4.2-20.3,6.4c-2.9,0.9-4.4,0.5-5.6-2.8c-8.7-23.9-17.5-47.7-26.4-71.5c-0.2-0.6-0.4-1.2-0.6-1.8
		c-1.1-3.7-0.5-4.7,3.3-4.7c11.1,0,22.2,0,33.3,0c5.8,0,5.9,0,5.8-5.9c-0.1-8-0.2-16.1-0.4-24.1c-0.1-3,0.9-4,4-3.9
		c12.9,0.4,25.7-0.5,37.8-5.3c13-5.2,22.7-13.7,25.2-28.2c3.3-19.8-5.6-33.9-25.3-40.8c-13.1-4.6-26.9-5.2-40.6-5.4
		c-13.6-0.2-27.3,0-40.9-0.1c-3.1,0-4.2,0.8-4.2,4.1C72,108.7,71.9,125,71.9,141.4"/>
  </g>
  <g id="Group-6_1_" transform="translate(259.000000, 81.000000)">
    <g id="Clip-5_1_">
    </g>
    <defs>
      <filter id="Adobe_OpacityMaskFilter_1_" filterUnits="userSpaceOnUse" x="7.5" y="2.1" width="279.9" height="250.6">
        <feColorMatrix type="matrix" values="1 0 0 0 0  0 1 0 0 0  0 0 1 0 0  0 0 0 1 0"/>
      </filter>
    </defs>
    <mask maskUnits="userSpaceOnUse" x="7.5" y="2.1" width="279.9" height="250.6" id="mask-4_2_">
      <g class="st3">
        <polygon id="path-3_2_" class="st1" points="7.5,2.1 287.4,2.1 287.4,252.7 7.5,252.7 			"/>
      </g>
    </mask>
    <path id="Fill-4_1_" class="st4" d="M287.4,2.9c-9.4,8.8-18.4,17.1-26.9,25.9c-18.9,19.5-36.3,40.3-53,61.6
		c-25.5,32.6-49.3,66.5-71.8,101.4c-12.5,19.4-25,38.8-36.6,58.7c-1.4,2.4-2.3,3.1-4.1,0.3c-24.5-38.2-51.6-74.5-79.1-110.6
		c-2.4-3.1-4.7-6.4-7.2-9.4c-1.7-2.1-1.6-3.7,0.4-5.6c4.7-4.4,9.3-8.8,13.8-13.3c1.7-1.7,3-1.6,4.9-0.3
		c21.9,15.2,43.9,30.2,65.8,45.5c3.2,2.2,4.8,1.5,6.8-1.1c22-28.8,46.3-55.5,72.2-80.8c26.8-26.2,55.3-50.3,86.7-71
		c2.7-1.8,5.6-1.9,8.4-2C274,2.1,280.3,1.7,287.4,2.9"/>
  </g>
  <path id="Fill-7_1_" class="st5" d="M591.5,114.5v13.4c0,11.1,0,11.1,11.2,9.9c8.1-0.9,11.9-4.4,13.5-12.5c1.2-5.9,1-12,0.4-17.9
	c-0.9-9.5-4.8-14-12.5-15.5c-3.2-0.6-6.6-0.5-9.8-0.7c-2.1-0.1-2.8,0.9-2.8,3C591.6,101,591.5,107.8,591.5,114.5 M565.1,114.9
	c0-12.9,0.1-25.8-0.1-38.7c-0.1-3.6,1.2-4.6,4.7-4.5c13.3,0.4,26.7,0.9,40,0.7c16.3-0.2,27.6,10.1,31.4,23.5
	c4,13.8,4.2,27.8-1.3,41.2c-5.1,12.2-14.7,18.6-27.9,19.8c-14.5,1.4-29,0.3-43.4,0.8c-2.9,0.1-3.4-1.2-3.4-3.7
	C565.1,141,565.1,127.9,565.1,114.9"/>
  <path id="Fill-9_1_" class="st5" d="M717.6,96.5c-1.5,0-3.1-0.1-4.6,0c-4.2,0.3-7.4,0.1-9.3-5.1c-2-5.7-12.6-7.2-17.4-3.4
	c-1.7,1.3-2.4,3-2,5c0.4,2.2,1.9,3.6,4,4.2c5.9,1.6,11.8,3.1,17.8,4.6c4.7,1.2,9.3,2.8,13.7,4.9c16.7,7.8,17.6,27.5,8.6,39.2
	c-5.5,7.2-13.3,10.1-21.7,11.7c-9.9,1.8-19.8,1.2-29.7-1.3c-11.8-2.9-19.3-14.4-20.9-24.5c-0.3-2.1-0.1-3,2.6-3.3
	c6.5-0.7,13.1-0.2,19.6-1.1c3.4-0.5,3.9,1.8,4.6,4.3c2.5,8.8,14.4,12.7,21.5,7.1c5-4,4.8-9-0.4-12.6c-4.1-2.9-9-3.3-13.7-4.5
	c-7.8-2-15.5-4.2-22.2-9.1c-11.8-8.7-11.9-26.8-0.1-35.6c6.3-4.7,13.6-6.4,21.2-7c10.2-0.8,20.2-0.4,29.6,4.4
	c7.7,4,10.9,11.1,12.6,19.1c0.4,1.9-1,2.5-2.5,2.6c-3.7,0.1-7.4,0-11.1,0C717.6,96.2,717.6,96.4,717.6,96.5"/>
  <path id="Fill-11_1_" class="st5" d="M784.8,69.7c8.7,0.3,16.9,0.7,24,5.5c6.2,4.2,9.5,10.1,10.9,17.3c0.4,2-0.6,2.7-2.1,2.8
	c-7,0.3-14,0.6-21,0.8c-2,0.1-2.2-1.8-2.9-3.1c-2.7-5.5-8.7-8.6-14.2-7.1c-3.1,0.9-6.4,2.2-6.2,6.2c0.1,3.6,2.9,5.1,6,5.9
	c8.3,2.3,16.7,4.4,25,6.9c14.4,4.3,20,16.5,18.5,26.8c-1.8,12.8-9.1,21.4-21.8,24.7c-11.7,3.1-23.5,3-35.1-0.2
	c-10.9-2.9-19.9-14.2-20.9-25.4c-0.1-1.6,0.5-2,1.9-2.1c7-0.5,14-1,21-1.6c2.6-0.2,2.7,1.5,3.3,3.3c2.7,8.5,9.8,12.7,18,10.6
	c4-1,7-3.9,7.4-7.3c0.5-4.2-1.9-6.7-5.3-8.4c-5.3-2.6-11.1-3.5-16.7-5.1c-7.5-2.1-14.9-4.5-20.5-10.3c-9.8-10.2-6.3-28.5,6.5-35.4
	C768.3,70.4,776.7,69.7,784.8,69.7"/>
  <path id="Fill-21_1_" class="st5" d="M116,127.7c0-3.7,0.1-7.5,0-11.2c-0.1-2,0.7-2.8,2.6-2.8c4.6,0,9.2,0.2,13.6,1.6
	c6.2,2,9.9,7.2,9.8,13.2c-0.1,6.1-4.6,11.5-10.9,13.3c-4.1,1.1-8.3,1-12.5,0.9c-2,0-2.6-1.1-2.5-3C116.1,135.7,116,131.7,116,127.7" />
  <g>
    <path class="st6" d="M587.8,198.1l6,1.7c-0.9,3-2.5,5.3-4.6,6.8c-2.1,1.5-4.9,2.2-8.2,2.2c-4.1,0-7.4-1.3-10.1-3.8
		c-2.6-2.5-3.9-6-3.9-10.4c0-4.6,1.3-8.3,4-10.8c2.6-2.6,6.1-3.9,10.4-3.9c3.8,0,6.8,1,9.2,3c1.4,1.2,2.4,2.9,3.1,5.1l-6.1,1.3
		c-0.4-1.4-1.1-2.6-2.3-3.4c-1.2-0.8-2.6-1.3-4.2-1.3c-2.3,0-4.1,0.7-5.5,2.2c-1.4,1.5-2.1,3.9-2.1,7.2c0,3.5,0.7,6,2.1,7.5
		s3.2,2.2,5.4,2.2c1.6,0,3.1-0.5,4.3-1.4C586.4,201.7,587.3,200.2,587.8,198.1z"/>
    <path class="st6" d="M597.8,194.6c0-2.8,0.5-5.2,1.4-7.2c0.7-1.4,1.7-2.7,2.9-3.8c1.2-1.1,2.5-2,4-2.5c1.9-0.7,4.1-1.1,6.6-1.1
		c4.5,0,8.1,1.3,10.9,3.8c2.7,2.6,4.1,6.1,4.1,10.6c0,4.5-1.3,8-4,10.6c-2.7,2.5-6.3,3.8-10.8,3.8c-4.6,0-8.2-1.3-10.9-3.8
		C599.2,202.5,597.8,199,597.8,194.6z M604.2,194.4c0,3.2,0.8,5.6,2.4,7.2c1.6,1.6,3.6,2.4,6.1,2.4c2.5,0,4.5-0.8,6.1-2.4
		c1.6-1.6,2.4-4,2.4-7.3c0-3.2-0.8-5.6-2.3-7.2s-3.6-2.4-6.1-2.4c-2.6,0-4.6,0.8-6.2,2.4C605,188.8,604.2,191.2,604.2,194.4z"/>
    <path class="st6" d="M632.4,208.4v-27.9h9.3l5.6,19l5.5-19h9.3v27.9h-5.8v-22l-6.1,22h-6l-6.1-22v22H632.4z"/>
    <path class="st6" d="M668.2,208.4v-27.9h10c3.8,0,6.2,0.1,7.4,0.4c1.8,0.4,3.2,1.3,4.4,2.7c1.2,1.4,1.8,3.2,1.8,5.4
		c0,1.7-0.3,3.2-1,4.3c-0.7,1.2-1.6,2.1-2.6,2.8c-1.1,0.7-2.1,1.1-3.2,1.3c-1.5,0.3-3.6,0.4-6.4,0.4h-4v10.5H668.2z M674.4,185.2
		v7.9h3.4c2.4,0,4.1-0.1,4.9-0.4c0.8-0.3,1.5-0.7,1.9-1.4c0.5-0.6,0.7-1.3,0.7-2.2c0-1-0.3-1.9-1-2.5s-1.5-1.1-2.5-1.2
		c-0.7-0.1-2.2-0.2-4.5-0.2H674.4z"/>
    <path class="st6" d="M697,208.4v-27.7h6.2v23h15.4v4.7H697z"/>
    <path class="st6" d="M722.8,208.4v-27.9h6.2v27.9H722.8z"/>
    <path class="st6" d="M762.6,208.4h-6.7l-2.7-6.3h-12.3l-2.5,6.3h-6.6l12-27.9h6.6L762.6,208.4z M751.2,197.3L747,187l-4.1,10.4
		H751.2z"/>
    <path class="st6" d="M766,208.4v-27.9h6l12.6,18.6v-18.6h5.8v27.9h-6.2l-12.4-18.2v18.2H766z"/>
    <path class="st6" d="M803.8,208.4v-23.2h-9.1v-4.7h24.4v4.7H810v23.2H803.8z"/>
  </g>
</svg>
