<svg width="24" height="16" viewBox="0 0 24 16" fill="none" xmlns="http://www.w3.org/2000/svg">
<g clip-path="url(#clip0_2009_27072)">
<path d="M10.8001 2.69688L10.6001 3.89688V3.99688C10.6001 3.99688 10.6001 3.99687 10.7001 4.09687H10.8001H10.9001L12.0001 3.59687L13.1001 4.19687H13.2001H13.3001C13.3001 4.19687 13.3001 4.19687 13.4001 4.09687V3.99688L13.3001 2.99688L13.2001 2.69688L14.1001 1.89688C14.3001 1.69687 14.2001 1.49688 14.0001 1.49688L12.8001 1.29688L12.3001 0.196875C12.2001 -0.003125 11.9001 -0.003125 11.8001 0.196875L11.3001 1.29688L10.1001 1.49688C9.90013 1.49688 9.80013 1.79688 10.0001 1.89688L10.8001 2.69688Z" fill="white"/>
<path d="M15.7 3.19688L15.5 4.39688V4.49688C15.5 4.49688 15.5 4.49687 15.6 4.59687H15.7H15.8L17 4.09687L18 4.69687H18.1H18.2C18.2 4.69687 18.2 4.69687 18.3 4.59687V4.49688L18.1 3.29688L19 2.49688C19.2 2.29688 19.1 1.99688 18.9 1.99688L17.7 1.79688L17.2 0.696875C17.1 0.496875 16.8 0.496875 16.7 0.696875L16.2 1.79688L15 1.99688C14.8 1.99688 14.7 2.29688 14.9 2.39688L15.7 3.19688Z" fill="white"/>
<path d="M19.7002 3.19375C19.7002 3.19375 19.7002 3.29375 19.8002 3.29375L20.7002 4.09375L20.5002 5.29375V5.39375C20.5002 5.39375 20.5002 5.39375 20.6002 5.49375H20.7002H20.8002L21.9002 4.89375L23.0002 5.49375H23.1002C23.2002 5.49375 23.2002 5.49375 23.3002 5.39375C23.3002 5.39375 23.4002 5.29375 23.4002 5.19375L23.2002 3.99375L24.1002 3.19375C24.3002 2.99375 24.2002 2.79375 24.0002 2.79375L22.8002 2.59375L22.3002 1.49375C22.2002 1.29375 21.9002 1.29375 21.8002 1.49375L21.3002 2.59375L20.1002 2.79375C20.0002 2.79375 19.9002 2.89375 19.9002 2.99375C19.7002 3.09375 19.7002 3.19375 19.7002 3.19375Z" fill="white"/>
<path d="M0.900228 4.19531L0.700228 5.29531C0.700228 5.39531 0.700228 5.39531 0.800228 5.49531C0.800228 5.49531 0.900228 5.59531 1.00023 5.59531H1.10023L2.20023 4.99531L3.30023 5.59531H3.40023H3.50023C3.50023 5.59531 3.50023 5.59531 3.60023 5.49531V5.39531L3.40023 4.19531L4.30023 3.39531L4.40023 3.29531V3.19531C4.40023 3.09531 4.30023 2.99531 4.20023 2.99531L2.90023 2.69531L2.40023 1.59531C2.30023 1.39531 2.00023 1.39531 1.90023 1.59531L1.40023 2.69531L0.200228 2.89531C0.000227928 2.89531 -0.0997721 3.19531 0.100228 3.29531L0.900228 4.19531Z" fill="white"/>
<path d="M5.40042 2.99688L5.60042 3.19688L5.50042 4.39688V4.49688C5.50042 4.49688 5.50042 4.49687 5.60042 4.59687H5.70042H5.80042L6.90042 3.99688L8.00042 4.59687H8.10042H8.20042C8.20042 4.59687 8.20042 4.59688 8.30042 4.49688V4.39688L8.10042 3.19688L8.30042 2.99688L9.00042 2.39688C9.10042 2.19688 9.00042 1.99688 8.80042 1.99688L7.70042 1.79688L7.10042 0.696875C7.00042 0.496875 6.80042 0.496875 6.70042 0.696875L6.10042 1.79688L4.90042 1.99688C4.70042 1.99688 4.60042 2.19688 4.80042 2.39688L5.40042 2.99688Z" fill="white"/>
<path d="M8.6001 7.70312H7.1001V10.0031H8.6001C9.5001 10.0031 9.9001 9.60313 9.9001 8.80313C9.9001 8.10313 9.5001 7.70312 8.6001 7.70312Z" fill="white"/>
<path d="M23.7 6.1C23.5 6.3 23.3 6.4 23.1 6.4C22.9 6.4 22.8 6.4 22.6 6.3L21.9 5.9L21.2 6.3C21.1 6.4 20.9 6.4 20.7 6.4C20.4 6.4 20.1 6.3 19.9 6C19.7 5.8 19.6 5.5 19.7 5.2L19.8 4.4L19.2 3.8C19.1 3.7 19.1 3.6 19 3.6L19.1 4.3C19.2 4.6 19.1 4.9 18.9 5.1C18.7 5.3 18.4 5.5 18.1 5.5C17.9 5.5 17.8 5.5 17.6 5.4L17 5L16.3 5.4C16.2 5.5 16 5.5 15.8 5.5C15.5 5.5 15.2 5.4 15 5.1C14.8 4.9 14.7 4.6 14.8 4.3L14.9 3.5L14.4 3H14L14.1 3.7C14.2 4 14.1 4.3 13.9 4.5C13.7 4.7 13.4 4.9 13.1 4.9C12.9 4.9 12.8 4.9 12.6 4.8L12 4.4L11.3 4.8C11.2 4.9 11 4.9 10.8 4.9C10.5 4.9 10.2 4.8 10 4.5C9.9 4.3 9.8 4 9.8 3.7L10 3H9.4L8.9 3.5L9 4.3C9.1 4.6 9 4.9 8.8 5.1C8.6 5.3 8.4 5.5 8.1 5.5C7.9 5.5 7.8 5.5 7.6 5.4L6.9 5L6.2 5.3C6 5.4 5.9 5.5 5.7 5.5C5.4 5.5 5.1 5.4 4.9 5.1C4.7 4.9 4.7 4.6 4.7 4.3L4.8 3.9L4.2 4.4L4.3 5.2C4.4 5.5 4.3 5.8 4.1 6C3.9 6.3 3.6 6.4 3.3 6.4C3.1 6.4 3 6.4 2.8 6.3L2.2 5.9L1.5 6.3C1.3 6.4 1.2 6.4 1 6.4C0.8 6.4 0.5 6.3 0.4 6.1C0.1 6.7 0 7.3 0 7.9V11.1C0 13.8 2.2 16 4.9 16H19.1C21.8 16 24 13.8 24 11.1V7.9C24 7.3 23.9 6.7 23.7 6.1ZM10.5 10.5C10.1 10.9 9.5 11.1 8.8 11.1H7.1V13.1C7.1 13.5 6.9 13.7 6.5 13.7C6.1 13.7 5.9 13.5 5.9 13.1V7.4C5.9 7 6.1 6.8 6.5 6.8H8.8C9.5 6.8 10.1 7 10.5 7.4C10.9 7.8 11.1 8.3 11.1 9C11.1 9.6 10.9 10.1 10.5 10.5ZM18.1 7.5L15.6 13.2C15.5 13.4 15.4 13.5 15.3 13.6C15.2 13.7 15.1 13.7 14.9 13.7C14.6 13.7 14.3 13.5 14.2 13.2L11.7 7.5C11.6 7.3 11.6 7.1 11.7 6.9C11.8 6.7 12 6.7 12.2 6.7C12.4 6.7 12.5 6.7 12.6 6.8C12.7 6.9 12.8 7 12.8 7.2L14.9 12L17 7.2C17 7 17.1 6.9 17.2 6.8C17.3 6.7 17.4 6.7 17.6 6.7C17.8 6.7 18 6.8 18.1 6.9C18.2 7.1 18.2 7.3 18.1 7.5Z" fill="white"/>
</g>
<defs>
<clipPath id="clip0_2009_27072">
<rect width="24" height="16" fill="white"/>
</clipPath>
</defs>
</svg>
