<?xml version="1.0" encoding="UTF-8"?>
<svg viewBox="0 0 2373 857" version="1.1" xmlns="http://www.w3.org/2000/svg" xmlns:xlink="http://www.w3.org/1999/xlink">
    <title>Artboard</title>
    <g id="Artboard" stroke="none" stroke-width="1" fill="none" fill-rule="evenodd">
        <g id="visa" transform="translate(476.000000, 200.000000)" fill="#273CC4" fill-rule="nonzero">
            <path d="M538.9,8.3 L350.9,453.4 L228.6,453.4 L138.8,98.1 C134.7,73.6 130.7,65.5 114.3,57.3 C85.7,45.1 40.9,28.7 0,20.6 L4.1,8.4 L200,8.4 C224.5,8.4 248.9,24.7 253.1,53.2 L302,310.5 L420.4,8.4 L538.9,8.3 Z M1016.5,306.2 C1016.5,187.8 853.2,183.8 857.3,130.7 C857.3,114.4 873.6,98.1 906.2,94 C922.5,89.9 967.4,89.9 1020.5,114.4 L1036.8,20.4 C1008.2,12.3 975.6,2.84217094e-14 930.6,2.84217094e-14 C816.3,2.84217094e-14 738.7,61.2 734.6,146.9 C734.6,212.2 791.7,244.8 836.7,269.3 C881.5,289.7 897.9,306 897.9,326.4 C897.9,355 861.2,371.2 828.4,371.2 C771.3,371.2 738.5,354.9 710,342.6 L685.5,432.5 C714.1,444.7 763.1,457.001176 812.1,457.001176 C934.8,457.3 1016.5,400.2 1016.5,306.2 M1314.4,453.3 L1420.6,453.3 L1326.6,8.3 L1228.7,8.3 C1208.3,8.3 1187.9,20.5 1179.8,40.9 L1008.4,453.1 L1130.8,453.1 L1155.3,387.8 L1302.2,387.8 L1314.4,453.3 Z M1187.8,294 L1249,126.6 L1285.8,294 L1187.8,294 Z M702.2,8.3 L608.2,453.3 L494,453.3 L588,8.3 L702.2,8.3 Z" id="Shape"></path>
        </g>
    </g>
</svg>