<svg width="32" height="32" viewBox="0 0 32 32" fill="none" xmlns="http://www.w3.org/2000/svg">
<path d="M26 14C24.4087 14 22.8826 14.6321 21.7574 15.7574C20.6321 16.8826 20 18.4087 20 20C20 23.31 23 29 26 32C29 29 32 23.31 32 20C32 18.4087 31.3679 16.8826 30.2426 15.7574C29.1174 14.6321 27.5913 14 26 14ZM26 23C25.4067 23 24.8266 22.8241 24.3333 22.4944C23.8399 22.1648 23.4554 21.6962 23.2284 21.1481C23.0013 20.5999 22.9419 19.9967 23.0576 19.4147C23.1734 18.8328 23.4591 18.2982 23.8787 17.8787C24.2982 17.4591 24.8328 17.1734 25.4147 17.0576C25.9967 16.9419 26.5999 17.0013 27.1481 17.2284C27.6962 17.4554 28.1648 17.8399 28.4944 18.3333C28.8241 18.8266 29 19.4067 29 20C29 20.7956 28.6839 21.5587 28.1213 22.1213C27.5587 22.6839 26.7956 23 26 23Z" fill="#393E46"/>
<path d="M6 0C4.4087 0 2.88258 0.632141 1.75736 1.75736C0.632141 2.88258 0 4.4087 0 6C0 9.31 3 15 6 18C9 15 12 9.31 12 6C12 4.4087 11.3679 2.88258 10.2426 1.75736C9.11742 0.632141 7.5913 0 6 0V0ZM6 9C5.40666 9 4.82664 8.82405 4.33329 8.49441C3.83994 8.16476 3.45542 7.69623 3.22836 7.14805C3.0013 6.59987 2.94189 5.99667 3.05764 5.41473C3.1734 4.83279 3.45912 4.29824 3.87868 3.87868C4.29824 3.45912 4.83279 3.1734 5.41473 3.05764C5.99667 2.94189 6.59987 3.0013 7.14805 3.22836C7.69623 3.45542 8.16476 3.83994 8.49441 4.33329C8.82405 4.82664 9 5.40666 9 6C9 6.79565 8.68393 7.55871 8.12132 8.12132C7.55871 8.68393 6.79565 9 6 9Z" fill="#393E46"/>
<path d="M21.7598 8.58992L24.5898 11.4099L25.9998 12.8299L27.4098 11.4099L30.2398 8.58992L28.8298 7.16992L25.9998 9.99992L23.1698 7.16992L21.7598 8.58992Z" fill="#FFF4E0"/>
<path d="M27 10H25C25 6.53 24.95 5.3 24 4.74C22.73 4 19.63 4 14 4V2C26 2 27 2 27 10Z" fill="#FFF4E0"/>
<path d="M10.2398 23.4099L7.40977 20.5899L5.99977 19.1699L4.58977 20.5899L1.75977 23.4099L3.16977 24.8299L5.99977 21.9999L8.82977 24.8299L10.2398 23.4099Z" fill="#FFF4E0"/>
<path d="M18 30C6 30 5 30 5 22H7C7 25.47 7 26.7 8 27.26C9.27 28 12.37 28 18 28V30Z" fill="#FFF4E0"/>
</svg>
