<svg width="120" height="120" viewBox="0 0 120 120" fill="none" xmlns="http://www.w3.org/2000/svg">
<path d="M89.5195 43.1798L97.1795 50.8198L99.9995 53.6598L102.82 50.8198L110.48 43.1798L107.66 40.3398L99.9995 47.9998L92.3395 40.3398L89.5195 43.1798Z" fill="#FFF4E0"/>
<path d="M102 50H98C98 35.34 98 28.66 92.5 25.48C86.46 22 73.6 22 48 22V18C100 18 102 18 102 50Z" fill="#FFF4E0"/>
<path d="M29.96 77.48L22.32 69.82L19.48 67L16.66 69.82L9 77.48L11.82 80.32L19.48 72.66L27.14 80.32L29.96 77.48Z" fill="#FFF4E0"/>
<path d="M71.4805 102.66C19.0005 102.66 17.4805 101.76 17.4805 70.6602H21.4805C21.4805 98.6602 21.4805 98.6602 71.4805 98.6602V102.66Z" fill="#FFF4E0"/>
<path d="M100 64C104.243 64 108.313 65.6857 111.314 68.6863C114.314 71.6869 116 75.7565 116 80C116 88.5 108.56 104 100 114C91.44 104 84 88.4 84 80C84 75.7565 85.6857 71.6869 88.6863 68.6863C91.6869 65.6857 95.7565 64 100 64ZM100 60C94.6957 60 89.6086 62.1071 85.8579 65.8579C82.1071 69.6086 80 74.6957 80 80C80 91.04 90 110 100 120C110 110 120 91.04 120 80C120 74.6957 117.893 69.6086 114.142 65.8579C110.391 62.1071 105.304 60 100 60Z" fill="#393E46"/>
<path d="M100 88C104.418 88 108 84.4183 108 80C108 75.5817 104.418 72 100 72C95.5817 72 92 75.5817 92 80C92 84.4183 95.5817 88 100 88Z" fill="#393E46"/>
<path d="M20 4C24.2435 4 28.3131 5.68571 31.3137 8.68629C34.3143 11.6869 36 15.7565 36 20C36 28.5 28.56 44 20 54.1C11.44 44.1 4 28.5 4 20.1C4 15.8565 5.68571 11.7869 8.68629 8.78629C11.6869 5.78571 15.7565 4.1 20 4.1V4ZM20 0.1C14.713 0.0999339 9.64097 2.19334 5.8931 5.92246C2.14524 9.65159 0.0264352 14.713 0 20C0 31.04 10 50 20 60C30 50 40 31.04 40 20C40 14.6957 37.8929 9.60859 34.1421 5.85786C30.3914 2.10714 25.3043 0 20 0V0.1Z" fill="#393E46"/>
<path d="M20 28C24.4183 28 28 24.4183 28 20C28 15.5817 24.4183 12 20 12C15.5817 12 12 15.5817 12 20C12 24.4183 15.5817 28 20 28Z" fill="#393E46"/>
</svg>
