<svg width="1920" height="860" viewBox="0 0 1920 860" fill="none" xmlns="http://www.w3.org/2000/svg">
<path d="M1920 0.301758L1762 26C1577.38 59.4767 1388.78 65.0291 1202.51 42.4714L1130.09 33.7015C1087.89 28.5907 1045.19 29.2137 1003.16 35.5536L882.454 53.7584C743.275 74.75 601.462 70.6666 463.721 41.7013C333.414 14.2994 199.408 9.15478 67.3842 26.4856L-6.00012 36.1187V553H1920L1920 0.301758Z" fill="#00939C"/>
<path d="M1920 799.501L1768.42 825.449C1636.73 847.993 1502.2 848.438 1370.36 826.766C1260.32 808.677 1148.3 805.979 1037.52 818.749L852.772 840.046C741.225 852.904 628.26 844.966 519.607 816.635C375.738 779.12 224.858 777.499 80.2166 811.915L2.49149e-06 831.001L4.88257e-05 301L1920 301L1920 799.501Z" fill="#00939C"/>
</svg>
