<svg width="60" height="60" viewBox="0 0 60 60" fill="none" xmlns="http://www.w3.org/2000/svg">
<g clip-path="url(#clip0_2649_5685)">
<g clip-path="url(#clip1_2649_5685)">
<path d="M26.0303 18.23C26.3703 19.65 26.3803 21.11 26.0703 22.53C25.7503 23.95 25.1203 25.27 24.2203 26.41C22.6303 28.34 20.3403 29.59 17.7403 29.88V55.31C17.7403 56.55 17.3503 57.75 16.4803 58.63C15.6003 59.51 14.4103 60 13.0603 60C11.9203 60 10.7303 59.51 9.85026 58.63C8.97026 57.75 8.37026 56.56 8.37026 55.31V29.88C7.13026 29.74 5.83026 29.32 4.67026 28.64C3.51026 27.95 2.50026 27.02 1.73026 25.92C0.95026 24.82 0.42026 23.55 0.17026 22.23C-0.0797397 20.91 -0.0397397 19.53 0.28026 18.23L3.82026 0.750001C3.87026 0.510001 4.02026 0.310001 4.22026 0.170001C4.42026 0.0300014 4.67026 -0.0199986 4.91026 0.0200014C5.03026 0.0400014 5.15026 0.0900014 5.25026 0.160001C5.35026 0.230001 5.44026 0.320001 5.51026 0.420001C5.58026 0.520001 5.63026 0.640001 5.65026 0.760001C5.67026 0.880001 5.67026 1.01 5.55026 1.13L2.11026 18.61C1.82026 19.76 1.80026 20.95 2.05026 22.1C2.30026 23.25 2.81026 24.33 3.55026 25.24C4.26026 26.12 5.15026 26.83 6.17026 27.33C7.18026 27.83 8.29026 28.1 9.43026 28.02H16.8103C18.0403 28.1 19.1403 27.83 20.1603 27.33C21.1703 26.73 22.0603 26.12 22.6703 25.26C23.5003 24.35 24.0203 23.27 24.2603 22.12C24.5203 20.88 24.4903 19.79 24.2003 18.65L20.5503 1.14C20.6303 1.02 20.6303 0.890001 20.5503 0.770001C20.6803 0.650001 20.7303 0.530001 20.8003 0.420001C20.8703 0.320001 20.9503 0.230001 21.0603 0.160001C21.1703 0.0900014 21.2803 0.0400014 21.4103 0.0200014C21.6603 -0.0199986 21.9003 0.0300014 22.1003 0.170001C22.3003 0.310001 22.4403 0.520001 22.5003 0.750001L26.0403 18.23H26.0303ZM9.68026 20.35C9.50026 20.17 9.30026 19.93 9.30026 19.68V0.940001C9.30026 0.690001 9.50026 0.450001 9.68026 0.280001C9.86026 0.100001 10.0903 0.0100014 10.2403 0.0100014C10.5903 0.0100014 10.8303 0.110001 11.0103 0.280001C11.1903 0.460001 11.1803 0.690001 11.1803 0.940001V19.69C11.1803 19.94 11.1803 20.18 11.0103 20.36C10.8303 20.54 10.6003 20.63 10.2403 20.63C10.1003 20.63 9.86026 20.54 9.68026 20.36V20.35ZM15.8603 29.99H10.2403V55.3C10.2403 56.05 10.6403 56.76 11.1703 57.19C11.7003 57.82 12.4103 58.12 13.0503 58.12C13.9103 58.12 14.6203 57.83 15.0403 57.19C15.6703 56.77 15.8603 56.05 15.8603 55.3V30V29.99ZM15.3003 20.35C15.1203 20.17 14.9303 19.93 14.9303 19.68V0.940001C14.9303 0.690001 15.1303 0.450001 15.3003 0.280001C15.4803 0.100001 15.7203 0.0100014 15.8603 0.0100014C16.2103 0.0100014 16.4603 0.110001 16.6303 0.280001C16.8103 0.460001 16.7903 0.690001 16.7903 0.940001V19.69C16.7903 19.94 16.8003 20.18 16.6303 20.36C16.4503 20.54 16.2103 20.63 15.8603 20.63C15.7203 20.63 15.4703 20.54 15.3003 20.36V20.35Z" fill="#393E46"/>
<path d="M60.0004 55.31C60.0004 56.55 59.5104 57.75 58.6304 58.63C57.7504 59.51 56.5604 60 55.3104 60C54.0604 60 52.8704 59.51 51.9904 58.63C51.1104 57.75 50.6204 56.56 50.6204 55.31V41.25H48.6504C47.6704 41.25 46.6804 41.05 45.7704 40.68C44.8704 40.29 44.0404 39.74 43.3304 39.04C42.6404 38.34 42.0904 37.5 41.6104 36.59C41.3404 35.68 41.1504 34.69 41.1504 33.71V20.37C41.1404 16.05 42.5504 11.82 44.9604 8.24C47.3904 4.66 50.8304 1.88 54.8504 0.280002C55.3004 0.100002 55.7604 0.0100021 56.2404 0.0100021C57.2404 0.0100021 58.1904 0.410002 58.8904 1.11C59.5904 1.81 59.9904 2.77 59.9904 3.76V55.31H60.0004ZM58.1204 3.75C58.1204 3.25 57.9204 2.78 57.5704 2.42C57.2204 2.07 56.7404 1.87 56.2504 1.87C55.9104 1.87 55.7704 1.91 55.5504 1.99C51.8804 3.45 48.7204 5.98 46.5004 9.26C44.2904 12.53 43.1104 16.41 43.0204 20.36V33.71C43.0304 34.45 43.1704 35.19 43.4504 35.87C43.7304 36.56 44.1404 37.18 44.6704 37.71C45.1904 38.24 45.8104 38.66 46.5004 38.94C47.1804 39.22 47.9204 39.37 48.6604 39.37H58.1304V3.75H58.1204ZM58.1204 41.25H52.5004V55.31C52.5004 56.06 52.7904 56.77 53.3204 57.2C53.8504 57.83 54.5604 58.13 55.3104 58.13C56.0604 58.13 56.7804 57.84 57.2004 57.2C57.8304 56.78 58.1304 56.06 58.1304 55.31V41.25H58.1204Z" fill="#00ADB5"/>
</g>
</g>
<defs>
<clipPath id="clip0_2649_5685">
<rect width="60" height="60" fill="white"/>
</clipPath>
<clipPath id="clip1_2649_5685">
<rect width="60" height="60" fill="white"/>
</clipPath>
</defs>
</svg>
