<svg width="60" height="60" viewBox="0 0 60 60" fill="none" xmlns="http://www.w3.org/2000/svg">
<path d="M58 38V46C58 47.0609 57.5786 48.0783 56.8284 48.8284C56.0783 49.5786 55.0609 50 54 50H6C4.93913 50 3.92172 49.5786 3.17157 48.8284C2.42143 48.0783 2 47.0609 2 46V38H58ZM60 36H0V46C0 47.5913 0.632141 49.1174 1.75736 50.2426C2.88258 51.3679 4.4087 52 6 52H54C55.5913 52 57.1174 51.3679 58.2426 50.2426C59.3679 49.1174 60 47.5913 60 46V36Z" fill="white"/>
<path d="M54 2C55.0609 2 56.0783 2.42143 56.8284 3.17157C57.5786 3.92172 58 4.93913 58 6V36H2V6C2 4.93913 2.42143 3.92172 3.17157 3.17157C3.92172 2.42143 4.93913 2 6 2H54ZM54 0H6C4.4087 0 2.88258 0.632141 1.75736 1.75736C0.632141 2.88258 0 4.4087 0 6L0 38H60V6C60 4.4087 59.3679 2.88258 58.2426 1.75736C57.1174 0.632141 55.5913 0 54 0V0Z" fill="white"/>
<path d="M10 42C10.3956 42 10.7822 42.1173 11.1111 42.3371C11.44 42.5568 11.6964 42.8692 11.8478 43.2346C11.9991 43.6001 12.0387 44.0022 11.9616 44.3902C11.8844 44.7781 11.6939 45.1345 11.4142 45.4142C11.1345 45.6939 10.7781 45.8844 10.3902 45.9616C10.0022 46.0387 9.60009 45.9991 9.23463 45.8478C8.86918 45.6964 8.55682 45.44 8.33706 45.1111C8.1173 44.7822 8 44.3956 8 44C8 43.4696 8.21071 42.9609 8.58579 42.5858C8.96086 42.2107 9.46957 42 10 42ZM10 40C8.93913 40 7.92172 40.4214 7.17157 41.1716C6.42143 41.9217 6 42.9391 6 44C6 45.0609 6.42143 46.0783 7.17157 46.8284C7.92172 47.5786 8.93913 48 10 48C11.0609 48 12.0783 47.5786 12.8284 46.8284C13.5786 46.0783 14 45.0609 14 44C14 42.9391 13.5786 41.9217 12.8284 41.1716C12.0783 40.4214 11.0609 40 10 40Z" fill="#00ADB5"/>
<path d="M50 42C50.3956 42 50.7822 42.1173 51.1111 42.3371C51.44 42.5568 51.6964 42.8692 51.8478 43.2346C51.9991 43.6001 52.0387 44.0022 51.9616 44.3902C51.8844 44.7781 51.6939 45.1345 51.4142 45.4142C51.1345 45.6939 50.7781 45.8844 50.3902 45.9616C50.0022 46.0387 49.6001 45.9991 49.2346 45.8478C48.8692 45.6964 48.5568 45.44 48.3371 45.1111C48.1173 44.7822 48 44.3956 48 44C48 43.4696 48.2107 42.9609 48.5858 42.5858C48.9609 42.2107 49.4696 42 50 42ZM50 40C48.9391 40 47.9217 40.4214 47.1716 41.1716C46.4214 41.9217 46 42.9391 46 44C46 45.0609 46.4214 46.0783 47.1716 46.8284C47.9217 47.5786 48.9391 48 50 48C51.0609 48 52.0783 47.5786 52.8284 46.8284C53.5786 46.0783 54 45.0609 54 44C54 42.9391 53.5786 41.9217 52.8284 41.1716C52.0783 40.4214 51.0609 40 50 40Z" fill="#00ADB5"/>
<path d="M44 51H57V57C57 57.7956 56.6839 58.5587 56.1213 59.1213C55.5587 59.6839 54.7956 60 54 60H47C46.2044 60 45.4413 59.6839 44.8787 59.1213C44.3161 58.5587 44 57.7956 44 57V51Z" fill="white"/>
<path d="M3 51H16V57C16 57.7956 15.6839 58.5587 15.1213 59.1213C14.5587 59.6839 13.7956 60 13 60H6C5.20435 60 4.44129 59.6839 3.87868 59.1213C3.31607 58.5587 3 57.7956 3 57V51Z" fill="white"/>
<path d="M43 45H17C16.7348 45 16.4804 45.1054 16.2929 45.2929C16.1054 45.4804 16 45.7348 16 46C16 46.2652 16.1054 46.5196 16.2929 46.7071C16.4804 46.8946 16.7348 47 17 47H43C43.2652 47 43.5196 46.8946 43.7071 46.7071C43.8946 46.5196 44 46.2652 44 46C44 45.7348 43.8946 45.4804 43.7071 45.2929C43.5196 45.1054 43.2652 45 43 45Z" fill="white"/>
<path d="M43 41H17C16.7348 41 16.4804 41.1054 16.2929 41.2929C16.1054 41.4804 16 41.7348 16 42C16 42.2652 16.1054 42.5196 16.2929 42.7071C16.4804 42.8946 16.7348 43 17 43H43C43.2652 43 43.5196 42.8946 43.7071 42.7071C43.8946 42.5196 44 42.2652 44 42C44 41.7348 43.8946 41.4804 43.7071 41.2929C43.5196 41.1054 43.2652 41 43 41Z" fill="white"/>
<path d="M49.2288 27.2308C49.7057 27.0257 49.9269 26.4749 49.7229 26.0005C49.5189 25.5262 48.9669 25.3079 48.49 25.513L40.7917 28.8236C40.3147 29.0287 40.0935 29.5795 40.2975 30.0539C40.5015 30.5283 41.0535 30.7466 41.5304 30.5415L49.2288 27.2308Z" fill="white"/>
<path d="M53.5764 25.3539C54.0533 25.1488 54.2746 24.598 54.0706 24.1236C53.8666 23.6492 53.3146 23.4309 52.8376 23.636L51.1198 24.3748C50.6428 24.5799 50.4216 25.1307 50.6256 25.6051C50.8296 26.0795 51.3816 26.2978 51.8585 26.0927L53.5764 25.3539Z" fill="white"/>
<path d="M43.0256 33.0153C42.5487 33.2203 42.3275 33.7712 42.5315 34.2456C42.7355 34.7199 43.2875 34.9382 43.7644 34.7331L51.4627 31.4225C51.9396 31.2174 52.1609 30.6666 51.9569 30.1922C51.7529 29.7178 51.2009 29.4995 50.724 29.7046L43.0256 33.0153Z" fill="white"/>
<path d="M38.6677 34.8951C38.1908 35.1002 37.9696 35.6511 38.1736 36.1254C38.3776 36.5998 38.9296 36.8181 39.4065 36.613L41.1244 35.8742C41.6013 35.6691 41.8225 35.1183 41.6185 34.6439C41.4145 34.1696 40.8625 33.9513 40.3856 34.1564L38.6677 34.8951Z" fill="white"/>
<path d="M60 8H0V10H60V8Z" fill="white"/>
<path d="M43 4H17C16.7348 4 16.4804 4.10536 16.2929 4.29289C16.1054 4.48043 16 4.73478 16 5C16 5.26522 16.1054 5.51957 16.2929 5.70711C16.4804 5.89464 16.7348 6 17 6H43C43.2652 6 43.5196 5.89464 43.7071 5.70711C43.8946 5.51957 44 5.26522 44 5C44 4.73478 43.8946 4.48043 43.7071 4.29289C43.5196 4.10536 43.2652 4 43 4Z" fill="#00ADB5"/>
<path d="M51 4H49C48.7348 4 48.4804 4.10536 48.2929 4.29289C48.1054 4.48043 48 4.73478 48 5C48 5.26522 48.1054 5.51957 48.2929 5.70711C48.4804 5.89464 48.7348 6 49 6H51C51.2652 6 51.5196 5.89464 51.7071 5.70711C51.8946 5.51957 52 5.26522 52 5C52 4.73478 51.8946 4.48043 51.7071 4.29289C51.5196 4.10536 51.2652 4 51 4Z" fill="#00ADB5"/>
<path d="M11 4H9C8.73478 4 8.48043 4.10536 8.29289 4.29289C8.10536 4.48043 8 4.73478 8 5C8 5.26522 8.10536 5.51957 8.29289 5.70711C8.48043 5.89464 8.73478 6 9 6H11C11.2652 6 11.5196 5.89464 11.7071 5.70711C11.8946 5.51957 12 5.26522 12 5C12 4.73478 11.8946 4.48043 11.7071 4.29289C11.5196 4.10536 11.2652 4 11 4Z" fill="#00ADB5"/>
</svg>
