<svg width="60" height="60" viewBox="0 0 60 60" fill="none" xmlns="http://www.w3.org/2000/svg">
<path d="M9 48L9 14H7L7 48H9Z" fill="#00ADB5"/>
<path d="M59 58H1L0 60H60L59 58Z" fill="white"/>
<path d="M57 54H3L2 56H58L57 54Z" fill="white"/>
<path d="M55 50H5L4 52H56L55 50Z" fill="white"/>
<path d="M60 12L30 2L0 12V10L30 0L60 10V12Z" fill="white"/>
<path d="M60 10H0V12H60V10Z" fill="white"/>
<path d="M13 48L13 14H11L11 48H13Z" fill="#00ADB5"/>
<path d="M20 48L20 14H18L18 48H20Z" fill="#00ADB5"/>
<path d="M24 48L24 14H22L22 48H24Z" fill="#00ADB5"/>
<path d="M38 48V14H36V48H38Z" fill="#00ADB5"/>
<path d="M42 48V14H40V48H42Z" fill="#00ADB5"/>
<path d="M49 48V14H47V48H49Z" fill="#00ADB5"/>
<path d="M53 48V14H51V48H53Z" fill="#00ADB5"/>
<path d="M30 8C31.1046 8 32 7.10457 32 6C32 4.89543 31.1046 4 30 4C28.8954 4 28 4.89543 28 6C28 7.10457 28.8954 8 30 8Z" fill="#00ADB5"/>
</svg>
