<svg width="1272" height="1129" viewBox="0 0 1272 1129" fill="none" xmlns="http://www.w3.org/2000/svg">
<g id="ff-logo-hero" opacity="0.85">
<path id="Path" d="M1269.64 96.5267C1269.64 94.8833 1269.64 93.3663 1269.64 91.723C1269.64 90.0796 1269.64 88.3098 1269.64 86.6664C1268.33 76.3857 1265.12 66.4394 1260.16 57.3381C1197.01 -56.4351 867.079 4.24395 522.121 193.866C177.163 383.488 -52.3455 629.744 10.3053 744.023C46.6831 810.391 173.627 817.47 340.99 774.615C398.84 649.722 492.49 544.863 610.035 473.369C725.61 405.864 862.658 390.441 990.234 347.966C1080.17 317.753 1191.2 265.29 1242.1 190.2C1259.29 161.917 1268.78 129.621 1269.64 96.5267Z" fill="url(#paint0_linear)"/>
<path id="Path_2" d="M1269.79 97.6947V96.9368C1268.94 130.008 1259.44 162.28 1242.24 190.543C1191.2 265.58 1080.14 318.005 990.184 348.196C863.206 390.642 724.858 406.053 609.883 473.511C525.992 523.916 454.045 591.929 399.012 672.851C377.154 707.716 357.823 741.698 341.019 773.911C261.295 929.543 239.943 1056.25 296.925 1106.52C394.59 1192.68 684.806 1023.15 945.205 727.549C1162.77 481.848 1290.63 225.535 1269.79 97.6947Z" fill="url(#paint1_linear)"/>
</g>
<defs>
<linearGradient id="paint0_linear" x1="-0.0523035" y1="801.488" x2="1269.76" y2="801.488" gradientUnits="userSpaceOnUse">
<stop stop-color="#03659C"/>
<stop offset="1" stop-color="#06B2B8"/>
</linearGradient>
<linearGradient id="paint1_linear" x1="664.66" y1="1501.01" x2="1657.52" y2="758.074" gradientUnits="userSpaceOnUse">
<stop stop-color="#06B2B8"/>
<stop offset="0.2" stop-color="#06ABB5"/>
<stop offset="0.49" stop-color="#0596AE"/>
<stop offset="0.85" stop-color="#0476A2"/>
<stop offset="1" stop-color="#03659C"/>
</linearGradient>
</defs>
</svg>
