<svg width="163" height="54" viewBox="0 0 163 54" fill="none" xmlns="http://www.w3.org/2000/svg">
<path d="M62.4054 33.9666V21.2734C62.3845 21.0965 62.4455 20.9197 62.5711 20.7934C62.6966 20.667 62.873 20.6049 63.05 20.6247H70.7284C71.0257 20.6312 71.2652 20.8706 71.2716 21.168C71.2651 21.4646 71.025 21.7029 70.7284 21.7071H63.5932V26.8477H70.5824C70.787 26.83 70.984 26.9291 71.0918 27.1038C71.1995 27.2786 71.1995 27.4992 71.0918 27.674C70.984 27.8487 70.787 27.9478 70.5824 27.9301H63.5932V33.9666C63.5987 34.1264 63.5401 34.2818 63.4305 34.3983C63.3209 34.5148 63.1693 34.5826 63.0095 34.5869C62.6732 34.5781 62.4053 34.3029 62.4054 33.9666Z" fill="#393E46"/>
<path d="M75.2446 33.9652V21.1666C75.2446 20.8329 75.5151 20.5625 75.8487 20.5625C76.0064 20.5635 76.157 20.6283 76.2662 20.742C76.3754 20.8558 76.4339 21.0089 76.4284 21.1666V33.9652C76.435 34.1247 76.3773 34.2801 76.2684 34.3967C76.1594 34.5133 76.0082 34.5813 75.8487 34.5855C75.5125 34.5767 75.2445 34.3015 75.2446 33.9652V33.9652Z" fill="#393E46"/>
<path fill-rule="evenodd" clip-rule="evenodd" d="M90.8486 33.9853C90.8554 33.8533 90.8199 33.7227 90.7473 33.6123L87.2 28.6542C88.2143 28.6197 89.1723 28.1789 89.8585 27.431C90.5446 26.6831 90.9014 25.6908 90.8486 24.6772C90.8486 22.1434 89.0202 20.6231 86.6243 20.6231H82.0878C81.9134 20.6086 81.7418 20.673 81.6201 20.7987C81.4983 20.9243 81.4394 21.098 81.4594 21.2718V33.965C81.459 34.2953 81.7174 34.568 82.0473 34.5853C82.2071 34.581 82.3587 34.5132 82.4683 34.3967C82.5779 34.2802 82.6365 34.1248 82.631 33.965V28.7596H85.9189L89.7702 34.3339C89.8918 34.4973 90.0855 34.5912 90.2891 34.5853C90.4433 34.5811 90.5893 34.5152 90.6945 34.4024C90.7997 34.2896 90.8552 34.1393 90.8486 33.9853ZM86.5229 27.6934H82.631V21.7055H86.5229C88.3513 21.7055 89.6 22.942 89.6 24.6934C89.6 26.4447 88.3513 27.6934 86.5229 27.6934Z" fill="#393E46"/>
<path d="M95.3648 33.8596V21.292C95.3369 21.1119 95.3949 20.9291 95.5213 20.7978C95.6478 20.6666 95.8283 20.602 96.0093 20.6231H103.688C103.985 20.6295 104.225 20.869 104.231 21.1663C104.224 21.4629 103.984 21.7012 103.688 21.7055H96.5526V26.8461H103.542C103.746 26.8283 103.943 26.9274 104.051 27.1022C104.159 27.277 104.159 27.4976 104.051 27.6723C103.943 27.8471 103.746 27.9462 103.542 27.9285H96.5526V33.4217H103.688C103.892 33.404 104.089 33.5031 104.197 33.6779C104.305 33.8527 104.305 34.0732 104.197 34.248C104.089 34.4228 103.892 34.5219 103.688 34.5042H96.0093C95.8335 34.5221 95.6589 34.46 95.5339 34.335C95.4089 34.21 95.3468 34.0354 95.3648 33.8596Z" fill="#393E46"/>
<path d="M108.662 33.9666V21.2734C108.641 21.0965 108.702 20.9197 108.828 20.7934C108.953 20.667 109.13 20.6049 109.307 20.6247H116.985C117.288 20.6224 117.536 20.865 117.541 21.168C117.536 21.4639 117.297 21.7028 117.001 21.7071H109.838V26.8477H116.831C117.112 26.872 117.328 27.107 117.328 27.3889C117.328 27.6708 117.112 27.9058 116.831 27.9301H109.838V33.9666C109.844 34.1247 109.788 34.2789 109.681 34.3953C109.573 34.5116 109.424 34.5806 109.266 34.5869C108.929 34.5802 108.66 34.3038 108.662 33.9666Z" fill="#393E46"/>
<path d="M121.497 33.8598V21.1666C121.497 20.8329 121.768 20.5625 122.101 20.5625C122.259 20.5635 122.41 20.6282 122.52 20.7418C122.63 20.8555 122.689 21.0086 122.685 21.1666V33.422H128.928C129.209 33.4463 129.425 33.6813 129.425 33.9632C129.425 34.245 129.209 34.4801 128.928 34.5044H122.146C121.97 34.5222 121.795 34.4601 121.669 34.3353C121.544 34.2105 121.481 34.0361 121.497 33.8598Z" fill="#393E46"/>
<path d="M133.546 33.9653V21.1667C133.546 21.0043 133.611 20.8488 133.727 20.7352C133.843 20.6215 134 20.5594 134.162 20.5626C134.32 20.5637 134.471 20.6283 134.581 20.7419C134.691 20.8556 134.75 21.0087 134.746 21.1667V33.9653C134.751 34.1252 134.693 34.2806 134.583 34.397C134.474 34.5135 134.322 34.5814 134.162 34.5856C133.821 34.5834 133.546 34.3063 133.546 33.9653H133.546Z" fill="#393E46"/>
<path d="M139.749 33.8605V21.2929C139.728 21.116 139.789 20.9393 139.914 20.8129C140.04 20.6866 140.216 20.6245 140.393 20.6442H148.072C148.368 20.6508 148.607 20.8908 148.611 21.1875C148.606 21.4834 148.368 21.7223 148.072 21.7267H140.932V26.8469H147.946C148.227 26.8713 148.442 27.1063 148.442 27.3882C148.442 27.67 148.227 27.9051 147.946 27.9294H140.932V33.4226H148.072C148.352 33.4469 148.568 33.682 148.568 33.9638C148.568 34.2457 148.352 34.4807 148.072 34.5051H140.393C140.217 34.523 140.043 34.4609 139.918 34.3359C139.793 34.2109 139.731 34.0363 139.749 33.8605Z" fill="#393E46"/>
<path d="M152.442 32.4861C152.44 32.161 152.697 31.8931 153.022 31.8821C153.169 31.8864 153.311 31.9376 153.427 32.028C154.466 33.0791 155.882 33.6716 157.359 33.674C160.197 33.674 161.008 32.0929 161.008 30.9051C161.008 28.951 159.155 28.4078 157.197 27.8888C155.012 27.2848 152.681 26.6726 152.681 24.1024C152.681 21.8321 154.708 20.3969 157.303 20.3969C158.889 20.352 160.429 20.9348 161.588 22.0186C161.733 22.1059 161.829 22.2558 161.847 22.424C161.838 22.7506 161.57 23.0101 161.243 23.0078C161.103 23.0166 160.967 22.9631 160.87 22.8618C159.906 21.9341 158.608 21.4355 157.27 21.4794C155.357 21.4794 153.962 22.5415 153.962 24.0375C153.962 25.6834 155.689 26.1618 157.582 26.6605C159.832 27.3051 162.289 28.0145 162.289 30.824C162.289 32.6118 161.101 34.7564 157.355 34.7564C155.6 34.7977 153.901 34.1383 152.632 32.924C152.504 32.816 152.433 32.6539 152.442 32.4861Z" fill="#393E46"/>
<path d="M59.7148 4.53607C59.7148 4.45884 59.7148 4.38755 59.7148 4.31033C59.7148 4.2331 59.7148 4.14993 59.7148 4.0727C59.6533 3.58958 59.5022 3.12218 59.2693 2.69448C56.299 -2.65205 40.7822 0.199435 24.5584 9.11033C8.33463 18.0212 -2.45942 29.5935 0.48711 34.9638C2.198 38.0826 8.1683 38.4153 16.0396 36.4014C18.7604 30.5323 23.1648 25.6047 28.6931 22.245C34.1287 19.0727 40.5742 18.3479 46.5742 16.3519C50.8039 14.9321 56.0257 12.4668 58.4198 8.93805C59.2283 7.60893 59.6748 6.09129 59.7148 4.53607Z" fill="url(#paint0_linear)"/>
<path d="M59.7207 4.5708V4.53516C59.6806 6.09037 59.2342 7.60802 58.4256 8.93714C56.0256 12.4658 50.8038 14.9312 46.5741 16.351C40.6038 18.347 34.0989 19.0718 28.6929 22.2441C24.7485 24.6145 21.3657 27.8129 18.7781 31.6183C17.7504 33.2579 16.8414 34.8559 16.0513 36.3708C12.3028 43.6896 11.2989 49.648 13.9781 52.0124C18.5702 56.0639 32.2157 48.0916 44.4593 34.1906C54.689 22.6361 60.7009 10.5827 59.7207 4.5708Z" fill="url(#paint1_linear)"/>
<defs>
<linearGradient id="paint0_linear" x1="-1.84849e-05" y1="37.6642" x2="59.7208" y2="37.6642" gradientUnits="userSpaceOnUse">
<stop stop-color="#03659C"/>
<stop offset="1" stop-color="#06B2B8"/>
</linearGradient>
<linearGradient id="paint1_linear" x1="31.2684" y1="70.5637" x2="77.9569" y2="35.6336" gradientUnits="userSpaceOnUse">
<stop stop-color="#06B2B8"/>
<stop offset="0.2" stop-color="#06ABB5"/>
<stop offset="0.49" stop-color="#0596AE"/>
<stop offset="0.85" stop-color="#0476A2"/>
<stop offset="1" stop-color="#03659C"/>
</linearGradient>
</defs>
</svg>