<svg width="288" height="124" viewBox="0 0 288 124" fill="none" xmlns="http://www.w3.org/2000/svg">
<g id="ff-logo-hero" opacity="0.5">
<path id="Path" d="M305.248 -17.3833C305.248 -17.8535 305.248 -18.2875 305.248 -18.7577C305.248 -19.2279 305.248 -19.7342 305.248 -20.2044C304.874 -23.1457 303.955 -25.9914 302.538 -28.5953C284.469 -61.1463 190.075 -43.7858 91.3812 10.4659C-7.3128 64.7176 -72.9763 135.173 -55.0516 167.868C-44.6438 186.856 -8.32467 188.882 39.5587 176.621C56.11 140.888 82.9035 110.888 116.533 90.4329C149.6 71.1193 188.81 66.7068 225.31 54.5545C251.041 45.9104 282.806 30.9007 297.37 9.41705C302.289 1.32505 305.005 -7.91474 305.248 -17.3833Z" fill="url(#paint0_linear)"/>
<path id="Path_2" d="M305.292 -17.0491V-17.266C305.048 -7.80419 302.331 1.42901 297.411 9.51524C282.807 30.9836 251.033 45.9825 225.296 54.6205C188.967 66.7642 149.385 71.1735 116.49 90.4734C92.4886 104.895 71.9043 124.353 56.159 147.505C49.9054 157.481 44.3747 167.203 39.567 176.419C16.7576 220.946 10.6486 257.196 26.9513 271.581C54.8938 296.23 137.926 247.727 212.427 163.155C274.674 92.8587 311.256 19.5266 305.292 -17.0491Z" fill="url(#paint1_linear)"/>
</g>
<defs>
<linearGradient id="paint0_linear" x1="-58.015" y1="184.309" x2="305.284" y2="184.309" gradientUnits="userSpaceOnUse">
<stop stop-color="#368A4F"/>
<stop offset="1" stop-color="#6ABB82"/>
</linearGradient>
<linearGradient id="paint1_linear" x1="132.162" y1="384.445" x2="416.224" y2="171.888" gradientUnits="userSpaceOnUse">
<stop stop-color="#6ABB82"/>
<stop offset="1" stop-color="#368A4F"/>
</linearGradient>
</defs>
</svg>
