<svg width="1076" height="955" viewBox="0 0 1076 955" fill="none" xmlns="http://www.w3.org/2000/svg">
<g id="ff-logo-hero" opacity="0.5">
<path id="Path" d="M1074 81.6531C1074 80.2629 1074 78.9797 1074 77.5895C1074 76.1994 1074 74.7023 1074 73.3121C1072.89 64.6155 1070.18 56.2019 1065.99 48.503C1012.56 -47.7392 733.473 3.59001 441.669 163.994C149.865 324.397 -44.2797 532.708 8.71736 629.378C39.4898 685.519 146.873 691.508 288.448 655.256C337.384 549.607 416.603 460.906 516.036 400.429C613.802 343.325 729.733 330.279 837.65 294.348C913.727 268.791 1007.65 224.412 1050.71 160.893C1065.25 136.967 1073.28 109.648 1074 81.6531Z" fill="url(#paint0_linear)"/>
<path id="Path_2" d="M1074.13 82.6412V82C1073.41 109.975 1065.38 137.275 1050.83 161.183C1007.65 224.657 913.705 269.004 837.609 294.544C730.197 330.448 613.166 343.485 515.907 400.548C444.943 443.187 384.082 500.72 337.529 569.173C319.039 598.666 302.687 627.411 288.472 654.66C221.033 786.311 202.97 893.491 251.172 936.021C333.788 1008.9 579.286 865.494 799.56 615.443C983.603 407.601 1091.76 190.783 1074.13 82.6412Z" fill="url(#paint1_linear)"/>
</g>
<defs>
<linearGradient id="paint0_linear" x1="-0.0442441" y1="677.988" x2="1074.11" y2="677.988" gradientUnits="userSpaceOnUse">
<stop stop-color="#03659C"/>
<stop offset="1" stop-color="#06B2B8"/>
</linearGradient>
<linearGradient id="paint1_linear" x1="562.244" y1="1269.72" x2="1402.12" y2="641.264" gradientUnits="userSpaceOnUse">
<stop stop-color="#06B2B8"/>
<stop offset="0.2" stop-color="#06ABB5"/>
<stop offset="0.49" stop-color="#0596AE"/>
<stop offset="0.85" stop-color="#0476A2"/>
<stop offset="1" stop-color="#03659C"/>
</linearGradient>
</defs>
</svg>
