<svg width="185" height="81" viewBox="0 0 185 81" fill="none" xmlns="http://www.w3.org/2000/svg">
<path d="M91.037 6.17147C91.037 6.2949 91.037 6.41833 91.037 6.53404C91.0446 6.4133 91.0446 6.29221 91.037 6.17147Z" fill="url(#paint0_linear)"/>
<path d="M24.4834 55.35C25.6832 53.0358 27.0765 50.5749 28.6324 48.0832C27.043 50.3825 25.6549 52.8138 24.4834 55.35H24.4834Z" fill="url(#paint1_linear)"/>
<path d="M91.0988 6.94288C91.0988 6.82717 91.0988 6.71145 91.0988 6.59574C91.0988 6.48002 91.0988 6.35659 91.0988 6.23317C91.0079 5.50038 90.7795 4.79119 90.4254 4.14259C85.8662 -4.04998 62.1568 0.316309 37.4101 13.8857C12.6635 27.4552 -3.75432 45.0052 0.773925 53.1669C3.3825 57.9112 12.4932 58.4126 24.5143 55.35C28.65 46.433 35.3538 38.9437 43.7729 33.8349C52.063 29.0057 61.9246 27.9026 71.043 24.8709C77.5063 22.7186 85.4637 18.9695 89.1172 13.6003C90.3476 11.5907 91.0307 9.29603 91.0988 6.94288Z" fill="url(#paint2_linear)"/>
<path d="M91.1065 6.94287C91.0437 9.30656 90.3605 11.6126 89.1249 13.6312C85.4714 19.0312 77.514 22.7494 71.0507 24.9017C61.9245 27.9026 52.063 29.0057 43.7728 33.8349C37.7535 37.4371 32.5904 42.2984 28.64 48.0832C27.0919 50.5749 25.6908 53.0126 24.491 55.35C18.7707 66.474 17.2304 75.5306 21.3251 79.1332C28.3304 85.3046 49.1448 73.17 67.8228 52.0637C83.4278 34.4289 92.5927 16.1074 91.1065 6.94287Z" fill="url(#paint3_linear)"/>
<path d="M54.3774 57.7183V41.2483C54.356 41.0208 54.4368 40.7955 54.5982 40.6332C54.7596 40.4709 54.9849 40.3882 55.2134 40.4075H65.2142C65.6033 40.4075 65.9186 40.7218 65.9186 41.1095C65.9186 41.4972 65.6033 41.8115 65.2142 41.8115H55.9255V48.4843H65.0207C65.4098 48.4843 65.7251 48.7986 65.7251 49.1863C65.7251 49.574 65.4098 49.8883 65.0207 49.8883H55.9178V57.7183C55.9178 58.1444 55.5712 58.4898 55.1437 58.4898C54.7193 58.4855 54.3774 58.1414 54.3774 57.7183Z" fill="#505D65"/>
<path d="M71.0894 57.7183V41.1094C71.0894 40.6834 71.4359 40.338 71.8634 40.338C72.2909 40.338 72.6375 40.6834 72.6375 41.1094V57.7183C72.6375 58.1443 72.2909 58.4897 71.8634 58.4897C71.4359 58.4897 71.0894 58.1443 71.0894 57.7183Z" fill="#505D65"/>
<path fill-rule="evenodd" clip-rule="evenodd" d="M91.4085 57.7492C91.416 57.5775 91.37 57.4078 91.2769 57.2632L86.6945 50.8372C88.0096 50.7833 89.2486 50.2076 90.1354 49.2382C91.0223 48.2689 91.4835 46.9864 91.4162 45.6763C91.4162 42.3823 89.0167 40.4074 85.9204 40.4074H80.0066C79.7768 40.3857 79.5493 40.4673 79.3861 40.6299C79.2229 40.7926 79.1411 41.0193 79.1629 41.2483V57.7337C79.1629 58.1598 79.5094 58.5052 79.9369 58.5052C80.3644 58.5052 80.711 58.1598 80.711 57.7337V50.9837H84.9606L89.9997 58.1966C90.1613 58.4074 90.4148 58.528 90.6809 58.5206C91.0901 58.4961 91.4092 58.1578 91.4085 57.7492ZM85.7733 49.5489H80.711V41.8346H85.7733C87.9109 41.8346 89.6436 43.5615 89.6436 45.6917C89.6436 47.822 87.9109 49.5489 85.7733 49.5489Z" fill="#505D65"/>
<path d="M97.2912 57.5872V41.2483C97.2698 41.0208 97.3507 40.7955 97.512 40.6332C97.6734 40.4709 97.8987 40.3882 98.1272 40.4075H108.128C108.517 40.4075 108.832 40.7218 108.832 41.1095C108.832 41.4972 108.517 41.8115 108.128 41.8115H98.8394V48.4843H107.942C108.331 48.4843 108.647 48.7986 108.647 49.1863C108.647 49.574 108.331 49.8883 107.942 49.8883H98.8316V57.0163H108.12C108.509 57.0163 108.825 57.3306 108.825 57.7183C108.825 58.106 108.509 58.4203 108.12 58.4203H98.1272C97.9002 58.4393 97.6763 58.3576 97.5153 58.1971C97.3542 58.0365 97.2722 57.8134 97.2912 57.5872Z" fill="#505D65"/>
<path d="M114.599 57.7183V41.2483C114.578 41.0208 114.659 40.7955 114.82 40.6332C114.982 40.4709 115.207 40.3882 115.435 40.4075H125.436C125.825 40.4075 126.141 40.7218 126.141 41.1095C126.141 41.4972 125.825 41.8115 125.436 41.8115H116.147V48.4843H125.25C125.639 48.4843 125.955 48.7986 125.955 49.1863C125.955 49.574 125.639 49.8883 125.25 49.8883H116.147V57.7183C116.147 58.1444 115.801 58.4898 115.373 58.4898C114.946 58.4898 114.599 58.1444 114.599 57.7183Z" fill="#505D65"/>
<path d="M131.311 57.5872V41.1094C131.311 40.6834 131.658 40.338 132.085 40.338C132.513 40.338 132.859 40.6834 132.859 41.1094V57.0163H140.987C141.376 57.0163 141.691 57.3306 141.691 57.7183C141.691 58.106 141.376 58.4203 140.987 58.4203H132.155C131.927 58.4417 131.7 58.3611 131.538 58.2002C131.375 58.0394 131.292 57.8149 131.311 57.5872Z" fill="#505D65"/>
<path d="M147.001 57.7183V41.1094C147.001 40.6834 147.348 40.338 147.775 40.338C148.203 40.338 148.549 40.6834 148.549 41.1094V57.7183C148.549 58.1443 148.203 58.4897 147.775 58.4897C147.348 58.4897 147.001 58.1443 147.001 57.7183Z" fill="#505D65"/>
<path d="M155.075 57.5872V41.2483C155.053 41.0208 155.134 40.7955 155.295 40.6332C155.457 40.4709 155.682 40.3882 155.911 40.4075H165.912C166.301 40.4075 166.616 40.7218 166.616 41.1095C166.616 41.4972 166.301 41.8115 165.912 41.8115H156.623V48.4843H165.726C166.115 48.4843 166.43 48.7986 166.43 49.1863C166.43 49.574 166.115 49.8883 165.726 49.8883H156.615V57.0163H165.904C166.155 57.0163 166.388 57.1501 166.514 57.3673C166.64 57.5845 166.64 57.8521 166.514 58.0693C166.388 58.2865 166.155 58.4203 165.904 58.4203H155.911C155.684 58.4393 155.46 58.3576 155.299 58.1971C155.138 58.0365 155.056 57.8134 155.075 57.5872Z" fill="#505D65"/>
<path d="M171.601 55.8052C171.601 55.3791 171.947 55.0337 172.375 55.0337C172.572 55.0359 172.763 55.1038 172.917 55.2266C174.273 56.5801 176.114 57.3405 178.033 57.3403C181.741 57.3403 182.801 55.2883 182.801 53.7531C182.801 51.2074 180.386 50.5131 177.84 49.8343C174.991 49.0629 171.957 48.2374 171.957 44.9203C171.957 41.9734 174.612 40.1143 177.979 40.1143C180.041 40.0491 182.045 40.7945 183.56 42.1894C183.745 42.3213 183.854 42.5339 183.854 42.7603C183.854 43.1863 183.508 43.5317 183.08 43.5317C182.896 43.546 182.716 43.4748 182.592 43.3389C181.338 42.1301 179.646 41.4789 177.902 41.5337C175.409 41.5337 173.59 42.9069 173.59 44.8509C173.59 46.9877 175.843 47.6049 178.312 48.2529C181.238 49.0937 184.435 50.0117 184.435 53.6529C184.435 55.9671 182.887 58.752 178.01 58.752C175.717 58.8075 173.497 57.9496 171.841 56.3683C171.677 56.2284 171.588 56.02 171.601 55.8052Z" fill="#505D65"/>
<path d="M78.1798 70.2849V65.7489H76.6317C76.5205 65.7489 76.4304 65.6591 76.4304 65.5483C76.4304 65.4375 76.5205 65.3477 76.6317 65.3477H80.1072C80.2183 65.3477 80.3085 65.4375 80.3085 65.5483C80.3085 65.6591 80.2183 65.7489 80.1072 65.7489H78.5591V70.2849C78.5591 70.4084 78.4586 70.5086 78.3346 70.5086C78.2106 70.5086 78.1101 70.4084 78.1101 70.2849H78.1798Z" fill="#505D65"/>
<path fill-rule="evenodd" clip-rule="evenodd" d="M85.1463 70.2926C85.1605 70.2474 85.1605 70.1989 85.1463 70.1537L83.7917 68.3486C84.1682 68.3346 84.5234 68.1709 84.778 67.894C85.0325 67.6172 85.1652 67.2502 85.1463 66.8752C85.1714 66.4588 85.0164 66.0517 84.7204 65.7567C84.4245 65.4618 84.0159 65.3073 83.5981 65.3323H81.9262C81.8605 65.3248 81.795 65.3476 81.7483 65.3942C81.7016 65.4407 81.6787 65.506 81.6862 65.5715V70.2849C81.6902 70.4067 81.7884 70.5046 81.9107 70.5086C82.0316 70.5044 82.1275 70.4055 82.1274 70.2849V68.364H83.304L84.7438 70.416C84.7892 70.4765 84.8615 70.5111 84.9373 70.5086C85.0539 70.5044 85.1463 70.4089 85.1463 70.2926ZM83.5981 67.9629H82.1274V65.7489H83.5981C84.0171 65.714 84.4202 65.917 84.6404 66.2739C84.8607 66.6309 84.8607 67.0809 84.6404 67.4378C84.4202 67.7947 84.0171 67.9978 83.5981 67.9629Z" fill="#505D65"/>
<path fill-rule="evenodd" clip-rule="evenodd" d="M90.6421 70.5086C90.7704 70.5086 90.8744 70.405 90.8744 70.2772C90.8755 70.2512 90.8729 70.2252 90.8666 70.2L88.9624 65.5714C88.8987 65.4275 88.7564 65.334 88.5986 65.3323C88.4424 65.3331 88.3019 65.4274 88.2426 65.5714L86.2997 70.1846C86.2943 70.2152 86.2943 70.2465 86.2997 70.2772C86.2997 70.405 86.4036 70.5086 86.5319 70.5086C86.6269 70.5068 86.7119 70.4493 86.7486 70.362L87.2053 69.2203H89.9687L90.4254 70.362C90.4605 70.4507 90.5465 70.5089 90.6421 70.5086ZM88.5677 65.7412L89.7907 68.8269H87.3524L88.5677 65.7412Z" fill="#505D65"/>
<path d="M93.2352 70.2617L91.331 65.6332C91.3265 65.6025 91.3265 65.5713 91.331 65.5406C91.331 65.4085 91.4384 65.3014 91.5709 65.3014C91.6681 65.3022 91.7559 65.3595 91.7954 65.448L93.6144 69.9686L95.4412 65.448C95.4791 65.3581 95.5679 65.3001 95.6657 65.3014C95.7939 65.3014 95.8979 65.4051 95.8979 65.5329C95.9029 65.5661 95.9029 65.5999 95.8979 65.6332L93.9937 70.2617C93.9353 70.4089 93.7926 70.5057 93.6338 70.5057C93.475 70.5057 93.3322 70.4089 93.2739 70.2617H93.2352Z" fill="#505D65"/>
<path d="M97.183 70.2463V65.5714C97.1755 65.506 97.1984 65.4407 97.2451 65.3942C97.2919 65.3476 97.3573 65.3248 97.423 65.3323H100.279C100.39 65.3323 100.481 65.4221 100.481 65.5329C100.481 65.6436 100.39 65.7334 100.279 65.7334H97.6243V67.6543H100.225C100.336 67.6543 100.426 67.7441 100.426 67.8549C100.426 67.9656 100.336 68.0554 100.225 68.0554H97.6243V70.0843H100.279C100.39 70.0843 100.481 70.1741 100.481 70.2849C100.481 70.3956 100.39 70.4854 100.279 70.4854H97.423C97.3573 70.4929 97.2919 70.4701 97.2451 70.4236C97.1984 70.377 97.1755 70.3117 97.183 70.2463Z" fill="#505D65"/>
<path d="M101.99 70.2463V65.5715C101.99 65.4479 102.09 65.3477 102.214 65.3477C102.273 65.3477 102.329 65.3715 102.37 65.4137C102.411 65.4559 102.433 65.5129 102.431 65.5715V70.1075H104.753C104.864 70.1075 104.954 70.1973 104.954 70.308C104.954 70.4188 104.864 70.5086 104.753 70.5086H102.23C102.159 70.518 102.089 70.4924 102.041 70.44C101.993 70.3877 101.974 70.3153 101.99 70.2463Z" fill="#505D65"/>
<path d="M108.778 70.2463V65.5714C108.771 65.506 108.794 65.4407 108.84 65.3942C108.887 65.3476 108.953 65.3248 109.018 65.3323H111.874C111.986 65.3323 112.076 65.4221 112.076 65.5329C112.076 65.6436 111.986 65.7334 111.874 65.7334H109.219V67.6543H111.82C111.931 67.6543 112.022 67.7441 112.022 67.8549C112.022 67.9656 111.931 68.0554 111.82 68.0554H109.219V70.0843H111.874C111.986 70.0843 112.076 70.1741 112.076 70.2849C112.076 70.3956 111.986 70.4854 111.874 70.4854H109.018C108.953 70.4929 108.887 70.4701 108.84 70.4236C108.794 70.377 108.771 70.3117 108.778 70.2463Z" fill="#505D65"/>
<path d="M117.208 70.3929L114.027 66.0497V70.2849C114.027 70.4055 113.931 70.5044 113.81 70.5086C113.688 70.5046 113.589 70.4067 113.585 70.2849V65.6563C113.583 65.5793 113.612 65.5047 113.666 65.4495C113.72 65.3943 113.794 65.3631 113.872 65.3632C113.967 65.3631 114.056 65.4091 114.112 65.4866L117.27 69.7603V65.5715C117.268 65.5129 117.29 65.4559 117.331 65.4137C117.371 65.3715 117.428 65.3477 117.487 65.3477C117.611 65.3477 117.711 65.4479 117.711 65.5715V70.2C117.711 70.3504 117.591 70.4736 117.44 70.4777C117.354 70.4871 117.268 70.4557 117.208 70.3929Z" fill="#505D65"/>
<path d="M119.437 70.2463V65.5715C119.437 65.4479 119.538 65.3477 119.662 65.3477C119.72 65.3477 119.777 65.3715 119.818 65.4137C119.859 65.4559 119.88 65.5129 119.878 65.5715V70.1075H122.2C122.312 70.1075 122.402 70.1973 122.402 70.308C122.402 70.4188 122.312 70.5086 122.2 70.5086H119.677C119.607 70.518 119.536 70.4924 119.488 70.44C119.44 70.3877 119.421 70.3153 119.437 70.2463Z" fill="#505D65"/>
<path d="M123.78 70.2849V65.5715C123.78 65.4479 123.88 65.3477 124.004 65.3477C124.063 65.3477 124.119 65.3715 124.16 65.4137C124.201 65.4559 124.223 65.5129 124.221 65.5715V70.308C124.221 70.4286 124.125 70.5276 124.004 70.5317C123.941 70.5298 123.882 70.5024 123.839 70.4558C123.797 70.4093 123.775 70.3476 123.78 70.2849Z" fill="#505D65"/>
<path d="M130.328 68.1789V69.552C130.337 69.664 130.291 69.7732 130.204 69.8452C129.336 70.6513 128.036 70.7849 127.02 70.1726C126.005 69.5602 125.521 68.3506 125.834 67.2098C126.148 66.0689 127.183 65.2741 128.37 65.2629C129.045 65.2438 129.697 65.5034 130.173 65.9803C130.211 66.0164 130.231 66.0672 130.228 66.1192C130.234 66.1737 130.218 66.2284 130.183 66.2707C130.148 66.313 130.097 66.339 130.042 66.3429C129.99 66.3426 129.941 66.3234 129.902 66.2889C129.159 65.6579 128.091 65.5822 127.265 66.1021C126.44 66.622 126.05 67.6166 126.304 68.5563C126.557 69.496 127.394 70.1621 128.37 70.2C128.948 70.2028 129.505 69.9783 129.918 69.5752V68.3332H128.138C128.058 68.349 127.976 68.3153 127.931 68.2479C127.886 68.1804 127.886 68.0925 127.931 68.025C127.976 67.9576 128.058 67.9239 128.138 67.9397H130.119C130.18 67.9415 130.237 67.9684 130.276 68.0138C130.316 68.0592 130.335 68.119 130.328 68.1789Z" fill="#505D65"/>
<path d="M135.607 70.2849V68.0477H132.364V70.2849C132.364 70.4055 132.268 70.5044 132.147 70.5086C132.025 70.5046 131.927 70.4067 131.923 70.2849V65.5715C131.923 65.4479 132.023 65.3477 132.147 65.3477C132.206 65.3477 132.262 65.3715 132.303 65.4137C132.344 65.4559 132.366 65.5129 132.364 65.5715V67.6697H135.638V65.5715C135.638 65.4479 135.739 65.3477 135.863 65.3477C135.987 65.3477 136.087 65.4479 136.087 65.5715V70.308C136.087 70.4316 135.987 70.5317 135.863 70.5317C135.739 70.5317 135.638 70.4316 135.638 70.308L135.607 70.2849Z" fill="#505D65"/>
<path d="M139.091 70.2849V65.7489H137.581C137.47 65.7489 137.38 65.6591 137.38 65.5483C137.38 65.4375 137.47 65.3477 137.581 65.3477H141.057C141.168 65.3477 141.258 65.4375 141.258 65.5483C141.258 65.6591 141.168 65.7489 141.057 65.7489H139.509V70.2849C139.509 70.4084 139.408 70.5086 139.284 70.5086C139.16 70.5086 139.06 70.4084 139.06 70.2849H139.091Z" fill="#505D65"/>
<path d="M142.581 70.2463V65.5714C142.574 65.506 142.597 65.4407 142.644 65.3942C142.69 65.3476 142.756 65.3248 142.821 65.3323H145.678C145.789 65.3323 145.879 65.4221 145.879 65.5329C145.879 65.6436 145.789 65.7334 145.678 65.7334H143.023V67.6543H145.624C145.735 67.6543 145.825 67.7441 145.825 67.8549C145.825 67.9656 145.735 68.0554 145.624 68.0554H143.023V70.0843H145.678C145.789 70.0843 145.879 70.1741 145.879 70.2849C145.879 70.3956 145.789 70.4854 145.678 70.4854H142.821C142.756 70.4929 142.69 70.4701 142.644 70.4236C142.597 70.377 142.574 70.3117 142.581 70.2463Z" fill="#505D65"/>
<path d="M151.011 70.3929L147.845 66.0497V70.2849C147.845 70.4055 147.749 70.5044 147.628 70.5086C147.506 70.5046 147.408 70.4067 147.404 70.2849V65.6563C147.402 65.5793 147.431 65.5047 147.485 65.4495C147.539 65.3943 147.613 65.3631 147.69 65.3632C147.786 65.3631 147.875 65.4091 147.93 65.4866L151.088 69.7603V65.5715C151.086 65.5129 151.108 65.4559 151.149 65.4137C151.19 65.3715 151.246 65.3477 151.305 65.3477C151.429 65.3477 151.53 65.4479 151.53 65.5715V70.2C151.53 70.3504 151.41 70.4736 151.259 70.4777C151.167 70.4923 151.074 70.4605 151.011 70.3929Z" fill="#505D65"/>
<path d="M153.263 70.2463V65.5714C153.256 65.506 153.279 65.4407 153.325 65.3942C153.372 65.3476 153.438 65.3248 153.503 65.3323H156.36C156.471 65.3323 156.561 65.4221 156.561 65.5329C156.561 65.6436 156.471 65.7334 156.36 65.7334H153.705V67.6543H156.305C156.417 67.6543 156.507 67.7441 156.507 67.8549C156.507 67.9656 156.417 68.0554 156.305 68.0554H153.705V70.0843H156.36C156.471 70.0843 156.561 70.1741 156.561 70.2849C156.561 70.3956 156.471 70.4854 156.36 70.4854H153.503C153.438 70.4929 153.372 70.4701 153.325 70.4236C153.279 70.377 153.256 70.3117 153.263 70.2463Z" fill="#505D65"/>
<path fill-rule="evenodd" clip-rule="evenodd" d="M158.047 65.5714V70.2463C158.044 70.3092 158.069 70.37 158.116 70.413C158.162 70.456 158.224 70.4768 158.287 70.47H159.696C161.119 70.47 162.273 69.3199 162.273 67.9012C162.273 66.4824 161.119 65.3323 159.696 65.3323H158.287C158.221 65.3248 158.156 65.3476 158.109 65.3942C158.062 65.4407 158.04 65.506 158.047 65.5714ZM161.871 67.9166C161.871 69.1138 160.897 70.0843 159.696 70.0843H158.488V65.7489H159.696C160.897 65.7489 161.871 66.7194 161.871 67.9166Z" fill="#505D65"/>
<defs>
<linearGradient id="paint0_linear" x1="91.037" y1="6.40676" x2="91.0757" y2="6.40676" gradientUnits="userSpaceOnUse">
<stop stop-color="white"/>
<stop offset="1"/>
</linearGradient>
<linearGradient id="paint1_linear" x1="24.4834" y1="55.3568" x2="28.6401" y2="55.3568" gradientUnits="userSpaceOnUse">
<stop stop-color="white"/>
<stop offset="1"/>
</linearGradient>
<linearGradient id="paint2_linear" x1="-0.000133325" y1="57.2744" x2="91.0988" y2="57.2744" gradientUnits="userSpaceOnUse">
<stop stop-color="#03659C"/>
<stop offset="1" stop-color="#06B2B8"/>
</linearGradient>
<linearGradient id="paint3_linear" x1="47.6892" y1="107.301" x2="118.752" y2="53.982" gradientUnits="userSpaceOnUse">
<stop stop-color="#06B2B8"/>
<stop offset="0.2" stop-color="#06ABB5"/>
<stop offset="0.49" stop-color="#0596AE"/>
<stop offset="0.85" stop-color="#0476A2"/>
<stop offset="1" stop-color="#03659C"/>
</linearGradient>
</defs>
</svg>