<svg width="16" height="16" viewBox="0 0 16 16" fill="none" xmlns="http://www.w3.org/2000/svg">
<path d="M14 12V13H15V15H14V16H16V12H14Z" fill="#393E46"/>
<path d="M2 16V15H1V13H2V12H0V16H2Z" fill="#393E46"/>
<path d="M5 16V15H3V11H5V10H2V16H5Z" fill="#393E46"/>
<path d="M11 10V11H13V15H11V16H14V10H11Z" fill="#393E46"/>
<path d="M10 6V15H6V6H10ZM11 5H5V16H11V5Z" fill="#393E46"/>
<path d="M8 0L5 5H11L8 0Z" fill="#393E46"/>
<path d="M8 7H7V8H8V7Z" fill="#393E46"/>
<path d="M12 12H11V13H12V12Z" fill="#393E46"/>
<path d="M13 13H12V14H13V13Z" fill="#393E46"/>
<path d="M5 12H4V13H5V12Z" fill="#393E46"/>
<path d="M4 13H3V14H4V13Z" fill="#393E46"/>
<path d="M9 8H8V9H9V8Z" fill="#393E46"/>
<path d="M8 9H7V10H8V9Z" fill="#393E46"/>
<path d="M9 10H8V11H9V10Z" fill="#393E46"/>
<path d="M8 11H7V12H8V11Z" fill="#393E46"/>
<path d="M9 12H8V13H9V12Z" fill="#393E46"/>
<path d="M8 13H7V14H8V13Z" fill="#393E46"/>
</svg>
