<svg width="96" height="96" viewBox="0 0 96 96" fill="none" xmlns="http://www.w3.org/2000/svg">
<g id="insurance-48-dark">
<path id="Path" fill-rule="evenodd" clip-rule="evenodd" d="M91.3999 0H51.5334C48.9974 0 46.9333 2.09133 46.9333 4.66095V10.8756H50.0001V4.66095C50.0001 3.80322 50.6869 3.1073 51.5334 3.1073H91.3999C92.2465 3.1073 92.9333 3.80322 92.9333 4.66095V66.8057C92.9333 67.6635 92.2465 68.3594 91.3999 68.3594H57.6666V71.4667H91.3999C93.936 71.4667 96 69.3753 96 66.8057V4.66095C96 2.09133 93.936 0 91.3999 0Z" fill="#393E46"/>
<path id="Shape" fill-rule="evenodd" clip-rule="evenodd" d="M89.5995 6.3999H61.8662V27.7332H89.5995V6.3999ZM64.9482 14.0183H66.489C68.1883 14.0183 69.5706 15.385 69.5706 17.0659C69.5706 18.7469 68.1887 20.1136 66.489 20.1136H64.9482V14.0183ZM86.5188 24.6847H64.9482V23.1609H66.489C69.888 23.1609 72.6521 20.4271 72.6521 17.0655C72.6521 13.704 69.888 10.9702 66.489 10.9702H64.9482V9.44639H86.5188V24.6847Z" fill="#393E46"/>
<path id="Shape_2" fill-rule="evenodd" clip-rule="evenodd" d="M78.9332 23.4665C82.4628 23.4665 85.3332 20.5961 85.3332 17.0665C85.3332 13.5369 82.4628 10.6665 78.9332 10.6665C75.4036 10.6665 72.5332 13.5369 72.5332 17.0665C72.5332 20.5961 75.4036 23.4665 78.9332 23.4665ZM78.9334 13.8672C80.698 13.8672 82.1334 15.3022 82.1334 17.0672C82.1334 18.8321 80.6984 20.2672 78.9334 20.2672C77.1684 20.2672 75.7334 18.8321 75.7334 17.0672C75.7334 15.3022 77.1688 13.8672 78.9334 13.8672Z" fill="#393E46"/>
<rect id="Rectangle" x="82.1338" y="30.9331" width="3.2" height="34.1333" fill="#393E46"/>
<rect id="Rectangle_2" x="73.5996" y="30.9331" width="3.2" height="34.1333" fill="#393E46"/>
<rect id="Rectangle_3" x="66.1338" y="61.8667" width="3.2" height="3.2" fill="#393E46"/>
<rect id="Rectangle_4" x="66.1338" y="30.9331" width="3.2" height="27.7333" fill="#393E46"/>
<path id="Path_2" fill-rule="evenodd" clip-rule="evenodd" d="M50.9472 96.0001H0V9.6001H50.9472C55.2038 9.6001 58.6667 13.0607 58.6667 17.3145V88.286C58.6663 92.5395 55.2035 96.0001 50.9472 96.0001Z" fill="#00ADB5"/>
<path id="Shape_3" fill-rule="evenodd" clip-rule="evenodd" d="M29.3335 17.0669C17.2756 17.0669 7.4668 26.8757 7.4668 38.9336C7.4668 50.9914 17.2756 60.8002 29.3335 60.8002C41.3913 60.8002 51.2001 50.9914 51.2001 38.9336C51.2001 26.8757 41.3913 17.0669 29.3335 17.0669ZM41.757 37.3714C41.5898 34.2384 40.9682 31.4907 40.0498 29.1482C41.7679 28.378 42.9267 27.5315 43.6561 26.8692C46.0928 29.7573 47.6672 33.3885 47.9982 37.3714H41.757ZM30.8955 21.6369C32.3216 22.8223 34.1552 24.6778 35.6951 27.3221C34.3565 27.6393 32.7697 27.8751 30.8955 27.9611V21.6369ZM34.7891 21.0057C37.2677 21.7617 39.5231 23.0206 41.4507 24.6589C40.9243 25.1149 40.0449 25.743 38.7096 26.3317C37.5049 24.1358 36.1135 22.3695 34.7891 21.0057ZM27.7713 21.6369V27.9611C25.8971 27.8751 24.3102 27.6393 22.9717 27.3225C24.5116 24.6781 26.3455 22.8227 27.7713 21.6369ZM19.9579 26.3307C18.6239 25.7419 17.7432 25.1155 17.2168 24.6579C19.1441 23.0195 21.4011 21.7607 23.8784 21.0047C22.5537 22.3698 21.162 24.1361 19.9579 26.3307ZM27.7713 31.0804V37.3718H20.0322C20.1979 34.6244 20.7663 32.2317 21.5784 30.1869C23.284 30.6461 25.3301 30.9787 27.7713 31.0804ZM27.7717 40.4953V46.7866C25.3304 46.8896 23.2843 47.2209 21.5804 47.6801C20.7666 45.637 20.1982 43.2426 20.0342 40.4953H27.7717ZM27.7713 49.9057V56.2298C26.3451 55.0444 24.5116 53.1873 22.9717 50.5446C24.3102 50.2275 25.8971 49.9916 27.7713 49.9057ZM23.8775 56.8609C21.3988 56.1049 19.1435 54.846 17.2158 53.2077C17.7423 52.7517 18.6216 52.1236 19.9569 51.5349C21.1613 53.7308 22.553 55.4974 23.8775 56.8609ZM30.8955 56.2319V49.9078C32.7713 49.9937 34.3565 50.2295 35.6967 50.5467C34.1552 53.1894 32.3216 55.0462 30.8955 56.2319ZM38.7109 51.5349C40.0495 52.1253 40.9305 52.753 41.4537 53.206C39.5263 54.846 37.2677 56.1049 34.7891 56.8609C36.1135 55.4974 37.5049 53.7292 38.7109 51.5349ZM30.8955 46.7863V40.4953H38.6346C38.469 43.2426 37.9006 45.6353 37.0884 47.6801C35.3829 47.2206 33.3368 46.888 30.8955 46.7863ZM30.8955 37.3718V31.0804C33.3368 30.9774 35.3829 30.6461 37.0868 30.1869C37.9006 32.23 38.469 34.6244 38.633 37.3718H30.8955ZM15.0107 26.8692C15.7401 27.5315 16.8989 28.378 18.617 29.1482C17.6986 31.4911 17.0754 34.2384 16.9098 37.3714H10.6699C11.0012 33.3885 12.574 29.7569 15.0107 26.8692ZM10.6699 40.4953H16.9114C17.0787 43.6283 17.7002 46.376 18.6186 48.7185C16.9006 49.4887 15.7418 50.3352 15.0123 50.9975C12.574 48.1094 11.0012 44.4778 10.6699 40.4953ZM43.6561 50.9975C42.9267 50.3352 41.7679 49.4887 40.0498 48.7185C40.9682 46.3756 41.5914 43.6283 41.757 40.4953H47.9985C47.6656 44.4778 46.0925 48.1094 43.6561 50.9975Z" fill="#393E46"/>
<rect id="Rectangle_5" x="7.4668" y="68.2666" width="43.7333" height="3.2" fill="#393E46"/>
<rect id="Rectangle_6" x="48" y="75.7334" width="3.2" height="3.2" fill="#393E46"/>
<rect id="Rectangle_7" x="7.4668" y="75.7334" width="37.3333" height="3.2" fill="#393E46"/>
</g>
</svg>
