<?xml version="1.0" encoding="utf-8"?>
<!-- Generator: Adobe Illustrator 25.3.1, SVG Export Plug-In . SVG Version: 6.00 Build 0)  -->
<svg version="1.1" id="Layer_1" xmlns="http://www.w3.org/2000/svg" xmlns:xlink="http://www.w3.org/1999/xlink" x="0px" y="0px"
	 viewBox="0 0 24 16" style="enable-background:new 0 0 24 16;" xml:space="preserve">
<style type="text/css">
	.st0{fill:#FC3C3C;}
</style>
<g>
	<path class="st0" d="M10.8,2.7l-0.2,1.2V4l0,0c0,0,0,0,0.1,0.1l0,0h0.1l0,0l0,0h0.1L12,3.6l1.1,0.6h0.1l0,0l0,0h0.1l0,0
		c0,0,0,0,0.1-0.1l0,0V4l-0.1-1l-0.1-0.3l0.9-0.8c0.2-0.2,0.1-0.4-0.1-0.4l-1.2-0.2l-0.5-1.1c-0.1-0.2-0.4-0.2-0.5,0l-0.5,1.1
		l-1.2,0.2c-0.2,0-0.3,0.3-0.1,0.4L10.8,2.7z"/>
	<path class="st0" d="M15.7,3.2l-0.2,1.2v0.1l0,0c0,0,0,0,0.1,0.1l0,0h0.1l0,0l0,0h0.1L17,4.1l1,0.6h0.1l0,0l0,0h0.1l0,0
		c0,0,0,0,0.1-0.1l0,0V4.5l-0.2-1.2L19,2.5C19.2,2.3,19.1,2,18.9,2l-1.2-0.2l-0.5-1.1c-0.1-0.2-0.4-0.2-0.5,0l-0.5,1.1L15,2
		c-0.2,0-0.3,0.3-0.1,0.4L15.7,3.2z"/>
	<path class="st0" d="M19.7,3.2c0,0,0,0.1,0.1,0.1l0,0l0.9,0.8l-0.2,1.2v0.1l0,0c0,0,0,0,0.1,0.1l0,0h0.1l0,0l0,0h0.1l1.1-0.6
		L23,5.5h0.1l0,0c0.1,0,0.1,0,0.2-0.1l0,0c0,0,0.1-0.1,0.1-0.2l0,0l0,0l0,0L23.2,4l0.9-0.8C24.3,3,24.2,2.8,24,2.8l-1.2-0.2
		l-0.5-1.1c-0.1-0.2-0.4-0.2-0.5,0l-0.5,1.1l-1.2,0.2c-0.1,0-0.2,0.1-0.2,0.2l0,0l0,0C19.7,3.1,19.7,3.2,19.7,3.2z"/>
	<path class="st0" d="M0.9,4.2L0.7,5.3l0,0l0,0l0,0c0,0.1,0,0.1,0.1,0.2l0,0c0,0,0.1,0.1,0.2,0.1l0,0h0.1L2.2,5l1.1,0.6h0.1l0,0l0,0
		h0.1l0,0c0,0,0,0,0.1-0.1l0,0V5.4L3.4,4.2l0.9-0.8l0,0l0.1-0.1V3.2l0,0l0,0C4.4,3.1,4.3,3,4.2,3L2.9,2.7L2.4,1.6
		C2.3,1.4,2,1.4,1.9,1.6L1.4,2.7L0.2,2.9C0,2.9-0.1,3.2,0.1,3.3L0.9,4.2z"/>
	<path class="st0" d="M5.4,3L5.4,3l0.2,0.2L5.5,4.4v0.1l0,0c0,0,0,0,0.1,0.1l0,0h0.1l0,0l0,0h0.1L6.9,4L8,4.6h0.1l0,0l0,0h0.1l0,0
		c0,0,0,0,0.1-0.1l0,0V4.4L8.1,3.2L8.3,3l0,0L9,2.4C9.1,2.2,9,2,8.8,2L7.7,1.8L7.1,0.7C7,0.5,6.8,0.5,6.7,0.7L6.1,1.8L4.9,2
		C4.7,2,4.6,2.2,4.8,2.4L5.4,3z"/>
	<g>
		<path class="st0" d="M8.6,7.7H7.1V10h1.5c0.9,0,1.3-0.4,1.3-1.2C9.9,8.1,9.5,7.7,8.6,7.7z"/>
		<path class="st0" d="M23.7,6.1c-0.2,0.2-0.4,0.3-0.6,0.3s-0.3,0-0.5-0.1l-0.7-0.4l-0.7,0.4c-0.1,0.1-0.3,0.1-0.5,0.1
			c-0.3,0-0.6-0.1-0.8-0.4c-0.2-0.2-0.3-0.5-0.2-0.8l0.1-0.8l-0.6-0.6c-0.1-0.1-0.1-0.2-0.2-0.2l0.1,0.7c0.1,0.3,0,0.6-0.2,0.8
			c-0.2,0.2-0.5,0.4-0.8,0.4c-0.2,0-0.3,0-0.5-0.1L17,5l-0.7,0.4c-0.1,0.1-0.3,0.1-0.5,0.1c-0.3,0-0.6-0.1-0.8-0.4
			c-0.2-0.2-0.3-0.5-0.2-0.8l0.1-0.8L14.4,3H14l0.1,0.7c0.1,0.3,0,0.6-0.2,0.8s-0.5,0.4-0.8,0.4c-0.2,0-0.3,0-0.5-0.1L12,4.4
			l-0.7,0.4c-0.1,0.1-0.3,0.1-0.5,0.1c-0.3,0-0.6-0.1-0.8-0.4C9.9,4.3,9.8,4,9.8,3.7L10,3H9.4L8.9,3.5L9,4.3c0.1,0.3,0,0.6-0.2,0.8
			C8.6,5.3,8.4,5.5,8.1,5.5c-0.2,0-0.3,0-0.5-0.1L6.9,5L6.2,5.3C6,5.4,5.9,5.5,5.7,5.5c-0.3,0-0.6-0.1-0.8-0.4
			C4.7,4.9,4.7,4.6,4.7,4.3l0.1-0.4l0,0L4.2,4.4l0.1,0.8c0.1,0.3,0,0.6-0.2,0.8C3.9,6.3,3.6,6.4,3.3,6.4c-0.2,0-0.3,0-0.5-0.1
			L2.2,5.9L1.5,6.3C1.3,6.4,1.2,6.4,1,6.4S0.5,6.3,0.4,6.1C0.1,6.7,0,7.3,0,7.9v3.2C0,13.8,2.2,16,4.9,16h14.2
			c2.7,0,4.9-2.2,4.9-4.9V7.9C24,7.3,23.9,6.7,23.7,6.1z M10.5,10.5c-0.4,0.4-1,0.6-1.7,0.6H7.1v2c0,0.4-0.2,0.6-0.6,0.6
			s-0.6-0.2-0.6-0.6V7.4c0-0.4,0.2-0.6,0.6-0.6h2.3c0.7,0,1.3,0.2,1.7,0.6s0.6,0.9,0.6,1.6C11.1,9.6,10.9,10.1,10.5,10.5z M18.1,7.5
			l-2.5,5.7c-0.1,0.2-0.2,0.3-0.3,0.4c-0.1,0.1-0.2,0.1-0.4,0.1c-0.3,0-0.6-0.2-0.7-0.5l-2.5-5.7c-0.1-0.2-0.1-0.4,0-0.6
			s0.3-0.2,0.5-0.2s0.3,0,0.4,0.1c0.1,0.1,0.2,0.2,0.2,0.4l2.1,4.8L17,7.2c0-0.2,0.1-0.3,0.2-0.4s0.2-0.1,0.4-0.1
			c0.2,0,0.4,0.1,0.5,0.2C18.2,7.1,18.2,7.3,18.1,7.5z"/>
	</g>
</g>
</svg>
