<svg width="50" height="50" viewBox="0 0 50 50" fill="none" xmlns="http://www.w3.org/2000/svg">
<path d="M39.2 25L33.1 23.4C32.9 22.5 32.6 21.6 32.1 20.9L27.7 27.8L20.8 32.2C21.6 32.6 22.4 33 23.3 33.2L24.9 39.3L26.5 33.2C27.9 32.9 29.1 32.3 30.2 31.5L33 33L31.4 30.3C32.3 29.3 32.9 28 33.1 26.6L39.2 25Z" fill="#00ADB5"/>
<path d="M17.8 29.2L22.2 22.3L29.1 17.9C28.3 17.5 27.5 17.1 26.6 16.9L25 10.8L23.4 16.9C22 17.2 20.8 17.8 19.7 18.6L17 17L18.6 19.7C17.7 20.7 17.1 22 16.9 23.4L10.8 25L16.9 26.6C17 27.5 17.3 28.4 17.8 29.2Z" fill="#00ADB5"/>
<path d="M10.7 39.3L22 21.8L39.4 10.6L28 28.2L10.7 39.3ZM22.6 22.6L14 36L27.4 27.4L36 14L22.6 22.6Z" fill="white"/>
<path d="M25 8.5C24.7 8.5 24.5 8.3 24.5 8V6.2C24.5 5.9 24.7 5.7 25 5.7C25.3 5.7 25.5 5.9 25.5 6.2V8C25.5 8.2 25.3 8.5 25 8.5Z" fill="white"/>
<path d="M25 44.3C24.7 44.3 24.5 44.1 24.5 43.8V42C24.5 41.7 24.7 41.5 25 41.5C25.3 41.5 25.5 41.7 25.5 42V43.8C25.5 44.1 25.3 44.3 25 44.3Z" fill="white"/>
<path d="M8.00001 25.5H6.20001C5.90001 25.5 5.70001 25.3 5.70001 25C5.70001 24.7 5.90001 24.5 6.20001 24.5H8.00001C8.30001 24.5 8.50001 24.7 8.50001 25C8.50001 25.3 8.20001 25.5 8.00001 25.5Z" fill="white"/>
<path d="M43.8 25.5H42C41.7 25.5 41.5 25.3 41.5 25C41.5 24.7 41.7 24.5 42 24.5H43.8C44.1 24.5 44.3 24.7 44.3 25C44.3 25.3 44.1 25.5 43.8 25.5Z" fill="white"/>
<path d="M17.4 12.3C17.2 12.3 17.1 12.2 17 12L15.2 8.90001C15.1 8.70001 15.1 8.40001 15.4 8.20001C15.6 8.10001 15.9 8.10001 16.1 8.40001L17.9 11.5C18 11.7 18 12 17.7 12.2C17.5 12.3 17.5 12.3 17.4 12.3Z" fill="white"/>
<path d="M34.4 41.8C34.2 41.8 34.1 41.7 34 41.5L32.2 38.4C32.1 38.2 32.1 37.9 32.4 37.7C32.6 37.6 32.9 37.6 33.1 37.9L34.9 41C35 41.2 35 41.5 34.7 41.7C34.6 41.8 34.5 41.8 34.4 41.8Z" fill="white"/>
<path d="M11.8 17.9C11.7 17.9 11.6 17.9 11.6 17.8L8.4 16C8.2 15.9 8.1 15.6 8.2 15.3C8.3 15.1 8.6 15 8.9 15.1L12 16.9C12.2 17 12.3 17.3 12.2 17.6C12.1 17.8 12 17.9 11.8 17.9Z" fill="white"/>
<path d="M41.3 34.9C41.2 34.9 41.1 34.9 41 34.8L38 33.1C37.8 33 37.7 32.7 37.8 32.4C37.9 32.2 38.2 32.1 38.5 32.2L41.6 34C41.8 34.1 41.9 34.4 41.8 34.7C41.6 34.8 41.5 34.9 41.3 34.9Z" fill="white"/>
<path d="M8.69998 34.9C8.49998 34.9 8.39998 34.8 8.29998 34.6C8.19998 34.4 8.19998 34.1 8.49998 33.9L11.6 32.1C11.8 32 12.1 32 12.3 32.3C12.4 32.5 12.4 32.8 12.1 33L8.99998 34.8C8.89998 34.9 8.79998 34.9 8.69998 34.9Z" fill="white"/>
<path d="M38.2 17.9C38 17.9 37.9 17.8 37.8 17.6C37.7 17.4 37.7 17.1 38 16.9L41.1 15.1C41.3 15 41.6 15 41.8 15.3C41.9 15.5 41.9 15.8 41.6 16L38.5 17.8C38.4 17.8 38.3 17.9 38.2 17.9Z" fill="white"/>
<path d="M15.6 41.8C15.5 41.8 15.4 41.8 15.4 41.7C15.2 41.6 15.1 41.3 15.2 41L17 37.9C17.1 37.7 17.4 37.6 17.7 37.7C17.9 37.8 18 38.1 17.9 38.4L16 41.6C15.9 41.7 15.8 41.8 15.6 41.8Z" fill="white"/>
<path d="M32.6 12.3C32.5 12.3 32.4 12.3 32.3 12.2C32.1 12.1 32 11.8 32.1 11.5L33.9 8.4C34 8.2 34.3 8.1 34.6 8.2C34.8 8.3 34.9 8.6 34.8 8.9L33.1 12C33 12.2 32.8 12.3 32.6 12.3Z" fill="white"/>
<path d="M25 49.5C18.7 49.5 12.5 47.1 7.7 42.3C-1.9 32.7 -1.9 17.2 7.7 7.7C17.3 -1.9 32.8 -1.9 42.3 7.7C51.9 17.3 51.9 32.8 42.3 42.3C37.5 47.1 31.3 49.5 25 49.5ZM25 1.5C19 1.5 13 3.8 8.4 8.4C-0.8 17.6 -0.8 32.5 8.4 41.6C17.6 50.8 32.5 50.8 41.6 41.6C50.8 32.4 50.8 17.5 41.6 8.4C37 3.8 31 1.5 25 1.5ZM25 45.5C19.7 45.5 14.5 43.5 10.5 39.5C6.6 35.6 4.5 30.5 4.5 25C4.5 19.5 6.6 14.4 10.5 10.5C18.5 2.5 31.5 2.5 39.5 10.5C47.5 18.5 47.5 31.5 39.5 39.5C35.5 43.5 30.3 45.5 25 45.5ZM11.2 38.8C18.8 46.4 31.2 46.4 38.8 38.8C46.4 31.2 46.4 18.8 38.8 11.2C31.2 3.6 18.8 3.6 11.2 11.2C7.5 14.9 5.5 19.8 5.5 25C5.5 30.2 7.5 35.1 11.2 38.8Z" fill="white"/>
</svg>
