<svg width="120" height="120" viewBox="0 0 120 120" fill="none" xmlns="http://www.w3.org/2000/svg">
<g clip-path="url(#clip0)">
<path d="M7 48H12L14 34H7C5.14511 34.0053 3.36769 34.7445 2.05608 36.0561C0.74447 37.3677 0.00527711 39.1451 0 41H0C0.0105004 42.8533 0.75137 44.6277 2.06186 45.9381C3.37234 47.2486 5.14672 47.9895 7 48Z" fill="#393E46"/>
<path d="M113 48H108L106 34H113C114.857 34 116.637 34.7375 117.95 36.0503C119.262 37.363 120 39.1435 120 41C119.995 42.8549 119.256 44.6323 117.944 45.9439C116.632 47.2555 114.855 47.9947 113 48Z" fill="#393E46"/>
<path d="M88.44 4.00002C90.171 4.00002 91.8552 4.56144 93.24 5.60002C94.6248 6.6386 95.6353 8.0983 96.12 9.76002L107.26 52.5H12.74L23.86 9.80002C24.3384 8.12756 25.3488 6.65659 26.7383 5.60999C28.1277 4.56339 29.8205 3.99819 31.56 4.00002H88.44ZM88.44 2.1415e-05H31.56C28.949 -0.00490973 26.4076 0.841889 24.3214 2.41196C22.2352 3.98202 20.718 6.18968 20 8.70002L7.5 56.5H112.5L100 8.70002C99.282 6.18968 97.7648 3.98202 95.6786 2.41196C93.5924 0.841889 91.051 -0.00490973 88.44 2.1415e-05Z" fill="#FFF4E0"/>
<path d="M108 56.5C110.122 56.5 112.157 57.3429 113.657 58.8431C115.157 60.3434 116 62.3783 116 64.5V88C116 90.1217 115.157 92.1566 113.657 93.6569C112.157 95.1571 110.122 96 108 96H12C9.87827 96 7.84344 95.1571 6.34315 93.6569C4.84285 92.1566 4 90.1217 4 88V64.5C4 62.3783 4.84285 60.3434 6.34315 58.8431C7.84344 57.3429 9.87827 56.5 12 56.5H108ZM108 52.5H12C8.8174 52.5 5.76515 53.7643 3.51472 56.0147C1.26428 58.2652 0 61.3174 0 64.5L0 88C0 91.1826 1.26428 94.2348 3.51472 96.4853C5.76515 98.7357 8.8174 100 12 100H108C111.183 100 114.235 98.7357 116.485 96.4853C118.736 94.2348 120 91.1826 120 88V64.5C120 61.3174 118.736 58.2652 116.485 56.0147C114.235 53.7643 111.183 52.5 108 52.5Z" fill="#393E46"/>
<path d="M22 70C23.1867 70 24.3467 70.3519 25.3334 71.0112C26.3201 71.6705 27.0892 72.6075 27.5433 73.7039C27.9974 74.8003 28.1162 76.0067 27.8847 77.1705C27.6532 78.3344 27.0818 79.4035 26.2426 80.2426C25.4035 81.0818 24.3344 81.6532 23.1705 81.8847C22.0067 82.1162 20.8003 81.9974 19.7039 81.5433C18.6075 81.0891 17.6705 80.3201 17.0112 79.3334C16.3519 78.3467 16 77.1867 16 76C16 74.4087 16.6321 72.8826 17.7574 71.7574C18.8826 70.6321 20.4087 70 22 70ZM22 66C19.3478 66 16.8043 67.0536 14.9289 68.9289C13.0536 70.8043 12 73.3478 12 76C12 78.6522 13.0536 81.1957 14.9289 83.0711C16.8043 84.9464 19.3478 86 22 86C24.6522 86 27.1957 84.9464 29.0711 83.0711C30.9464 81.1957 32 78.6522 32 76C32 73.3478 30.9464 70.8043 29.0711 68.9289C27.1957 67.0536 24.6522 66 22 66Z" fill="#FFF4E0"/>
<path d="M98 70C99.1867 70 100.347 70.3519 101.333 71.0112C102.32 71.6705 103.089 72.6075 103.543 73.7039C103.997 74.8003 104.116 76.0067 103.885 77.1705C103.653 78.3344 103.082 79.4035 102.243 80.2426C101.404 81.0818 100.334 81.6532 99.1705 81.8847C98.0067 82.1162 96.8003 81.9974 95.7039 81.5433C94.6075 81.0891 93.6705 80.3201 93.0112 79.3334C92.3519 78.3467 92 77.1867 92 76C92 74.4087 92.6321 72.8826 93.7574 71.7574C94.8826 70.6321 96.4087 70 98 70ZM98 66C95.3478 66 92.8043 67.0536 90.9289 68.9289C89.0536 70.8043 88 73.3478 88 76C88 78.6522 89.0536 81.1957 90.9289 83.0711C92.8043 84.9464 95.3478 86 98 86C100.652 86 103.196 84.9464 105.071 83.0711C106.946 81.1957 108 78.6522 108 76C108 73.3478 106.946 70.8043 105.071 68.9289C103.196 67.0536 100.652 66 98 66Z" fill="#FFF4E0"/>
<path d="M80.62 71.1201H39.38C38.8814 71.1201 38.4032 71.3182 38.0506 71.6708C37.6981 72.0233 37.5 72.5015 37.5 73.0001V73.2601C37.5053 73.7552 37.7057 74.2283 38.0577 74.5766C38.4097 74.9248 38.8848 75.1201 39.38 75.1201H80.62C81.1152 75.1201 81.5903 74.9248 81.9423 74.5766C82.2943 74.2283 82.4947 73.7552 82.5 73.2601V73.0001C82.5 72.5015 82.3019 72.0233 81.9494 71.6708C81.5968 71.3182 81.1186 71.1201 80.62 71.1201Z" fill="#393E46"/>
<path d="M80.62 79.1201H39.38C38.8814 79.1201 38.4032 79.3182 38.0506 79.6708C37.6981 80.0233 37.5 80.5015 37.5 81.0001V81.2601C37.5053 81.7552 37.7057 82.2283 38.0577 82.5766C38.4097 82.9248 38.8848 83.1201 39.38 83.1201H80.62C81.1152 83.1201 81.5903 82.9248 81.9423 82.5766C82.2943 82.2283 82.4947 81.7552 82.5 81.2601V81.0001C82.5 80.5015 82.3019 80.0233 81.9494 79.6708C81.5968 79.3182 81.1186 79.1201 80.62 79.1201Z" fill="#393E46"/>
<path d="M86.2607 97.5H112.501V112C112.501 114.122 111.658 116.157 110.158 117.657C108.657 119.157 106.622 120 104.501 120H94.2607C92.139 120 90.1042 119.157 88.6039 117.657C87.1036 116.157 86.2607 114.122 86.2607 112V97.5Z" fill="#393E46"/>
<path d="M7.5 97.5H33.76V112C33.76 114.122 32.9171 116.157 31.4169 117.657C29.9166 119.157 27.8817 120 25.76 120H15.5C13.3783 120 11.3434 119.157 9.84315 117.657C8.34285 116.157 7.5 114.122 7.5 112V97.5Z" fill="#393E46"/>
<path d="M89.1885 31.9666C90.1423 31.5564 90.5848 30.4547 90.1768 29.506C89.7687 28.5572 88.6648 28.1206 87.7109 28.5308L72.3143 35.1521C71.3605 35.5623 70.918 36.6639 71.326 37.6127C71.734 38.5615 72.838 38.998 73.7918 38.5879L89.1885 31.9666Z" fill="#393E46"/>
<path d="M97.8916 28.2302C98.8454 27.82 99.2879 26.7184 98.8799 25.7696C98.4719 24.8209 97.3679 24.3843 96.414 24.7945L92.9783 26.272C92.0244 26.6822 91.582 27.7839 91.99 28.7326C92.398 29.6814 93.502 30.118 94.4558 29.7078L97.8916 28.2302Z" fill="#393E46"/>
<path d="M76.8198 43.5471C75.866 43.9573 75.4235 45.0589 75.8315 46.0077C76.2396 46.9565 77.3435 47.3931 78.2974 46.9829L93.694 40.3616C94.6478 39.9514 95.0903 38.8497 94.6823 37.901C94.2743 36.9522 93.1703 36.5156 92.2165 36.9258L76.8198 43.5471Z" fill="#393E46"/>
<path d="M68.0888 47.2494C67.135 47.6596 66.6943 48.7654 67.1044 49.7192C67.5146 50.6731 68.6204 51.1138 69.5742 50.7036L73.01 49.226C73.9638 48.8158 74.4045 47.7101 73.9944 46.7562C73.5842 45.8024 72.4784 45.3617 71.5246 45.7719L68.0888 47.2494Z" fill="#393E46"/>
</g>
<defs>
<clipPath id="clip0">
<rect width="120" height="120" fill="white"/>
</clipPath>
</defs>
</svg>
