<svg width="120" height="120" viewBox="0 0 120 120" fill="none" xmlns="http://www.w3.org/2000/svg">
<g clip-path="url(#clip0)">
<path d="M96.5012 101.24H72.2412C71.9776 101.245 71.7262 101.352 71.5398 101.539C71.3533 101.725 71.2463 101.977 71.2412 102.24V104C71.2412 104.265 71.3466 104.52 71.5341 104.707C71.7216 104.895 71.976 105 72.2412 105H96.5012C96.7664 105 97.0208 104.895 97.2083 104.707C97.3959 104.52 97.5012 104.265 97.5012 104V102.24C97.5012 101.975 97.3959 101.721 97.2083 101.533C97.0208 101.346 96.7664 101.24 96.5012 101.24Z" fill="#393E46"/>
<path d="M104.001 101.26H102.241C101.976 101.26 101.722 101.365 101.534 101.553C101.347 101.74 101.241 101.995 101.241 102.26V104C101.241 104.265 101.347 104.519 101.534 104.707C101.722 104.894 101.976 105 102.241 105H104.001C104.266 105 104.521 104.894 104.708 104.707C104.896 104.519 105.001 104.265 105.001 104V102.26C105.001 101.995 104.896 101.74 104.708 101.553C104.521 101.365 104.266 101.26 104.001 101.26Z" fill="#393E46"/>
<path d="M66.5012 11.2402H42.2412C41.9776 11.2454 41.7262 11.3524 41.5398 11.5388C41.3533 11.7252 41.2463 11.9766 41.2412 12.2402V14.0002C41.2412 14.2655 41.3466 14.5198 41.5341 14.7073C41.7216 14.8949 41.976 15.0002 42.2412 15.0002H66.5012C66.7664 15.0002 67.0208 14.8949 67.2083 14.7073C67.3959 14.5198 67.5012 14.2655 67.5012 14.0002V12.2402C67.5012 11.975 67.3959 11.7207 67.2083 11.5331C67.0208 11.3456 66.7664 11.2402 66.5012 11.2402Z" fill="#393E46"/>
<path d="M36.5012 11.2598H34.7412C34.476 11.2598 34.2216 11.3651 34.0341 11.5527C33.8466 11.7402 33.7412 11.9945 33.7412 12.2598V13.9998C33.7412 14.265 33.8466 14.5193 34.0341 14.7069C34.2216 14.8944 34.476 14.9998 34.7412 14.9998H36.5012C36.7664 14.9998 37.0208 14.8944 37.2083 14.7069C37.3959 14.5193 37.5012 14.265 37.5012 13.9998V12.2598C37.5012 11.9945 37.3959 11.7402 37.2083 11.5527C37.0208 11.3651 36.7664 11.2598 36.5012 11.2598Z" fill="#393E46"/>
<path d="M51.5012 22.5H27.2412C26.976 22.5 26.7216 22.6054 26.5341 22.7929C26.3466 22.9804 26.2412 23.2348 26.2412 23.5V25.24C26.2412 25.5052 26.3466 25.7596 26.5341 25.9471C26.7216 26.1346 26.976 26.24 27.2412 26.24H51.5012C51.7664 26.24 52.0208 26.1346 52.2083 25.9471C52.3959 25.7596 52.5012 25.5052 52.5012 25.24V23.5C52.5012 23.2348 52.3959 22.9804 52.2083 22.7929C52.0208 22.6054 51.7664 22.5 51.5012 22.5Z" fill="#393E46"/>
<path d="M21.5012 22.5H19.7412C19.476 22.5 19.2216 22.6054 19.0341 22.7929C18.8466 22.9804 18.7412 23.2348 18.7412 23.5V25.26C18.7463 25.5236 18.8533 25.775 19.0398 25.9614C19.2262 26.1479 19.4776 26.2549 19.7412 26.26H21.5012C21.7664 26.26 22.0208 26.1546 22.2083 25.9671C22.3959 25.7796 22.5012 25.5252 22.5012 25.26V23.5C22.5012 23.2348 22.3959 22.9804 22.2083 22.7929C22.0208 22.6054 21.7664 22.5 21.5012 22.5Z" fill="#393E46"/>
<path d="M112.521 9.39995C111.735 6.7164 110.111 4.35472 107.887 2.66034C105.662 0.965968 102.954 0.0278183 100.158 -0.01688C97.3622 -0.0615783 94.6253 0.789521 92.3479 2.41192C90.0705 4.03432 88.3719 6.34289 87.5007 8.99995H85.2807C83.9159 9.013 82.567 9.29511 81.3113 9.83012C80.0556 10.3651 78.9178 11.1425 77.9629 12.1178C77.0081 13.0931 76.2549 14.2472 75.7466 15.5139C75.2383 16.7806 74.9849 18.1351 75.0007 19.4999C74.9849 20.8648 75.2383 22.2193 75.7466 23.486C76.2549 24.7527 77.0081 25.9068 77.9629 26.8821C78.9178 27.8574 80.0556 28.6348 81.3113 29.1698C82.567 29.7048 83.9159 29.9869 85.2807 29.9999H109.721C112.23 29.9513 114.639 29.0073 116.513 27.3383C118.387 25.6694 119.603 23.3855 119.941 20.8988C120.279 18.4121 119.717 15.8866 118.356 13.7779C116.995 11.6693 114.926 10.1166 112.521 9.39995Z" fill="#FFF4E0"/>
<path d="M37.5208 99.3999C36.7349 96.7164 35.111 94.3547 32.8866 92.6603C30.6622 90.966 27.954 90.0278 25.1581 89.9831C22.3622 89.9384 19.6254 90.7895 17.348 92.4119C15.0705 94.0343 13.372 96.3429 12.5008 98.9999H10.2808C7.49599 98.9999 4.82527 100.106 2.85614 102.075C0.887009 104.044 -0.219238 106.715 -0.219238 109.5C-0.219238 112.285 0.887009 114.955 2.85614 116.925C4.82527 118.894 7.49599 120 10.2808 120H34.7208C37.2298 119.951 39.6388 119.007 41.513 117.338C43.3871 115.669 44.6029 113.385 44.9409 110.899C45.2789 108.412 44.7168 105.887 43.3561 103.778C41.9955 101.669 39.9258 100.117 37.5208 99.3999Z" fill="#FFF4E0"/>
<path d="M90.3017 62.2998C91.1722 62.2996 92.0369 62.4415 92.8617 62.7199L102.122 65.7999L92.8617 68.8798C92.0369 69.1582 91.1722 69.3001 90.3017 69.2999H80.3017L72.0817 73.2999H90.3417C91.6461 73.2942 92.9417 73.085 94.1817 72.6798L104.182 69.3198C104.916 69.0689 105.553 68.5946 106.004 67.9634C106.456 67.3322 106.698 66.5758 106.698 65.7999C106.698 65.0239 106.456 64.2675 106.004 63.6363C105.553 63.0051 104.916 62.5308 104.182 62.2798L94.1817 58.9198C92.9439 58.5057 91.6469 58.2963 90.3417 58.2998H25.0617C24.0008 58.2998 22.9834 58.7213 22.2333 59.4714C21.4831 60.2216 21.0617 61.239 21.0617 62.2998V63.0198C21.0544 63.8301 21.2934 64.6234 21.7469 65.2949C22.2005 65.9663 22.8473 66.4841 23.6017 66.7798L36.4017 71.9998C38.6234 72.8816 40.9914 73.3362 43.3817 73.3398H59.3817L58.8617 69.3398H43.3817C41.5351 69.3148 39.7099 68.9416 38.0017 68.2398L25.1217 63.0599V62.2998H90.3017Z" fill="#393E46"/>
<path d="M22.3998 51.0401C23.0177 51.0441 23.6163 51.2554 24.0998 51.6401L32.3398 58.2801H27.2598L21.8398 51.0401H22.3998ZM22.3998 47.0401H13.8398L25.2598 62.2801H43.6998L26.5998 48.5201C25.4119 47.558 23.9285 47.0352 22.3998 47.0401Z" fill="#393E46"/>
<path d="M49.5601 43.54L67.2201 58.28H60.4201L45.6801 43.54H49.5601ZM50.3201 39.54H40.6001C40.2403 39.577 39.8974 39.7109 39.6077 39.9273C39.3179 40.1438 39.0923 40.4347 38.9549 40.7692C38.8174 41.1037 38.7732 41.4692 38.8269 41.8268C38.8806 42.1844 39.0303 42.5207 39.2601 42.8L58.7601 62.28H78.2601L51.5401 40C51.1936 39.7219 50.7643 39.5671 50.3201 39.56V39.54Z" fill="#393E46"/>
<path d="M49.3614 92.0001H44.6014C43.8493 91.9584 43.1243 91.7051 42.5098 91.2694C41.8953 90.8338 41.4164 90.2335 41.128 89.5377C40.8396 88.8418 40.7536 88.0787 40.8798 87.3361C41.006 86.5935 41.3393 85.9017 41.8414 85.3401L62.8814 65.3401L65.6414 68.2401L44.8614 88.0002H49.3614L81.6014 65.1602L84.0014 68.4202L51.6814 91.2801C51.0076 91.7675 50.1926 92.0204 49.3614 92.0001Z" fill="#393E46"/>
</g>
<defs>
<clipPath id="clip0">
<rect width="120" height="120" fill="white"/>
</clipPath>
</defs>
</svg>
