<svg width="32" height="32" viewBox="0 0 32 32" fill="none" xmlns="http://www.w3.org/2000/svg">
<path d="M30 20V26H2V20H30ZM32 18H0V26C0 26.5304 0.210714 27.0391 0.585786 27.4142C0.960859 27.7893 1.46957 28 2 28H30C30.5304 28 31.0391 27.7893 31.4142 27.4142C31.7893 27.0391 32 26.5304 32 26V18Z" fill="#393E46"/>
<path d="M30 2V18H2V2H30ZM30 0H2C1.46957 0 0.960859 0.210714 0.585786 0.585786C0.210714 0.960859 0 1.46957 0 2L0 20H32V2C32 1.46957 31.7893 0.960859 31.4142 0.585786C31.0391 0.210714 30.5304 0 30 0V0Z" fill="#393E46"/>
<path d="M8 23C8 21.8954 7.10457 21 6 21C4.89543 21 4 21.8954 4 23C4 24.1046 4.89543 25 6 25C7.10457 25 8 24.1046 8 23Z" fill="#00ADB5"/>
<path d="M28 23C28 21.8954 27.1046 21 26 21C24.8954 21 24 21.8954 24 23C24 24.1046 24.8954 25 26 25C27.1046 25 28 24.1046 28 23Z" fill="#00ADB5"/>
<path d="M22 22.5H10V23.5H22V22.5Z" fill="#393E46"/>
<path d="M22 4H10V6H22V4Z" fill="#00ADB5"/>
<path d="M30 8H2V10H30V8Z" fill="#393E46"/>
<path d="M23 26H30V29C30 29.7956 29.6839 30.5587 29.1213 31.1213C28.5587 31.6839 27.7956 32 27 32H26C25.2044 32 24.4413 31.6839 23.8787 31.1213C23.3161 30.5587 23 29.7956 23 29V26Z" fill="#393E46"/>
<path d="M2 26H9V29C9 29.7956 8.68393 30.5587 8.12132 31.1213C7.55871 31.6839 6.79565 32 6 32H5C4.20435 32 3.44129 31.6839 2.87868 31.1213C2.31607 30.5587 2 29.7956 2 29V26Z" fill="#393E46"/>
<path d="M24.6545 13.4599C24.9082 13.3508 25.0254 13.0568 24.9163 12.8031C24.8072 12.5494 24.5131 12.4322 24.2594 12.5413L20.153 14.3072C19.8994 14.4163 19.7822 14.7104 19.8912 14.9641C20.0003 15.2178 20.2944 15.335 20.5481 15.2259L24.6545 13.4599Z" fill="#393E46"/>
<path d="M26.9772 12.4609C27.2309 12.3518 27.3481 12.0577 27.239 11.8041C27.1299 11.5504 26.8359 11.4332 26.5822 11.5423L25.6635 11.9373C25.4098 12.0464 25.2926 12.3405 25.4017 12.5942C25.5108 12.8479 25.8049 12.9651 26.0586 12.856L26.9772 12.4609Z" fill="#393E46"/>
<path d="M21.3397 16.5371C21.086 16.6462 20.9688 16.9403 21.0779 17.194C21.187 17.4477 21.481 17.5649 21.7347 17.4558L25.8411 15.6898C26.0948 15.5808 26.212 15.2867 26.1029 15.033C25.9938 14.7793 25.6997 14.6621 25.446 14.7712L21.3397 16.5371Z" fill="#393E46"/>
<path d="M19.0203 17.5371C18.7666 17.6462 18.6494 17.9403 18.7585 18.194C18.8676 18.4477 19.1617 18.5649 19.4154 18.4558L20.334 18.0607C20.5877 17.9516 20.7049 17.6575 20.5958 17.4039C20.4867 17.1502 20.1926 17.033 19.939 17.1421L19.0203 17.5371Z" fill="#393E46"/>
</svg>
