<svg width="32" height="32" viewBox="0 0 32 32" fill="none" xmlns="http://www.w3.org/2000/svg">
<g clip-path="url(#clip0)">
<path d="M25.5 27H19.5C19.3674 27 19.2402 27.0527 19.1464 27.1464C19.0527 27.2402 19 27.3674 19 27.5C19 27.6326 19.0527 27.7598 19.1464 27.8536C19.2402 27.9473 19.3674 28 19.5 28H25.5C25.6326 28 25.7598 27.9473 25.8536 27.8536C25.9473 27.7598 26 27.6326 26 27.5C26 27.3674 25.9473 27.2402 25.8536 27.1464C25.7598 27.0527 25.6326 27 25.5 27Z" fill="#393E46"/>
<path d="M27.5 27C27.4011 27 27.3044 27.0293 27.2222 27.0843C27.14 27.1392 27.0759 27.2173 27.0381 27.3087C27.0002 27.4 26.9903 27.5006 27.0096 27.5975C27.0289 27.6945 27.0765 27.7836 27.1464 27.8536C27.2164 27.9235 27.3055 27.9711 27.4025 27.9904C27.4994 28.0097 27.6 27.9998 27.6913 27.9619C27.7827 27.9241 27.8608 27.86 27.9157 27.7778C27.9707 27.6956 28 27.5989 28 27.5C28 27.3674 27.9473 27.2402 27.8536 27.1464C27.7598 27.0527 27.6326 27 27.5 27Z" fill="#393E46"/>
<path d="M17.5 3H11.5C11.3674 3 11.2402 3.05268 11.1464 3.14645C11.0527 3.24021 11 3.36739 11 3.5C11 3.63261 11.0527 3.75979 11.1464 3.85355C11.2402 3.94732 11.3674 4 11.5 4H17.5C17.6326 4 17.7598 3.94732 17.8536 3.85355C17.9473 3.75979 18 3.63261 18 3.5C18 3.36739 17.9473 3.24021 17.8536 3.14645C17.7598 3.05268 17.6326 3 17.5 3Z" fill="#393E46"/>
<path d="M9.5 3C9.40111 3 9.30444 3.02932 9.22221 3.08427C9.13999 3.13921 9.0759 3.2173 9.03806 3.30866C9.00022 3.40002 8.99031 3.50055 9.00961 3.59755C9.0289 3.69454 9.07652 3.78363 9.14645 3.85355C9.21637 3.92348 9.30546 3.9711 9.40245 3.99039C9.49945 4.00969 9.59998 3.99978 9.69134 3.96194C9.7827 3.9241 9.86079 3.86001 9.91574 3.77779C9.97068 3.69556 10 3.59889 10 3.5C10 3.36739 9.94732 3.24021 9.85355 3.14645C9.75979 3.05268 9.63261 3 9.5 3Z" fill="#393E46"/>
<path d="M13.5 6H7.5C7.36739 6 7.24021 6.05268 7.14645 6.14645C7.05268 6.24021 7 6.36739 7 6.5C7 6.63261 7.05268 6.75979 7.14645 6.85355C7.24021 6.94732 7.36739 7 7.5 7H13.5C13.6326 7 13.7598 6.94732 13.8536 6.85355C13.9473 6.75979 14 6.63261 14 6.5C14 6.36739 13.9473 6.24021 13.8536 6.14645C13.7598 6.05268 13.6326 6 13.5 6Z" fill="#393E46"/>
<path d="M5.5 6C5.40111 6 5.30444 6.02932 5.22221 6.08427C5.13999 6.13921 5.0759 6.2173 5.03806 6.30866C5.00022 6.40002 4.99031 6.50055 5.00961 6.59755C5.0289 6.69454 5.07652 6.78363 5.14645 6.85355C5.21637 6.92348 5.30546 6.9711 5.40246 6.99039C5.49945 7.00969 5.59998 6.99978 5.69134 6.96194C5.78271 6.9241 5.86079 6.86001 5.91574 6.77779C5.97068 6.69556 6 6.59889 6 6.5C6 6.36739 5.94732 6.24021 5.85355 6.14645C5.75979 6.05268 5.63261 6 5.5 6Z" fill="#393E46"/>
<path d="M30.0002 2.51027C29.7924 1.79356 29.3603 1.16233 28.7674 0.709217C28.1744 0.256104 27.4519 0.00496725 26.7058 -0.00733774C25.9596 -0.0196427 25.2292 0.207532 24.6217 0.640847C24.0142 1.07416 23.5615 1.6908 23.3302 2.40027H22.7302C21.9972 2.41081 21.2984 2.71142 20.7867 3.23624C20.275 3.76107 19.9922 4.46732 20.0002 5.20027C19.9962 5.56404 20.0639 5.92502 20.1995 6.26261C20.3351 6.6002 20.5358 6.90778 20.7902 7.16779C21.0447 7.4278 21.3478 7.63514 21.6824 7.77798C22.017 7.92082 22.3764 7.99635 22.7402 8.00027H29.2602C29.9229 7.97685 30.556 7.71979 31.0475 7.27455C31.539 6.82932 31.8572 6.22461 31.9458 5.56739C32.0343 4.91017 31.8876 4.24279 31.5316 3.68332C31.1755 3.12384 30.6331 2.70833 30.0002 2.51027Z" fill="#00ADB5"/>
<path d="M10.0002 26.5103C9.79236 25.7936 9.36029 25.1623 8.76737 24.7092C8.17446 24.2561 7.45192 24.005 6.70579 23.9927C5.95966 23.9804 5.22923 24.2075 4.6217 24.6408C4.01416 25.0742 3.56151 25.6908 3.33018 26.4003H2.73018C1.98757 26.4003 1.27538 26.6953 0.750277 27.2204C0.225175 27.7455 -0.0698242 28.4577 -0.0698242 29.2003C-0.0698242 29.9429 0.225175 30.6551 0.750277 31.1802C1.27538 31.7053 1.98757 32.0003 2.73018 32.0003H9.26018C9.92293 31.9769 10.556 31.7198 11.0475 31.2746C11.539 30.8293 11.8572 30.2246 11.9458 29.5674C12.0344 28.9102 11.8876 28.2428 11.5316 27.6833C11.1755 27.1238 10.6331 26.7083 10.0002 26.5103Z" fill="#00ADB5"/>
<path d="M24.0801 19.5498H11.5701C10.9331 19.5463 10.3024 19.4242 9.7101 19.1898L6.2801 17.8198C6.0807 17.7389 5.90971 17.6007 5.7887 17.4228C5.66769 17.2448 5.60207 17.035 5.6001 16.8198V16.6198C5.60273 16.3351 5.71768 16.063 5.91994 15.8626C6.12219 15.6622 6.39539 15.5498 6.6801 15.5498H24.0801C24.4198 15.5497 24.7574 15.6037 25.0801 15.7098L27.7701 16.6098C27.9631 16.6799 28.1299 16.8077 28.2478 16.9759C28.3657 17.144 28.4289 17.3444 28.4289 17.5498C28.4289 17.7552 28.3657 17.9556 28.2478 18.1237C28.1299 18.2919 27.9631 18.4197 27.7701 18.4898L25.0801 19.3798C24.7579 19.4891 24.4203 19.5465 24.0801 19.5498Z" fill="#393E46"/>
<path d="M11.6001 16.5499H7.6001L4.6001 12.5499H6.0001C6.41046 12.5457 6.80965 12.6835 7.1301 12.9399L11.6001 16.5499Z" fill="#393E46"/>
<path d="M19.6001 15.55H14.6001L10.4701 11.41C10.3975 11.34 10.3477 11.2498 10.3273 11.1511C10.3068 11.0523 10.3167 10.9497 10.3557 10.8567C10.3946 10.7637 10.4607 10.6847 10.5454 10.6299C10.6301 10.5752 10.7293 10.5473 10.8301 10.55H13.4201C13.5389 10.5514 13.6542 10.5898 13.7501 10.66L19.6001 15.55Z" fill="#393E46"/>
<path d="M22.6 17.5498H16.6L10.47 23.6798C10.399 23.7511 10.3506 23.8419 10.331 23.9407C10.3114 24.0394 10.3215 24.1418 10.36 24.2348C10.3985 24.3278 10.4637 24.4074 10.5474 24.4635C10.631 24.5195 10.7294 24.5496 10.83 24.5498H13.43C13.5427 24.5484 13.6517 24.5097 13.74 24.4398L22.6 17.5498Z" fill="#393E46"/>
</g>
<defs>
<clipPath id="clip0">
<rect width="32" height="32" fill="white"/>
</clipPath>
</defs>
</svg>
