<svg width="120" height="120" viewBox="0 0 120 120" fill="none" xmlns="http://www.w3.org/2000/svg">
<path d="M18 96L18 28H14L14 96H18Z" fill="#FFF4E0"/>
<path d="M118 116H2L0 120H120L118 116Z" fill="#393E46"/>
<path d="M114 108H6L4 112H116L114 108Z" fill="#393E46"/>
<path d="M110 100H10L8 104H112L110 100Z" fill="#393E46"/>
<path d="M120 24L60 4L0 24V20L60 0L120 20V24Z" fill="#393E46"/>
<path d="M120 20H0V24H120V20Z" fill="#393E46"/>
<path d="M26 96L26 28H22L22 96H26Z" fill="#FFF4E0"/>
<path d="M40 96L40 28H36L36 96H40Z" fill="#FFF4E0"/>
<path d="M48 96L48 28H44L44 96H48Z" fill="#FFF4E0"/>
<path d="M76 96V28H72V96H76Z" fill="#FFF4E0"/>
<path d="M84 96V28H80V96H84Z" fill="#FFF4E0"/>
<path d="M98 96V28H94V96H98Z" fill="#FFF4E0"/>
<path d="M106 96V28H102V96H106Z" fill="#FFF4E0"/>
<path d="M60 16C62.2091 16 64 14.2091 64 12C64 9.79086 62.2091 8 60 8C57.7909 8 56 9.79086 56 12C56 14.2091 57.7909 16 60 16Z" fill="#FFF4E0"/>
</svg>
