<svg width="120" height="120" viewBox="0 0 120 120" fill="none" xmlns="http://www.w3.org/2000/svg">
<path d="M120 116H0V120H120V116Z" fill="#393E46"/>
<path d="M90 0L30 12V16L90 4V0Z" fill="#393E46"/>
<path d="M34 120L34 12H30L30 120H34Z" fill="#393E46"/>
<path d="M90 120V0L86 2V120H90Z" fill="#393E46"/>
<path d="M48 64H40V72H48V64Z" fill="#FFF4E0"/>
<path d="M64 64H56V72H64V64Z" fill="#FFF4E0"/>
<path d="M64 80H56V88H64V80Z" fill="#FFF4E0"/>
<path d="M80 64H72V72H80V64Z" fill="#FFF4E0"/>
<path d="M48 48H40V56H48V48Z" fill="#FFF4E0"/>
<path d="M64 48H56V56H64V48Z" fill="#FFF4E0"/>
<path d="M80 48H72V56H80V48Z" fill="#FFF4E0"/>
<path d="M48 32H40V40H48V32Z" fill="#FFF4E0"/>
<path d="M64 32H56V40H64V32Z" fill="#FFF4E0"/>
<path d="M80 32H72V40H80V32Z" fill="#FFF4E0"/>
<path d="M64 16H56V24H64V16Z" fill="#FFF4E0"/>
<path d="M80 16H72V24H80V16Z" fill="#FFF4E0"/>
<path d="M48 80H40V88H48V80Z" fill="#FFF4E0"/>
<path d="M64 104H56V116H64V104Z" fill="#393E46"/>
<path d="M80 80H72V88H80V80Z" fill="#FFF4E0"/>
<path d="M60 96C62.1217 96 64.1566 96.8429 65.6569 98.3431C67.1571 99.8434 68 101.878 68 104H72C72 100.817 70.7357 97.7652 68.4853 95.5147C66.2348 93.2643 63.1826 92 60 92C56.8174 92 53.7652 93.2643 51.5147 95.5147C49.2643 97.7652 48 100.817 48 104H52C52 101.878 52.8429 99.8434 54.3431 98.3431C55.8434 96.8429 57.8783 96 60 96Z" fill="#FFF4E0"/>
<path d="M106 104H102V116H106V104Z" fill="#393E46"/>
<path d="M94.0003 102.46C93.9924 101.689 94.2077 100.932 94.6203 100.28C95.0183 99.6383 95.6051 99.1353 96.3003 98.8402C95.9616 98.2315 95.8218 97.5322 95.9003 96.8402C95.9683 96.1643 96.2483 95.5273 96.7002 95.0202C97.1163 94.5146 97.6845 94.1568 98.3202 94.0002C98.9884 93.8131 99.7024 93.8845 100.32 94.2002C100.396 93.2194 100.83 92.3009 101.54 91.6202C102.211 90.9558 103.116 90.583 104.06 90.583C105.004 90.583 105.91 90.9558 106.58 91.6202C107.224 92.2624 107.639 93.0988 107.76 94.0002C108.376 93.6786 109.093 93.607 109.76 93.8002C110.396 93.9568 110.964 94.3146 111.38 94.8202C111.832 95.3273 112.112 95.9643 112.18 96.6402C112.263 97.3278 112.138 98.0246 111.82 98.6402C112.515 98.9353 113.102 99.4383 113.5 100.08C113.902 100.791 114.076 101.607 114 102.42C114.022 103.475 113.627 104.496 112.9 105.26C112.567 105.629 112.16 105.923 111.704 106.123C111.249 106.323 110.757 106.424 110.26 106.42H97.7603C97.2599 106.427 96.7638 106.327 96.3052 106.127C95.8465 105.927 95.4357 105.631 95.1002 105.26C94.3832 104.506 93.9886 103.501 94.0003 102.46Z" fill="#FFF4E0"/>
<path d="M16 104H12V116H16V104Z" fill="#393E46"/>
<path d="M4.00025 102.46C3.99242 101.689 4.20773 100.932 4.62025 100.28C5.01827 99.6383 5.60509 99.1353 6.30025 98.8402C5.96165 98.2315 5.82179 97.5322 5.90025 96.8402C5.96827 96.1643 6.24829 95.5273 6.70025 95.0202C7.11631 94.5146 7.68449 94.1568 8.32025 94.0002C8.98836 93.8131 9.70242 93.8845 10.3203 94.2002C10.3959 93.2194 10.8302 92.3009 11.5403 91.6202C12.2107 90.9558 13.1164 90.583 14.0603 90.583C15.0041 90.583 15.9098 90.9558 16.5803 91.6202C17.2243 92.2624 17.639 93.0988 17.7603 94.0002C18.3763 93.6786 19.0927 93.607 19.7603 93.8002C20.396 93.9568 20.9642 94.3146 21.3802 94.8202C21.8322 95.3273 22.1122 95.9643 22.1803 96.6402C22.2631 97.3278 22.1377 98.0246 21.8202 98.6402C22.5154 98.9353 23.1022 99.4383 23.5002 100.08C23.9018 100.791 24.0763 101.607 24.0002 102.42C24.0224 103.475 23.6271 104.496 22.9002 105.26C22.567 105.629 22.1595 105.923 21.7045 106.123C21.2495 106.323 20.7572 106.424 20.2603 106.42H7.76025C7.2599 106.427 6.76383 106.327 6.30515 106.127C5.84647 105.927 5.4357 105.631 5.10025 105.26C4.38321 104.506 3.98861 103.501 4.00025 102.46Z" fill="#FFF4E0"/>
</svg>
