<svg width="60" height="60" viewBox="0 0 60 60" fill="none" xmlns="http://www.w3.org/2000/svg">
<g clip-path="url(#clip0)">
<path d="M3.5 24H6L7 17H3.5C2.57255 17.0026 1.68385 17.3722 1.02804 18.028C0.372235 18.6838 0.00263855 19.5726 0 20.5H0C0.0052502 21.4266 0.375685 22.3138 1.03093 22.9691C1.68617 23.6243 2.57336 23.9947 3.5 24V24Z" fill="#393E46"/>
<path d="M56.5 24H54L53 17H56.5C57.4283 17 58.3185 17.3687 58.9749 18.0251C59.6312 18.6815 60 19.5717 60 20.5V20.5C59.9974 21.4274 59.6278 22.3162 58.972 22.972C58.3162 23.6278 57.4274 23.9974 56.5 24V24Z" fill="#393E46"/>
<path d="M44.22 2.00001C45.0855 2.00001 45.9276 2.28072 46.62 2.80001C47.3124 3.3193 47.8177 4.04915 48.06 4.88001L53.63 26.25H6.37L11.93 4.90001C12.1692 4.06378 12.6744 3.3283 13.3691 2.80499C14.0639 2.28169 14.9102 1.99909 15.78 2.00001H44.22ZM44.22 1.07075e-05H15.78C14.4745 -0.00245486 13.2038 0.420945 12.1607 1.20598C11.1176 1.99101 10.359 3.09484 10 4.35001L3.75 28.25H56.25L50 4.35001C49.641 3.09484 48.8824 1.99101 47.8393 1.20598C46.7962 0.420945 45.5255 -0.00245486 44.22 1.07075e-05V1.07075e-05Z" fill="#00ADB5"/>
<path d="M54 28.25C55.0609 28.25 56.0783 28.6714 56.8284 29.4216C57.5786 30.1717 58 31.1891 58 32.25V44C58 45.0609 57.5786 46.0783 56.8284 46.8284C56.0783 47.5786 55.0609 48 54 48H6C4.93913 48 3.92172 47.5786 3.17157 46.8284C2.42143 46.0783 2 45.0609 2 44V32.25C2 31.1891 2.42143 30.1717 3.17157 29.4216C3.92172 28.6714 4.93913 28.25 6 28.25H54ZM54 26.25H6C4.4087 26.25 2.88258 26.8821 1.75736 28.0074C0.632141 29.1326 0 30.6587 0 32.25L0 44C0 45.5913 0.632141 47.1174 1.75736 48.2426C2.88258 49.3679 4.4087 50 6 50H54C55.5913 50 57.1174 49.3679 58.2426 48.2426C59.3679 47.1174 60 45.5913 60 44V32.25C60 30.6587 59.3679 29.1326 58.2426 28.0074C57.1174 26.8821 55.5913 26.25 54 26.25Z" fill="#393E46"/>
<path d="M11 35C11.5933 35 12.1734 35.1759 12.6667 35.5056C13.1601 35.8352 13.5446 36.3038 13.7716 36.852C13.9987 37.4001 14.0581 38.0033 13.9424 38.5853C13.8266 39.1672 13.5409 39.7018 13.1213 40.1213C12.7018 40.5409 12.1672 40.8266 11.5853 40.9424C11.0033 41.0581 10.4001 40.9987 9.85195 40.7716C9.30377 40.5446 8.83524 40.1601 8.50559 39.6667C8.17595 39.1734 8 38.5933 8 38C8 37.2044 8.31607 36.4413 8.87868 35.8787C9.44129 35.3161 10.2044 35 11 35V35ZM11 33C9.67392 33 8.40215 33.5268 7.46447 34.4645C6.52678 35.4021 6 36.6739 6 38V38C6 39.3261 6.52678 40.5979 7.46447 41.5355C8.40215 42.4732 9.67392 43 11 43C12.3261 43 13.5979 42.4732 14.5355 41.5355C15.4732 40.5979 16 39.3261 16 38C16 36.6739 15.4732 35.4021 14.5355 34.4645C13.5979 33.5268 12.3261 33 11 33Z" fill="#00ADB5"/>
<path d="M49 35C49.5933 35 50.1734 35.1759 50.6667 35.5056C51.1601 35.8352 51.5446 36.3038 51.7716 36.852C51.9987 37.4001 52.0581 38.0033 51.9424 38.5853C51.8266 39.1672 51.5409 39.7018 51.1213 40.1213C50.7018 40.5409 50.1672 40.8266 49.5853 40.9424C49.0033 41.0581 48.4001 40.9987 47.852 40.7716C47.3038 40.5446 46.8352 40.1601 46.5056 39.6667C46.1759 39.1734 46 38.5933 46 38C46 37.2044 46.3161 36.4413 46.8787 35.8787C47.4413 35.3161 48.2044 35 49 35ZM49 33C47.6739 33 46.4021 33.5268 45.4645 34.4645C44.5268 35.4021 44 36.6739 44 38C44 39.3261 44.5268 40.5979 45.4645 41.5355C46.4021 42.4732 47.6739 43 49 43C50.3261 43 51.5979 42.4732 52.5355 41.5355C53.4732 40.5979 54 39.3261 54 38C54 36.6739 53.4732 35.4021 52.5355 34.4645C51.5979 33.5268 50.3261 33 49 33Z" fill="#00ADB5"/>
<path d="M40.31 35.5596H19.69C19.4407 35.5596 19.2016 35.6586 19.0253 35.8349C18.849 36.0112 18.75 36.2503 18.75 36.4996V36.6296C18.7526 36.8771 18.8528 37.1137 19.0288 37.2878C19.2048 37.4619 19.4424 37.5596 19.69 37.5596H40.31C40.5576 37.5596 40.7952 37.4619 40.9712 37.2878C41.1472 37.1137 41.2474 36.8771 41.25 36.6296V36.4996C41.25 36.2503 41.151 36.0112 40.9747 35.8349C40.7984 35.6586 40.5593 35.5596 40.31 35.5596V35.5596Z" fill="#393E46"/>
<path d="M40.31 39.5596H19.69C19.4407 39.5596 19.2016 39.6586 19.0253 39.8349C18.849 40.0112 18.75 40.2503 18.75 40.4996V40.6296C18.7526 40.8771 18.8528 41.1137 19.0288 41.2878C19.2048 41.4619 19.4424 41.5596 19.69 41.5596H40.31C40.5576 41.5596 40.7952 41.4619 40.9712 41.2878C41.1472 41.1137 41.2474 40.8771 41.25 40.6296V40.4996C41.25 40.2503 41.151 40.0112 40.9747 39.8349C40.7984 39.6586 40.5593 39.5596 40.31 39.5596V39.5596Z" fill="#393E46"/>
<path d="M43.1299 48.75H56.2499V56C56.2499 57.0609 55.8285 58.0783 55.0783 58.8284C54.3282 59.5786 53.3107 60 52.2499 60H47.1299C46.069 60 45.0516 59.5786 44.3015 58.8284C43.5513 58.0783 43.1299 57.0609 43.1299 56V48.75Z" fill="#393E46"/>
<path d="M3.75 48.75H16.88V56C16.88 57.0609 16.4586 58.0783 15.7084 58.8284C14.9583 59.5786 13.9409 60 12.88 60H7.75C6.68913 60 5.67172 59.5786 4.92157 58.8284C4.17143 58.0783 3.75 57.0609 3.75 56V48.75Z" fill="#393E46"/>
<path d="M44.5945 15.9838C45.0714 15.7787 45.2926 15.2279 45.0886 14.7535C44.8846 14.2791 44.3326 14.0608 43.8557 14.2659L36.1574 17.5765C35.6805 17.7816 35.4592 18.3325 35.6632 18.8068C35.8672 19.2812 36.4192 19.4995 36.8962 19.2944L44.5945 15.9838Z" fill="#393E46"/>
<path d="M48.946 14.1146C49.423 13.9095 49.6442 13.3587 49.4402 12.8843C49.2362 12.4099 48.6842 12.1917 48.2073 12.3968L46.4894 13.1355C46.0125 13.3406 45.7912 13.8914 45.9952 14.3658C46.1992 14.8402 46.7512 15.0585 47.2282 14.8534L48.946 14.1146Z" fill="#393E46"/>
<path d="M38.4099 21.7731C37.933 21.9782 37.7118 22.529 37.9158 23.0034C38.1198 23.4777 38.6718 23.696 39.1487 23.4909L46.847 20.1803C47.3239 19.9752 47.5452 19.4244 47.3412 18.95C47.1371 18.4756 46.5852 18.2573 46.1082 18.4624L38.4099 21.7731Z" fill="#393E46"/>
<path d="M34.0442 23.6252C33.5672 23.8303 33.3469 24.3832 33.552 24.8601C33.7571 25.337 34.31 25.5574 34.7869 25.3523L36.5048 24.6135C36.9817 24.4084 37.202 23.8555 36.9969 23.3786C36.7918 22.9017 36.239 22.6813 35.762 22.8864L34.0442 23.6252Z" fill="#393E46"/>
<rect y="18" width="60" height="24" rx="4" fill="#FFC100"/>
<path d="M18.5641 27.2816C18.5641 28.4296 19.2291 29.2276 20.6571 29.2276C22.0711 29.2276 22.7361 28.4366 22.7361 27.2746V24.9296C22.7361 24.6496 22.5121 24.4256 22.2321 24.4256C21.9521 24.4256 21.7281 24.6496 21.7281 24.9296V27.2466C21.7281 27.8976 21.3711 28.3456 20.6571 28.3456C19.9291 28.3456 19.5721 27.8976 19.5721 27.2466V24.9296C19.5721 24.6496 19.3481 24.4256 19.0681 24.4256C18.7881 24.4256 18.5641 24.6496 18.5641 24.9296V27.2816ZM27.2268 29.1926C27.5628 29.1926 27.8358 28.9196 27.8358 28.5836V24.9226C27.8358 24.6496 27.6118 24.4256 27.3388 24.4256C27.0588 24.4256 26.8418 24.6496 26.8418 24.9226V27.4986L24.8398 24.6986C24.7208 24.5306 24.5248 24.4256 24.3078 24.4256C23.9438 24.4256 23.6568 24.7196 23.6568 25.0766V28.6956C23.6568 28.9616 23.8808 29.1926 24.1608 29.1926C24.4338 29.1926 24.6508 28.9616 24.6508 28.6956V26.0076L26.7298 28.9336C26.8418 29.0946 27.0238 29.1926 27.2268 29.1926ZM29.2814 29.1436H30.5974C32.0604 29.1436 33.0754 28.2196 33.0754 26.8126C33.0754 25.4056 32.0604 24.4746 30.5974 24.4746H29.2814C28.9454 24.4746 28.7564 24.6636 28.7564 24.9996V28.6116C28.7564 28.9546 28.9454 29.1436 29.2814 29.1436ZM29.7504 28.2686V25.3496H30.5974C31.5564 25.3496 32.0604 25.9866 32.0604 26.8126C32.0604 27.6036 31.5214 28.2686 30.5974 28.2686H29.7504ZM34.3058 29.1436H36.6998C36.9378 29.1436 37.1338 28.9476 37.1338 28.7096C37.1338 28.4786 36.9378 28.2826 36.6998 28.2826H34.7748V27.1976H36.6508C36.8888 27.1976 37.0848 27.0086 37.0848 26.7706C37.0848 26.5326 36.8888 26.3436 36.6508 26.3436H34.7748V25.3286H36.6998C36.9378 25.3286 37.1338 25.1396 37.1338 24.9086C37.1338 24.6636 36.9378 24.4746 36.6998 24.4746H34.3058C33.9698 24.4746 33.7808 24.6636 33.7808 24.9996V28.6116C33.7808 28.9546 33.9698 29.1436 34.3058 29.1436ZM40.7249 27.3306C41.1869 27.1626 41.6139 26.7286 41.6139 25.9796C41.6139 25.1116 41.0189 24.4746 40.0459 24.4746L38.3869 24.4746C38.0509 24.4746 37.8619 24.6636 37.8619 24.9996V28.6956C37.8619 28.9616 38.0859 29.1926 38.3659 29.1926C38.6389 29.1926 38.8559 28.9616 38.8559 28.6956V27.4706H39.6749L40.7249 28.9826C40.8089 29.1016 40.9629 29.1926 41.1379 29.1926C41.4039 29.1926 41.6139 28.9616 41.6139 28.7236C41.6139 28.5836 41.5789 28.4926 41.5159 28.4086L40.7249 27.3306ZM38.8559 25.3286H39.8989C40.2979 25.3286 40.5989 25.5806 40.5989 25.9726C40.5989 26.3646 40.2979 26.6166 39.8989 26.6166H38.8559V25.3286ZM5.61427 36.2276C6.38427 36.2276 6.90927 35.9336 7.28027 35.5276C7.35727 35.4506 7.39927 35.3386 7.39927 35.2196C7.39927 34.9606 7.18927 34.7506 6.93027 34.7506C6.79027 34.7506 6.66427 34.8136 6.58027 34.9046C6.34227 35.1776 6.00627 35.3456 5.61427 35.3456C4.80227 35.3456 4.18627 34.6946 4.18627 33.8126C4.18627 32.9306 4.80227 32.2796 5.61427 32.2796C6.00627 32.2796 6.34227 32.4546 6.57327 32.7136C6.66427 32.8186 6.79027 32.8746 6.93027 32.8746C7.18927 32.8746 7.39927 32.6646 7.39927 32.4056C7.39927 32.2866 7.35727 32.1676 7.28027 32.0906C6.90927 31.6846 6.38427 31.3976 5.61427 31.3976C4.24927 31.3976 3.16427 32.3776 3.16427 33.8126C3.16427 35.2476 4.24927 36.2276 5.61427 36.2276ZM7.90157 33.8126C7.90157 35.2196 8.93057 36.2276 10.3376 36.2276C11.7516 36.2276 12.7806 35.2196 12.7806 33.8126C12.7806 32.4056 11.7516 31.3976 10.3376 31.3976C8.93057 31.3976 7.90157 32.4056 7.90157 33.8126ZM11.7586 33.8126C11.7586 34.6806 11.1986 35.3456 10.3376 35.3456C9.47657 35.3456 8.92357 34.6806 8.92357 33.8126C8.92357 32.9376 9.47657 32.2796 10.3376 32.2796C11.1986 32.2796 11.7586 32.9376 11.7586 33.8126ZM17.0481 36.1926C17.3841 36.1926 17.6571 35.9196 17.6571 35.5836V31.9226C17.6571 31.6496 17.4331 31.4256 17.1601 31.4256C16.8801 31.4256 16.6631 31.6496 16.6631 31.9226V34.4986L14.6611 31.6986C14.5421 31.5306 14.3461 31.4256 14.1291 31.4256C13.7651 31.4256 13.4781 31.7196 13.4781 32.0766L13.4781 35.6956C13.4781 35.9616 13.7021 36.1926 13.9821 36.1926C14.2551 36.1926 14.4721 35.9616 14.4721 35.6956L14.4721 33.0076L16.5511 35.9336C16.6631 36.0946 16.8451 36.1926 17.0481 36.1926ZM18.5917 35.7586C19.0117 36.0526 19.5507 36.2276 20.2367 36.2276C21.4967 36.2276 22.1057 35.5836 22.1057 34.7296C22.1057 33.6936 21.1257 33.4626 20.3557 33.2876C19.8167 33.1616 19.4247 33.0636 19.4247 32.7486C19.4247 32.4686 19.6627 32.2726 20.1807 32.2726C20.5097 32.2726 20.8807 32.3706 21.2377 32.5736C21.3007 32.6156 21.3847 32.6436 21.4757 32.6436C21.7207 32.6436 21.9307 32.4336 21.9307 32.1816C21.9307 32.0136 21.8327 31.8596 21.6997 31.7896C21.2517 31.5306 20.7827 31.4046 20.2507 31.4046C19.0817 31.4046 18.4097 32.0346 18.4097 32.8116C18.4097 33.8546 19.3897 34.0646 20.1527 34.2396C20.6917 34.3656 21.0977 34.4846 21.0977 34.8346C21.0977 35.1006 20.8317 35.3596 20.2857 35.3596C19.8167 35.3596 19.4317 35.2126 19.1097 34.9886C19.0327 34.9326 18.9417 34.9046 18.8437 34.9046C18.5917 34.9046 18.3817 35.1146 18.3817 35.3736C18.3817 35.5346 18.4657 35.6746 18.5917 35.7586ZM24.3091 36.1926C24.5821 36.1926 24.8061 35.9616 24.8061 35.6956V32.3496H25.7791C26.0171 32.3496 26.2201 32.1536 26.2201 31.9156C26.2201 31.6706 26.0171 31.4746 25.7791 31.4746H22.8321C22.5941 31.4746 22.3911 31.6706 22.3911 31.9156C22.3911 32.1536 22.5941 32.3496 22.8321 32.3496H23.8051V35.6956C23.8051 35.9616 24.0291 36.1926 24.3091 36.1926ZM29.6644 34.3306C30.1264 34.1626 30.5534 33.7286 30.5534 32.9796C30.5534 32.1116 29.9584 31.4746 28.9854 31.4746H27.3264C26.9904 31.4746 26.8014 31.6636 26.8014 31.9996V35.6956C26.8014 35.9616 27.0254 36.1926 27.3054 36.1926C27.5784 36.1926 27.7954 35.9616 27.7954 35.6956V34.4706H28.6144L29.6644 35.9826C29.7484 36.1016 29.9024 36.1926 30.0774 36.1926C30.3434 36.1926 30.5534 35.9616 30.5534 35.7236C30.5534 35.5836 30.5184 35.4926 30.4554 35.4086L29.6644 34.3306ZM27.7954 32.3286H28.8384C29.2374 32.3286 29.5384 32.5806 29.5384 32.9726C29.5384 33.3646 29.2374 33.6166 28.8384 33.6166H27.7954V32.3286ZM31.2994 34.2816C31.2994 35.4296 31.9644 36.2276 33.3924 36.2276C34.8064 36.2276 35.4714 35.4366 35.4714 34.2746V31.9296C35.4714 31.6496 35.2474 31.4256 34.9674 31.4256C34.6874 31.4256 34.4634 31.6496 34.4634 31.9296V34.2466C34.4634 34.8976 34.1064 35.3456 33.3924 35.3456C32.6644 35.3456 32.3074 34.8976 32.3074 34.2466V31.9296C32.3074 31.6496 32.0834 31.4256 31.8034 31.4256C31.5234 31.4256 31.2994 31.6496 31.2994 31.9296V34.2816ZM38.6182 36.2276C39.3882 36.2276 39.9132 35.9336 40.2842 35.5276C40.3612 35.4506 40.4032 35.3386 40.4032 35.2196C40.4032 34.9606 40.1932 34.7506 39.9342 34.7506C39.7942 34.7506 39.6682 34.8136 39.5842 34.9046C39.3462 35.1776 39.0102 35.3456 38.6182 35.3456C37.8062 35.3456 37.1902 34.6946 37.1902 33.8126C37.1902 32.9306 37.8062 32.2796 38.6182 32.2796C39.0102 32.2796 39.3462 32.4546 39.5772 32.7136C39.6682 32.8186 39.7942 32.8746 39.9342 32.8746C40.1932 32.8746 40.4032 32.6646 40.4032 32.4056C40.4032 32.2866 40.3612 32.1676 40.2842 32.0906C39.9132 31.6846 39.3882 31.3976 38.6182 31.3976C37.2532 31.3976 36.1682 32.3776 36.1682 33.8126C36.1682 35.2476 37.2532 36.2276 38.6182 36.2276ZM42.6705 36.1926C42.9435 36.1926 43.1675 35.9616 43.1675 35.6956V32.3496H44.1405C44.3785 32.3496 44.5815 32.1536 44.5815 31.9156C44.5815 31.6706 44.3785 31.4746 44.1405 31.4746H41.1935C40.9555 31.4746 40.7525 31.6706 40.7525 31.9156C40.7525 32.1536 40.9555 32.3496 41.1935 32.3496H42.1665V35.6956C42.1665 35.9616 42.3905 36.1926 42.6705 36.1926ZM45.6667 36.1926C45.9397 36.1926 46.1567 35.9616 46.1567 35.6956V31.9226C46.1567 31.6496 45.9397 31.4256 45.6667 31.4256C45.3867 31.4256 45.1627 31.6496 45.1627 31.9226V35.6956C45.1627 35.9616 45.3867 36.1926 45.6667 36.1926ZM46.8596 33.8126C46.8596 35.2196 47.8886 36.2276 49.2956 36.2276C50.7096 36.2276 51.7386 35.2196 51.7386 33.8126C51.7386 32.4056 50.7096 31.3976 49.2956 31.3976C47.8886 31.3976 46.8596 32.4056 46.8596 33.8126ZM50.7166 33.8126C50.7166 34.6806 50.1566 35.3456 49.2956 35.3456C48.4346 35.3456 47.8816 34.6806 47.8816 33.8126C47.8816 32.9376 48.4346 32.2796 49.2956 32.2796C50.1566 32.2796 50.7166 32.9376 50.7166 33.8126ZM56.0061 36.1926C56.3421 36.1926 56.6151 35.9196 56.6151 35.5836V31.9226C56.6151 31.6496 56.3911 31.4256 56.1181 31.4256C55.8381 31.4256 55.6211 31.6496 55.6211 31.9226V34.4986L53.6191 31.6986C53.5001 31.5306 53.3041 31.4256 53.0871 31.4256C52.7231 31.4256 52.4361 31.7196 52.4361 32.0766V35.6956C52.4361 35.9616 52.6601 36.1926 52.9401 36.1926C53.2131 36.1926 53.4301 35.9616 53.4301 35.6956V33.0076L55.5091 35.9336C55.6211 36.0946 55.8031 36.1926 56.0061 36.1926Z" fill="#393E46"/>
</g>
<defs>
<clipPath id="clip0">
<rect width="60" height="60" fill="white"/>
</clipPath>
</defs>
</svg>
