<svg width="32" height="32" viewBox="0 0 32 32" fill="none" xmlns="http://www.w3.org/2000/svg">
<path d="M24.41 2C24.4413 2.04095 24.462 2.08907 24.47 2.14L27.47 14H4.56L7.56 2.14C7.55894 2.09163 7.56921 2.04369 7.59 2H24.41ZM24.49 0H7.49C7.03409 0.0269362 6.60006 0.204611 6.25614 0.505095C5.91221 0.805579 5.67789 1.21183 5.59 1.66L2 16H30L26.41 1.66C26.3212 1.20867 26.084 0.800023 25.736 0.499183C25.3881 0.198343 24.9494 0.0226157 24.49 0V0Z" fill="#00ADB5"/>
<path d="M30 16V24H2V16H30ZM30 14H2C1.46957 14 0.960859 14.2107 0.585786 14.5858C0.210714 14.9609 0 15.4696 0 16L0 24C0 24.5304 0.210714 25.0391 0.585786 25.4142C0.960859 25.7893 1.46957 26 2 26H30C30.5304 26 31.0391 25.7893 31.4142 25.4142C31.7893 25.0391 32 24.5304 32 24V16C32 15.4696 31.7893 14.9609 31.4142 14.5858C31.0391 14.2107 30.5304 14 30 14Z" fill="#393E46"/>
<path d="M8 20C8 18.8954 7.10457 18 6 18C4.89543 18 4 18.8954 4 20C4 21.1046 4.89543 22 6 22C7.10457 22 8 21.1046 8 20Z" fill="#00ADB5"/>
<path d="M28 20C28 18.8954 27.1046 18 26 18C24.8954 18 24 18.8954 24 20C24 21.1046 24.8954 22 26 22C27.1046 22 28 21.1046 28 20Z" fill="#00ADB5"/>
<path d="M22 19.5H10V20.5H22V19.5Z" fill="#393E46"/>
<path d="M23 26H30V29C30 29.7956 29.6839 30.5587 29.1213 31.1213C28.5587 31.6839 27.7956 32 27 32H26C25.2044 32 24.4413 31.6839 23.8787 31.1213C23.3161 30.5587 23 29.7956 23 29V26Z" fill="#393E46"/>
<path d="M2 26H9V29C9 29.7956 8.68393 30.5587 8.12132 31.1213C7.55871 31.6839 6.79565 32 6 32H5C4.20435 32 3.44129 31.6839 2.87868 31.1213C2.31607 30.5587 2 29.7956 2 29V26Z" fill="#393E46"/>
<path d="M21.654 9.4531C21.9077 9.34401 22.0249 9.04992 21.9158 8.79624C21.8067 8.54256 21.5126 8.42535 21.2589 8.53445L17.1526 10.3004C16.8989 10.4095 16.7817 10.7036 16.8908 10.9572C16.9999 11.2109 17.2939 11.3281 17.5476 11.219L21.654 9.4531Z" fill="#393E46"/>
<path d="M23.9768 8.46384C24.2304 8.35475 24.3476 8.06066 24.2385 7.80698C24.1295 7.5533 23.8354 7.43609 23.5817 7.54519L22.663 7.94025C22.4094 8.04935 22.2921 8.34343 22.4012 8.59711C22.5103 8.85079 22.8044 8.968 23.0581 8.85891L23.9768 8.46384Z" fill="#393E46"/>
<path d="M18.3406 12.543C18.087 12.6521 17.9697 12.9462 18.0788 13.1999C18.1879 13.4535 18.482 13.5707 18.7357 13.4616L22.8421 11.6957C23.0958 11.5866 23.213 11.2925 23.1039 11.0388C22.9948 10.7852 22.7007 10.668 22.447 10.7771L18.3406 12.543Z" fill="#393E46"/>
<path d="M16.0208 13.543C15.7671 13.6521 15.6499 13.9462 15.759 14.1999C15.8681 14.4535 16.1622 14.5707 16.4159 14.4616L17.3345 14.0666C17.5882 13.9575 17.7054 13.6634 17.5963 13.4097C17.4872 13.156 17.1931 13.0388 16.9395 13.1479L16.0208 13.543Z" fill="#393E46"/>
</svg>
