<svg width="380" height="360" viewBox="0 0 380 360" fill="none" xmlns="http://www.w3.org/2000/svg">
<g clip-path="url(#clip0)">
<g opacity="0.1">
<path d="M375.723 291.631C379.767 278.395 380.751 264.394 377.8 250.829C373.208 229.717 358.56 204.12 316.035 193.072C235.687 172.178 207.702 111.03 132.492 130.501C132.492 130.501 92.1541 137.83 73.0236 204.667C54.1118 271.504 -20.7704 272.598 5.02842 330.793C9.29179 340.31 20.5514 350.702 36.8397 360.437L341.725 359.453C362.823 334.074 369.382 312.197 375.723 291.631Z" fill="#14AFB6"/>
</g>
<g opacity="0.2">
<path d="M303.792 243.829H292.313V231.358C292.313 225.123 287.941 219.872 282.038 218.45V202.808H277.774V218.013C270.997 218.669 265.749 224.248 265.749 231.249V244.157H254.38V258.487H253.615V285.178L232.954 285.068V253.127H209.232V276.536H192.616V299.289H172.502V359.453H239.404H253.725H337.461V283.646H303.792V243.829Z" fill="#14AFB6"/>
<path d="M67.667 276.864V247.001H78.9267V231.03H83.0807V247.001H93.4659V276.864H105.053V294.804H123.419V233.765H162.008V359.453H136.865H126.042H98.8224H86.2509H53.4558V276.864H67.667Z" fill="#14AFB6"/>
</g>
<path d="M278.102 359.126L102.539 359.235C95.8709 359.235 90.5144 353.875 90.5144 347.202L290.127 347.093C290.127 353.766 284.771 359.126 278.102 359.126Z" fill="#1F9B9C"/>
<path d="M278.102 354.969L102.539 355.078C97.4014 355.078 92.9194 351.797 91.2796 347.202H90.5144C90.5144 353.875 95.8709 359.235 102.539 359.235L278.102 359.126C284.771 359.126 290.127 353.766 290.127 347.093H289.362C287.722 351.687 283.35 354.969 278.102 354.969Z" fill="#1F9B9C"/>
<path d="M201.69 351.14H179.061C176.875 351.14 175.016 349.39 175.016 347.093H205.735C205.735 349.39 203.876 351.14 201.69 351.14Z" fill="#1F9B9C"/>
<path d="M279.851 347.093L100.79 347.202L100.681 239.016C100.681 232.781 105.709 227.749 111.94 227.749L268.592 227.64C274.823 227.64 279.851 232.672 279.851 238.907V347.093Z" fill="#1F9B9C"/>
<path d="M270.559 237.156H110.082V337.904H270.559V237.156Z" fill="#131316"/>
<path d="M270.669 328.167H110.191V337.793H270.669V328.167Z" fill="#131316"/>
<path d="M270.559 237.156H110.082V241.969H270.559V237.156Z" fill="#131316"/>
<path opacity="0.16" d="M163.538 237.157L110.082 290.758L110.191 337.905H110.301L210.763 237.048L163.538 237.157Z" fill="#1F9B9C"/>
<path opacity="0.16" d="M130.852 337.905L154.574 337.795L255.146 237.048H231.424L130.852 337.905Z" fill="#1F9B9C"/>
<path opacity="0.16" d="M251.647 337.797L270.559 318.873V283.103L213.933 337.797H251.647Z" fill="#1F9B9C"/>
<path d="M279.961 280.146H100.79V299.946H279.961V280.146Z" fill="#F5D200"/>
<path d="M123.091 306.838H107.677L120.904 276.537H136.318L123.091 306.838Z" fill="#14AFB6"/>
<path d="M155.995 306.838H140.581L153.809 276.537H169.223L155.995 306.838Z" fill="#14AFB6"/>
<path d="M188.79 306.838H173.377L186.713 276.537H202.127L188.79 306.838Z" fill="#14AFB6"/>
<path d="M221.695 306.838H206.281L219.618 276.537H235.031L221.695 306.838Z" fill="#14AFB6"/>
<path d="M254.599 306.838H239.186L252.413 276.537H267.827L254.599 306.838Z" fill="#14AFB6"/>
<path d="M86.3606 245.906L82.8624 246.016L80.7854 245.359C79.8016 245.031 78.8177 245.469 78.2711 246.234L78.0525 246.672L88.3283 252.36L90.296 248.094L86.3606 245.906Z" fill="#131316"/>
<path d="M88.2187 252.47L77.9429 246.782L78.2708 246.125C78.3801 246.016 78.4895 245.907 78.5988 246.016L88.6559 251.595L88.2187 252.47Z" fill="#131316"/>
<path d="M90.1865 248.094L92.9194 243.39L90.1865 238.577L86.3604 245.906L90.1865 248.094Z" fill="#EC8276"/>
<path d="M111.394 221.186C111.394 221.186 96.8546 217.029 95.4335 220.967C94.0123 224.905 85.4856 242.298 85.4856 242.298L91.826 245.579L101.337 229.062L114.127 227.968L111.394 221.186Z" fill="#131316"/>
<path d="M99.5876 251.267L96.7454 253.126L94.6684 253.564C93.6845 253.783 93.0286 254.548 92.9193 255.533V255.97H104.616L104.288 251.267H99.5876Z" fill="#131316"/>
<path d="M104.507 256.08H92.7007V255.314C92.7007 255.205 92.81 255.096 92.9193 255.096H104.398L104.507 256.08Z" fill="#131316"/>
<path d="M104.179 251.267L104.507 243.391L99.9156 242.953L99.5876 251.267H104.179Z" fill="#EC8276"/>
<path d="M113.362 220.528L99.5876 221.185C99.5876 221.185 97.6199 221.294 97.7292 225.888C97.8386 230.483 97.8386 249.188 97.8386 249.188L104.398 249.407L105.709 229.826L119.483 229.608C122.435 229.608 125.059 227.857 126.261 225.232C126.698 224.248 126.917 223.044 126.589 221.841L113.362 220.528Z" fill="#131316"/>
<path d="M100.353 217.686C100.353 218.999 99.4785 219.217 98.1666 219.217C96.8548 219.217 95.6523 218.999 95.6523 217.686C95.6523 216.373 96.7455 215.279 98.0573 215.279C99.2598 215.389 100.353 216.373 100.353 217.686Z" fill="#E1AD9D"/>
<path d="M101.993 219.11H99.2599C98.4947 219.11 97.9481 218.563 97.9481 217.797C97.9481 217.031 98.4947 216.484 99.2599 216.484H101.993C102.758 216.484 103.305 217.031 103.305 217.797C103.305 218.453 102.758 219.11 101.993 219.11Z" fill="#E1AD9D"/>
<path d="M101.883 219.326L101.009 214.841L112.268 213.638L114.564 200.511C114.783 199.308 116.532 197.886 117.734 198.105L117.406 197.995C118.609 198.214 119.702 199.636 119.483 200.839L117.297 216.591C117.188 217.466 116.532 218.123 115.657 218.342L101.883 219.326Z" fill="#14AFB6"/>
<path d="M124.293 198.323C124.512 198.323 124.73 198.433 124.949 198.433H125.058C127.026 199.198 128.338 201.277 128.338 203.246L126.589 221.842C115.001 221.733 113.252 220.42 113.252 220.42L114.127 201.386C114.236 199.636 115.111 197.886 117.188 197.776L124.293 198.323Z" fill="#14AFB6"/>
<path d="M111.503 219.217C111.613 220.529 110.738 220.748 109.426 220.857C108.114 220.967 106.912 220.857 106.803 219.545C106.693 218.232 107.677 217.138 108.989 217.029C110.301 216.919 111.394 217.904 111.503 219.217Z" fill="#EC8276"/>
<path d="M113.252 220.42L110.519 220.639C109.754 220.639 109.208 220.092 109.098 219.436C109.098 218.67 109.645 218.123 110.301 218.014L113.034 217.795C113.799 217.795 114.345 218.342 114.455 218.998C114.564 219.764 114.018 220.311 113.252 220.42Z" fill="#EC8276"/>
<path d="M113.143 220.639L111.94 216.263L124.184 214.294L123.528 202.918C123.637 201.715 124.949 200.402 126.152 200.511C127.354 200.621 128.557 201.933 128.447 203.137L129.322 216.81C129.213 217.685 128.666 218.342 127.791 218.67L113.143 220.639Z" fill="#14AFB6"/>
<path d="M92.0448 205.541L105.381 206.854C105.819 206.854 106.147 207.291 106.256 207.729L107.677 219.762C107.786 220.309 107.24 220.856 106.693 220.746L93.138 219.433C92.7007 219.433 92.3727 218.996 92.2634 218.558L91.0609 206.526C90.9516 205.979 91.3889 205.541 92.0448 205.541Z" fill="#131316"/>
<path d="M91.2795 205.542L104.616 206.855C105.053 206.855 105.381 207.293 105.491 207.73L106.912 219.763C107.021 220.31 106.475 220.857 105.928 220.748L92.3727 219.435C91.9354 219.435 91.6075 218.997 91.4982 218.56L90.2957 206.527C90.1864 205.98 90.6236 205.433 91.2795 205.542Z" fill="#131316"/>
<path d="M107.24 219.763L116.313 220.638C116.641 220.638 116.75 220.857 116.75 221.185C116.75 221.513 116.532 221.622 116.204 221.622L106.584 220.747L107.24 219.763Z" fill="#131316"/>
<path d="M98.9319 212.762C98.8226 213.528 98.1667 214.184 97.2921 214.075C96.5269 213.965 95.871 213.309 95.9803 212.434C96.0897 211.668 96.7456 211.012 97.6201 211.121C98.3853 211.231 98.9319 211.996 98.9319 212.762Z" fill="#14AFB6"/>
<path d="M123.091 205.544L123.419 214.076L111.941 216.264L121.998 213.201L123.091 205.544Z" fill="#14AFB6"/>
<path d="M117.078 197.23L117.844 199.308C118.172 200.074 118.828 200.511 119.593 200.621C121.123 200.73 122.107 199.199 121.56 197.886L120.249 194.714L117.078 197.23Z" fill="#EC8276"/>
<path d="M117.734 199.089C117.734 199.089 121.451 198.324 120.905 195.042C120.358 191.76 116.86 194.276 116.86 194.276L117.188 197.558L117.734 199.089Z" fill="#E16B5F"/>
<path d="M111.94 189.245C110.519 192.198 111.831 195.699 114.783 197.121C117.734 198.543 121.232 197.23 122.654 194.277C124.075 191.323 122.763 187.823 119.811 186.401C116.86 184.979 113.252 186.291 111.94 189.245Z" fill="#EC8276"/>
<path d="M119.483 192.854C119.483 192.854 118.609 197.558 121.998 197.667C125.496 197.776 123.528 188.806 123.528 188.806L118.062 183.228L109.645 185.306L110.519 190.775C110.519 190.775 111.831 191.432 119.046 190.338L119.483 192.854Z" fill="#131316"/>
<path d="M115.985 189.134L118.828 193.181L121.123 190.556L115.985 189.134Z" fill="#131316"/>
<path d="M118.499 191.759C118.062 192.635 118.499 193.619 119.265 193.947C120.139 194.385 121.123 193.947 121.451 193.182C121.888 192.306 121.451 191.322 120.686 190.994C119.921 190.556 118.937 190.884 118.499 191.759Z" fill="#EC8276"/>
<path d="M110.738 190.665C110.738 190.665 109.426 185.962 112.487 183.118C115.001 180.711 119.046 180.93 121.232 183.555C122.216 184.758 123.091 186.618 123.2 189.462L110.738 190.665Z" fill="#F5D200"/>
<path d="M111.285 190.666V187.712C111.285 186.837 111.941 186.181 112.706 186.181C113.471 186.181 114.236 186.728 114.236 187.493L114.564 190.337H114.236L113.908 187.493C113.799 186.837 113.252 186.399 112.596 186.399C111.941 186.399 111.394 186.946 111.394 187.603V190.556L111.285 190.666Z" fill="#1F9B9C"/>
<path d="M109.645 191.431C109.317 191.431 109.098 191.212 108.989 190.884C108.989 190.556 109.208 190.228 109.535 190.228L123.091 188.915C123.419 188.915 123.747 189.134 123.747 189.462C123.747 189.79 123.528 190.118 123.2 190.118L109.645 191.431C109.754 191.431 109.645 191.431 109.645 191.431Z" fill="#1F9B9C"/>
<path d="M246.401 346.436L249.461 349.389L245.963 351.249L243.012 348.295L246.401 346.436Z" fill="#EC8276"/>
<path d="M225.084 324.449L227.161 333.419C227.598 335.169 228.363 336.919 229.456 338.56L242.793 350.593L248.04 346.327L236.671 334.294L232.517 318.323L225.084 324.449Z" fill="#131316"/>
<path d="M245.854 351.14L244.761 354.64L243.558 356.391C243.012 357.156 243.012 358.25 243.558 359.016L243.886 359.344L252.413 351.359L249.024 348.187L245.854 351.14Z" fill="#131316"/>
<path d="M252.523 351.469L243.886 359.454L243.231 358.798L251.757 350.703L252.523 351.469Z" fill="#131316"/>
<path d="M217.213 351.906L216.12 355.735L212.184 354.641L213.387 350.922L217.213 351.906Z" fill="#EC8276"/>
<path d="M222.46 314.494L211.528 351.468L218.415 353.218L224.537 334.622L232.08 322.48C232.517 321.933 232.845 321.386 233.173 320.729C233.829 319.635 234.048 318.432 234.048 317.229V314.822L222.46 314.494Z" fill="#131316"/>
<path d="M212.403 354.312L208.905 355.624L206.719 355.734C205.735 355.734 204.86 356.499 204.642 357.374L204.532 357.812L216.12 359.672L216.557 354.968L212.403 354.312Z" fill="#131316"/>
<path d="M216.229 359.782L204.532 357.813L204.751 356.828L216.338 358.688L216.229 359.782Z" fill="#131316"/>
<path d="M207.265 276.865L202.783 283.757L204.86 285.288L209.452 277.959L207.265 276.865Z" fill="#1F9B9C"/>
<path d="M201.471 265.379C201.471 265.379 203.548 273.911 213.824 277.302C214.152 277.412 214.371 277.631 214.371 277.959C214.48 278.943 214.48 281.131 212.184 281.678C211.966 281.787 211.747 281.678 211.529 281.569C209.998 280.584 202.127 275.99 194.584 277.302L201.471 265.379Z" fill="#1F9B9C"/>
<path d="M201.472 265.379C201.472 265.379 199.613 273.911 194.694 277.412C194.694 277.412 195.35 269.973 201.472 265.379Z" fill="#1F9B9C"/>
<path d="M201.362 283.318C201.034 284.85 202.346 286.819 203.877 287.147C205.407 287.475 206.937 286.49 207.265 284.85C207.593 283.318 206.282 281.349 204.751 281.021C203.221 280.693 201.69 281.677 201.362 283.318Z" fill="#EC8276"/>
<path d="M209.67 287.912L206.609 284.739L204.642 287.146L209.67 290.865" fill="#EC8276"/>
<path d="M209.124 284.957L205.844 289.77L214.699 297.865C215.246 297.974 215.792 298.084 216.339 297.974L228.036 296.443C229.894 296.334 231.315 294.802 231.206 292.942C231.097 291.083 231.425 288.457 229.675 288.567L216.12 291.411L209.124 284.957Z" fill="#14AFB6"/>
<path d="M235.469 296.007C235.797 293.491 234.594 290.866 232.408 289.553C231.424 288.897 230.44 288.459 229.784 288.678C227.489 289.116 225.084 290.1 223.991 293.272C222.242 298.632 221.695 314.494 221.695 314.494L234.266 314.931L235.469 296.007Z" fill="#14AFB6"/>
<path d="M230.768 296.444L234.594 310.227L235.36 298.523L230.768 296.444Z" fill="#14AFB6"/>
<path d="M246.182 323.792C247.385 322.698 247.494 320.401 246.401 319.198C245.308 317.995 243.449 317.885 242.247 318.979C241.044 320.073 240.935 322.37 242.028 323.573C243.121 324.777 244.98 324.886 246.182 323.792Z" fill="#EC8276"/>
<path d="M240.498 313.948L242.793 319.527L245.854 318.762L243.886 312.745" fill="#EC8276"/>
<path d="M240.607 318.214L246.838 316.792L242.575 302.243C242.465 301.696 242.137 301.149 241.809 300.712L233.939 290.976C232.845 289.445 231.096 289.773 229.566 290.757C228.036 291.851 227.708 293.93 228.691 295.461L236.234 304.54L240.607 318.214Z" fill="#14AFB6"/>
<path d="M226.833 286.71L227.052 288.898C227.161 289.664 227.708 290.32 228.473 290.648C229.894 291.086 231.315 289.882 231.096 288.46L230.55 285.069L226.833 286.71Z" fill="#EC8276"/>
<path d="M227.052 288.679C227.052 288.679 230.878 288.569 231.206 285.178C231.534 281.787 227.38 283.866 227.38 283.866L226.942 287.147L227.052 288.679Z" fill="#E16B5F"/>
<path d="M223.772 277.523C221.695 280.039 222.023 283.867 224.647 285.946C227.161 288.024 230.987 287.696 233.064 285.071C235.141 282.555 234.813 278.726 232.189 276.648C229.675 274.679 225.849 275.007 223.772 277.523Z" fill="#EC8276"/>
<path d="M230.222 282.992C230.222 282.992 228.145 287.367 231.534 288.352C234.922 289.336 235.25 280.038 235.25 280.038L231.206 273.256L222.46 273.146L221.914 278.725C221.914 278.725 223.007 279.71 230.44 280.366L230.222 282.992Z" fill="#131316"/>
<path d="M227.817 278.506L229.566 283.21L232.517 281.241L227.817 278.506Z" fill="#131316"/>
<path d="M229.675 281.678C229.129 282.444 229.238 283.429 229.894 284.085C230.659 284.632 231.643 284.523 232.299 283.866C232.845 283.1 232.736 282.116 232.08 281.46C231.315 280.913 230.222 281.022 229.675 281.678Z" fill="#EC8276"/>
<path d="M222.242 279.272C222.242 279.272 221.914 274.349 225.521 272.161C228.473 270.302 232.517 271.286 234.048 274.349C234.813 275.771 235.25 277.85 234.704 280.584L222.242 279.272Z" fill="#F5D200"/>
<path d="M226.068 279.819H225.74L226.068 276.866C226.177 276.209 225.74 275.662 225.084 275.553C224.428 275.444 223.772 275.881 223.663 276.538L223.116 279.382L222.788 279.272L223.335 276.428C223.444 275.662 224.319 275.115 225.084 275.225C225.849 275.334 226.505 276.1 226.396 276.866L226.068 279.819Z" fill="#1F9B9C"/>
<path d="M234.813 281.241L221.039 279.709C220.711 279.709 220.493 279.381 220.493 279.053C220.493 278.725 220.821 278.506 221.149 278.506L234.813 280.037C235.141 280.037 235.36 280.365 235.36 280.694C235.36 281.022 235.141 281.241 234.813 281.241Z" fill="#1F9B9C"/>
<path d="M317.275 314.988L303.106 328.962L305.101 330.987L319.27 317.014L317.275 314.988Z" fill="#1F9B9C"/>
<path d="M317.296 300.105L303.126 314.079L305.121 316.105L319.291 302.131L317.296 300.105Z" fill="#1F9B9C"/>
<path d="M317.239 285.141L303.07 299.115L305.065 301.141L319.234 287.167L317.239 285.141Z" fill="#1F9B9C"/>
<path d="M317.26 270.258L303.09 284.232L305.085 286.258L319.255 272.284L317.26 270.258Z" fill="#1F9B9C"/>
<path d="M317.28 255.374L303.11 269.348L305.105 271.373L319.275 257.399L317.28 255.374Z" fill="#1F9B9C"/>
<path d="M317.223 240.413L303.054 254.387L305.049 256.412L319.218 242.438L317.223 240.413Z" fill="#1F9B9C"/>
<path d="M317.243 225.528L303.074 239.502L305.069 241.528L319.238 227.554L317.243 225.528Z" fill="#1F9B9C"/>
<path d="M317.264 210.645L303.094 224.619L305.089 226.645L319.259 212.671L317.264 210.645Z" fill="#1F9B9C"/>
<path d="M317.284 195.758L303.114 209.732L305.109 211.758L319.279 197.784L317.284 195.758Z" fill="#1F9B9C"/>
<path d="M317.228 180.796L303.058 194.771L305.053 196.796L319.223 182.822L317.228 180.796Z" fill="#1F9B9C"/>
<path d="M317.248 165.912L303.078 179.886L305.073 181.911L319.243 167.937L317.248 165.912Z" fill="#1F9B9C"/>
<path d="M318.222 313.621H304.12V316.465H318.222V313.621Z" fill="#1F9B9C"/>
<path d="M318.222 298.744H304.12V301.588H318.222V298.744Z" fill="#1F9B9C"/>
<path d="M318.222 283.868H304.12V286.712H318.222V283.868Z" fill="#1F9B9C"/>
<path d="M318.222 268.88H304.12V271.724H318.222V268.88Z" fill="#1F9B9C"/>
<path d="M318.222 254.004H304.12V256.848H318.222V254.004Z" fill="#1F9B9C"/>
<path d="M318.222 239.127H304.12V241.971H318.222V239.127Z" fill="#1F9B9C"/>
<path d="M318.222 224.251H304.12V227.095H318.222V224.251Z" fill="#1F9B9C"/>
<path d="M318.222 209.263H304.12V212.107H318.222V209.263Z" fill="#1F9B9C"/>
<path d="M318.222 194.387H304.12V197.231H318.222V194.387Z" fill="#1F9B9C"/>
<path d="M318.222 179.51H304.12V182.354H318.222V179.51Z" fill="#1F9B9C"/>
<path d="M305.541 169.336H302.699V333.967H305.541V169.336Z" fill="#1F9B9C"/>
<path d="M319.643 169.336H316.8V333.967H319.643V169.336Z" fill="#1F9B9C"/>
<path d="M324.999 330.029H296.796V359.346H324.999V330.029Z" fill="#131316"/>
<path d="M318.331 141.552H303.573C300.95 141.552 298.873 143.63 298.873 146.255V164.742C298.873 167.368 300.95 169.446 303.573 169.446H318.331C320.955 169.446 323.032 167.368 323.032 164.742V146.255C323.032 143.63 320.845 141.552 318.331 141.552ZM314.068 157.741C314.068 159.71 312.428 161.351 310.46 161.351H300.95V148.225H310.46C312.428 148.225 314.068 149.865 314.068 151.834V157.741Z" fill="#1F9B9C"/>
<path d="M211.931 170.549L209.657 171.332L220.973 204.222L223.246 203.439L211.931 170.549Z" fill="#1F9B9C"/>
<path d="M201.984 166.307L179.927 196.106L181.86 197.539L203.917 167.739L201.984 166.307Z" fill="#1F9B9C"/>
<path d="M209.561 181.587L232.299 211.45C234.813 214.732 234.157 219.435 230.877 221.951L201.143 244.704C197.864 247.22 193.163 246.564 190.649 243.282L167.911 213.419C165.397 210.137 166.052 205.433 169.332 202.917L199.175 180.165C202.346 177.758 207.046 178.305 209.561 181.587Z" fill="#F5D200"/>
<path d="M197.208 240.767C195.131 240.767 193.163 239.892 191.851 238.142L173.158 213.748C172.065 212.326 171.628 210.576 171.846 208.825C172.065 207.075 173.049 205.434 174.47 204.34L198.848 185.635C200.269 184.541 202.018 184.103 203.767 184.322C205.516 184.541 207.156 185.526 208.249 186.948L226.942 211.341C228.035 212.763 228.473 214.514 228.254 216.264C228.035 218.014 227.051 219.655 225.63 220.749L201.253 239.454C200.05 240.33 198.629 240.767 197.208 240.767ZM203.002 185.416C201.799 185.416 200.597 185.854 199.722 186.51L175.344 205.216C174.142 206.091 173.377 207.403 173.267 208.825C173.049 210.248 173.486 211.779 174.361 212.873L193.054 237.267C194.912 239.673 198.41 240.111 200.815 238.251L225.193 219.546C226.395 218.67 227.161 217.358 227.27 215.936C227.379 214.514 227.051 212.982 226.177 211.888L207.484 187.495C206.609 186.291 205.297 185.526 203.876 185.416C203.439 185.416 203.22 185.416 203.002 185.416Z" fill="#1F9B9C"/>
<path d="M202.018 223.592C201.471 227.968 194.693 227.093 195.349 222.717C195.896 218.232 202.674 219.107 202.018 223.592ZM204.86 198.87L202.236 217.466L196.552 216.701C197.426 210.465 198.082 204.34 198.957 198.104L204.86 198.87Z" fill="#131316"/>
<path d="M207.593 173.601C212.785 173.601 216.994 169.389 216.994 164.194C216.994 158.998 212.785 154.786 207.593 154.786C202.401 154.786 198.192 158.998 198.192 164.194C198.192 169.389 202.401 173.601 207.593 173.601Z" fill="#131316"/>
<path d="M214.261 164.193C214.261 167.912 211.31 170.866 207.593 170.866C203.876 170.866 200.925 167.912 200.925 164.193C200.925 160.474 203.876 157.521 207.593 157.521C211.31 157.521 214.261 160.474 214.261 164.193Z" fill="#131316"/>
<path d="M246.072 121.422H243.23V141.44H246.072V121.422Z" fill="#1F9B9C"/>
<path d="M228.144 121.422H225.302V141.44H228.144V121.422Z" fill="#1F9B9C"/>
<path d="M264.001 121.422H261.158V141.44H264.001V121.422Z" fill="#1F9B9C"/>
<path d="M283.896 121.422H281.054V141.44H283.896V121.422Z" fill="#1F9B9C"/>
<path d="M302.48 121.422H299.638V141.44H302.48V121.422Z" fill="#1F9B9C"/>
<path d="M321.72 121.422H318.878V141.44H321.72V121.422Z" fill="#1F9B9C"/>
<path d="M340.632 121.422H337.789V141.44H340.632V121.422Z" fill="#1F9B9C"/>
<path d="M243.674 120.444L224.771 140.498L226.838 142.45L245.742 122.395L243.674 120.444Z" fill="#1F9B9C"/>
<path d="M262.566 120.452L243.66 140.501L245.727 142.453L264.633 122.404L262.566 120.452Z" fill="#1F9B9C"/>
<path d="M281.49 120.46L262.592 140.518L264.66 142.469L283.558 122.412L281.49 120.46Z" fill="#1F9B9C"/>
<path d="M300.387 120.448L281.481 140.497L283.548 142.449L302.454 122.4L300.387 120.448Z" fill="#1F9B9C"/>
<path d="M319.322 120.435L300.419 140.489L302.486 142.441L321.39 122.387L319.322 120.435Z" fill="#1F9B9C"/>
<path d="M338.208 120.443L319.302 140.492L321.369 142.444L340.275 122.395L338.208 120.443Z" fill="#1F9B9C"/>
<path d="M361.73 142.973H207.593C207.046 142.973 206.5 142.645 206.281 142.207C206.062 141.66 206.062 141.113 206.5 140.676L222.46 120.657C222.788 120.329 223.116 120.11 223.553 120.11H341.069C341.397 120.11 341.834 120.22 342.053 120.548L362.823 140.566C363.26 141.004 363.37 141.551 363.151 142.098C362.932 142.645 362.386 142.973 361.73 142.973ZM210.544 140.019H358.122L340.413 122.845H224.209L210.544 140.019Z" fill="#1F9B9C"/>
<path d="M207.593 165.617C206.828 165.617 206.172 164.96 206.172 164.195V141.551C206.172 140.785 206.828 140.129 207.593 140.129C208.358 140.129 209.014 140.785 209.014 141.551V164.304C209.014 165.07 208.358 165.617 207.593 165.617Z" fill="#1F9B9C"/>
<path d="M126.043 356.609L136.865 328.715C137.412 327.402 139.27 327.402 139.817 328.715L150.639 356.609H126.043Z" fill="#F5D200"/>
<path d="M147.687 334.623H128.557V340.53H147.687V334.623Z" fill="#14AFB6"/>
<path d="M149.218 345.89H127.573V351.797H149.218V345.89Z" fill="#14AFB6"/>
<path d="M152.607 356.609H124.075V359.016H152.607V356.609Z" fill="#E8C408"/>
<path d="M282.803 356.609L293.625 328.715C294.172 327.402 296.03 327.402 296.577 328.715L307.399 356.609H282.803Z" fill="#F5D200"/>
<path d="M304.448 334.731H285.317V340.638H304.448V334.731Z" fill="#14AFB6"/>
<path d="M305.869 345.89H284.224V351.797H305.869V345.89Z" fill="#14AFB6"/>
<path d="M309.367 356.609H280.835V359.016H309.367V356.609Z" fill="#E8C408"/>
<path d="M89.6096 313.228C91.4327 300.978 82.9867 289.569 70.7449 287.744C58.5031 285.92 47.1013 294.372 45.2782 306.621C43.4551 318.871 51.9011 330.281 64.1429 332.105C76.3847 333.929 87.7865 325.478 89.6096 313.228Z" fill="#1F9B9C"/>
<path d="M67.4487 359.563C67.1208 359.563 66.7928 359.235 66.7928 358.907V301.915C66.7928 301.587 67.1208 301.259 67.4487 301.259C67.7767 301.259 68.1046 301.587 68.1046 301.915V358.907C68.1046 359.235 67.7767 359.563 67.4487 359.563Z" fill="#1A7875"/>
<path d="M67.4485 313.51C67.2299 313.51 67.1206 313.401 67.0113 313.291L58.2659 303.556C58.0473 303.337 58.0473 302.899 58.2659 302.681C58.4845 302.462 58.9218 302.462 59.1404 302.681L67.8858 312.416C68.1044 312.635 68.1044 313.073 67.8858 313.291C67.7765 313.401 67.5579 313.51 67.4485 313.51Z" fill="#1A7875"/>
<path d="M67.4485 320.949C67.3392 320.949 67.1206 320.84 67.0113 320.731C66.7926 320.512 66.7926 320.074 67.0113 319.856C67.3392 319.527 74.1169 312.417 74.7728 311.87C74.9914 311.651 75.4287 311.651 75.6473 311.87C75.8659 312.089 75.8659 312.526 75.6473 312.745C74.9914 313.402 67.9951 320.731 67.8858 320.731C67.7765 320.949 67.6672 320.949 67.4485 320.949Z" fill="#1A7875"/>
<path d="M375.941 360.112H-0.000103474C-0.328055 360.112 -0.656006 359.784 -0.656006 359.456C-0.656006 359.128 -0.328055 358.8 -0.000103474 358.8H375.941C376.269 358.8 376.597 359.128 376.597 359.456C376.597 359.784 376.269 360.112 375.941 360.112Z" fill="#1F9B9C"/>
</g>
<g clip-path="url(#clip1)">
<path d="M188.933 6.87409C188.933 6.72128 188.933 6.64487 188.933 6.56846C188.933 6.41564 188.933 6.33923 188.933 6.18642C188.857 5.42233 188.627 4.73465 188.245 4.12338C183.814 -3.89954 160.432 0.379347 135.982 13.7509C111.607 27.1988 95.3322 44.62 99.7639 52.7194C102.362 57.3803 111.302 57.9152 123.145 54.8588C127.271 45.9954 133.842 38.5837 142.171 33.5408C150.346 28.8034 160.05 27.6573 169.067 24.6773C175.409 22.5379 183.279 18.7939 186.87 13.5217C188.169 11.535 188.857 9.24277 188.933 6.87409Z" fill="url(#paint0_linear)"/>
<path d="M188.933 6.94824C188.857 9.24051 188.169 11.5328 186.946 13.5194C183.355 18.868 175.485 22.5356 169.143 24.6751C160.127 27.655 150.346 28.8012 142.247 33.5385C136.287 37.1297 131.244 41.9435 127.347 47.6741C125.819 50.1192 124.444 52.5643 123.221 54.8566C117.567 65.8594 116.039 74.8757 120.089 78.3905C126.965 84.5032 147.519 72.507 166.01 51.571C181.368 34.1498 190.385 15.9645 188.933 6.94824Z" fill="url(#paint1_linear)"/>
<path d="M152.716 57.1546V40.8796C152.716 40.3447 153.021 40.0391 153.556 40.0391H163.413C163.795 40.0391 164.101 40.3447 164.101 40.7267C164.101 41.1088 163.795 41.4144 163.413 41.4144H154.244V47.9856H163.184C163.566 47.9856 163.871 48.2912 163.871 48.6733C163.871 49.0553 163.566 49.3609 163.184 49.3609H154.167V57.1546C154.167 57.5367 153.862 57.9187 153.403 57.9187C152.945 57.9187 152.716 57.6131 152.716 57.1546Z" fill="#393E46"/>
<path d="M169.144 57.1529V40.725C169.144 40.2666 169.526 39.9609 169.908 39.9609C170.29 39.9609 170.672 40.343 170.672 40.725V57.1529C170.672 57.535 170.366 57.917 169.908 57.917C169.449 57.917 169.144 57.6114 169.144 57.1529Z" fill="#393E46"/>
<path d="M189.087 56.6962C189.163 56.7726 189.239 56.9254 189.239 57.1546C189.239 57.5367 188.934 57.9187 188.552 57.9187C188.322 57.9187 188.017 57.8423 187.864 57.6131L182.897 50.5071H178.695V57.231C178.695 57.6131 178.389 57.9951 177.931 57.9951C177.472 57.9951 177.167 57.6131 177.167 57.231V40.8796C177.167 40.3447 177.472 40.0391 178.007 40.0391H183.814C186.871 40.0391 189.239 42.0257 189.239 45.2349C189.239 48.3676 187.1 50.125 184.578 50.3543L189.087 56.6962ZM178.695 49.1317H183.738C186.107 49.1317 187.711 47.5271 187.711 45.3113C187.711 43.0954 186.107 41.4908 183.738 41.4908H178.695V49.1317Z" fill="#393E46"/>
<path d="M195.047 57.0782V40.8796C195.047 40.3447 195.352 40.0391 195.887 40.0391H205.744C206.126 40.0391 206.431 40.3447 206.431 40.7267C206.431 41.1088 206.126 41.4144 205.744 41.4144H196.575V47.9856H205.591C205.973 47.9856 206.279 48.2912 206.279 48.6733C206.279 49.0553 205.973 49.3609 205.591 49.3609H196.575V56.3906H205.744C206.126 56.3906 206.431 56.6962 206.431 57.0782C206.431 57.4603 206.126 57.7659 205.744 57.7659H195.887C195.352 57.8423 195.047 57.5367 195.047 57.0782Z" fill="#393E46"/>
<path d="M212.162 57.1546V40.8796C212.162 40.3447 212.468 40.0391 213.002 40.0391H222.859C223.241 40.0391 223.547 40.3447 223.547 40.7267C223.547 41.1088 223.241 41.4144 222.859 41.4144H213.69V47.9856H222.706C223.088 47.9856 223.394 48.2912 223.394 48.6733C223.394 49.0553 223.088 49.3609 222.706 49.3609H213.614V57.1546C213.614 57.5367 213.308 57.9187 212.85 57.9187C212.391 57.9187 212.162 57.6131 212.162 57.1546Z" fill="#393E46"/>
<path d="M228.59 57.0765V40.725C228.59 40.2666 228.972 39.9609 229.354 39.9609C229.736 39.9609 230.118 40.343 230.118 40.725V56.4652H238.141C238.523 56.4652 238.829 56.7709 238.829 57.1529C238.829 57.535 238.523 57.8406 238.141 57.8406H229.43C228.895 57.8406 228.59 57.5349 228.59 57.0765Z" fill="#393E46"/>
<path d="M244.1 57.1529V40.725C244.1 40.2666 244.483 39.9609 244.865 39.9609C245.247 39.9609 245.629 40.343 245.629 40.725V57.1529C245.629 57.535 245.323 57.917 244.865 57.917C244.406 57.917 244.1 57.6114 244.1 57.1529Z" fill="#393E46"/>
<path d="M252.047 57.0782V40.8796C252.047 40.3447 252.353 40.0391 252.887 40.0391H262.744C263.126 40.0391 263.432 40.3447 263.432 40.7267C263.432 41.1088 263.126 41.4144 262.744 41.4144H253.575V47.9856H262.591C262.973 47.9856 263.279 48.2912 263.279 48.6733C263.279 49.0553 262.973 49.3609 262.591 49.3609H253.575V56.3906H262.744C263.126 56.3906 263.432 56.6962 263.432 57.0782C263.432 57.4603 263.126 57.7659 262.744 57.7659H252.887C252.353 57.8423 252.047 57.5367 252.047 57.0782Z" fill="#393E46"/>
<path d="M268.399 55.2444C268.399 54.7859 268.781 54.4803 269.163 54.4803C269.392 54.4803 269.545 54.5567 269.698 54.7095C270.844 55.8556 272.601 56.849 274.74 56.849C278.408 56.849 279.478 54.7859 279.478 53.2577C279.478 50.7363 277.109 50.0486 274.588 49.3609C271.761 48.5968 268.781 47.7563 268.781 44.4707C268.781 41.5672 271.379 39.7334 274.74 39.7334C277.109 39.7334 278.867 40.4975 280.242 41.7964C280.395 41.8728 280.548 42.1021 280.548 42.3313C280.548 42.7133 280.166 43.0954 279.783 43.0954C279.554 43.0954 279.401 43.019 279.325 42.8662C278.102 41.5672 276.421 41.1088 274.664 41.1088C272.219 41.1088 270.385 42.4841 270.385 44.3943C270.385 46.5338 272.601 47.145 275.046 47.7563C277.95 48.5968 281.082 49.5137 281.082 53.1049C281.082 55.3972 279.554 58.1479 274.74 58.1479C272.143 58.1479 270.08 57.1546 268.704 55.7792C268.475 55.7028 268.399 55.55 268.399 55.2444Z" fill="#393E46"/>
<path d="M176.173 69.6072V65.0991H174.721C174.645 65.0991 174.492 65.0227 174.492 64.8699C174.492 64.717 174.569 64.6406 174.721 64.6406H178.16C178.236 64.6406 178.389 64.717 178.389 64.8699C178.389 65.0227 178.313 65.0991 178.16 65.0991H176.632V69.6072C176.632 69.76 176.555 69.8364 176.402 69.8364C176.326 69.8364 176.173 69.76 176.173 69.6072Z" fill="#393E46"/>
<path d="M183.05 69.4542C183.05 69.4542 183.126 69.5306 183.126 69.607C183.126 69.6834 183.05 69.8362 182.897 69.8362C182.821 69.8362 182.744 69.8362 182.668 69.7598L181.216 67.6967H179.994V69.607C179.994 69.7598 179.917 69.8362 179.764 69.8362C179.612 69.8362 179.535 69.7598 179.535 69.607V64.946C179.535 64.7932 179.612 64.7168 179.764 64.7168H181.445C182.362 64.7168 182.974 65.2517 182.974 66.1686C182.974 67.0855 182.362 67.5439 181.598 67.6203L183.05 69.4542ZM180.07 67.3147H181.522C182.209 67.3147 182.668 66.8562 182.668 66.245C182.668 65.6337 182.209 65.1753 181.522 65.1753H180.07V67.3147Z" fill="#393E46"/>
<path d="M188.704 69.607C188.704 69.7598 188.627 69.8362 188.475 69.8362C188.398 69.8362 188.322 69.7598 188.245 69.6834L187.787 68.5372H185.036L184.578 69.6834C184.578 69.7598 184.425 69.8362 184.349 69.8362C184.196 69.8362 184.119 69.7598 184.119 69.607V69.5306L186.03 64.946C186.106 64.7932 186.259 64.7168 186.412 64.7168C186.564 64.7168 186.717 64.7932 186.794 64.946L188.704 69.607C188.704 69.5306 188.704 69.607 188.704 69.607ZM187.634 68.1552L186.412 65.1753L185.189 68.1552H187.634Z" fill="#393E46"/>
<path d="M190.996 69.607L189.086 65.0224V64.946C189.086 64.7932 189.162 64.7168 189.315 64.7168C189.392 64.7168 189.468 64.7932 189.545 64.8696L191.302 69.3777L193.136 64.8696C193.136 64.7932 193.289 64.7168 193.365 64.7168C193.518 64.7168 193.594 64.7932 193.594 64.946C193.594 65.0224 193.594 65.0224 193.594 65.0224L191.684 69.607C191.608 69.7598 191.455 69.8362 191.302 69.8362C191.226 69.8362 191.073 69.7598 190.996 69.607Z" fill="#393E46"/>
<path d="M194.97 69.607V64.946C194.97 64.7932 195.046 64.7168 195.199 64.7168H198.026C198.103 64.7168 198.255 64.7932 198.255 64.946C198.255 65.0988 198.179 65.1753 198.026 65.1753H195.428V67.0855H198.026C198.103 67.0855 198.255 67.1619 198.255 67.3147C198.255 67.4675 198.179 67.5439 198.026 67.5439H195.428V69.5306H198.026C198.103 69.5306 198.255 69.607 198.255 69.7598C198.255 69.9126 198.179 69.989 198.026 69.989H195.199C195.046 69.8362 194.97 69.7598 194.97 69.607Z" fill="#393E46"/>
<path d="M199.707 69.607V64.946C199.707 64.7932 199.783 64.7168 199.936 64.7168C200.089 64.7168 200.165 64.7932 200.165 64.946V69.4542H202.458C202.534 69.4542 202.687 69.5306 202.687 69.6834C202.687 69.8362 202.611 69.9126 202.458 69.9126H199.936C199.783 69.8362 199.707 69.7598 199.707 69.607Z" fill="#393E46"/>
<path d="M206.354 69.607V64.946C206.354 64.7932 206.431 64.7168 206.584 64.7168H209.411C209.487 64.7168 209.64 64.7932 209.64 64.946C209.64 65.0988 209.564 65.1753 209.411 65.1753H206.813V67.0855H209.411C209.487 67.0855 209.64 67.1619 209.64 67.3147C209.64 67.4675 209.564 67.5439 209.411 67.5439H206.813V69.5306H209.411C209.487 69.5306 209.64 69.607 209.64 69.7598C209.64 69.9126 209.564 69.989 209.411 69.989H206.584C206.431 69.8362 206.354 69.7598 206.354 69.607Z" fill="#393E46"/>
<path d="M214.683 69.7598L211.55 65.4809V69.6834C211.55 69.8362 211.474 69.9126 211.321 69.9126C211.168 69.9126 211.092 69.8362 211.092 69.6834V65.0224C211.092 64.8696 211.245 64.7168 211.398 64.7168C211.474 64.7168 211.55 64.7932 211.627 64.8696L214.76 69.1485V64.946C214.76 64.7932 214.836 64.7168 214.989 64.7168C215.142 64.7168 215.218 64.7932 215.218 64.946V69.5306C215.218 69.6834 215.065 69.8362 214.912 69.8362C214.836 69.8362 214.76 69.7598 214.683 69.7598Z" fill="#393E46"/>
<path d="M216.899 69.607V64.946C216.899 64.7932 216.976 64.7168 217.129 64.7168C217.281 64.7168 217.358 64.7932 217.358 64.946V69.4542H219.65C219.726 69.4542 219.879 69.5306 219.879 69.6834C219.879 69.8362 219.803 69.9126 219.65 69.9126H217.129C216.976 69.8362 216.899 69.7598 216.899 69.607Z" fill="#393E46"/>
<path d="M221.178 69.607V64.946C221.178 64.7932 221.254 64.7168 221.407 64.7168C221.56 64.7168 221.636 64.7932 221.636 64.946V69.6834C221.636 69.8362 221.56 69.9126 221.407 69.9126C221.254 69.9126 221.178 69.7598 221.178 69.607Z" fill="#393E46"/>
<path d="M227.673 67.5439V68.9193C227.673 69.0721 227.673 69.1485 227.52 69.2249C227.061 69.6834 226.45 69.989 225.686 69.989C224.234 69.989 223.088 68.9193 223.088 67.3147C223.088 65.7101 224.234 64.7168 225.686 64.7168C226.45 64.7168 226.985 64.946 227.443 65.4045C227.52 65.4045 227.52 65.4809 227.52 65.5573C227.52 65.7101 227.443 65.7865 227.29 65.7865C227.214 65.7865 227.214 65.7865 227.138 65.7101C226.756 65.3281 226.221 65.0988 225.686 65.0988C224.463 65.0988 223.546 66.0157 223.546 67.3147C223.546 68.6136 224.463 69.5306 225.686 69.5306C226.374 69.5306 226.908 69.2249 227.214 68.9193V67.6967H225.457C225.38 67.6967 225.227 67.6203 225.227 67.4675C225.227 67.3911 225.304 67.2383 225.457 67.2383H227.443C227.596 67.3147 227.673 67.3911 227.673 67.5439Z" fill="#393E46"/>
<path d="M232.869 69.607V67.3911H229.659V69.607C229.659 69.7598 229.583 69.8362 229.43 69.8362C229.277 69.8362 229.201 69.7598 229.201 69.607V64.946C229.201 64.7932 229.277 64.7168 229.43 64.7168C229.583 64.7168 229.659 64.7932 229.659 64.946V67.0091H232.869V64.946C232.869 64.7932 232.945 64.7168 233.098 64.7168C233.251 64.7168 233.327 64.7932 233.327 64.946V69.6834C233.327 69.8362 233.251 69.9126 233.098 69.9126C232.945 69.9126 232.869 69.7598 232.869 69.607Z" fill="#393E46"/>
<path d="M236.307 69.6072V65.0991H234.855C234.779 65.0991 234.626 65.0227 234.626 64.8699C234.626 64.717 234.702 64.6406 234.855 64.6406H238.293C238.37 64.6406 238.523 64.717 238.523 64.8699C238.523 65.0227 238.446 65.0991 238.293 65.0991H236.765V69.6072C236.765 69.76 236.689 69.8364 236.536 69.8364C236.383 69.8364 236.307 69.76 236.307 69.6072Z" fill="#393E46"/>
<path d="M239.745 69.607V64.946C239.745 64.7932 239.822 64.7168 239.974 64.7168H242.802C242.878 64.7168 243.031 64.7932 243.031 64.946C243.031 65.0988 242.954 65.1753 242.802 65.1753H240.204V67.0855H242.802C242.878 67.0855 243.031 67.1619 243.031 67.3147C243.031 67.4675 242.954 67.5439 242.802 67.5439H240.204V69.5306H242.802C242.878 69.5306 243.031 69.607 243.031 69.7598C243.031 69.9126 242.954 69.989 242.802 69.989H239.974C239.822 69.8362 239.745 69.7598 239.745 69.607Z" fill="#393E46"/>
<path d="M248.074 69.7598L244.941 65.4809V69.6834C244.941 69.8362 244.864 69.9126 244.712 69.9126C244.559 69.9126 244.482 69.8362 244.482 69.6834V65.0224C244.482 64.8696 244.635 64.7168 244.788 64.7168C244.864 64.7168 244.941 64.7932 245.017 64.8696L248.15 69.1485V64.946C248.15 64.7932 248.226 64.7168 248.379 64.7168C248.532 64.7168 248.609 64.7932 248.609 64.946V69.5306C248.609 69.6834 248.456 69.8362 248.303 69.8362C248.226 69.8362 248.074 69.7598 248.074 69.7598Z" fill="#393E46"/>
<path d="M250.289 69.607V64.946C250.289 64.7932 250.366 64.7168 250.519 64.7168H253.346C253.422 64.7168 253.575 64.7932 253.575 64.946C253.575 65.0988 253.498 65.1753 253.346 65.1753H250.748V67.0855H253.346C253.422 67.0855 253.575 67.1619 253.575 67.3147C253.575 67.4675 253.498 67.5439 253.346 67.5439H250.748V69.5306H253.346C253.422 69.5306 253.575 69.607 253.575 69.7598C253.575 69.9126 253.498 69.989 253.346 69.989H250.519C250.366 69.8362 250.289 69.7598 250.289 69.607Z" fill="#393E46"/>
<path d="M255.027 69.607V64.946C255.027 64.7932 255.104 64.7168 255.256 64.7168H256.632C258.236 64.7168 259.23 65.8629 259.23 67.2383C259.23 68.6137 258.236 69.7598 256.632 69.7598H255.256C255.104 69.8362 255.027 69.7598 255.027 69.607ZM256.632 69.4542C258.007 69.4542 258.771 68.4608 258.771 67.3147C258.771 66.1686 258.007 65.1753 256.632 65.1753H255.409V69.4542H256.632Z" fill="#393E46"/>
</g>
<defs>
<linearGradient id="paint0_linear" x1="99.0309" y1="28.414" x2="188.92" y2="28.414" gradientUnits="userSpaceOnUse">
<stop stop-color="#03659C"/>
<stop offset="1" stop-color="#06B2B8"/>
</linearGradient>
<linearGradient id="paint1_linear" x1="119.213" y1="70.3526" x2="189.496" y2="17.77" gradientUnits="userSpaceOnUse">
<stop stop-color="#06B2B8"/>
<stop offset="0.2" stop-color="#06ABB5"/>
<stop offset="0.49" stop-color="#0596AE"/>
<stop offset="0.85" stop-color="#0476A2"/>
<stop offset="1" stop-color="#03659C"/>
</linearGradient>
<clipPath id="clip0">
<rect width="379.549" height="240" fill="white" transform="translate(0 120)"/>
</clipPath>
<clipPath id="clip1">
<rect width="182.082" height="80" fill="white" transform="translate(99)"/>
</clipPath>
</defs>
</svg>
