<svg width="60" height="60" viewBox="0 0 60 60" fill="none" xmlns="http://www.w3.org/2000/svg">
<path d="M44.7598 21.5899L48.5898 25.4099L49.9998 26.8299L51.4098 25.4099L55.2398 21.5899L53.8298 20.1699L49.9998 23.9999L46.1698 20.1699L44.7598 21.5899Z" fill="#00ADB5"/>
<path d="M51 25H49C49 17.67 49 14.33 46.25 12.74C43.23 11 36.8 11 24 11V9C50 9 51 9 51 25Z" fill="#00ADB5"/>
<path d="M14.98 38.74L11.16 34.91L9.74 33.5L8.33 34.91L4.5 38.74L5.91 40.16L9.74 36.33L13.57 40.16L14.98 38.74Z" fill="#00ADB5"/>
<path d="M35.7402 51.3301C9.50024 51.3301 8.74023 50.8801 8.74023 35.3301H10.7402C10.7402 49.3301 10.7402 49.3301 35.7402 49.3301V51.3301Z" fill="#00ADB5"/>
<path d="M50 32C52.1217 32 54.1566 32.8429 55.6569 34.3431C57.1571 35.8434 58 37.8783 58 40C58 44.25 54.28 52 50 57C45.72 52 42 44.2 42 40C42 37.8783 42.8429 35.8434 44.3431 34.3431C45.8434 32.8429 47.8783 32 50 32ZM50 30C47.3478 30 44.8043 31.0536 42.9289 32.9289C41.0536 34.8043 40 37.3478 40 40C40 45.52 45 55 50 60C55 55 60 45.52 60 40C60 37.3478 58.9464 34.8043 57.0711 32.9289C55.1957 31.0536 52.6522 30 50 30Z" fill="#393E46"/>
<path d="M50 44C52.2091 44 54 42.2091 54 40C54 37.7909 52.2091 36 50 36C47.7909 36 46 37.7909 46 40C46 42.2091 47.7909 44 50 44Z" fill="#393E46"/>
<path d="M10 2C12.1217 2 14.1566 2.84285 15.6569 4.34315C17.1571 5.84344 18 7.87827 18 10C18 14.25 14.28 22 10 27.05C5.72 22.05 2 14.25 2 10.05C2 7.92827 2.84285 5.89344 4.34315 4.39315C5.84344 2.89285 7.87827 2.05 10 2.05V2ZM10 0.05C7.35648 0.049967 4.82048 1.09667 2.94655 2.96123C1.07262 4.8258 0.0132176 7.35651 0 10C0 15.52 5 25 10 30C15 25 20 15.52 20 10C20 7.34784 18.9464 4.8043 17.0711 2.92893C15.1957 1.05357 12.6522 0 10 0V0.05Z" fill="#393E46"/>
<path d="M10 14C12.2091 14 14 12.2091 14 10C14 7.79086 12.2091 6 10 6C7.79086 6 6 7.79086 6 10C6 12.2091 7.79086 14 10 14Z" fill="#393E46"/>
</svg>
