<svg width="32" height="32" viewBox="0 0 32 32" fill="none" xmlns="http://www.w3.org/2000/svg">
<g clip-path="url(#clip0)">
<path d="M26 14C24.4087 14 22.8826 14.6321 21.7574 15.7574C20.6321 16.8826 20 18.4087 20 20C20 23.31 23 29 26 32C29 29 32 23.31 32 20C32 18.4087 31.3679 16.8826 30.2426 15.7574C29.1174 14.6321 27.5913 14 26 14ZM26 23C25.4067 23 24.8266 22.8241 24.3333 22.4944C23.8399 22.1648 23.4554 21.6962 23.2284 21.1481C23.0013 20.5999 22.9419 19.9967 23.0576 19.4147C23.1734 18.8328 23.4591 18.2982 23.8787 17.8787C24.2982 17.4591 24.8328 17.1734 25.4147 17.0576C25.9967 16.9419 26.5999 17.0013 27.1481 17.2284C27.6962 17.4554 28.1648 17.8399 28.4944 18.3333C28.8241 18.8266 29 19.4067 29 20C29 20.7956 28.6839 21.5587 28.1213 22.1213C27.5587 22.6839 26.7956 23 26 23Z" fill="#393E46"/>
<path d="M6 0C4.4087 0 2.88258 0.632141 1.75736 1.75736C0.632141 2.88258 0 4.4087 0 6C0 9.31 3 15 6 18C9 15 12 9.31 12 6C12 4.4087 11.3679 2.88258 10.2426 1.75736C9.11742 0.632141 7.5913 0 6 0V0ZM6 9C5.40666 9 4.82664 8.82405 4.33329 8.49441C3.83994 8.16476 3.45542 7.69623 3.22836 7.14805C3.0013 6.59987 2.94189 5.99667 3.05764 5.41473C3.1734 4.83279 3.45912 4.29824 3.87868 3.87868C4.29824 3.45912 4.83279 3.1734 5.41473 3.05764C5.99667 2.94189 6.59987 3.0013 7.14805 3.22836C7.69623 3.45542 8.16476 3.83994 8.49441 4.33329C8.82405 4.82664 9 5.40666 9 6C9 6.79565 8.68393 7.55871 8.12132 8.12132C7.55871 8.68393 6.79565 9 6 9Z" fill="#393E46"/>
<path d="M21.7598 8.58992L24.5898 11.4099L25.9998 12.8299L27.4098 11.4099L30.2398 8.58992L28.8298 7.16992L25.9998 9.99992L23.1698 7.16992L21.7598 8.58992Z" fill="#00ADB5"/>
<path d="M27 10H25C25 6.53 24.95 5.3 24 4.74C22.73 4 19.63 4 14 4V2C26 2 27 2 27 10Z" fill="#00ADB5"/>
<path d="M10.2398 23.4099L7.40977 20.5899L5.99977 19.1699L4.58977 20.5899L1.75977 23.4099L3.16977 24.8299L5.99977 21.9999L8.82977 24.8299L10.2398 23.4099Z" fill="#00ADB5"/>
<path d="M18 30C6 30 5 30 5 22H7C7 25.47 7 26.7 8 27.26C9.27 28 12.37 28 18 28V30Z" fill="#00ADB5"/>
<rect y="8" width="32" height="16" rx="2" fill="#FFC100"/>
<path d="M9.46517 13.936C9.46517 14.592 9.84517 15.048 10.6612 15.048C11.4692 15.048 11.8492 14.596 11.8492 13.932V12.592C11.8492 12.432 11.7212 12.304 11.5612 12.304C11.4012 12.304 11.2732 12.432 11.2732 12.592V13.916C11.2732 14.288 11.0692 14.544 10.6612 14.544C10.2452 14.544 10.0412 14.288 10.0412 13.916V12.592C10.0412 12.432 9.91317 12.304 9.75317 12.304C9.59317 12.304 9.46517 12.432 9.46517 12.592V13.936ZM14.4153 15.028C14.6073 15.028 14.7633 14.872 14.7633 14.68V12.588C14.7633 12.432 14.6353 12.304 14.4793 12.304C14.3193 12.304 14.1953 12.432 14.1953 12.588V14.06L13.0513 12.46C12.9833 12.364 12.8713 12.304 12.7473 12.304C12.5393 12.304 12.3753 12.472 12.3753 12.676V14.744C12.3753 14.896 12.5033 15.028 12.6633 15.028C12.8193 15.028 12.9433 14.896 12.9433 14.744V13.208L14.1313 14.88C14.1953 14.972 14.2993 15.028 14.4153 15.028ZM15.5894 15H16.3414C17.1774 15 17.7574 14.472 17.7574 13.668C17.7574 12.864 17.1774 12.332 16.3414 12.332H15.5894C15.3974 12.332 15.2894 12.44 15.2894 12.632V14.696C15.2894 14.892 15.3974 15 15.5894 15ZM15.8574 14.5V12.832H16.3414C16.8894 12.832 17.1774 13.196 17.1774 13.668C17.1774 14.12 16.8694 14.5 16.3414 14.5H15.8574ZM18.4605 15H19.8285C19.9645 15 20.0765 14.888 20.0765 14.752C20.0765 14.62 19.9645 14.508 19.8285 14.508H18.7285V13.888H19.8005C19.9365 13.888 20.0485 13.78 20.0485 13.644C20.0485 13.508 19.9365 13.4 19.8005 13.4H18.7285V12.82H19.8285C19.9645 12.82 20.0765 12.712 20.0765 12.58C20.0765 12.44 19.9645 12.332 19.8285 12.332H18.4605C18.2685 12.332 18.1605 12.44 18.1605 12.632V14.696C18.1605 14.892 18.2685 15 18.4605 15ZM22.1285 13.964C22.3925 13.868 22.6365 13.62 22.6365 13.192C22.6365 12.696 22.2965 12.332 21.7405 12.332H20.7925C20.6005 12.332 20.4925 12.44 20.4925 12.632V14.744C20.4925 14.896 20.6205 15.028 20.7805 15.028C20.9365 15.028 21.0605 14.896 21.0605 14.744V14.044H21.5285L22.1285 14.908C22.1765 14.976 22.2645 15.028 22.3645 15.028C22.5165 15.028 22.6365 14.896 22.6365 14.76C22.6365 14.68 22.6165 14.628 22.5805 14.58L22.1285 13.964ZM21.0605 12.82H21.6565C21.8845 12.82 22.0565 12.964 22.0565 13.188C22.0565 13.412 21.8845 13.556 21.6565 13.556H21.0605V12.82ZM2.0653 19.048C2.5053 19.048 2.8053 18.88 3.0173 18.648C3.0613 18.604 3.0853 18.54 3.0853 18.472C3.0853 18.324 2.9653 18.204 2.8173 18.204C2.7373 18.204 2.6653 18.24 2.6173 18.292C2.4813 18.448 2.2893 18.544 2.0653 18.544C1.6013 18.544 1.2493 18.172 1.2493 17.668C1.2493 17.164 1.6013 16.792 2.0653 16.792C2.2893 16.792 2.4813 16.892 2.6133 17.04C2.6653 17.1 2.7373 17.132 2.8173 17.132C2.9653 17.132 3.0853 17.012 3.0853 16.864C3.0853 16.796 3.0613 16.728 3.0173 16.684C2.8053 16.452 2.5053 16.288 2.0653 16.288C1.2853 16.288 0.665297 16.848 0.665297 17.668C0.665297 18.488 1.2853 19.048 2.0653 19.048ZM3.37233 17.668C3.37233 18.472 3.96033 19.048 4.76433 19.048C5.57233 19.048 6.16033 18.472 6.16033 17.668C6.16033 16.864 5.57233 16.288 4.76433 16.288C3.96033 16.288 3.37233 16.864 3.37233 17.668ZM5.57633 17.668C5.57633 18.164 5.25633 18.544 4.76433 18.544C4.27233 18.544 3.95633 18.164 3.95633 17.668C3.95633 17.168 4.27233 16.792 4.76433 16.792C5.25633 16.792 5.57633 17.168 5.57633 17.668ZM8.59892 19.028C8.79092 19.028 8.94692 18.872 8.94692 18.68V16.588C8.94692 16.432 8.81892 16.304 8.66292 16.304C8.50292 16.304 8.37892 16.432 8.37892 16.588V18.06L7.23492 16.46C7.16692 16.364 7.05492 16.304 6.93092 16.304C6.72292 16.304 6.55892 16.472 6.55892 16.676V18.744C6.55892 18.896 6.68692 19.028 6.84692 19.028C7.00292 19.028 7.12692 18.896 7.12692 18.744V17.208L8.31492 18.88C8.37892 18.972 8.48292 19.028 8.59892 19.028ZM9.48098 18.78C9.72098 18.948 10.029 19.048 10.421 19.048C11.141 19.048 11.489 18.68 11.489 18.192C11.489 17.6 10.929 17.468 10.489 17.368C10.181 17.296 9.95698 17.24 9.95698 17.06C9.95698 16.9 10.093 16.788 10.389 16.788C10.577 16.788 10.789 16.844 10.993 16.96C11.029 16.984 11.077 17 11.129 17C11.269 17 11.389 16.88 11.389 16.736C11.389 16.64 11.333 16.552 11.257 16.512C11.001 16.364 10.733 16.292 10.429 16.292C9.76098 16.292 9.37698 16.652 9.37698 17.096C9.37698 17.692 9.93698 17.812 10.373 17.912C10.681 17.984 10.913 18.052 10.913 18.252C10.913 18.404 10.761 18.552 10.449 18.552C10.181 18.552 9.96098 18.468 9.77698 18.34C9.73298 18.308 9.68098 18.292 9.62498 18.292C9.48098 18.292 9.36098 18.412 9.36098 18.56C9.36098 18.652 9.40898 18.732 9.48098 18.78ZM12.7481 19.028C12.9041 19.028 13.0321 18.896 13.0321 18.744V16.832H13.5881C13.7241 16.832 13.8401 16.72 13.8401 16.584C13.8401 16.444 13.7241 16.332 13.5881 16.332H11.9041C11.7681 16.332 11.6521 16.444 11.6521 16.584C11.6521 16.72 11.7681 16.832 11.9041 16.832H12.4601V18.744C12.4601 18.896 12.5881 19.028 12.7481 19.028ZM15.8082 17.964C16.0722 17.868 16.3162 17.62 16.3162 17.192C16.3162 16.696 15.9762 16.332 15.4202 16.332H14.4722C14.2802 16.332 14.1722 16.44 14.1722 16.632V18.744C14.1722 18.896 14.3002 19.028 14.4602 19.028C14.6162 19.028 14.7402 18.896 14.7402 18.744V18.044H15.2082L15.8082 18.908C15.8562 18.976 15.9442 19.028 16.0442 19.028C16.1962 19.028 16.3162 18.896 16.3162 18.76C16.3162 18.68 16.2962 18.628 16.2602 18.58L15.8082 17.964ZM14.7402 16.82H15.3362C15.5642 16.82 15.7362 16.964 15.7362 17.188C15.7362 17.412 15.5642 17.556 15.3362 17.556H14.7402V16.82ZM16.7425 17.936C16.7425 18.592 17.1225 19.048 17.9385 19.048C18.7465 19.048 19.1265 18.596 19.1265 17.932V16.592C19.1265 16.432 18.9985 16.304 18.8385 16.304C18.6785 16.304 18.5505 16.432 18.5505 16.592V17.916C18.5505 18.288 18.3465 18.544 17.9385 18.544C17.5225 18.544 17.3185 18.288 17.3185 17.916V16.592C17.3185 16.432 17.1905 16.304 17.0305 16.304C16.8705 16.304 16.7425 16.432 16.7425 16.592V17.936ZM20.9247 19.048C21.3647 19.048 21.6647 18.88 21.8767 18.648C21.9207 18.604 21.9447 18.54 21.9447 18.472C21.9447 18.324 21.8247 18.204 21.6767 18.204C21.5967 18.204 21.5247 18.24 21.4767 18.292C21.3407 18.448 21.1487 18.544 20.9247 18.544C20.4607 18.544 20.1087 18.172 20.1087 17.668C20.1087 17.164 20.4607 16.792 20.9247 16.792C21.1487 16.792 21.3407 16.892 21.4727 17.04C21.5247 17.1 21.5967 17.132 21.6767 17.132C21.8247 17.132 21.9447 17.012 21.9447 16.864C21.9447 16.796 21.9207 16.728 21.8767 16.684C21.6647 16.452 21.3647 16.288 20.9247 16.288C20.1447 16.288 19.5247 16.848 19.5247 17.668C19.5247 18.488 20.1447 19.048 20.9247 19.048ZM23.2403 19.028C23.3963 19.028 23.5243 18.896 23.5243 18.744V16.832H24.0803C24.2163 16.832 24.3323 16.72 24.3323 16.584C24.3323 16.444 24.2163 16.332 24.0803 16.332H22.3963C22.2603 16.332 22.1443 16.444 22.1443 16.584C22.1443 16.72 22.2603 16.832 22.3963 16.832H22.9523V18.744C22.9523 18.896 23.0803 19.028 23.2403 19.028ZM24.9524 19.028C25.1084 19.028 25.2324 18.896 25.2324 18.744V16.588C25.2324 16.432 25.1084 16.304 24.9524 16.304C24.7924 16.304 24.6644 16.432 24.6644 16.588V18.744C24.6644 18.896 24.7924 19.028 24.9524 19.028ZM25.634 17.668C25.634 18.472 26.222 19.048 27.026 19.048C27.834 19.048 28.422 18.472 28.422 17.668C28.422 16.864 27.834 16.288 27.026 16.288C26.222 16.288 25.634 16.864 25.634 17.668ZM27.838 17.668C27.838 18.164 27.518 18.544 27.026 18.544C26.534 18.544 26.218 18.164 26.218 17.668C26.218 17.168 26.534 16.792 27.026 16.792C27.518 16.792 27.838 17.168 27.838 17.668ZM30.8606 19.028C31.0526 19.028 31.2086 18.872 31.2086 18.68V16.588C31.2086 16.432 31.0806 16.304 30.9246 16.304C30.7646 16.304 30.6406 16.432 30.6406 16.588V18.06L29.4966 16.46C29.4286 16.364 29.3166 16.304 29.1926 16.304C28.9846 16.304 28.8206 16.472 28.8206 16.676V18.744C28.8206 18.896 28.9486 19.028 29.1086 19.028C29.2646 19.028 29.3886 18.896 29.3886 18.744V17.208L30.5766 18.88C30.6406 18.972 30.7446 19.028 30.8606 19.028Z" fill="#393E46"/>
</g>
<defs>
<clipPath id="clip0">
<rect width="32" height="32" fill="white"/>
</clipPath>
</defs>
</svg>
