<svg width="60" height="60" viewBox="0 0 60 60" fill="none" xmlns="http://www.w3.org/2000/svg">
<g clip-path="url(#clip0)">
<path d="M3.5 24H6L7 17H3.5C2.57255 17.0026 1.68385 17.3722 1.02804 18.028C0.372235 18.6838 0.00263855 19.5726 0 20.5H0C0.0052502 21.4266 0.375685 22.3138 1.03093 22.9691C1.68617 23.6243 2.57336 23.9948 3.5 24Z" fill="white"/>
<path d="M56.5 24H54L53 17H56.5C57.4283 17 58.3185 17.3687 58.9749 18.0251C59.6312 18.6815 60 19.5717 60 20.5C59.9974 21.4274 59.6278 22.3162 58.972 22.972C58.3162 23.6278 57.4274 23.9974 56.5 24Z" fill="white"/>
<path d="M44.22 2.00001C45.0855 2.00001 45.9276 2.28072 46.62 2.80001C47.3124 3.3193 47.8177 4.04915 48.06 4.88001L53.63 26.25H6.37L11.93 4.90001C12.1692 4.06378 12.6744 3.3283 13.3691 2.80499C14.0639 2.28169 14.9102 1.99909 15.78 2.00001H44.22ZM44.22 1.07075e-05H15.78C14.4745 -0.00245486 13.2038 0.420945 12.1607 1.20598C11.1176 1.99101 10.359 3.09484 10 4.35001L3.75 28.25H56.25L50 4.35001C49.641 3.09484 48.8824 1.99101 47.8393 1.20598C46.7962 0.420945 45.5255 -0.00245486 44.22 1.07075e-05Z" fill="#00ADB5"/>
<path d="M54 28.25C55.0609 28.25 56.0783 28.6714 56.8284 29.4216C57.5786 30.1717 58 31.1891 58 32.25V44C58 45.0609 57.5786 46.0783 56.8284 46.8284C56.0783 47.5786 55.0609 48 54 48H6C4.93913 48 3.92172 47.5786 3.17157 46.8284C2.42143 46.0783 2 45.0609 2 44V32.25C2 31.1891 2.42143 30.1717 3.17157 29.4216C3.92172 28.6714 4.93913 28.25 6 28.25H54ZM54 26.25H6C4.4087 26.25 2.88258 26.8821 1.75736 28.0074C0.632141 29.1326 0 30.6587 0 32.25L0 44C0 45.5913 0.632141 47.1174 1.75736 48.2426C2.88258 49.3679 4.4087 50 6 50H54C55.5913 50 57.1174 49.3679 58.2426 48.2426C59.3679 47.1174 60 45.5913 60 44V32.25C60 30.6587 59.3679 29.1326 58.2426 28.0074C57.1174 26.8821 55.5913 26.25 54 26.25Z" fill="white"/>
<path d="M11 35C11.5933 35 12.1734 35.1759 12.6667 35.5056C13.1601 35.8352 13.5446 36.3038 13.7716 36.852C13.9987 37.4001 14.0581 38.0033 13.9424 38.5853C13.8266 39.1672 13.5409 39.7018 13.1213 40.1213C12.7018 40.5409 12.1672 40.8266 11.5853 40.9424C11.0033 41.0581 10.4001 40.9987 9.85195 40.7716C9.30377 40.5446 8.83524 40.1601 8.50559 39.6667C8.17595 39.1734 8 38.5933 8 38C8 37.2044 8.31607 36.4413 8.87868 35.8787C9.44129 35.3161 10.2044 35 11 35ZM11 33C9.67392 33 8.40215 33.5268 7.46447 34.4645C6.52678 35.4021 6 36.6739 6 38C6 39.3261 6.52678 40.5979 7.46447 41.5355C8.40215 42.4732 9.67392 43 11 43C12.3261 43 13.5979 42.4732 14.5355 41.5355C15.4732 40.5979 16 39.3261 16 38C16 36.6739 15.4732 35.4021 14.5355 34.4645C13.5979 33.5268 12.3261 33 11 33Z" fill="#00ADB5"/>
<path d="M49 35C49.5933 35 50.1734 35.1759 50.6667 35.5056C51.1601 35.8352 51.5446 36.3038 51.7716 36.852C51.9987 37.4001 52.0581 38.0033 51.9424 38.5853C51.8266 39.1672 51.5409 39.7018 51.1213 40.1213C50.7018 40.5409 50.1672 40.8266 49.5853 40.9424C49.0033 41.0581 48.4001 40.9987 47.852 40.7716C47.3038 40.5446 46.8352 40.1601 46.5056 39.6667C46.1759 39.1734 46 38.5933 46 38C46 37.2044 46.3161 36.4413 46.8787 35.8787C47.4413 35.3161 48.2044 35 49 35ZM49 33C47.6739 33 46.4021 33.5268 45.4645 34.4645C44.5268 35.4021 44 36.6739 44 38C44 39.3261 44.5268 40.5979 45.4645 41.5355C46.4021 42.4732 47.6739 43 49 43C50.3261 43 51.5979 42.4732 52.5355 41.5355C53.4732 40.5979 54 39.3261 54 38C54 36.6739 53.4732 35.4021 52.5355 34.4645C51.5979 33.5268 50.3261 33 49 33Z" fill="#00ADB5"/>
<path d="M40.31 35.5596H19.69C19.4407 35.5596 19.2016 35.6586 19.0253 35.8349C18.849 36.0112 18.75 36.2503 18.75 36.4996V36.6296C18.7526 36.8771 18.8528 37.1137 19.0288 37.2878C19.2048 37.4619 19.4424 37.5596 19.69 37.5596H40.31C40.5576 37.5596 40.7952 37.4619 40.9712 37.2878C41.1472 37.1137 41.2474 36.8771 41.25 36.6296V36.4996C41.25 36.2503 41.151 36.0112 40.9747 35.8349C40.7984 35.6586 40.5593 35.5596 40.31 35.5596Z" fill="white"/>
<path d="M40.31 39.5596H19.69C19.4407 39.5596 19.2016 39.6586 19.0253 39.8349C18.849 40.0112 18.75 40.2503 18.75 40.4996V40.6296C18.7526 40.8771 18.8528 41.1137 19.0288 41.2878C19.2048 41.4619 19.4424 41.5596 19.69 41.5596H40.31C40.5576 41.5596 40.7952 41.4619 40.9712 41.2878C41.1472 41.1137 41.2474 40.8771 41.25 40.6296V40.4996C41.25 40.2503 41.151 40.0112 40.9747 39.8349C40.7984 39.6586 40.5593 39.5596 40.31 39.5596Z" fill="white"/>
<path d="M43.1299 48.75H56.2499V56C56.2499 57.0609 55.8285 58.0783 55.0783 58.8284C54.3282 59.5786 53.3107 60 52.2499 60H47.1299C46.069 60 45.0516 59.5786 44.3015 58.8284C43.5513 58.0783 43.1299 57.0609 43.1299 56V48.75Z" fill="white"/>
<path d="M3.75 48.75H16.88V56C16.88 57.0609 16.4586 58.0783 15.7084 58.8284C14.9583 59.5786 13.9409 60 12.88 60H7.75C6.68913 60 5.67172 59.5786 4.92157 58.8284C4.17143 58.0783 3.75 57.0609 3.75 56V48.75Z" fill="white"/>
<path d="M44.5945 15.9838C45.0714 15.7787 45.2926 15.2279 45.0886 14.7535C44.8846 14.2791 44.3326 14.0608 43.8557 14.2659L36.1574 17.5765C35.6805 17.7816 35.4592 18.3325 35.6632 18.8068C35.8672 19.2812 36.4192 19.4995 36.8962 19.2944L44.5945 15.9838Z" fill="white"/>
<path d="M48.946 14.1146C49.423 13.9095 49.6442 13.3587 49.4402 12.8843C49.2362 12.4099 48.6842 12.1917 48.2073 12.3968L46.4894 13.1355C46.0125 13.3406 45.7912 13.8914 45.9952 14.3658C46.1992 14.8402 46.7512 15.0585 47.2282 14.8534L48.946 14.1146Z" fill="white"/>
<path d="M38.4099 21.7731C37.933 21.9782 37.7118 22.529 37.9158 23.0034C38.1198 23.4777 38.6718 23.696 39.1487 23.4909L46.847 20.1803C47.3239 19.9752 47.5452 19.4244 47.3412 18.95C47.1371 18.4756 46.5852 18.2573 46.1082 18.4624L38.4099 21.7731Z" fill="white"/>
<path d="M34.0442 23.6252C33.5672 23.8303 33.3469 24.3832 33.552 24.8601C33.7571 25.337 34.31 25.5574 34.7869 25.3523L36.5048 24.6135C36.9817 24.4084 37.202 23.8555 36.9969 23.3786C36.7918 22.9017 36.239 22.6813 35.762 22.8864L34.0442 23.6252Z" fill="white"/>
</g>
<defs>
<clipPath id="clip0">
<rect width="60" height="60" fill="white"/>
</clipPath>
</defs>
</svg>
